<svg width="377" height="198" viewBox="0 0 377 198" fill="none" xmlns="http://www.w3.org/2000/svg">
<path d="M220.744 173.583C223.025 177.391 224.261 180.436 224.453 182.718C224.701 184.92 223.704 186.219 221.463 186.615C220.173 186.843 218.915 186.854 217.688 186.65C216.53 186.433 215.305 185.842 214.015 184.877C212.725 183.912 211.356 182.504 209.91 180.654C208.452 178.736 206.852 176.211 205.111 173.08C203.357 173.459 201.671 173.827 200.053 174.183C198.491 174.459 196.828 174.753 195.062 175.064C192.481 175.52 189.719 175.938 186.775 176.317C183.899 176.685 181.005 176.95 178.092 177.113C177.825 179.968 177.735 182.44 177.823 184.53C177.979 186.608 178.013 188.392 177.925 189.881C177.893 191.29 177.569 192.435 176.954 193.316C176.407 194.184 175.302 194.871 173.641 195.375C173.053 195.619 172.448 195.761 171.825 195.8C171.214 195.908 170.523 195.96 169.752 195.956C168.537 195.819 167.253 195.485 165.899 194.952C164.545 194.419 163.454 193.594 162.627 192.477C161.576 190.487 160.963 187.998 160.787 185.011C160.667 181.945 160.963 178.454 161.674 174.538C160.48 174.117 159.317 173.481 158.187 172.627C157.112 171.694 156.241 170.725 155.574 169.72C154.827 168.659 154.33 167.624 154.082 166.615C153.766 165.618 153.832 164.799 154.28 164.159C154.344 163.726 154.681 163.456 155.292 163.348C155.904 163.24 156.641 163.25 157.503 163.379C158.434 163.495 159.439 163.634 160.517 163.794C161.596 163.955 162.635 164.087 163.633 164.191C164.384 160.901 165.313 157.228 166.419 153.172C167.582 149.037 168.96 144.934 170.554 140.862C172.148 136.791 173.965 132.996 176.006 129.478C178.104 125.879 180.49 122.931 183.167 120.634C182.568 118.423 182.32 116.818 182.424 115.817C182.583 114.736 183.312 113.906 184.611 113.325C185.494 113.17 186.564 113.086 187.823 113.074C189.137 112.983 190.441 113.033 191.735 113.225C193.03 113.418 194.252 113.799 195.403 114.368C196.609 114.856 197.546 115.603 198.213 116.608C199.247 118.11 199.915 119.712 200.214 121.413C200.582 123.103 200.989 124.821 201.437 126.566C201.872 128.244 202.533 130.408 203.42 133.059C204.375 135.698 205.44 138.562 206.614 141.654C207.856 144.733 209.157 147.942 210.515 151.281C211.929 154.541 213.28 157.636 214.566 160.567C215.852 163.498 217.017 166.135 218.059 168.477C219.158 170.74 220.053 172.441 220.744 173.583ZM179.71 164.827C181.308 164.755 183.036 164.625 184.893 164.438C186.751 164.25 188.602 164.029 190.448 163.773C192.225 163.529 193.799 163.321 195.17 163.15C196.596 162.898 197.948 162.624 199.226 162.328C197.349 158.028 195.515 153.579 193.725 148.982C192.003 144.374 190.364 140.031 188.806 135.955C187.028 139.778 185.67 143.001 184.731 145.623C183.78 148.177 183.031 150.485 182.484 152.546C181.937 154.608 181.48 156.584 181.112 158.473C180.733 160.295 180.265 162.413 179.71 164.827Z" fill="#15444E"/>
<path d="M324.421 150.223C324.993 151.877 324.915 153.821 324.188 156.054C323.529 158.276 322.438 160.434 320.916 162.527C319.382 164.553 317.569 166.382 315.476 168.015C313.438 169.568 311.333 170.536 309.16 170.92C306.308 171.423 303.727 171.282 301.418 170.497C299.165 169.631 297.433 168.148 296.223 166.045C295.3 164.384 294.743 162.412 294.551 160.129C294.415 157.767 294.359 155.461 294.383 153.211C294.475 150.949 294.529 148.869 294.545 146.972C294.549 145.006 294.331 143.57 293.892 142.665C292.905 142.629 291.904 142.911 290.89 143.511C289.188 144.584 288.02 146.299 287.384 148.657C286.749 151.015 286.434 153.597 286.438 156.404C286.51 159.198 286.791 161.991 287.283 164.782C287.762 167.504 288.266 169.766 288.793 171.568C289.109 172.565 288.923 173.3 288.236 173.772C287.629 174.3 286.306 174.744 284.269 175.104C283.794 175.188 282.999 175.048 281.884 174.683C280.849 174.374 279.709 173.663 278.463 172.55C277.915 172.226 277.362 171.867 276.803 171.474C276.232 171.014 275.71 170.439 275.239 169.75C274.524 170.859 273.701 171.952 272.77 173.029C271.895 174.025 270.941 174.966 269.906 175.85C268.939 176.723 267.875 177.437 266.712 177.993C265.63 178.606 264.545 179.008 263.459 179.2C260.606 179.703 257.986 179.534 255.597 178.693C253.276 177.839 251.464 176.299 250.162 174.073C249.227 172.343 248.624 170.309 248.352 167.971C248.137 165.553 248.001 163.191 247.945 160.884C247.957 158.566 247.965 156.424 247.969 154.459C247.973 152.493 247.715 151.029 247.196 150.068C246.776 150.072 246.301 150.156 245.77 150.32C245.226 150.416 244.701 150.614 244.194 150.914C242.356 152.011 241.166 153.8 240.622 156.282C240.067 158.696 239.832 161.334 239.915 164.197C240.067 167.048 240.463 169.89 241.102 172.725C241.741 175.56 242.364 177.906 242.972 179.764C243.299 180.829 243.153 181.592 242.534 182.052C241.927 182.58 240.605 183.024 238.568 183.384C238.228 183.444 237.775 183.454 237.207 183.414C236.708 183.361 236.123 183.219 235.452 182.987C234.781 182.754 234.052 182.392 233.265 181.899C232.545 181.394 231.796 180.72 231.017 179.875C230.41 179.21 229.819 178.437 229.244 177.556C228.657 176.607 228.125 175.578 227.65 174.469C226.052 170.961 224.78 167.115 223.833 162.931C222.818 158.759 222.197 154.833 221.969 151.154C221.741 147.475 221.927 144.354 222.526 141.792C223.045 139.173 224.052 137.732 225.546 137.469C226.361 137.325 227.296 137.265 228.35 137.289C229.461 137.234 230.521 137.292 231.532 137.464C232.531 137.569 233.446 137.793 234.277 138.138C235.107 138.482 235.685 138.977 236.008 139.622C236.124 139.882 236.174 140.364 236.158 141.069C236.13 141.706 236.086 142.45 236.026 143.303C235.966 144.156 235.912 145.043 235.865 145.963C235.885 146.872 235.966 147.735 236.11 148.552C237.261 145.541 238.885 142.833 240.982 140.428C243.147 138.01 245.486 136.58 247.998 136.136C249.968 135.788 251.953 135.929 253.954 136.558C255.956 137.187 257.516 138.491 258.634 140.469C259.533 141.995 260.096 144.001 260.324 146.487C260.54 148.905 260.672 151.444 260.72 154.102C260.836 156.748 261.001 159.281 261.217 161.699C261.433 164.117 261.95 166.061 262.769 167.531C263.313 168.628 264.229 169.063 265.52 168.835C265.927 168.763 266.434 168.463 267.042 167.934C267.637 167.338 268.202 166.572 268.737 165.635C269.273 164.698 269.682 163.643 269.966 162.47C270.317 161.285 270.379 160.046 270.151 158.753C269.804 155.586 269.45 152.385 269.091 149.15C268.799 145.903 268.669 142.978 268.701 140.376C268.789 137.694 269.062 135.47 269.522 133.704C270.049 131.927 270.924 130.93 272.146 130.714C272.961 130.57 273.924 130.471 275.034 130.415C276.145 130.359 277.206 130.417 278.216 130.59C279.283 130.682 280.232 130.901 281.063 131.245C281.893 131.59 282.465 132.05 282.776 132.627C282.892 132.887 282.942 133.37 282.926 134.074C282.898 134.711 282.86 135.49 282.812 136.41C282.752 137.263 282.704 138.184 282.669 139.173C282.689 140.082 282.77 140.945 282.914 141.761C283.501 140.324 284.23 138.897 285.101 137.48C286.04 136.051 287.037 134.752 288.091 133.583C289.146 132.415 290.27 131.444 291.465 130.672C292.715 129.819 293.951 129.285 295.174 129.069C297.143 128.722 299.095 128.868 301.028 129.51C303.029 130.139 304.549 131.414 305.588 133.336C306.339 134.818 306.789 136.774 306.936 139.204C307.14 141.554 307.226 144.031 307.194 146.633C307.218 149.155 307.298 151.597 307.434 153.96C307.57 156.322 308.007 158.21 308.746 159.623C309.046 160.132 309.396 160.526 309.795 160.807C310.182 161.019 310.75 161.059 311.497 160.927C312.719 160.711 314.103 159.625 315.649 157.667C317.183 155.642 318.695 152.498 320.185 148.234C320.161 148.098 320.319 148 320.658 147.94C321.282 147.9 321.947 148.099 322.654 148.535C323.429 148.96 324.018 149.522 324.421 150.223Z" fill="#15444E"/>
<path d="M373.458 140.512C374.13 141.938 374.142 143.795 373.494 146.085C372.903 148.295 371.899 150.543 370.481 152.828C369.118 155.034 367.437 157.015 365.435 158.772C363.502 160.517 361.55 161.564 359.581 161.911C356.933 162.379 354.602 162.264 352.588 161.567C350.575 160.87 348.813 159.216 347.303 156.605C346.536 159.407 345.208 161.607 343.319 163.204C341.497 164.789 339.614 165.823 337.668 166.307C334.341 166.894 331.163 166.543 328.135 165.253C325.163 163.883 322.69 161.372 320.716 157.72C319.482 155.482 318.717 153.125 318.421 150.651C318.114 148.109 318.158 145.574 318.553 143.048C318.949 140.522 319.673 138.078 320.728 135.716C321.783 133.354 323.055 131.235 324.545 129.358C326.023 127.412 327.669 125.823 329.482 124.591C331.352 123.278 333.305 122.442 335.343 122.082C336.09 121.95 336.821 121.926 337.536 122.011C338.307 122.015 338.982 122.071 339.561 122.179L339.483 119.351C339.479 118.931 339.725 118.536 340.22 118.168C340.715 117.8 341.235 117.568 341.778 117.472C342.661 117.316 343.669 117.278 344.804 117.359C346.006 117.427 347.159 117.61 348.261 117.906C349.432 118.191 350.518 118.595 351.521 119.12C352.524 119.645 353.301 120.28 353.852 121.025C354.144 121.886 354.539 124.132 355.039 127.763C355.538 131.395 356.151 136.866 356.878 144.177C356.922 145.221 357.034 146.254 357.214 147.275C357.394 148.296 357.58 149.351 357.771 150.44C358.247 151.55 359.197 151.978 360.624 151.726C362.118 151.463 363.418 150.496 364.524 148.827C365.631 147.158 366.705 145.108 367.748 142.678L369.042 139.292C369.422 138.663 369.917 138.295 370.528 138.187C371.072 138.091 371.641 138.342 372.236 138.938C372.819 139.467 373.227 139.992 373.458 140.512ZM339.07 154.585C340.484 154.265 341.523 153.801 342.186 153.192C342.837 152.516 343.261 151.739 343.456 150.863C343.64 149.918 343.704 148.889 343.648 147.776C343.58 146.595 343.506 145.38 343.426 144.131C343.027 141.464 342.673 138.86 342.365 136.317C342.046 133.707 341.692 131.102 341.305 128.504C340.745 128.111 339.901 128.085 338.77 128.425C337.076 129.145 335.734 130.47 334.743 132.399C333.753 134.329 333.082 136.483 332.73 138.861C332.379 141.239 332.305 143.603 332.509 145.953C332.78 148.291 333.332 150.229 334.163 151.767C334.81 153.056 335.521 153.913 336.296 154.338C337.127 154.682 338.051 154.765 339.07 154.585Z" fill="#15444E"/>
<path d="M1.33198 48.6529C0.651095 46.7282 0.753026 45.0406 1.63778 43.5901C2.43532 42.0689 3.81841 40.8056 5.78705 39.8001C7.8346 38.7863 10.3805 37.9596 13.4247 37.3201C16.4607 36.6016 19.8724 36.0433 23.66 35.645C27.7632 35.2136 31.717 34.8777 35.5211 34.6374C39.4042 34.3888 42.9053 34.3001 46.0242 34.3714C49.2137 34.3555 51.9069 34.5514 54.1038 34.9592C56.3713 35.2797 57.9099 35.8765 58.7197 36.7496C59.3342 38.0424 59.685 39.4828 59.772 41.0707C59.8508 42.5796 59.7281 44.0697 59.404 45.5411C59.0716 46.9335 58.5253 48.1887 57.7652 49.3067C57.0051 50.4247 56.0498 51.2039 54.8994 51.6443C50.1068 51.5892 45.5717 51.7068 41.294 51.9969C37.087 52.1997 33.0897 52.5002 29.3021 52.8985L26.2247 53.222L25.5887 58.5591C25.2064 60.9948 24.9154 63.5407 24.7157 66.1968C24.5078 68.7739 24.3476 71.4258 24.2352 74.1526C28.7081 73.4427 32.5974 72.8741 35.9033 72.4466C39.2091 72.0192 41.9668 71.6893 44.1762 71.4569C47.0169 71.1583 49.3301 71.1546 51.1159 71.4459C52.9017 71.7372 54.1454 72.5647 54.8471 73.9282C55.7813 75.986 56.1341 77.8254 55.9056 79.4464C55.7559 81.0592 55.3404 82.4204 54.6592 83.5301C54.0569 84.6315 53.3902 85.5001 52.6592 86.1359C51.9199 86.6928 51.4714 86.9795 51.3136 86.9961C48.8674 87.2533 46.4047 87.3525 43.9253 87.2938C41.5249 87.2268 39.0621 87.3261 36.5371 87.5916C34.5561 87.72 32.6581 87.8797 30.8432 88.0705C29.0283 88.2614 27.2134 88.4522 25.3986 88.643C25.6141 92.2136 25.9792 95.6887 26.4938 99.0682C27.0873 102.439 27.6726 105.732 28.2495 108.945C29.9689 108.604 31.6924 108.303 33.4201 108.042C35.2267 107.772 37.1163 107.533 39.089 107.326C46.4275 106.554 52.493 106.196 57.2856 106.251C62.1571 106.298 65.3112 107.084 66.748 108.61C67.267 109.753 67.5534 110.961 67.6073 112.233C67.7318 113.417 67.6548 114.583 67.3764 115.73C67.098 116.878 66.6058 117.888 65.8997 118.76C65.2808 119.704 64.4709 120.348 63.47 120.693C59.9565 120.663 56.7275 120.683 53.783 120.753C50.9258 120.894 48.1162 121.109 45.3544 121.4C42.5137 121.698 39.7249 122.111 36.988 122.639C34.2511 123.166 31.6202 123.562 29.0951 123.828C28.0693 123.936 27.0435 124.044 26.0177 124.152C25.0708 124.251 24.155 124.268 23.2704 124.201C22.228 124.151 21.2562 124.013 20.3551 123.789C19.5328 123.556 18.8081 123.113 18.1811 122.46C17.2759 121.438 16.4724 120.244 15.7707 118.881C15.1396 117.43 14.4441 115.746 13.6843 113.83C11.9697 108.9 10.6641 103.687 9.76764 98.1918C8.87118 92.6965 8.22804 87.3343 7.83822 82.1051C7.52731 76.8676 7.3721 71.9731 7.37259 67.4215C7.452 62.8617 7.60607 59.0126 7.83483 55.8744C6.72182 55.9115 5.77703 55.6516 5.00048 55.0944C4.29453 54.45 3.7028 53.7536 3.22529 53.0053C2.73947 52.178 2.33672 51.3819 2.01702 50.6171C1.68902 49.7732 1.46067 49.1185 1.33198 48.6529Z" fill="#15444E"/>
<path d="M95.1167 99.2788C94.4856 97.8279 93.0966 96.377 90.9496 94.9259C88.8027 93.4747 86.4896 91.9612 84.0104 90.3853C81.6102 88.8011 79.2847 87.1692 77.0339 85.4894C74.8621 83.8013 73.3609 82.0428 72.5305 80.2136C71.6918 78.3056 71.3743 76.4225 71.578 74.5645C71.7734 72.6275 72.4319 70.9214 73.5533 69.446C74.7454 67.8833 76.3652 66.5951 78.4128 65.5813C80.5309 64.4802 83.0104 63.7803 85.8511 63.4816C90.5067 62.9921 94.697 63.3899 98.4221 64.6751C102.226 65.952 104.838 68.0329 106.258 70.918C106.769 71.9822 106.995 72.9964 106.937 73.9608C106.879 74.9251 106.65 75.7876 106.251 76.5482C105.844 77.2298 105.306 77.8054 104.638 78.2749C104.048 78.7362 103.398 79.0042 102.688 79.0789C101.189 79.2365 99.8368 78.8995 98.6325 78.068C97.4199 77.1574 96.2821 76.199 95.219 75.1929C94.1476 74.1078 93.1282 73.137 92.1606 72.2805C91.1848 71.3451 90.1445 70.9354 89.0398 71.0516C87.6983 71.1926 86.7099 71.6559 86.0744 72.4414C85.5178 73.2186 85.4429 74.0249 85.8498 74.8605C86.6719 76.6106 88.3786 78.4275 90.9699 80.311C93.5529 82.1155 96.2978 83.9429 99.2048 85.7933C102.182 87.5563 104.958 89.3006 107.533 91.0262C110.108 92.7517 111.754 94.3752 112.473 95.8967C113.407 97.9545 113.749 100.074 113.5 102.257C113.321 104.352 112.534 106.351 111.138 108.254C109.813 110.07 107.828 111.677 105.182 113.073C102.615 114.461 99.4466 115.433 95.6756 115.989C93.5533 116.292 91.3709 116.401 89.1283 116.318C83.6173 116.259 78.9369 114.994 75.0874 112.524C71.3084 109.967 68.7422 106.803 67.3887 103.033C66.8614 101.811 66.5667 100.524 66.5045 99.1731C66.4424 97.8222 66.6688 96.5607 67.1839 95.3886C67.6118 94.1458 68.3014 93.1151 69.2525 92.2964C70.1953 91.3988 71.3686 90.7963 72.7724 90.489C73.6238 90.2398 74.7015 90.2462 76.0055 90.5084C77.3884 90.7622 78.7962 91.253 80.2289 91.9807C80.9806 92.3009 81.753 92.8186 82.5462 93.5337C83.4099 94.1616 84.0889 94.9286 84.583 95.8349C85.2141 97.2857 85.3385 98.4704 84.9564 99.3889C84.6448 100.22 84.1983 100.906 83.6168 101.446C83.0353 101.986 82.4497 102.487 81.8599 102.948C81.3407 103.322 81.2285 103.773 81.5234 104.301C82.0341 105.366 82.9539 106.147 84.2828 106.646C85.6034 107.066 87.6446 107.131 90.4064 106.841C92.9315 106.575 94.5533 105.686 95.2719 104.173C95.9906 102.66 95.9388 101.029 95.1167 99.2788Z" fill="#15444E"/>
<path d="M174.679 85.2834C174.903 85.8987 174.942 86.6531 174.797 87.5468C174.643 88.3614 174.415 89.2239 174.111 90.1342C173.53 92.1916 172.593 94.2864 171.301 96.4185C170.009 98.5506 168.381 100.518 166.417 102.322C164.452 104.126 162.222 105.678 159.726 106.978C157.221 108.2 154.47 108.968 151.471 109.283C148.315 109.615 145.723 109.249 143.697 108.184C141.741 107.033 140.348 105.542 139.517 103.713C139.318 103.335 139.11 102.878 138.895 102.341C138.749 101.718 138.648 101.13 138.589 100.577C138.61 100.016 138.797 99.5168 139.15 99.0804C139.503 98.6441 140.11 98.3407 140.969 98.1705C141.775 96.7283 142.303 94.9161 142.552 92.7339C142.881 90.5434 143.012 88.3736 142.945 86.2246C142.958 84.0673 142.834 82.124 142.572 80.3948C142.303 78.5866 142.016 77.379 141.713 76.7721C141.385 75.9282 140.995 75.2506 140.542 74.7392C140.09 74.2278 139.469 74.0136 138.68 74.0966C137.33 74.1587 136.134 74.9233 135.091 76.3904C134.049 77.8575 133.307 79.5324 132.867 81.4153C131.911 84.4703 131.419 87.756 131.389 91.2726C131.351 94.7101 131.654 98.3515 132.297 102.197C132.932 105.963 133.821 109.862 134.962 113.894C136.191 117.997 137.586 122.162 139.147 126.39C139.837 128.393 140.615 130.108 141.483 131.534C142.43 132.952 143.183 134.43 143.744 135.968C144.591 137.955 144.547 139.437 143.612 140.413C142.678 141.39 141.303 141.974 139.488 142.164C136.963 142.43 134.463 142.174 131.988 141.396C129.521 140.697 127.254 138.859 125.186 135.883C124.534 134.993 123.953 134.016 123.442 132.952C122.931 131.888 122.408 130.705 121.873 129.404C119.743 123.559 118.036 117.191 116.754 110.299C115.463 103.328 114.635 96.5876 114.271 90.0782C113.819 83.498 113.832 77.5478 114.31 72.2273C114.788 66.9069 115.727 62.9354 117.127 60.3128C117.497 60.0344 117.91 59.7913 118.367 59.5835C118.824 59.3758 119.399 59.1556 120.092 58.923C121.18 58.6489 122.7 58.6887 124.652 59.0424C125.711 59.2504 126.704 59.5852 127.63 60.0468C128.556 60.5084 129.262 61.1528 129.748 61.9801C129.852 62.2088 129.822 62.6909 129.66 63.4266C129.49 64.0834 129.293 64.8627 129.068 65.7646C128.844 66.6666 128.663 67.6039 128.526 68.5765C128.459 69.4619 128.534 70.1727 128.75 70.7089C130.142 68.0074 131.78 65.759 133.666 63.9637C135.622 62.0811 137.942 60.9988 140.625 60.7167C144.254 60.335 147.186 60.9051 149.421 62.4269C151.646 63.8697 153.339 65.9276 154.497 68.6006C155.622 70.9577 156.386 73.6721 156.789 76.744C157.183 79.7369 157.332 82.6757 157.236 85.5604C157.132 88.3661 156.841 90.912 156.363 93.1981C155.956 95.3969 155.513 96.8808 155.036 97.6497C157.008 97.4422 158.707 96.9043 160.132 96.0358C161.627 95.0801 162.904 93.9477 163.963 92.6385C165.093 91.2421 166.048 89.7044 166.829 88.0252C167.61 86.3461 168.308 84.6358 168.923 82.8942C169.251 82.2209 169.691 81.8552 170.244 81.7971C171.033 81.7142 171.824 82.0302 172.617 82.7454C173.481 83.3732 174.168 84.2192 174.679 85.2834Z" fill="#15444E"/>
<path d="M230.545 79.6488C231.201 81.3365 231.066 83.4668 230.139 86.0396C229.283 88.5251 227.95 91.0209 226.139 93.527C224.399 95.9458 222.31 98.0819 219.871 99.9353C217.512 101.78 215.189 102.823 212.9 103.064C209.823 103.387 207.157 103.069 204.902 102.108C202.647 101.148 200.757 99.1104 199.233 95.9968C198.128 99.1473 196.428 101.562 194.131 103.241C191.913 104.911 189.668 105.946 187.396 106.344C183.53 106.751 179.91 106.093 176.538 104.372C173.237 102.563 170.6 99.4866 168.628 95.1425C167.391 92.4778 166.701 89.7155 166.561 86.8557C166.411 83.9169 166.665 81.0156 167.322 78.1518C167.978 75.288 169.006 72.5448 170.406 69.9222C171.806 67.2996 173.436 64.9722 175.297 62.94C177.149 60.8288 179.166 59.1395 181.346 57.8722C183.597 56.5175 185.907 55.7158 188.274 55.4669C189.142 55.3756 189.983 55.4069 190.797 55.5609C191.681 55.6276 192.452 55.7462 193.108 55.9168L193.245 52.6684C193.274 52.1862 193.588 51.754 194.186 51.3717C194.784 50.9894 195.399 50.765 196.03 50.6987C197.056 50.5908 198.217 50.6285 199.512 50.8116C200.887 50.9865 202.195 51.2881 203.437 51.7165C204.758 52.1366 205.972 52.6876 207.081 53.3695C208.19 54.0515 209.031 54.8414 209.604 55.7394C209.869 56.7495 210.143 59.3558 210.425 63.5583C210.707 67.7607 210.972 74.081 211.221 82.5191C211.187 83.7204 211.233 84.9134 211.357 86.098C211.482 87.2827 211.61 88.5069 211.743 89.7705C212.2 91.08 213.257 91.6476 214.914 91.4734C216.65 91.2908 218.22 90.2873 219.624 88.4628C221.027 86.6383 222.425 84.3753 223.817 81.6737L225.574 77.8957C226.06 77.2058 226.658 76.8235 227.368 76.7488C227.999 76.6824 228.633 77.0151 229.268 77.7468C229.895 78.3995 230.321 79.0335 230.545 79.6488ZM189.946 93.0207C191.594 92.7675 192.824 92.3188 193.634 91.6747C194.435 90.9516 194.984 90.0955 195.278 89.1062C195.565 88.038 195.721 86.8638 195.746 85.5835C195.763 84.2243 195.775 82.8256 195.784 81.3874C195.539 78.2989 195.342 75.2853 195.193 72.3465C195.036 69.3287 194.839 66.3151 194.602 63.3056C193.992 62.8108 193.024 62.7129 191.699 63.0119C189.697 63.7015 188.051 65.1124 186.759 67.2445C185.467 69.3766 184.524 71.7914 183.93 74.489C183.336 77.1866 183.061 79.8904 183.107 82.6006C183.231 85.3025 183.708 87.568 184.539 89.3971C185.178 90.9269 185.926 91.9662 186.781 92.515C187.707 92.9766 188.762 93.1452 189.946 93.0207Z" fill="#15444E"/>
<path d="M285.494 75.7874C285.922 77.579 285.585 79.6905 284.484 82.1219C283.375 84.4744 281.824 86.7935 279.83 89.0793C277.828 91.286 275.517 93.206 272.896 94.839C270.354 96.4637 267.86 97.4047 265.414 97.6619C262.1 98.0104 259.149 97.6419 256.562 96.5565C253.966 95.3921 252.058 93.5565 250.837 91.0498C249.99 89.0627 249.548 86.7536 249.511 84.1224C249.545 81.4039 249.666 78.7562 249.874 76.1791C250.16 73.5937 250.389 71.214 250.56 69.0401C250.722 66.7872 250.587 65.1245 250.155 64.052C249.026 63.9312 247.854 64.1742 246.642 64.7808C244.445 65.8902 242.848 67.7749 241.851 70.4349C240.932 73.0867 240.403 76.0171 240.261 79.226C240.119 82.4349 240.258 85.6543 240.677 88.8841C241.088 92.035 241.524 94.6642 241.985 96.7717C242.267 97.9398 241.995 98.7669 241.168 99.2531C240.429 99.8099 238.876 100.213 236.509 100.462C235.877 100.528 234.739 100.328 233.095 99.8624C231.45 99.3965 229.841 98.1284 228.267 96.0581C227.703 95.2391 227.125 94.3017 226.536 93.2457C225.946 92.1898 225.423 91.0071 224.966 89.6977L224.979 89.8161C224.065 87.1973 223.329 84.3602 222.768 81.3049C222.208 78.2496 221.81 75.2172 221.573 72.2077C221.337 69.1983 221.271 66.2907 221.375 63.4849C221.479 60.6792 221.778 58.2122 222.273 56.0841C222.68 53.8853 223.291 52.1043 224.105 50.7411C224.84 49.3862 225.799 48.6465 226.983 48.522C227.93 48.4225 229.003 48.3894 230.204 48.4229C231.483 48.4481 232.656 48.6042 233.723 48.8913C234.861 49.091 235.854 49.4258 236.701 49.8957C237.627 50.3573 238.246 50.9311 238.557 51.617C238.669 51.9246 238.684 52.4421 238.601 53.1695C238.517 53.8969 238.407 54.7469 238.27 55.7196C238.125 56.6132 237.988 57.5859 237.859 58.6375C237.73 59.6891 237.715 60.6888 237.815 61.6365C238.604 60.0363 239.559 58.4986 240.681 57.0232C241.794 55.4688 243.007 54.1036 244.319 52.9275C245.632 51.7515 247.004 50.7687 248.437 49.9792C249.87 49.1897 251.297 48.7203 252.717 48.571C253.901 48.4465 255.14 48.4759 256.436 48.659C257.732 48.8422 259.005 49.1875 260.255 49.6948C261.496 50.1232 262.597 50.7262 263.556 51.5037C264.594 52.2729 265.373 53.2291 265.892 54.3723C266.643 56.2097 266.924 58.4959 266.732 61.231C266.62 63.9577 266.358 66.78 265.946 69.698C265.535 72.6159 265.234 75.4423 265.042 78.1774C264.843 80.8335 265.11 83.0012 265.845 84.6807C266.381 85.9818 267.359 86.5577 268.779 86.4084C270.278 86.2507 271.896 85.3221 273.632 83.6223C275.439 81.8353 276.92 79.6035 278.074 76.9268L279.807 72.9118C279.877 72.8246 279.979 72.6542 280.112 72.4006C280.324 72.1388 280.588 71.9913 280.903 71.9581C281.929 71.8503 282.851 72.2723 283.669 73.2244C284.558 74.0892 285.166 74.9435 285.494 75.7874ZM233.856 30.791C234.898 30.8411 236.028 30.9619 237.245 31.1534C238.453 31.2659 239.706 31.4137 241.001 31.5968C241.57 31.6967 242.056 31.7654 242.459 31.8029C242.862 31.8404 243.265 31.8779 243.667 31.9154C244.639 32.0527 245.493 32.2026 246.228 32.3648C246.955 32.4481 247.634 32.4566 248.265 32.3902C249.764 32.2325 250.777 32.0062 251.305 31.7112C251.911 31.4079 252.281 31.1295 252.414 30.8759C252.538 30.5434 252.588 30.2587 252.563 30.0218C252.617 29.7765 252.877 29.5895 253.342 29.4608C254.368 29.3529 255.383 29.5256 256.388 29.9789C257.393 30.4322 258.292 31.0164 259.086 31.7315C259.879 32.4466 260.522 33.2573 261.016 34.1636C261.589 35.0615 261.957 35.9012 262.119 36.6827C262.214 36.8324 262.283 37.1047 262.324 37.4996L262.312 37.3811C262.503 39.1976 261.985 40.7292 260.76 41.976C259.527 43.1438 257.853 43.9186 255.739 44.3006C254.335 44.6079 252.902 44.6388 251.441 44.3932C249.97 44.0687 248.338 43.7213 246.544 43.351C244.742 42.9017 242.746 42.5126 240.558 42.1838C238.44 41.7677 236.027 41.5822 233.319 41.6274C231.969 41.6895 230.869 41.8451 230.017 42.0943C229.166 42.3436 228.306 42.5138 227.438 42.6051C227.044 42.6466 226.732 42.7192 226.504 42.8231C226.346 42.8397 226.109 42.8646 225.794 42.8978C224.847 42.9974 224.095 42.6771 223.539 41.9371C222.895 41.1264 222.44 40.216 222.175 39.2059C221.909 38.1958 221.884 37.2003 222.1 36.2193C222.308 35.1594 222.809 34.2284 223.602 33.4263C224.395 32.6243 225.525 31.9865 226.991 31.5129C228.528 30.9521 230.496 30.7051 232.897 30.7721C233.291 30.7307 233.611 30.737 233.856 30.791Z" fill="#15444E"/>
<path d="M321.312 75.2551C320.801 77.2253 319.983 79.3076 318.857 81.5021C317.802 83.6093 316.45 85.5481 314.801 87.3185C313.152 89.089 311.198 90.612 308.938 91.8876C306.758 93.155 304.287 93.9338 301.525 94.2242C299.158 94.4731 296.824 94.2794 294.523 93.6429C292.231 93.0854 290.106 92.2308 288.15 91.079C286.186 89.8482 284.438 88.3951 282.906 86.7197C281.286 84.9735 280.009 83.0716 279.075 81.0138C277.31 77.127 276.489 73.101 276.61 68.9361C276.651 64.7794 277.441 60.9035 278.978 57.3082C280.436 53.7213 282.473 50.7123 285.09 48.2812C287.786 45.8418 290.869 44.4395 294.341 44.0745C295.288 43.9749 296.291 44.0291 297.35 44.2372C298.48 44.358 299.508 44.6492 300.434 45.1107C301.048 44.8864 301.628 44.7057 302.172 44.5687C302.787 44.3443 303.41 44.199 304.041 44.1326C307.355 43.7841 310.173 44.4061 312.494 45.9986C314.894 47.5828 316.823 49.6158 318.281 52.0977C319.809 54.4922 320.884 57.134 321.507 60.023C322.121 62.8331 322.264 65.3333 321.936 67.5238C323.132 68.2764 324.322 68.5905 325.505 68.4661C327.162 68.2918 328.363 67.5667 329.106 66.2908C329.928 65.0065 330.77 63.5207 331.629 61.8333C332.24 60.8108 332.703 60.283 333.019 60.2499C333.982 60.3082 334.769 60.5848 335.38 61.0796C336.061 61.4871 336.596 62.0296 336.987 62.7073C337.443 64.0167 337.553 65.4425 337.316 66.9846C337.15 68.4394 336.66 69.8484 335.846 71.2116C335.023 72.4958 333.944 73.6075 332.606 74.5467C331.269 75.4858 329.732 76.0466 327.996 76.2292C325.787 76.4615 323.559 76.1368 321.312 75.2551ZM301.919 83.1634C303.567 82.9101 304.93 82.208 306.005 81.0568C307.073 79.8266 307.839 78.3886 308.304 76.7426C308.84 75.0094 309.084 73.1473 309.034 71.1562C309.055 69.0779 308.804 67.0681 308.281 65.1268C307.6 64.7193 306.819 64.1226 305.939 63.3368C305.058 62.5511 304.209 61.6821 303.391 60.7301C302.573 59.778 301.79 58.7823 301.043 57.743C300.287 56.6247 299.693 55.5293 299.262 54.4568C299.062 54.0785 298.946 53.7314 298.913 53.4155C298.95 53.0123 298.957 52.6922 298.932 52.4553C297.428 53.332 296.093 54.6702 294.926 56.4698C293.837 58.2611 293.011 60.2645 292.446 62.4799C291.951 64.608 291.745 66.8255 291.828 69.1325C291.911 71.4395 292.376 73.5865 293.223 75.5736C294.07 77.5606 295.22 79.396 296.673 81.0798C298.197 82.6763 299.946 83.3708 301.919 83.1634Z" fill="#15444E"/>
<path d="M369.454 66.1206C370.073 68.2116 369.919 70.5434 368.993 73.1162C368.066 75.689 366.606 78.1183 364.612 80.4041C362.689 82.6025 360.378 84.5225 357.678 86.1638C355.058 87.7968 352.327 88.7627 349.486 89.0614C346.803 89.3435 344.199 88.8587 341.675 87.607C339.229 86.347 337.314 84.0729 335.932 80.7847C335.292 79.2549 334.489 76.5446 333.522 72.6538C332.546 68.6839 331.675 64.1841 330.907 59.1544C330.131 54.0457 329.531 48.7188 329.108 43.1737C328.598 37.5579 328.488 32.3392 328.78 27.5175C329.071 22.6958 329.836 18.5829 331.073 15.1788C332.303 11.6958 334.195 9.58044 336.749 8.83276C337.767 8.64592 338.967 8.67942 340.35 8.93326C341.812 9.17881 343.168 9.55527 344.418 10.0626C345.983 10.5368 347.499 11.2957 348.965 12.3394C350.431 13.383 351.471 14.5512 352.086 15.8441C352.397 16.53 352.515 17.2762 352.44 18.0825C352.444 18.8806 352.168 19.6683 351.612 20.4454C350.743 22.0539 349.985 24.3295 349.337 27.2723C348.76 30.1278 348.259 33.3346 347.835 36.8926C347.49 40.4424 347.24 44.1418 347.086 47.9908C347.003 51.7526 347.025 55.3835 347.153 58.8834C347.273 62.3044 347.522 65.4323 347.9 68.2673C348.348 71.0149 348.888 73.1142 349.519 74.565C350.021 75.5502 350.578 76.2902 351.188 76.785C351.878 77.2715 352.775 77.4566 353.879 77.3405C355.142 77.2077 356.39 76.5574 357.623 75.3897C358.849 74.1429 359.979 72.7465 361.013 71.2004C362.047 69.6544 362.967 68.1602 363.773 66.718C364.649 65.1885 365.331 64.0788 365.817 63.3889C366.51 63.1563 367.214 63.4017 367.928 64.1251C368.713 64.7612 369.222 65.4264 369.454 66.1206Z" fill="#15444E"/>
<path d="M156.628 126.17H91.1338C82.1834 126.17 74.9277 133.424 74.9277 142.373V146.982C74.9277 155.931 82.1834 163.185 91.1338 163.185H156.628C165.578 163.185 172.834 155.931 172.834 146.982V142.373C172.834 133.424 165.578 126.17 156.628 126.17Z" fill="#FFED00"/>
<path d="M109.82 143.47C109.778 143.136 109.913 142.812 110.223 142.499L111.154 141.496C110.864 141.141 110.533 140.964 110.161 140.964C109.665 140.964 109.23 141.12 108.858 141.434C108.507 141.747 108.238 142.165 108.052 142.687C107.866 143.209 107.773 143.815 107.773 144.504C107.793 145.194 107.928 145.904 108.176 146.635C108.465 147.45 108.869 148.087 109.386 148.546C109.923 149.006 110.595 149.257 111.402 149.298C111.96 149.298 112.498 149.204 113.015 149.016C113.552 148.807 114.048 148.536 114.503 148.202C114.979 147.847 115.393 147.439 115.744 146.98C116.096 146.52 116.385 146.008 116.613 145.444C116.695 145.235 116.819 145.131 116.985 145.131C117.15 145.131 117.326 145.215 117.512 145.382C117.719 145.549 117.843 145.695 117.884 145.82C117.946 146.029 117.967 146.259 117.946 146.51C117.884 147.053 117.646 147.648 117.233 148.296C116.84 148.943 116.323 149.549 115.682 150.113C115.041 150.677 114.307 151.147 113.48 151.523C112.653 151.899 111.795 152.087 110.905 152.087C109.148 152.087 107.731 151.69 106.656 150.896C105.601 150.082 104.805 148.87 104.268 147.262C103.958 146.363 103.844 145.434 103.927 144.473C104.009 143.512 104.268 142.635 104.702 141.841C105.136 141.026 105.746 140.347 106.532 139.804C107.318 139.24 108.269 138.906 109.386 138.802C109.592 138.76 109.83 138.739 110.099 138.739C110.368 138.718 110.657 138.729 110.967 138.77C111.588 138.833 112.218 139.031 112.859 139.366C113.5 139.679 113.966 140.212 114.255 140.964C114.421 141.528 114.493 142.06 114.472 142.562C114.472 143.042 114.4 143.47 114.255 143.846C114.131 144.201 113.945 144.483 113.697 144.692C113.449 144.901 113.17 145.006 112.859 145.006C112.632 145.006 112.353 144.974 112.022 144.912C111.712 144.828 111.402 144.724 111.091 144.598C110.802 144.473 110.533 144.316 110.285 144.128C110.058 143.94 109.902 143.721 109.82 143.47Z" fill="#15444E"/>
<path d="M126.823 147.763C126.637 148.264 126.368 148.787 126.017 149.33C125.686 149.852 125.283 150.322 124.807 150.74C124.331 151.157 123.783 151.502 123.163 151.774C122.563 152.045 121.902 152.181 121.178 152.181C120.558 152.181 119.958 152.066 119.379 151.836C118.8 151.627 118.273 151.345 117.797 150.99C117.321 150.614 116.908 150.186 116.556 149.706C116.184 149.204 115.905 148.672 115.719 148.108C115.367 147.042 115.264 145.967 115.409 144.88C115.533 143.794 115.843 142.802 116.339 141.904C116.815 141.005 117.425 140.274 118.169 139.71C118.934 139.146 119.772 138.864 120.682 138.864C120.93 138.864 121.188 138.906 121.457 138.99C121.747 139.052 122.005 139.157 122.232 139.303C122.398 139.261 122.553 139.23 122.698 139.209C122.863 139.167 123.029 139.146 123.194 139.146C124.063 139.146 124.776 139.387 125.334 139.867C125.913 140.347 126.358 140.932 126.668 141.622C126.999 142.29 127.206 143.011 127.288 143.784C127.371 144.536 127.34 145.194 127.195 145.758C127.485 145.987 127.785 146.102 128.095 146.102C128.529 146.102 128.86 145.946 129.087 145.632C129.335 145.319 129.594 144.953 129.863 144.536C130.049 144.285 130.183 144.16 130.266 144.16C130.514 144.201 130.711 144.295 130.855 144.442C131.021 144.567 131.145 144.724 131.227 144.912C131.31 145.267 131.3 145.643 131.196 146.04C131.114 146.416 130.948 146.771 130.7 147.105C130.452 147.418 130.142 147.679 129.77 147.888C129.397 148.097 128.984 148.202 128.529 148.202C127.95 148.202 127.381 148.055 126.823 147.763ZM121.581 149.298C122.015 149.277 122.388 149.131 122.698 148.86C123.008 148.567 123.246 148.212 123.411 147.794C123.597 147.356 123.711 146.875 123.752 146.353C123.814 145.81 123.804 145.277 123.721 144.755C123.556 144.63 123.37 144.452 123.163 144.222C122.956 143.993 122.76 143.742 122.574 143.47C122.388 143.199 122.212 142.917 122.046 142.624C121.881 142.311 121.757 142.008 121.674 141.716C121.633 141.611 121.612 141.517 121.612 141.434C121.633 141.329 121.643 141.246 121.643 141.183C121.23 141.371 120.847 141.684 120.496 142.123C120.165 142.562 119.896 143.063 119.689 143.627C119.503 144.17 119.389 144.745 119.348 145.35C119.307 145.956 119.369 146.531 119.534 147.074C119.699 147.617 119.948 148.129 120.278 148.609C120.63 149.069 121.064 149.298 121.581 149.298Z" fill="#15444E"/>
<path d="M145.846 146.917C145.908 147.397 145.764 147.941 145.412 148.546C145.061 149.131 144.595 149.695 144.016 150.238C143.437 150.761 142.786 151.199 142.062 151.554C141.359 151.909 140.687 152.087 140.046 152.087C139.178 152.087 138.423 151.909 137.782 151.554C137.141 151.178 136.696 150.646 136.448 149.956C136.283 149.413 136.231 148.797 136.293 148.108C136.376 147.397 136.479 146.708 136.603 146.04C136.748 145.371 136.872 144.755 136.975 144.191C137.079 143.606 137.089 143.167 137.006 142.875C136.717 142.812 136.407 142.844 136.076 142.969C135.476 143.199 135.011 143.648 134.68 144.316C134.37 144.985 134.153 145.737 134.029 146.572C133.905 147.408 133.853 148.254 133.874 149.11C133.894 149.946 133.936 150.646 133.998 151.21C134.039 151.523 133.946 151.732 133.719 151.836C133.512 151.962 133.098 152.024 132.478 152.024C132.312 152.024 132.023 151.941 131.609 151.774C131.196 151.606 130.813 151.231 130.462 150.646C130.338 150.416 130.214 150.155 130.09 149.862C129.965 149.57 129.862 149.246 129.779 148.891V148.922C129.614 148.212 129.5 147.45 129.438 146.635C129.376 145.82 129.355 145.016 129.376 144.222C129.397 143.429 129.459 142.666 129.562 141.935C129.666 141.204 129.81 140.567 129.996 140.024C130.162 139.46 130.369 139.011 130.617 138.676C130.844 138.342 131.113 138.175 131.423 138.175C131.671 138.175 131.951 138.196 132.261 138.238C132.592 138.279 132.891 138.353 133.16 138.457C133.45 138.541 133.698 138.655 133.905 138.802C134.132 138.948 134.277 139.115 134.339 139.303C134.36 139.387 134.349 139.522 134.308 139.71C134.267 139.898 134.215 140.118 134.153 140.368C134.091 140.598 134.029 140.849 133.967 141.12C133.905 141.392 133.874 141.653 133.874 141.904C134.122 141.507 134.411 141.131 134.742 140.776C135.073 140.4 135.424 140.076 135.797 139.804C136.169 139.533 136.551 139.313 136.944 139.146C137.337 138.979 137.72 138.896 138.092 138.896C138.402 138.896 138.723 138.937 139.054 139.021C139.384 139.105 139.705 139.23 140.015 139.397C140.325 139.543 140.594 139.731 140.821 139.961C141.07 140.191 141.245 140.462 141.349 140.776C141.494 141.277 141.504 141.883 141.38 142.593C141.276 143.303 141.132 144.034 140.946 144.786C140.759 145.538 140.604 146.269 140.48 146.98C140.356 147.669 140.367 148.243 140.511 148.703C140.615 149.058 140.853 149.236 141.225 149.236C141.618 149.236 142.062 149.037 142.558 148.64C143.075 148.223 143.52 147.679 143.892 147.011L144.451 146.008C144.471 145.987 144.502 145.946 144.544 145.883C144.606 145.82 144.678 145.789 144.761 145.789C145.03 145.789 145.257 145.925 145.443 146.196C145.65 146.447 145.784 146.687 145.846 146.917Z" fill="#15444E"/>
</svg>
