<svg xmlns="http://www.w3.org/2000/svg" width="18" height="17" fill="none"><path fill="#6F99A1" d="m.952 16.24.384-2.976c.939.064 1.664-.107 2.176-.512.512-.405.853-.97 1.024-1.696.17-.725.203-1.547.096-2.464H.952V.88h7.072v8.352c0 2.517-.597 4.416-1.792 5.696-1.216 1.301-2.976 1.739-5.28 1.312Zm9.856 0 .384-2.976c.939.064 1.664-.107 2.176-.512.512-.405.853-.97 1.024-1.696.17-.725.203-1.547.096-2.464h-3.68V.88h7.072v8.352c0 2.517-.597 4.416-1.792 5.696-1.216 1.301-2.976 1.739-5.28 1.312Z"/></svg>