<svg xmlns="http://www.w3.org/2000/svg" width="342" height="370" fill="none"><path fill="#F0F9FB" d="m224.392 222.668-66.19.419c-.429 0-.57.401-.57.786v56.777c0 5.436-37.607 19.559-37.974 18.84l-.045 6.008c-.002 1.119.972 2.112 2.216 2.112h56.34c2.576 0 5.12-.581 7.45-1.564l30.514-12.954c5.492-2.332 8.957-7.339 8.957-12.803v-56.834c0-.385-.269-.787-.698-.787Z"/><path fill="#15444E" d="M178.169 308.021h-56.341a2.65 2.65 0 0 1-1.89-.779 2.463 2.463 0 0 1-.74-1.746l.045-6.01a.414.414 0 0 1 .556-.383c2.192-.134 30.364-10.907 36.336-16.726.895-.873 1.082-1.421 1.082-1.727v-56.776c0-.729.386-1.2.982-1.2l66.188-.419h.002c.685 0 1.111.623 1.111 1.2v56.834c0 5.633-3.616 10.808-9.209 13.181l-30.514 12.953c-2.474 1.047-5.106 1.598-7.608 1.598Zm-58.102-8.126-.043 5.607c-.002.424.176.837.498 1.159.347.346.811.536 1.306.536h56.341c2.393 0 4.913-.529 7.29-1.532l30.512-12.953c5.29-2.245 8.706-7.123 8.706-12.425v-56.834c0-.157-.099-.373-.283-.375l-66.19.418c-.148 0-.159.288-.159.376v56.776c0 5.633-33.454 18.167-37.686 19.18a5.047 5.047 0 0 1-.292.067Z"/><path fill="#F0F9FB" d="M150.93 219.78v56.787c0 5.597-3.574 10.699-9.188 13.116l-20.584 8.858c-1.345.579-.886 2.396.605 2.396h56.555c2.544 0 5.055-.507 7.354-1.482l22.806-9.681c5.656-2.401 9.264-7.522 9.264-13.147v-56.844c0-.231-.21-.42-.468-.42h-65.877c-.257-.004-.467.185-.467.417Z"/><path fill="#15444E" d="M178.319 301.346h-56.555c-1.036 0-1.641-.684-1.781-1.36-.158-.763.249-1.495 1.013-1.824l20.584-8.859c5.431-2.336 8.939-7.335 8.939-12.736V219.78c0-.46.395-.834.88-.834h65.878c.485 0 .88.374.88.834v56.845c0 5.764-3.735 11.073-9.516 13.527l-22.805 9.681a19.418 19.418 0 0 1-7.517 1.513Zm-26.974-81.557v56.78c0 5.73-3.705 11.026-9.437 13.493l-20.584 8.859c-.487.209-.594.603-.532.902.067.325.361.703.972.703h56.555a18.55 18.55 0 0 0 7.193-1.45l22.805-9.681c5.476-2.325 9.014-7.337 9.014-12.768v-56.845c0 .007-.019-.01-.056-.01h-65.877c-.029-.002-.047.01-.053.017Z"/><path fill="#15444E" d="m27.591 251.538 285.297.645c2.497 0 4.987-1.892 5.303-4.394l22.791-179.194c.555-4.362-2.797-8.7-7.101-8.591L51.893 61.506 27.591 251.538Z"/><path fill="#F0F9FB" d="M322.68 60.633c4.908 0 9.34 5.016 8.712 9.937l-22.508 177.172c-.318 2.503-2.974 4.62-5.471 4.62l-280.247-.46c-2.994 0-4.994-2.504-4.61-5.505L41.864 65.941c.32-2.503 1.959-5.308 4.456-5.308h276.36Z"/><path fill="#15444E" d="m303.412 252.773-280.247-.46c-1.498 0-2.842-.586-3.784-1.654-.99-1.123-1.442-2.696-1.234-4.315L41.455 65.887c.35-2.748 2.174-5.667 4.864-5.667h276.359c2.454 0 4.906 1.183 6.728 3.248 1.836 2.08 2.709 4.687 2.394 7.154l-22.508 177.171c-.337 2.653-3.085 4.98-5.88 4.98ZM46.319 61.046c-2.218 0-3.74 2.55-4.046 4.947L18.965 246.451c-.176 1.385.2 2.721 1.036 3.666.783.886 1.907 1.374 3.166 1.374l280.247.46c2.364 0 4.777-2.03 5.061-4.259l22.508-177.17c.285-2.232-.515-4.604-2.193-6.506-1.665-1.886-3.891-2.968-6.109-2.968H46.319v-.002Z"/><path fill="#F0F9FB" d="M308.062 35.455c4.908 0 9.34 5.016 8.712 9.937l-22.508 177.172c-.318 2.502-2.974 4.62-5.471 4.62l-282.705-.46c-2.994 0-4.994-2.504-4.61-5.506L24.788 40.763c.32-2.503 1.959-5.308 4.456-5.308h278.818Z"/><path fill="#15444E" d="M110.619 35.556H84.561a.412.412 0 1 1 0-.823h26.058a.412.412 0 1 1 0 .823ZM40.735 226.884c-.002 0-.002 0 0 0l-34.785-.06c-1.498 0-2.841-.587-3.784-1.654-.99-1.123-1.442-2.697-1.234-4.315l13.116-101.547a.41.41 0 0 1 .463-.355c.226.03.385.236.355.462L1.751 220.961c-.177 1.385.2 2.722 1.035 3.667.783.886 1.907 1.374 3.166 1.374l34.785.06c.228 0 .412.185.412.413a.415.415 0 0 1-.414.409ZM288.653 227.282l-156.295-.262a.412.412 0 0 1 0-.824l156.293.262c2.364 0 4.776-2.03 5.061-4.259l8.074-63.549a.413.413 0 0 1 .818.102l-8.073 63.549c-.336 2.654-3.083 4.981-5.878 4.981ZM313.674 68.802a.411.411 0 0 1-.41-.463l2.961-23.31c.285-2.232-.515-4.604-2.193-6.506-1.666-1.886-3.891-2.968-6.109-2.968h-77.908a.411.411 0 1 1 0-.822h77.908c2.454 0 4.906 1.183 6.729 3.248 1.835 2.08 2.708 4.687 2.393 7.154l-2.961 23.31a.415.415 0 0 1-.41.357Z"/><path fill="#F0F9FB" d="M49.205 127.459c26.946 0 48.79-22.172 48.79-49.523 0-27.35-21.844-49.523-48.79-49.523-26.946 0-48.79 22.172-48.79 49.523 0 27.351 21.844 49.523 48.79 49.523Z"/><path stroke="#15444E" d="M36.93 32.817c.186.197.503.383.947.383.142 0 .276-.003.407-.006h.002c.128-.003.258-.006.38-.005.244.002.505.017.757.097.565.178.92.618 1.194 1.339.157.415.205 1.016.22 1.632.014.532.003 1.136-.008 1.744l-.006.356c-.013.734-.018 1.459.02 2.097.04.65.124 1.152.26 1.469.326.757.747 1.313 1.132 1.577.188.13.338.169.448.165.1-.003.223-.042.37-.19.146-.15.277-.39.401-.729.101-.275.184-.575.274-.897l.063-.227c.111-.394.239-.819.418-1.187.179-.368.435-.736.834-.957a21.791 21.791 0 0 0 2.88-1.931c.558-.452 1.075-.934 1.46-1.412.39-.487.605-.922.64-1.281.085-.86-.165-1.576-.787-2.135-.645-.58-1.738-1.034-3.414-1.229l-8.892 1.327Zm0 0a.79.79 0 0 1-.156-.229m.157.23-.157-.23m0 0c.625-.834 1.904-1.251 3.607-1.372 1.726-.121 3.709.073 5.44.274l-9.047 1.098Zm-.016-.048-.002-.01s.002.004.002.01ZM36.007 104.68v-.001l.497.058c.196-1.704 1.086-2.706 1.877-2.908l-18.026-9.982c.005-.263-.015-.601-.038-.96l-.018-.302a14.313 14.313 0 0 1-.021-1.555c.056-1.093.31-2.136 1.02-2.857.398-.404.714-.987.967-1.62.256-.64.463-1.37.624-2.1.32-1.453.466-2.965.429-3.861a.923.923 0 0 1 .463-.844c.78-.442 2.294-.952 4.513-.099.744.286 1.101.714 1.489 1.241l.098.135c.37.51.811 1.115 1.636 1.586.448.256.957.426 1.43.565.147.044.289.084.426.123.32.091.613.174.884.274.387.143.63.288.762.447.106.127.18.31.107.662-.245 1.183.295 2.301 1.26 3.2.966.897 2.406 1.63 4.137 2.096 1.547.416 2.539 1.394 2.881 2.332.171.467.179.911.042 1.284-.134.368-.424.714-.939.965-1.257.613-2.006 1.201-2.354 1.924-.352.73-.237 1.486-.09 2.23.114.58.33 1.204.519 1.748.068.196.133.382.187.552.11.34.182.614.204.827.022.212-.016.269-.016.269v-.001c-.07.086-.21.201-.432.335a6.607 6.607 0 0 1-.75.376 11.07 11.07 0 0 1-1.517.526h-.001c-1.065.272-2.04 1.513-2.25 3.335Zm0 0c-.041.354-.21.896-.49 1.57-.274.664-.64 1.42-1.048 2.187-.82 1.539-1.792 3.091-2.509 4.013-.406.521-.67 1.042-.804 1.594-.134.551-.13 1.106-.036 1.687.156.959.574 2.057 1.082 3.388l.277.73v.001c.311.827.394 1.355.374 1.669-.019.281-.107.307-.116.309v.001c-.06.023-.214.033-.464-.067a2.022 2.022 0 0 1-.649-.434c-.17-.174-.414-.534-.708-1.063a25.857 25.857 0 0 1-.909-1.838 44.339 44.339 0 0 1-1.622-4.122m7.622-9.625-7.622 9.625m0 0c-.18-.547-.343-1.532-.486-2.782a94.934 94.934 0 0 1-.36-4.149 332.16 332.16 0 0 1-.26-4.34 130.537 130.537 0 0 0-.165-2.72m1.27 13.991-1.27-13.991m0 0-.499.041.499-.041Zm0 0c-.052-.633-.162-1.153-.363-1.589a2.718 2.718 0 0 0-.861-1.06c-.358-.27-.788-.485-1.27-.7-.213-.096-.443-.194-.686-.299l-.104-.044a51.417 51.417 0 0 1-.916-.4v-.001m4.2 4.093-4.2-4.093m0 0c-1.295-.584-1.898-1.104-2.208-1.701m2.207 1.701-2.207-1.701m0 0c-.32-.618-.378-1.406-.351-2.673l.351 2.673ZM70.901 34.126c12.38 6.331 21.707 17.913 25.147 31.864-.286 1.484-.826 3.198-1.818 4.354-1.009 1.175-1 2.35-.891 3.286.02.166.04.315.058.452.037.269.068.492.071.712.004.303-.051.48-.17.612a4.82 4.82 0 0 0-.385.522l-.071.107c-.09.136-.17.257-.252.366a1.46 1.46 0 0 1-.177.205 1.13 1.13 0 0 1-.13-.18c-.119-.195-.26-.504-.42-.97-.32-.93-.692-2.407-1.133-4.671l-.49.096.49-.096c-.695-3.57-1.85-5.56-3.08-6.634-1.246-1.085-2.51-1.18-3.284-1.091-.684.078-.949.96-.384 1.39.524.4 1.315 1.096 1.782 1.92.23.406.369.82.374 1.231.006.402-.115.833-.46 1.288-2.13 2.81-2.377 5.064-1.371 6.596.395.601.613 1.085.69 1.619.077.538.017 1.176-.234 2.092-.102.373-.378.806-.778 1.337-.126.166-.265.344-.41.528-.29.37-.601.767-.874 1.165-.832 1.213-1.522 2.73-.599 4.417.31.565.389 1.536.218 2.81-.168 1.248-.562 2.693-1.093 4.128a25.75 25.75 0 0 1-1.882 4.017c-.697 1.187-1.4 2.091-2 2.56-1.303 1.017-2.481 2.472-3.555 3.799l-.259.32c-.58.714-1.129 1.377-1.665 1.926-.54.552-1.038.96-1.507 1.186-.135.066-.219.052-.3.008-.11-.06-.258-.207-.415-.495-.31-.574-.549-1.513-.65-2.645-.203-2.27.165-5.04 1.27-6.7 1.266-1.899 1.477-3.611 1.248-4.992-.227-1.366-.876-2.366-1.267-2.876l-.397.305m1.053-55.868-10.83 29.257c-2.29 1.056-4.163 2.43-4.163 3.907 0 .543.112 1.1.234 1.703.209 1.04.445 2.214.182 3.684-.416 2.323-1.145 8.658 6.346 7.39 6.968-1.178 6.644 2.12 6.565 2.926-.006.06-.01.107-.01.136l-.002.154c-.009.995-.054 5.824.625 6.71m1.053-55.867c-.067.942-.299 2.274-1.03 3.338a3.809 3.809 0 0 1-2.31 1.595c-1.053.252-2.37.146-4.017-.443l-.025-.008-.022-.01-.002-.002-.02-.009a2.112 2.112 0 0 0-.446-.125c-.293-.047-.63-.036-.932.133-.29.162-.629.517-.842 1.327-.217.82-.294 2.076-.065 3.972l9.711-9.768Zm-1.053 55.867.397-.304c-.03-.04-.088-.153-.15-.38a6.547 6.547 0 0 1-.156-.8 23.184 23.184 0 0 1-.176-2.167c-.056-1.318-.044-2.584-.04-3.052l.002-.16.006-.07c.005-.05.012-.119.018-.198.012-.16.02-.368.004-.603-.034-.47-.172-1.068-.607-1.608-.884-1.096-2.777-1.716-6.56-1.076-1.81.306-3.06.141-3.916-.255-.846-.39-1.364-1.03-1.675-1.79-.642-1.57-.387-3.602-.179-4.765.223-1.243.11-2.286-.052-3.186-.047-.262-.095-.503-.14-.73-.118-.582-.216-1.069-.216-1.559 0-.522.336-1.109 1.052-1.736.704-.615 1.697-1.2 2.82-1.717 1.2-.554 2.07-1.219 2.84-1.815l.052-.04c.756-.585 1.394-1.08 2.188-1.412.354-.148.546-.12.666-.068.145.063.296.206.482.48.116.17.212.338.32.526.08.137.165.285.269.452.222.36.495.75.868 1.064.41.347.816.458 1.234.384.186-.032.354-.097.496-.16.069-.03.138-.062.201-.092l.008-.003c.068-.032.132-.062.196-.09.253-.111.495-.188.794-.172.302.016.714.129 1.286.492a4.923 4.923 0 0 0 4.101.543c.572-.184 1.079-.478 1.413-.856.34-.383.54-.912.314-1.46-.323-.786-1.029-1.047-1.553-1.24-.06-.023-.118-.044-.172-.066-.563-.218-1.064-.469-1.4-1.239-.145-.33-.11-.573.012-.806.14-.267.407-.534.774-.841.103-.087.218-.179.337-.275.268-.215.558-.448.799-.68.357-.345.707-.777.815-1.324.103-.525-.005-1.059-.207-1.537a5.022 5.022 0 0 0-.857-1.332 5.53 5.53 0 0 0-1.131-.99c-.374-.24-.804-.435-1.209-.435a.872.872 0 0 0-.7.348c-.142.18-.22.403-.27.599-.07.266-.118.612-.165.948l-.06.416c-.16 1.015-.421 1.788-1.156 2.048-.39.14-.788.118-1.231-.018-.455-.139-.922-.387-1.441-.674l-.12-.066c-.469-.26-.98-.543-1.503-.738-.575-.216-1.206-.342-1.874-.213-.687.133-1.286.561-1.814 1.075-.531.516-1.04 1.168-1.532 1.82l-.24.317a29.33 29.33 0 0 1-1.26 1.598c-.513.59-1.022 1.069-1.55 1.372-.495.284-.773.225-.927.131-.189-.115-.375-.392-.465-.851-.182-.925.107-2.157.83-2.804 1.76-1.576 1.673-3.735 1.633-4.716-.004-.12-.009-.221-.009-.303 0-.31.115-.76.534-1.106.42-.347 1.23-.66 2.767-.508.884.087 1.56-.07 2.042-.445.48-.376.68-.905.75-1.383.07-.476.018-.946-.044-1.283a4.986 4.986 0 0 0-.095-.419l-.014-.052m3.546 44.055L66.302 45.94m0 0c.172-1.232.28-2.055.333-2.587a6.95 6.95 0 0 0 .042-.638 1.51 1.51 0 0 0-.014-.231.651.651 0 0 0-.135-.317.537.537 0 0 0-.587-.167.655.655 0 0 0-.246.156 2.129 2.129 0 0 0-.197.236c-.06.077-.11.142-.161.197a.692.692 0 0 1-.062.06l-.022.016a.77.77 0 0 0-.194.146 1.507 1.507 0 0 0-.122.142 4.38 4.38 0 0 0-.228.337c-.12.194-.261.437-.412.697l-.129.222c-.408.703-.876 1.478-1.339 2.003-.234.265-.43.424-.58.492-.123.056-.168.037-.215.005-.092-.063-.252-.251-.419-.729-.162-.464-.31-1.14-.425-2.085l5.112 2.044ZM32.152 44.024c-2.765 2.005-3.456 2.005-4.246.5-.79-1.504.89-5.413 4.346-5.413s4.149-1.204 4.246-2.105c.1-.902-.987-1.904-2.173-2.104-.673-.114-1.028.063-2.112.604a54.26 54.26 0 0 1-4.208 1.902 13.003 13.003 0 0 1-7.759.667m11.906 5.949.294.405m-.294-.405.294.405m-.294-.405 4.315.363c-.201-.326-.596-.74-1.203-.877-.594-.134-1.51-.029-2.818.919m0 0c-.696.504-1.277.895-1.77 1.168-.486.27-.928.45-1.337.49a1.493 1.493 0 0 1-1.143-.338c-.298-.245-.527-.6-.733-.992-.268-.51-.301-1.16-.19-1.798a5.417 5.417 0 0 1 .793-1.977c.822-1.271 2.248-2.371 4.186-2.371 1.682 0 2.604-.296 3.104-.63.472-.316.609-.696.645-1.029.026-.234-.103-.566-.453-.9a2.578 2.578 0 0 0-1.306-.657 1.277 1.277 0 0 0-.583.016c-.207.054-.455.163-.866.366-.11.053-.228.113-.357.177-.827.413-2.09 1.043-4.243 1.917a13.525 13.525 0 0 1-7.829.742m0 0 .182-.138-.3-.4m.118.538a12.474 12.474 0 0 1-.229-.05l.111-.488m.118.538a48.7 48.7 0 0 0-5.886 5.254m5.768-5.792a49.206 49.206 0 0 0-6.27 5.596m0 0 .499-.012.003.208m-.503-.196c.04 1.758-.268 3.674-1.283 5.468m1.283-5.468.364.343.139-.147m0 0c.013 1.768-.32 3.698-1.35 5.518l-.436-.246m0 0 .435.246m-.435-.246c-2.822 4.99-2.96 7.68-3.195 12.308l-.064 1.226c-.296 5.414 6.443 14.957 8.122 15.959 1.678 1.001 1.938-1.383 1.938-3.288 0-1.904-.717-4.19-1.704-6.395-.987-2.205-.987-3.609-.691-4.512.296-.902 1.481-1.203 2.272-.3.79.902 2.69 1.702 3.602 1.138.719-.445.798-1.718.866-2.813.038-.614.073-1.171.215-1.495L13.127 49.385m0 0c-1.51 2.67-2.229 4.65-2.611 6.617-.326 1.674-.411 3.344-.52 5.463-.02.395-.04.806-.064 1.235-.069 1.255.271 2.792.878 4.437.604 1.637 1.456 3.341 2.375 4.918a39.568 39.568 0 0 0 2.747 4.116c.425.552.814 1.015 1.144 1.367.34.363.59.577.735.664.348.208.502.17.556.147.078-.033.201-.145.32-.452.237-.612.306-1.598.306-2.553 0-1.798-.682-4.006-1.66-6.19-1.018-2.274-1.058-3.811-.71-4.872.428-1.308 2.103-1.64 3.123-.475.326.373.92.757 1.545.977.309.109.605.17.86.178.257.008.44-.04.558-.112.14-.087.27-.261.376-.574.104-.31.163-.695.202-1.123a22.076 22.076 0 0 0 .052-.721c.011-.187.023-.374.038-.55.031-.385.08-.804.218-1.116m-10.468-11.38 10.468 11.38m0 0c.152-.347.45-.618.732-.839.187-.145.411-.3.636-.456.116-.08.232-.16.343-.24.69-.491 1.363-1.055 1.75-1.884.97-2.076 2.6-2.943 4.375-3.843l.227.445c.64-.325 1.255-.585 1.794-.812.956-.405 1.67-.707 1.86-1.092.13-.262.127-.676.124-1.192-.003-.67-.008-1.511.272-2.417.156-.508.382-1.046.602-1.57.474-1.13.92-2.192.583-2.741L23.595 60.766ZM86.287 106.073c.677-.412 1.542-1.186 2.251-2.146.708-.958 1.301-2.156 1.347-3.417.015-.398.261-.92.725-1.497.452-.563 1.058-1.116 1.676-1.57.622-.458 1.223-.791 1.655-.939l.087-.028c-1.762 4.533-2.967 7.108-4.48 9.299-1.453 2.105-3.2 3.87-6.047 6.676-.091-.848-.09-1.788-.088-2.645v-.336c0-.776.379-1.425.95-1.995.576-.575 1.304-1.025 1.924-1.402Z"/><path fill="#15444E" d="M49.204 127.87C22.074 127.87 0 105.47 0 77.936S22.072 28 49.204 28c27.133 0 49.204 22.4 49.204 49.936S76.335 127.87 49.204 127.87Zm0-99.046C22.53 28.824.826 50.856.826 77.936c0 27.08 21.703 49.112 48.378 49.112 26.676 0 48.378-22.032 48.378-49.112 0-27.08-21.702-49.112-48.378-49.112ZM51.52 147.628H25.74a3.727 3.727 0 0 1-3.727-3.719 3.736 3.736 0 0 1 3.727-3.754H51.52a3.727 3.727 0 0 1 3.727 3.719 3.736 3.736 0 0 1-3.727 3.754Zm-25.779-6.651a2.903 2.903 0 0 0-2.903 2.897 2.91 2.91 0 0 0 2.903 2.93H51.52a2.903 2.903 0 0 0 2.903-2.897 2.91 2.91 0 0 0-2.903-2.93H25.74ZM39.684 161.691H24.051a3.729 3.729 0 0 1-3.73-3.719 3.736 3.736 0 0 1 3.73-3.755h15.633a3.729 3.729 0 0 1 3.728 3.721 3.736 3.736 0 0 1-3.728 3.753Zm-15.633-6.65a2.903 2.903 0 0 0-2.904 2.897 2.91 2.91 0 0 0 2.904 2.931h15.633a2.903 2.903 0 0 0 2.903-2.897 2.91 2.91 0 0 0-2.903-2.931H24.051ZM68.43 175.757H22.36a3.728 3.728 0 0 1-3.728-3.721 3.736 3.736 0 0 1 3.728-3.754h46.07a3.727 3.727 0 0 1 3.728 3.719 3.734 3.734 0 0 1-3.728 3.756Zm-46.07-6.651a2.903 2.903 0 0 0-2.904 2.897 2.91 2.91 0 0 0 2.904 2.93h46.07a2.903 2.903 0 0 0 2.903-2.897 2.91 2.91 0 0 0-2.903-2.93H22.36ZM80.689 189.823h-60.02a3.729 3.729 0 0 1-3.73-3.719 3.736 3.736 0 0 1 3.73-3.755h60.02a3.727 3.727 0 0 1 3.728 3.719c0 2.086-1.673 3.755-3.728 3.755Zm-60.02-6.652a2.903 2.903 0 0 0-2.903 2.897 2.91 2.91 0 0 0 2.903 2.931h60.02a2.903 2.903 0 0 0 2.903-2.897 2.91 2.91 0 0 0-2.903-2.931h-60.02ZM212.107 60.348c-2.589-1.422-7.137-2.054-12.187-6.842-2.459-2.33-6.013-5.7-6.251-10.752-.277-5.9 4.074-12.227 10.003-13.577 15.845-3.603 22.268 7.62 26.49 14.803 2.846 4.843 7.56 10.689 11.228 12.599 8.536 4.446 16.274-6.8 25.068-3.49 7.57 2.85 4.998 12.374 13.309 17.506 9.546 5.894 17.396-3.919 28.834.963 10.503 4.481 17.742 18.671 15.071 28.208-1.85 6.605-7.037 5.919-11.576 13.684-7.071 12.103 1.077 21.383-3.55 31.898-6.2 14.089-29.715 17.606-44.515 15.945-2.742-.308-31.387-3.962-43.173-26.669-14.301-27.547 4.631-66.93-8.751-74.276ZM197.025 226.797h75.024c-2.37-21.824-6.322-40.481-12.745-51.399l-45.007 2.676s.429 1.344 1.193 3.833l-12.282.97c0-.002-3.141 21.272-6.183 43.92Z"/><path fill="#F0F9FB" d="m137.639 72.995-10.181-9.87s-2.842 2.258 1.51 7.56c-1.188.04-2.424.121-4.41.261-1.598.114-3.184-.306-4.4-1.392-1.414-1.264-3.173-2.8-3.827-3.215-1.157-.736-2.671-1.904-4.227-1.882-1.563.023-3.11 1.266-3.11 1.266l5.477 7.236c2.252 2.975 5.359 5.124 8.864 6.13l5.591 1.603c3.19.916 5.534 3.751 5.931 7.177l2.723 23.534 11.865-11.445c-.004-.001-7.298-20.665-11.806-26.963Z"/><path fill="#15444E" d="M137.575 111.813a.414.414 0 0 1-.41-.365l-2.723-23.532c-.379-3.275-2.591-5.955-5.635-6.827l-5.591-1.604c-3.617-1.037-6.757-3.209-9.08-6.277l-5.477-7.237a.408.408 0 0 1 .072-.568c.067-.054 1.678-1.334 3.362-1.357 1.467-.01 2.849.89 3.958 1.623.172.114.339.224.498.325.545.347 1.851 1.443 3.879 3.255 1.057.944 2.51 1.402 4.097 1.29 1.558-.11 2.652-.183 3.617-.23-1.487-1.983-2.156-3.773-1.989-5.33.155-1.454 1.008-2.145 1.043-2.173a.415.415 0 0 1 .545.026l10.181 9.87a.469.469 0 0 1 .049.055c4.491 6.274 11.559 26.218 11.857 27.065a.413.413 0 0 1-.103.434l-11.865 11.445a.414.414 0 0 1-.285.112Zm-28.002-46.004 5.223 6.9c2.214 2.924 5.205 4.993 8.648 5.982l5.592 1.603c3.364.967 5.808 3.92 6.226 7.524l2.626 22.705 11.074-10.68c-.843-2.359-7.479-20.741-11.64-26.581l-9.852-9.55c-.517.693-1.422 2.766 1.815 6.71a.41.41 0 0 1-.306.67c-1.172.041-2.399.12-4.394.262-1.81.127-3.482-.404-4.705-1.497-1.967-1.759-3.273-2.856-3.773-3.174-.163-.104-.333-.216-.509-.332-1.016-.67-2.271-1.508-3.492-1.486-1.004.017-2.027.606-2.533.944Z"/><path fill="#F0F9FB" d="m151.48 93.519-29.512 29.485 15.607 13.97 24.93-26.155-11.025-17.3Z"/><path fill="#15444E" d="M137.576 137.387a.417.417 0 0 1-.275-.105l-15.607-13.971a.411.411 0 0 1-.017-.598l29.512-29.485a.408.408 0 0 1 .337-.118.41.41 0 0 1 .303.189l11.026 17.298a.413.413 0 0 1-.049.504l-24.932 26.157a.405.405 0 0 1-.298.129Zm-15.008-14.398 14.984 13.413 24.432-25.633-10.576-16.594-28.84 28.814Z"/><path fill="#F0F9FB" d="m260.514 132.885 35.791 13.867s4.977-17.495-3.205-33.216c-7.025-13.495-41.701-25.44-51.385-28.552l-.006-.064c-38.755-14.414-53.821 5.861-53.821 5.861l-.06.138c-4.642 5.304-11.276 15.663-18.346 17.007-6.515 1.237-9.158-5.25-9.158-5.25l-33.964 33.062c32.307 21.728 52.484 12.342 62.391 3.591.188 3.472.253 7.191.126 11.211-.545 17.184.257 26.85 1.341 32.255.774 3.861 4.301 6.428 8.053 5.907l56.206-7.793a24.35 24.35 0 0 1 13.768 2.123c1.451-14.476-8.319-27.792-16.362-49.463-2.087-5.622-3.775-11.6-5.131-17.371l9.613 5.217c3.788 1.658 5.754 6.041 4.544 10.135l-.395 1.335Z"/><path fill="#15444E" d="M197.314 189.177c-3.57 0-6.758-2.606-7.5-6.306-1.362-6.784-1.815-17.668-1.349-32.348.111-3.474.085-6.864-.082-10.333-4.621 3.911-12.099 8.458-22.398 9.182-12.07.846-25.478-3.626-39.855-13.295a.414.414 0 0 1-.056-.638l33.964-33.062a.415.415 0 0 1 .671.138c.103.253 2.596 6.158 8.699 5.002 5.43-1.032 10.692-7.65 14.918-12.968 1.12-1.41 2.178-2.742 3.15-3.856l.036-.082a.515.515 0 0 1 .045-.079c.157-.21 3.937-5.203 12.563-8.475 7.922-3.005 21.594-5.016 41.734 2.474a.424.424 0 0 1 .169.116c10.54 3.4 44.433 15.228 51.444 28.699 8.163 15.685 3.286 33.342 3.237 33.518a.413.413 0 0 1-.547.271l-35.79-13.867a.413.413 0 0 1-.248-.501l.396-1.34c1.155-3.914-.699-8.059-4.314-9.642l-8.832-4.793c1.453 6.049 3.102 11.572 4.902 16.425 2.562 6.902 5.342 13.05 7.796 18.476 5.357 11.846 9.589 21.204 8.588 31.171a.413.413 0 0 1-.588.33 23.91 23.91 0 0 0-13.533-2.087l-56.207 7.795a6.68 6.68 0 0 1-1.013.075Zm-8.562-50.264a.412.412 0 0 1 .412.389c.204 3.788.245 7.466.125 11.247-.464 14.616-.015 25.437 1.334 32.159.727 3.62 4.061 6.072 7.59 5.581l56.206-7.793c4.58-.636 9.224.026 13.465 1.912.76-9.539-3.37-18.67-8.572-30.173-2.46-5.437-5.247-11.6-7.817-18.53-1.901-5.124-3.634-10.987-5.145-17.42a.41.41 0 0 1 .599-.456l9.613 5.218c3.964 1.733 6.017 6.302 4.743 10.613l-.288.976 35.003 13.562c.686-2.801 4.011-18.451-3.287-32.473-6.906-13.269-40.893-25.056-51.145-28.35a.4.4 0 0 1-.195-.135c-19.805-7.326-33.213-5.36-40.981-2.413-8.028 3.046-11.814 7.71-12.166 8.161l-.041.096a.401.401 0 0 1-.066.102c-.97 1.109-2.038 2.452-3.169 3.875-4.312 5.425-9.679 12.177-15.411 13.265-5.621 1.067-8.517-3.381-9.356-4.962l-33.191 32.311c32.35 21.552 52.383 11.362 61.465 3.341a.423.423 0 0 1 .275-.103Z"/><path fill="#F0F9FB" d="m264.583 142.896-9.277 17.486-5-2.86c-2.86-1.637-5.649-2.792-9.366-1.129 0 0-12.63 7.199-13.968 9.078-1.071 1.504-.271 3.659 1.491 4.023 0 0 2.179 1.256 12.494-1.985 3.7-1.162 14.777 2.998 18.541 1.61 3.763-1.389 15.345-19.741 15.345-19.741l-10.26-6.482Z"/><path fill="#15444E" d="M230.208 170.148c-1.155 0-1.687-.176-1.88-.264a2.877 2.877 0 0 1-2.036-1.773 3.034 3.034 0 0 1 .344-2.88c1.373-1.929 13.581-8.9 14.1-9.195 4.038-1.811 7.043-.434 9.776 1.129l4.628 2.648 9.078-17.11a.41.41 0 0 1 .584-.155l10.259 6.478a.413.413 0 0 1 .13.568c-.476.755-11.702 18.487-15.551 19.909-2.046.755-6.011-.019-9.848-.766-3.45-.673-7.018-1.368-8.712-.836-5.808 1.824-9.085 2.247-10.872 2.247Zm14.296-14.157c-1.045 0-2.165.226-3.394.778-3.456 1.971-12.747 7.46-13.799 8.938a2.213 2.213 0 0 0-.251 2.103c.266.673.807 1.138 1.487 1.278a.417.417 0 0 1 .124.047c.011.004 2.339 1.065 12.162-2.02 1.894-.595 5.404.089 9.119.812 3.723.727 7.573 1.477 9.403.802 2.913-1.074 11.546-13.917 14.92-19.227l-9.535-6.019-9.07 17.092a.413.413 0 0 1-.571.167l-4.999-2.86c-1.759-1.011-3.535-1.891-5.596-1.891Z"/><path fill="#F0F9FB" d="m263.15 133.903-3.284 8.485 27.21 18.582s4.527-9.66 4.821-16.166l-28.747-10.901Z"/><path fill="#15444E" d="M287.076 161.384a.406.406 0 0 1-.232-.073l-27.21-18.582a.411.411 0 0 1-.151-.488l3.283-8.485a.415.415 0 0 1 .532-.237l28.748 10.903a.414.414 0 0 1 .266.404c-.294 6.511-4.674 15.922-4.859 16.32a.407.407 0 0 1-.377.238Zm-26.707-19.15 26.535 18.12c.862-1.927 4.211-9.72 4.565-15.27l-28.081-10.651-3.019 7.801Z"/><path fill="#F0F9FB" d="m206.462 63.126 3.908 18.13-11.063 4.105s14.755 9.23 36.277.905l-11.319-6.298-7.545-22.135-10.258 5.293Z"/><path fill="#15444E" d="M217.796 90.131c-11.453 0-18.606-4.356-18.707-4.42a.41.41 0 0 1 .075-.734l10.729-3.98-3.832-17.781a.41.41 0 0 1 .213-.453l10.258-5.292a.409.409 0 0 1 .58.234l7.495 21.985 11.181 6.22c.14.078.221.23.211.388a.413.413 0 0 1-.262.355c-6.693 2.585-12.758 3.476-17.941 3.478Zm-17.501-4.696c3.233 1.665 16.392 7.367 34.314.76l-10.545-5.866a.408.408 0 0 1-.19-.228l-7.391-21.683-9.551 4.929 3.841 17.821a.41.41 0 0 1-.26.473l-10.218 3.794Z"/><path fill="#F0F9FB" d="M217.446 63.126s4.211 1.2 4.951-2.588c.74-3.788-2.746-3.212-2.746-3.212s3.003-8.44-2.871-8.657c-5.875-.215-10.316-2.037-10.316-2.037s-3.521 8.116-4.293 14.704c-.465 3.973.071 7.391 2.982 8.139 7.972 2.046 12.293-6.349 12.293-6.349Z"/><path fill="#15444E" d="M207.604 70.207c-.806 0-1.658-.103-2.552-.332-2.766-.71-3.873-3.6-3.289-8.586.77-6.573 4.29-14.74 4.323-14.82a.413.413 0 0 1 .536-.217c.043.019 4.447 1.796 10.173 2.005 1.463.055 2.55.589 3.232 1.59 1.429 2.1.605 5.643.198 7.035.573.015 1.412.155 2.008.766.635.653.826 1.65.57 2.968-.225 1.155-.772 2.005-1.626 2.529-1.272.777-2.853.585-3.522.452-.762 1.297-4.243 6.61-10.051 6.61Zm-.914-23.049c-.684 1.647-3.445 8.556-4.108 14.226-.528 4.513.373 7.102 2.675 7.692 7.565 1.94 11.78-6.058 11.823-6.139a.413.413 0 0 1 .48-.207c.018.005 1.878.516 3.19-.29.646-.396 1.063-1.063 1.243-1.98.203-1.036.085-1.788-.348-2.234-.665-.686-1.913-.497-1.926-.495a.41.41 0 0 1-.455-.544c.017-.047 1.615-4.626.079-6.878-.534-.783-1.377-1.184-2.578-1.23-4.965-.18-8.867-1.476-10.075-1.92ZM188.692 137.373a.414.414 0 0 1-.413-.398l-.787-24.157a.412.412 0 0 1 .825-.027l.787 24.157a.41.41 0 0 1-.399.425h-.013Z"/><path fill="#F0F9FB" d="M267.891 349.067s1.25.006 2.447-.85c3.703-2.648 11.402-8.56 16.659-7.821 8.808 1.237 9.851 8.488 9.851 8.488s7.429-.279 7.281 4.706c-.114 3.825-2.274 8.684-8.279 11.359-8.188 3.646-16.394 6.423-25.452.439-1.759-1.163-3.846-1.703-5.937-1.491-5.089.517-80.939 2.164-80.939 2.164-17.351 0-33.267-9.707-41.324-25.198l-15.987-30.743 18.316-51.598 28.721 67.27c13.916 19.147 93.193 23.608 94.643 23.275Z"/><path fill="#15444E" d="M281.466 369.311c-3.638 0-7.373-.99-11.295-3.578-1.694-1.118-3.706-1.624-5.667-1.424-5.048.512-77.873 2.098-80.971 2.166-17.57 0-33.546-9.741-41.7-25.421l-15.988-30.743a.413.413 0 0 1-.022-.327l18.316-51.597a.412.412 0 0 1 .376-.275.404.404 0 0 1 .393.251l28.705 67.226c7.167 9.789 31.922 15.574 51.442 18.702 21.493 3.444 41.667 4.534 42.759 4.377a.527.527 0 0 1 .079-.007 4.23 4.23 0 0 0 2.206-.774c.268-.191.555-.398.86-.619 4.134-2.986 11.056-7.984 16.098-7.275 7.873 1.106 9.769 6.967 10.128 8.481 1.079.009 4.346.194 6.148 1.977.839.832 1.247 1.893 1.21 3.155-.056 1.883-.835 8.299-8.525 11.723-4.806 2.136-9.588 3.981-14.552 3.982Zm-16.121-5.872a9.62 9.62 0 0 1 5.283 1.604c8.923 5.894 16.944 3.14 25.055-.471 7.249-3.228 7.983-9.232 8.036-10.996.03-1.039-.285-1.871-.967-2.546-1.882-1.863-5.848-1.738-5.887-1.736a.412.412 0 0 1-.423-.353c-.042-.284-1.121-6.962-9.501-8.139-4.713-.665-11.73 4.405-15.499 7.126l-.863.622c-1.244.89-2.533.927-2.677.929-1.626.125-21.552-.962-42.721-4.339-19.803-3.159-44.947-9.038-52.265-19.11a.316.316 0 0 1-.045-.08l-28.307-66.298-17.904 50.433 15.905 30.586c8.012 15.407 23.705 24.977 40.959 24.977.749-.016 75.881-1.652 80.898-2.162.305-.03.614-.047.923-.047Z"/><path fill="#F0F9FB" d="m247.964 335.238 7.335-12.946 6.02 3.938c.332.217.609.51.808.856l.359.626a2.5 2.5 0 0 0 2.184 1.26c.484-.006.963.134 1.375.403l44.778 29.239c.369.241.706.531 1 .86l9.05 10.112-12.595-2.869a8.15 8.15 0 0 1-1.978-.732l-47.125-24.839a2.525 2.525 0 0 1-.98-.922l-.06-.097a2.496 2.496 0 0 0-2.132-1.205l-.434.002a2.477 2.477 0 0 1-1.152-.285l-6.453-3.401Z"/><path fill="#15444E" d="M320.875 370a.468.468 0 0 1-.091-.009l-12.596-2.869a8.449 8.449 0 0 1-2.077-.77l-47.125-24.839a2.938 2.938 0 0 1-1.139-1.071l-.06-.097a2.09 2.09 0 0 0-1.77-1.007h-.007l-.435.002a2.98 2.98 0 0 1-1.347-.333l-6.457-3.403a.405.405 0 0 1-.202-.249.396.396 0 0 1 .038-.317l7.335-12.944a.41.41 0 0 1 .586-.142l6.021 3.939c.384.253.71.597.94.995l.36.624c.378.66 1.086 1.074 1.82 1.054a2.787 2.787 0 0 1 1.606.471l44.777 29.238c.399.26.763.574 1.083.931l9.049 10.112a.41.41 0 0 1-.309.684Zm-64.86-31.488c.999 0 1.946.536 2.475 1.403l.06.098c.2.327.483.594.818.769l47.125 24.84a7.629 7.629 0 0 0 1.877.695l11.335 2.581-8.188-9.15a4.645 4.645 0 0 0-.92-.789l-44.778-29.238a2.018 2.018 0 0 0-1.142-.337 2.882 2.882 0 0 1-2.548-1.467l-.359-.624a2.118 2.118 0 0 0-.677-.716l-5.653-3.698-6.91 12.192 6.08 3.205c.296.157.613.228.958.238l.434-.002h.013Z"/><path fill="#15444E" d="M308.559 364.741a.413.413 0 0 1-.367-.6l2.691-5.252a.414.414 0 0 1 .736.375l-2.691 5.253a.417.417 0 0 1-.369.224ZM244.868 315.884l10.671 6.502-7.528 12.925-10.671-6.502c-1.956-1.19-2.626-3.727-1.497-5.665l3.443-5.911c1.128-1.936 3.626-2.54 5.582-1.349Z"/><path fill="#15444E" d="M248.01 335.722a.423.423 0 0 1-.215-.06l-10.671-6.502c-2.143-1.304-2.878-4.096-1.639-6.221l3.442-5.911a4.316 4.316 0 0 1 2.698-2.03 4.491 4.491 0 0 1 3.458.536l10.671 6.502a.413.413 0 0 1 .142.559l-7.528 12.925a.42.42 0 0 1-.255.193.729.729 0 0 1-.103.009Zm-5.293-20.038c-.298 0-.596.037-.89.11a3.51 3.51 0 0 0-2.186 1.647l-3.443 5.911c-1.015 1.742-.406 4.031 1.356 5.106l10.312 6.283 7.114-12.213-10.326-6.293a3.724 3.724 0 0 0-1.937-.551ZM258.518 337.492a.411.411 0 0 1-.356-.622l3.632-6.079a.412.412 0 1 1 .708.422l-3.632 6.079a.41.41 0 0 1-.352.2ZM279.948 342.633a.417.417 0 0 1-.221-.063l-13.363-8.457a.411.411 0 1 1 .442-.695l13.363 8.457a.41.41 0 0 1-.221.758ZM307.805 360.051a.41.41 0 0 1-.219-.064l-5.22-3.275a.412.412 0 1 1 .44-.697l5.22 3.275a.412.412 0 0 1-.221.761Z"/><path fill="#F0F9FB" d="M246.821 330.527a.422.422 0 0 1-.218-.062l-8.131-5.034a.41.41 0 1 1 .434-.698l8.132 5.033a.412.412 0 0 1-.217.761ZM267.894 349.067s10.93-1.371 17.89-.4c5.421.757 21.467-3.126 18.114 7.339-.721 2.254-1.103 3.755-3.089 5.88-1.086 1.162-4.061 3.558-5.745 4.309-8.195 3.65-15.622 5.179-24.69-.826a9.047 9.047 0 0 0-5.906-1.472c-1.214.121 3.042-14.74 3.426-14.83Z"/><path fill="#15444E" d="M282.585 369.809c-3.988 0-8.038-1.179-12.444-4.096a8.674 8.674 0 0 0-5.636-1.408c-1.33.135-5.603.286-5.784.292a.404.404 0 0 1-.427-.396.41.41 0 0 1 .397-.426c.045-.002 4.426-.155 5.73-.288a9.488 9.488 0 0 1 6.175 1.54c8.731 5.78 15.771 4.59 24.293.794 1.583-.704 4.528-3.054 5.611-4.212 1.788-1.914 2.212-3.25 2.854-5.274l.143-.451c.64-1.997.575-3.468-.201-4.496-1.68-2.23-6.548-2.091-10.842-1.97-2.676.077-5.203.148-6.801-.353-8.298-2.598-17.546.368-17.638.398-.425.099-1.644.06-4.387-.127a.414.414 0 0 1-.384-.439.414.414 0 0 1 .44-.383c.913.061 3.687.252 4.108.157.058-.021 9.552-3.069 18.106-.391 1.467.46 3.926.389 6.532.316 4.494-.127 9.587-.271 11.526 2.299.934 1.239 1.043 3.003.325 5.244l-.142.448c-.652 2.054-1.122 3.538-3.038 5.588-1.124 1.204-4.155 3.637-5.878 4.403-4.361 1.94-8.465 3.231-12.638 3.231ZM99.826 222.369s33.66 4.496 44.839 18.228c14.16 17.394 20.262 43.237 22.244 54.405a25.32 25.32 0 0 1-.206 9.896l-.824 3.73c-2.907 13.168-14.821 22.295-28.184 21.593l.669.002c-2.16-.114-5.31-.834-6.225-2.809l-3.536-6.506-.333 2.344c-2.659 17.307 12.269 41.15 12.269 41.15l-40.867-5.55c-20.455-2.071-39.919-10.197-55.534-23.675-8.477-7.319-15.034-14.166-17.862-22.483-4.803-14.121-4.363-18.144-5.711-35.276-.918-11.666 3.296-27.861 10.555-36.994 10.671-13.417 30.383-22.958 68.706-18.055Z"/><path fill="#F0F9FB" d="M130.89 327.433a.41.41 0 0 1-.373-.236l-9.427-19.959a.413.413 0 0 1 .745-.352l9.428 19.96a.41.41 0 0 1-.373.587Z"/><path fill="#15444E" d="M105.129 154.945c9.754-5.717 11.076-22.925 3.84-26.665-6.53-3.375-14.584.301-24.684 5.111-4.803 2.288-11.786 2.179-19.187 3.628-34.142 6.681-32.545 48.19.963 75.059 24.133 19.352 38.321-48.067 38.321-48.067l.747-9.066Z"/><path fill="#F0F9FB" d="M97.544 158.999c.616-5.592 6.55-5.885 7.584-4.053 2.512 4.446 3.711 7.54 4.112 9.428.539 2.54-1.798 5.08-.54 7.799 1.259 2.719 3.239 5.804 3.419 10.701.176 4.786 4.99 26.719-11.913 26.024a1.154 1.154 0 0 0-1.209 1.168c.042 3.338.22 12.521.954 17.492a5.441 5.441 0 0 1-3.889 6.029c-6.766 1.927-19.363 4.639-28.79 1.548-2.45-.804-3.737-3.512-2.864-5.956 1.114-3.119 2.67-11.886 1.652-17.104 0 0 5.645-.561 11.93-3.469 9.662-4.468 14.416-15.351 11.747-25.725-.575-2.231-1.817-5.403-.523-8.761 2.032-5.278 4.68-4.11 6.438-2.39.708.691 1.892.187 1.892-.808v-11.923Z"/><path fill="#15444E" d="M77.216 236.948c-3.484 0-6.95-.394-10.072-1.419a4.926 4.926 0 0 1-2.901-2.532 5.045 5.045 0 0 1-.223-3.953c1.082-3.031 2.64-11.738 1.635-16.885a.411.411 0 0 1 .363-.489c.057-.006 5.654-.591 11.797-3.432 9.33-4.315 14.175-14.934 11.52-25.248a41.103 41.103 0 0 0-.258-.942c-.6-2.125-1.418-5.036-.25-8.07.92-2.386 2.078-3.747 3.44-4.042 1.158-.25 2.394.256 3.673 1.506.208.204.491.258.757.146a.694.694 0 0 0 .435-.658l-.002-11.929c0-.015 0-.03.002-.045.309-2.812 2-4.799 4.519-5.315 1.668-.342 3.28.124 3.835 1.105 2.819 4.988 3.815 7.944 4.156 9.546.259 1.22-.084 2.416-.415 3.573-.407 1.419-.793 2.757-.152 4.14.208.45.436.91.672 1.387 1.171 2.362 2.63 5.302 2.784 9.471.02.587.114 1.433.232 2.506.59 5.401 1.69 15.454-3.207 20.681-2.184 2.33-5.336 3.429-9.366 3.263a.721.721 0 0 0-.554.211.73.73 0 0 0-.223.54c.045 3.613.225 12.546.95 17.439a5.865 5.865 0 0 1-4.183 6.485c-4.542 1.291-11.795 2.96-18.964 2.96Zm-10.671-24.514c.87 5.332-.667 13.867-1.746 16.887a4.23 4.23 0 0 0 .187 3.314 4.099 4.099 0 0 0 2.417 2.111c9.34 3.062 21.895.342 28.548-1.553a5.04 5.04 0 0 0 3.593-5.573c-.73-4.943-.914-13.919-.959-17.548a1.552 1.552 0 0 1 .474-1.142 1.59 1.59 0 0 1 1.163-.443c3.778.155 6.717-.856 8.729-3.003 4.638-4.951 3.567-14.761 2.99-20.029-.12-1.089-.214-1.949-.236-2.566-.146-3.994-1.503-6.726-2.698-9.137-.239-.484-.472-.951-.681-1.407-.768-1.66-.323-3.211.108-4.711.319-1.109.62-2.157.403-3.176-.27-1.265-1.154-4.156-4.069-9.312-.324-.574-1.515-.994-2.95-.701-.803.164-3.456.979-3.862 4.575l.002 11.905c0 .631-.36 1.175-.94 1.418a1.499 1.499 0 0 1-1.655-.318c-1.067-1.044-2.049-1.478-2.92-1.289-1.073.234-2.03 1.422-2.845 3.534-1.072 2.779-.326 5.425.273 7.552.094.336.186.656.262.961 2.754 10.699-2.281 21.718-11.973 26.199-5.267 2.443-10.154 3.252-11.615 3.452Z"/><path fill="#15444E" d="M112.166 180.593a.412.412 0 0 1-.216-.764c5.639-3.411 1.816-13.118.931-15.16l-15.472 7.561a.413.413 0 0 1-.363-.74l15.856-7.748a.402.402 0 0 1 .317-.019.403.403 0 0 1 .236.211c.241.505 5.84 12.417-1.077 16.599a.399.399 0 0 1-.212.06Z"/><path fill="#15444E" d="M112.605 186.936a.413.413 0 0 1-.292-.703l2.164-2.162c.708-.708.8-1.815.219-2.631l-1.487-2.093a.412.412 0 0 1 .672-.477l1.487 2.093a2.855 2.855 0 0 1-.309 3.689l-2.163 2.163a.41.41 0 0 1-.291.121ZM95.205 188.835c-.339 0-.7-.039-1.077-.13-1.835-.455-3.416-2.045-4.7-4.724a.413.413 0 0 1 .746-.355c1.17 2.448 2.57 3.888 4.155 4.279 1.714.424 3.059-.553 3.072-.563a.411.411 0 1 1 .493.66c-.057.041-1.147.833-2.689.833Z"/><path fill="#F0F9FB" d="M15.48 271.71c11.504 7.665 37.95 20.625 82.588 17.878a6.953 6.953 0 0 1 6.946 4.519l2.658 10.724a126.267 126.267 0 0 0 24.788 49.549l8.285 10.131a.429.429 0 0 1-.358.699l-30.33-2.247c-46.94-6.26-83.407-29.995-95.103-73.233l-3.986-14.738c-.727-2.674 2.22-4.81 4.513-3.282Z"/><path fill="#15444E" d="M140.545 364.819a.415.415 0 0 1-.322-.154l-7.903-9.806c-11.898-14.553-20.586-31.918-25.121-50.216l-2.581-10.417a6.513 6.513 0 0 0-6.526-4.229c-4.123.254-8.094.372-11.912.372-35.331 0-57.61-10.128-68.247-16.607-1.367-.834-3.012-.757-4.291.2-1.298.97-1.84 2.551-1.414 4.126l3.119 11.533c10.386 38.396 41.737 63.945 88.276 71.944a.413.413 0 0 1-.14.813c-22.638-3.891-41.723-11.821-56.727-23.568-15.962-12.498-26.798-28.975-32.207-48.974l-3.12-11.533c-.514-1.908.141-3.824 1.717-4.999 1.554-1.163 3.555-1.256 5.216-.243 11.702 7.13 37.612 18.704 79.677 16.117a7.333 7.333 0 0 1 7.358 4.786c.006.015.009.03.013.045l2.587 10.44c4.505 18.18 13.136 35.435 24.96 49.895l7.904 9.807a.412.412 0 0 1-.063.58.397.397 0 0 1-.253.088Z"/><path fill="#F0F9FB" d="M338.762 281.161c-2.1-4.358-2.3-8.75 0-13.187l-1.652-1.995-54.558 1.496 1.557 14.465 53.111.509 1.542-1.288Z"/><path fill="#15444E" d="M337.222 282.858h-.004l-53.112-.508a.413.413 0 0 1-.406-.368l-1.557-14.465a.416.416 0 0 1 .1-.316.403.403 0 0 1 .299-.14l54.558-1.497a.419.419 0 0 1 .33.149l1.652 1.996a.413.413 0 0 1 .048.451c-2.152 4.152-2.152 8.344.006 12.82a.412.412 0 0 1-.107.495l-1.539 1.286a.422.422 0 0 1-.268.097Zm-52.739-1.327 52.591.503 1.18-.985c-2.066-4.47-2.061-8.849.019-13.02l-1.351-1.634-53.91 1.48 1.471 13.656Z"/><path fill="#15444E" d="M247.006 264.384h93.22c.98 0 1.774.8 1.774 1.789a1.78 1.78 0 0 1-1.774 1.788h-47.93c-2.823 0-5.11 2.306-5.11 5.153v2.897c0 2.844 2.287 5.152 5.11 5.152h47.93c.98 0 1.774.8 1.774 1.788a1.78 1.78 0 0 1-1.774 1.789h-93.22c-5.203 0-9.422-4.254-9.422-9.499v-1.357c0-5.248 4.219-9.5 9.422-9.5Z"/><path fill="#F0F9FB" d="M334.083 306.157h-85.111v-19.33h85.111c-2.235 6.317-2.297 13.181 0 19.33Z"/><path fill="#15444E" d="M334.083 306.568h-85.111a.412.412 0 0 1-.412-.411v-19.329c0-.228.186-.411.412-.411h85.111a.413.413 0 0 1 .39.549c-2.233 6.309-2.235 13.075-.002 19.047a.414.414 0 0 1-.047.38.417.417 0 0 1-.341.175Zm-84.697-.822h84.111c-2.036-5.84-2.033-12.366.009-18.505h-84.12v18.505Z"/><path fill="#15444E" d="M326.495 294.015h-64.427a.412.412 0 1 1 0-.823h64.427a.412.412 0 1 1 0 .823ZM315.004 299.416h-52.936a.412.412 0 1 1 0-.822h52.936a.412.412 0 1 1 0 .822Z"/><path fill="#F0F9FB" d="M258.709 287.75h76.517c.807 0 1.461-.659 1.461-1.472s-.654-1.475-1.461-1.475h-96.498c-3.548 0-6.423 2.899-6.423 6.476v10.18c0 3.577 2.875 6.475 6.423 6.475h96.496c.807 0 1.461-.66 1.461-1.474 0-.813-.654-1.473-1.461-1.473h-76.517c-2.506 0-4.536-2.048-4.536-4.575v-8.087c0-2.526 2.032-4.575 4.538-4.575Z"/><path fill="#15444E" d="M335.225 308.346h-96.496c-3.769 0-6.835-3.089-6.835-6.887v-10.18c0-3.797 3.066-6.886 6.835-6.886h96.496c1.034 0 1.875.846 1.875 1.885a1.883 1.883 0 0 1-1.875 1.886h-76.517c-2.274 0-4.125 1.867-4.125 4.164v8.086c0 2.295 1.851 4.164 4.125 4.164h76.517c1.034 0 1.875.847 1.875 1.886a1.88 1.88 0 0 1-1.875 1.882Zm-96.496-23.131c-3.314 0-6.011 2.721-6.011 6.064v10.18c0 3.343 2.695 6.065 6.011 6.065h96.496c.578 0 1.049-.477 1.049-1.062 0-.585-.471-1.062-1.049-1.062h-76.517c-2.729 0-4.951-2.237-4.951-4.986v-8.086c0-2.749 2.222-4.986 4.951-4.986h76.517c.578 0 1.049-.477 1.049-1.062 0-.585-.471-1.061-1.049-1.061h-96.496v-.004ZM293.382 272.536a.411.411 0 1 1 0-.823h39.327a.411.411 0 1 1 0 .823h-39.327Z"/><path fill="#F0F9FB" d="M183.505 29.063H121.94c-2.312 0-4.258 1.738-4.537 4.051l-2.287 18.922c-.332 2.746 1.794 5.166 4.537 5.166h50.942l6.099 11.26 1.328-11.26h3.039c2.296 0 4.235-1.718 4.533-4.012l2.444-18.923c.354-2.76-1.776-5.205-4.533-5.205Z"/><path fill="#15444E" d="M176.696 68.873a.411.411 0 0 1-.364-.217l-5.983-11.045h-50.695a4.976 4.976 0 0 1-3.713-1.67 5.046 5.046 0 0 1-1.234-3.955l2.287-18.922c.304-2.516 2.432-4.415 4.947-4.415h61.565c1.424 0 2.782.615 3.726 1.688a5.046 5.046 0 0 1 1.216 3.98l-2.443 18.923c-.322 2.493-2.446 4.373-4.941 4.373h-2.671l-1.285 10.897a.414.414 0 0 1-.412.363Zm-54.755-39.4c-2.1 0-3.873 1.585-4.128 3.69l-2.287 18.922a4.218 4.218 0 0 0 1.032 3.31 4.144 4.144 0 0 0 3.094 1.394h50.943c.151 0 .29.082.363.217l5.479 10.114 1.175-9.967a.412.412 0 0 1 .41-.364h3.038c2.081 0 3.853-1.572 4.123-3.654l2.444-18.922a4.222 4.222 0 0 0-1.017-3.332 4.146 4.146 0 0 0-3.105-1.407h-61.564Z"/><path fill="#15444E" d="M148.158 40.807h17.383a2.045 2.045 0 0 0 2.047-2.042v-.02a2.045 2.045 0 0 0-2.047-2.043h-17.383c-1.13 0-2.048.914-2.048 2.043v.02c0 1.129.916 2.042 2.048 2.042ZM129.058 40.807h9.285c1.13 0 2.048-.913 2.048-2.042v-.02a2.045 2.045 0 0 0-2.048-2.043h-9.285c-1.13 0-2.047.914-2.047 2.043v.02c0 1.129.916 2.042 2.047 2.042ZM127.416 49.677h44.767c1.13 0 2.048-.914 2.048-2.042v-.02a2.045 2.045 0 0 0-2.048-2.043h-44.767a2.045 2.045 0 0 0-2.047 2.042v.02c0 1.127.916 2.043 2.047 2.043ZM54.47 17.57a8.32 8.32 0 0 1-1.85.56 9.531 9.531 0 0 1-1.777.178c-.555 0-1.056-.03-1.505-.093a7.272 7.272 0 0 1-1.328-.3 4.275 4.275 0 0 1-1.131-.57c-.71-.504-1.066-1.218-1.066-2.14 0-.55.128-1.06.383-1.534.256-.48.59-.876 1-1.187.873-.674 1.827-1.01 2.862-1.01 1.24 0 2.163.365 2.767 1.094.3.368.45.813.45 1.337 0 .523-.25.978-.749 1.365-.492.38-1.013.57-1.561.57-.131 0-.197-.065-.197-.196 0-.137.063-.234.187-.29.125-.062.275-.118.45-.168.174-.056.348-.122.523-.197.43-.193.645-.505.645-.935 0-.436-.2-.763-.599-.981-.392-.225-1.078-.337-2.056-.337-.98 0-1.736.25-2.273.748-.536.492-.803 1.082-.803 1.767 0 .904.401 1.546 1.206 1.926.716.343 1.573.515 2.57.515 1.715 0 3.102-.49 4.161-1.468.748-.686 1.122-1.55 1.122-2.59 0-.624-.221-1.228-.664-1.814a9.06 9.06 0 0 0-.645-.776l-.71-.767a10.018 10.018 0 0 1-.645-.767c-.443-.56-.664-1.084-.664-1.57s.078-.904.234-1.253c.162-.355.374-.66.635-.916.268-.262.574-.487.917-.674a4.439 4.439 0 0 1 2.197-.58c.673 0 1.3.163 1.88.487.635.349.953.882.953 1.599 0 .28-.1.526-.3.738-.199.212-.423.318-.673.318a.897.897 0 0 1-.617-.215c-.155-.143-.233-.302-.233-.477 0-.18.074-.37.224-.57.156-.206.234-.374.234-.505a.518.518 0 0 0-.169-.374 1.05 1.05 0 0 0-.43-.252 3.31 3.31 0 0 0-.953-.16c-.661 0-1.228.197-1.702.59-.474.393-.71.938-.71 1.636 0 .38.236.826.71 1.337.212.224.443.464.692.72.255.25.511.517.767.804.255.287.489.583.7.888.474.673.711 1.372.711 2.095 0 .723-.143 1.377-.43 1.963a4.334 4.334 0 0 1-1.131 1.459c-.461.38-.997.704-1.608.972Zm10.37-1.365c-.28.56-.68 1.025-1.197 1.393-.511.368-1.1.552-1.767.552-.667 0-1.2-.256-1.599-.767-.293 1.153-.542 1.976-.748 2.468-.648 1.527-1.537 2.294-2.665 2.3a.94.94 0 0 1-.691-.28.897.897 0 0 1-.281-.655c0-.243.062-.436.187-.58a.637.637 0 0 1 .495-.205c.206 0 .378.047.515.14.137.1.205.25.205.449 0 .206-.109.424-.327.654l.056.075c.387 0 .739-.564 1.057-1.692.125-.455.215-.81.27-1.066.057-.256.091-.408.104-.458l.981-3.862c-.305.2-.695.586-1.168 1.16l-.365-.42a8.34 8.34 0 0 1 .972-1.114c.374-.361.611-.592.711-.691.486-1.44.957-2.518 1.412-3.235.474-.723.997-1.294 1.57-1.711l.253.224c-.393.468-.726 1.063-1 1.786a8.931 8.931 0 0 0-.533 2.085c.667-.268 1.3-.402 1.898-.402.604 0 1.103.19 1.496.57.392.38.589.882.589 1.505 0 .624-.144 1.216-.43 1.777Zm-3.647-2.609-.71 3.142c.112.243.299.427.56.551.262.125.565.187.908.187.342 0 .657-.146.944-.439.536-.549.804-1.262.804-2.141 0-.786-.212-1.315-.636-1.59-.168-.112-.393-.168-.673-.168-.274 0-.673.153-1.197.458Zm10.004-1.037h1.459l-.739 2.795a3.754 3.754 0 0 0-.177 1.075c0 .318.056.477.168.477.112 0 .265-.096.458-.29.2-.2.368-.399.505-.598l.215-.3.402.375a4.636 4.636 0 0 1-.785 1.094c-.617.642-1.153.963-1.609.963-.535 0-.803-.415-.803-1.244 0-.137.006-.24.018-.308a1.849 1.849 0 0 1-.533.841c-.498.474-1.063.71-1.692.71-.623 0-1.125-.211-1.505-.635-.374-.43-.561-.966-.561-1.608 0-.998.324-1.84.972-2.525.648-.685 1.409-1.028 2.281-1.028.437 0 .798.121 1.085.364.287.237.474.549.56.935l.281-1.093Zm-1.561.598c-.361 0-.701.153-1.02.458-.31.3-.55.664-.719 1.094a3.357 3.357 0 0 0-.253 1.243c0 .406.088.733.262.982.181.25.455.374.823.374.374 0 .71-.168 1.01-.505.567-.648.85-1.418.85-2.31 0-.89-.317-1.336-.953-1.336Zm6.021 4.993c-.262 0-.467-.081-.617-.243-.15-.163-.224-.384-.224-.664 0-.287.071-.673.215-1.16.15-.492.296-.938.44-1.337.149-.399.224-.664.224-.794 0-.137-.044-.206-.131-.206-.218 0-.57.43-1.057 1.29l-.626-.364c.916-1.546 1.757-2.32 2.524-2.32.524 0 .785.331.785.992 0 .193-.062.502-.186.926l-.674 1.925c-.068.181-.102.346-.102.496 0 .143.056.215.168.215.212 0 .601-.393 1.168-1.178l.393.365c-.336.623-.738 1.122-1.206 1.496-.461.374-.826.56-1.094.56Zm2.665-8.555c0 .249-.084.476-.253.682a.836.836 0 0 1-.682.309c-.287 0-.502-.084-.645-.253a.997.997 0 0 1-.215-.654c0-.262.087-.493.261-.692a.88.88 0 0 1 .692-.309c.28 0 .49.09.627.272.143.174.215.39.215.645Zm2.74 5.778c1.302-2.014 2.47-3.02 3.505-3.02.35 0 .611.106.786.318.174.212.262.48.262.804 0 .324-.147.885-.44 1.683-.287.798-.43 1.293-.43 1.486 0 .187.047.28.14.28.125 0 .309-.127.552-.383.243-.261.458-.536.645-.822l.393.374c-.374.68-.786 1.193-1.234 1.542-.443.343-.805.515-1.085.515-.274 0-.49-.09-.645-.271-.156-.188-.234-.44-.234-.758s.125-.835.374-1.552c.256-.723.383-1.234.383-1.533 0-.306-.102-.458-.308-.458-.237 0-.517.152-.841.458-.325.299-.64.667-.945 1.103a28.042 28.042 0 0 0-1.486 2.412L80.2 18h-1.318l.29-.879c.542-1.62.813-2.58.813-2.88 0-.305-.05-.458-.15-.458-.18 0-.395.215-.645.645-.056.1-.103.181-.14.243a3.778 3.778 0 0 0-.13.216c-.044.08-.073.13-.085.15l-.626-.366c.486-.791.931-1.374 1.337-1.748.405-.38.82-.57 1.243-.57.193 0 .359.08.496.243a.858.858 0 0 1 .215.589c0 .23-.019.458-.056.682a5.077 5.077 0 0 1-.122.552c-.037.143-.09.33-.159.561-.062.23-.097.362-.103.393ZM74.597 42.588c0 7.596-8.952 14.106-8.952 14.106s-8.951-6.51-8.951-14.106c0-2.59.943-5.074 2.621-6.905 1.68-1.831 3.956-2.86 6.33-2.86s4.651 1.029 6.33 2.86c1.679 1.831 2.622 4.315 2.622 6.905Z"/><path fill="#F0F9FB" d="M65.645 45.843c1.648 0 2.984-1.457 2.984-3.255 0-1.798-1.336-3.255-2.984-3.255s-2.984 1.457-2.984 3.255c0 1.798 1.336 3.255 2.984 3.255Z"/></svg>