<svg xmlns="http://www.w3.org/2000/svg" width="379" height="370" fill="none"><path fill="#F0F9FB" stroke="#15444E" d="m154.973 59.78-.327-.034-.16.287-1.247 2.241-1.869-.528.149-2.542.02-.334-.301-.145a10.89 10.89 0 0 1-1.567-.925l-.266-.189-.281.168-2.219 1.327-1.345-1.371 1.42-2.129.186-.28-.189-.278a10.84 10.84 0 0 1-.884-1.571l-.137-.3-.329.008-2.597.057-.467-1.843 2.31-1.145.299-.148-.022-.333a10.49 10.49 0 0 1 .035-1.796l.035-.333-.295-.16-2.27-1.225.531-1.826 2.593.147.329.018.147-.294c.272-.546.586-1.062.938-1.542l.199-.271-.177-.287-1.34-2.172 1.393-1.326 2.174 1.406.274.177.272-.18a11.073 11.073 0 0 1 1.598-.871l.304-.135-.007-.334-.059-2.548 1.887-.464 1.165 2.279.149.293.328-.022a11.047 11.047 0 0 1 1.828.035l.328.034.16-.288 1.246-2.24 1.869.527-.149 2.543-.02.334.301.146c.555.268 1.08.577 1.568.924l.266.19.28-.168 2.219-1.328 1.345 1.372-1.419 2.127-.187.28.189.279c.338.498.634 1.024.884 1.57l.137.3.329-.007 2.598-.058.466 1.843-2.31 1.145-.299.148.022.333c.04.592.028 1.192-.035 1.797l-.035.333.295.159 2.271 1.225-.532 1.826-2.593-.146-.329-.019-.147.294a10.621 10.621 0 0 1-.938 1.542l-.199.272.177.286 1.34 2.173-1.393 1.325-2.174-1.405-.274-.178-.272.18c-.507.333-1.041.625-1.597.872l-.305.135.008.333.058 2.549-1.887.463-1.165-2.279-.149-.292-.328.021c-.602.039-1.213.028-1.828-.035Zm-6.162-12.775c-1.155 3.964 1.174 8.088 5.183 9.22 4.006 1.133 8.195-1.145 9.348-5.106 1.155-3.963-1.174-8.087-5.183-9.22-4.006-1.132-8.194 1.147-9.348 5.106Z"/><mask id="a" fill="#fff"><path d="M158.178 63.182a.243.243 0 0 1-.216-.13l-1.272-2.492c-.536.028-1.084.017-1.632-.031l-1.363 2.45a.24.24 0 0 1-.277.113l-2.636-.745a.237.237 0 0 1-.174-.24l.163-2.79c-.491-.244-.96-.521-1.4-.825l-2.421 1.45a.244.244 0 0 1-.298-.038l-1.905-1.942a.233.233 0 0 1-.028-.295l1.558-2.336c-.296-.449-.561-.92-.79-1.403l-2.837.062h-.005a.24.24 0 0 1-.234-.18l-.664-2.62a.236.236 0 0 1 .125-.268l2.531-1.254a11.242 11.242 0 0 1 .032-1.608l-2.489-1.342a.235.235 0 0 1-.115-.273l.756-2.596a.233.233 0 0 1 .244-.17l2.832.16c.249-.484.53-.946.838-1.38l-1.47-2.383a.233.233 0 0 1 .038-.293l1.972-1.876a.245.245 0 0 1 .299-.028l2.372 1.534c.456-.291.934-.552 1.425-.778l-.063-2.794a.238.238 0 0 1 .183-.235l2.661-.654a.24.24 0 0 1 .272.123l1.273 2.492a11.747 11.747 0 0 1 1.632.032l1.363-2.45a.24.24 0 0 1 .277-.114l2.636.744c.108.031.18.13.174.242l-.163 2.79c.491.244.96.521 1.401.825l2.421-1.45a.244.244 0 0 1 .297.038l1.906 1.943c.078.079.09.202.028.294l-1.558 2.336c.296.45.561.92.79 1.403l2.837-.062h.005a.24.24 0 0 1 .234.18l.663 2.62a.235.235 0 0 1-.124.269l-2.531 1.253c.028.53.017 1.069-.032 1.607l2.489 1.342a.235.235 0 0 1 .115.273l-.756 2.596a.238.238 0 0 1-.245.171l-2.831-.16c-.249.483-.53.945-.839 1.378l1.471 2.384a.234.234 0 0 1-.038.294l-1.972 1.876a.244.244 0 0 1-.299.028l-2.372-1.534c-.455.29-.934.552-1.425.777l.063 2.794a.238.238 0 0 1-.183.235l-2.661.654a.268.268 0 0 1-.058.007Zm-1.345-3.106c.09 0 .174.05.215.13l1.258 2.463 2.287-.561-.063-2.761a.237.237 0 0 1 .141-.222 11.42 11.42 0 0 0 1.635-.892.243.243 0 0 1 .265 0l2.344 1.515 1.696-1.613-1.453-2.356a.234.234 0 0 1 .011-.261c.358-.49.682-1.022.96-1.58a.234.234 0 0 1 .229-.132l2.798.159.651-2.233-2.458-1.326a.236.236 0 0 1-.124-.232c.064-.617.077-1.237.036-1.84a.236.236 0 0 1 .131-.228l2.501-1.238-.571-2.253-2.803.062a.238.238 0 0 1-.225-.139 10.98 10.98 0 0 0-.906-1.61.234.234 0 0 1-.001-.26l1.539-2.308-1.637-1.67-2.393 1.43a.243.243 0 0 1-.265-.01 11.23 11.23 0 0 0-1.605-.946.234.234 0 0 1-.133-.225l.161-2.755-2.267-.641-1.347 2.42a.24.24 0 0 1-.236.122 11.284 11.284 0 0 0-1.869-.035.237.237 0 0 1-.23-.13l-1.258-2.462-2.287.562.063 2.76a.237.237 0 0 1-.143.222c-.567.251-1.116.55-1.634.892a.243.243 0 0 1-.265.001l-2.344-1.516-1.697 1.613 1.453 2.357a.234.234 0 0 1-.01.26c-.359.49-.682 1.022-.961 1.58a.235.235 0 0 1-.229.132l-2.798-.158-.65 2.232 2.458 1.326a.24.24 0 0 1 .124.232c-.066.62-.078 1.239-.036 1.842a.237.237 0 0 1-.132.227l-2.5 1.239.57 2.252 2.802-.062a.24.24 0 0 1 .225.14c.254.556.56 1.098.906 1.609.053.08.054.182.001.26l-1.539 2.31 1.638 1.67 2.393-1.431a.243.243 0 0 1 .265.01c.497.353 1.037.672 1.604.946.087.042.139.13.134.226l-.161 2.755 2.267.64 1.347-2.42a.238.238 0 0 1 .235-.122 11.3 11.3 0 0 0 1.887.032Zm-.745-3.821a7.411 7.411 0 0 1-2.024-.283c-3.869-1.093-6.114-5.081-5.004-8.892a7.162 7.162 0 0 1 3.478-4.306 7.354 7.354 0 0 1 5.552-.622c3.868 1.093 6.113 5.082 5.003 8.893a7.157 7.157 0 0 1-3.477 4.305 7.336 7.336 0 0 1-3.528.905Zm-6.565-9.044c-1.037 3.56 1.06 7.286 4.675 8.307a6.871 6.871 0 0 0 5.185-.581 6.691 6.691 0 0 0 3.25-4.022c1.037-3.56-1.06-7.286-4.675-8.306a6.867 6.867 0 0 0-5.185.581 6.683 6.683 0 0 0-3.25 4.021Z"/></mask><path fill="#15444E" stroke="#15444E" stroke-width="2" d="M158.178 63.182a.243.243 0 0 1-.216-.13l-1.272-2.492c-.536.028-1.084.017-1.632-.031l-1.363 2.45a.24.24 0 0 1-.277.113l-2.636-.745a.237.237 0 0 1-.174-.24l.163-2.79c-.491-.244-.96-.521-1.4-.825l-2.421 1.45a.244.244 0 0 1-.298-.038l-1.905-1.942a.233.233 0 0 1-.028-.295l1.558-2.336c-.296-.449-.561-.92-.79-1.403l-2.837.062h-.005a.24.24 0 0 1-.234-.18l-.664-2.62a.236.236 0 0 1 .125-.268l2.531-1.254a11.242 11.242 0 0 1 .032-1.608l-2.489-1.342a.235.235 0 0 1-.115-.273l.756-2.596a.233.233 0 0 1 .244-.17l2.832.16c.249-.484.53-.946.838-1.38l-1.47-2.383a.233.233 0 0 1 .038-.293l1.972-1.876a.245.245 0 0 1 .299-.028l2.372 1.534c.456-.291.934-.552 1.425-.778l-.063-2.794a.238.238 0 0 1 .183-.235l2.661-.654a.24.24 0 0 1 .272.123l1.273 2.492a11.747 11.747 0 0 1 1.632.032l1.363-2.45a.24.24 0 0 1 .277-.114l2.636.744c.108.031.18.13.174.242l-.163 2.79c.491.244.96.521 1.401.825l2.421-1.45a.244.244 0 0 1 .297.038l1.906 1.943c.078.079.09.202.028.294l-1.558 2.336c.296.45.561.92.79 1.403l2.837-.062h.005a.24.24 0 0 1 .234.18l.663 2.62a.235.235 0 0 1-.124.269l-2.531 1.253c.028.53.017 1.069-.032 1.607l2.489 1.342a.235.235 0 0 1 .115.273l-.756 2.596a.238.238 0 0 1-.245.171l-2.831-.16c-.249.483-.53.945-.839 1.378l1.471 2.384a.234.234 0 0 1-.038.294l-1.972 1.876a.244.244 0 0 1-.299.028l-2.372-1.534c-.455.29-.934.552-1.425.777l.063 2.794a.238.238 0 0 1-.183.235l-2.661.654a.268.268 0 0 1-.058.007Zm-1.345-3.106c.09 0 .174.05.215.13l1.258 2.463 2.287-.561-.063-2.761a.237.237 0 0 1 .141-.222 11.42 11.42 0 0 0 1.635-.892.243.243 0 0 1 .265 0l2.344 1.515 1.696-1.613-1.453-2.356a.234.234 0 0 1 .011-.261c.358-.49.682-1.022.96-1.58a.234.234 0 0 1 .229-.132l2.798.159.651-2.233-2.458-1.326a.236.236 0 0 1-.124-.232c.064-.617.077-1.237.036-1.84a.236.236 0 0 1 .131-.228l2.501-1.238-.571-2.253-2.803.062a.238.238 0 0 1-.225-.139 10.98 10.98 0 0 0-.906-1.61.234.234 0 0 1-.001-.26l1.539-2.308-1.637-1.67-2.393 1.43a.243.243 0 0 1-.265-.01 11.23 11.23 0 0 0-1.605-.946.234.234 0 0 1-.133-.225l.161-2.755-2.267-.641-1.347 2.42a.24.24 0 0 1-.236.122 11.284 11.284 0 0 0-1.869-.035.237.237 0 0 1-.23-.13l-1.258-2.462-2.287.562.063 2.76a.237.237 0 0 1-.143.222c-.567.251-1.116.55-1.634.892a.243.243 0 0 1-.265.001l-2.344-1.516-1.697 1.613 1.453 2.357a.234.234 0 0 1-.01.26c-.359.49-.682 1.022-.961 1.58a.235.235 0 0 1-.229.132l-2.798-.158-.65 2.232 2.458 1.326a.24.24 0 0 1 .124.232c-.066.62-.078 1.239-.036 1.842a.237.237 0 0 1-.132.227l-2.5 1.239.57 2.252 2.802-.062a.24.24 0 0 1 .225.14c.254.556.56 1.098.906 1.609.053.08.054.182.001.26l-1.539 2.31 1.638 1.67 2.393-1.431a.243.243 0 0 1 .265.01c.497.353 1.037.672 1.604.946.087.042.139.13.134.226l-.161 2.755 2.267.64 1.347-2.42a.238.238 0 0 1 .235-.122 11.3 11.3 0 0 0 1.887.032Zm-.745-3.821a7.411 7.411 0 0 1-2.024-.283c-3.869-1.093-6.114-5.081-5.004-8.892a7.162 7.162 0 0 1 3.478-4.306 7.354 7.354 0 0 1 5.552-.622c3.868 1.093 6.113 5.082 5.003 8.893a7.157 7.157 0 0 1-3.477 4.305 7.336 7.336 0 0 1-3.528.905Zm-6.565-9.044c-1.037 3.56 1.06 7.286 4.675 8.307a6.871 6.871 0 0 0 5.185-.581 6.691 6.691 0 0 0 3.25-4.022c1.037-3.56-1.06-7.286-4.675-8.306a6.867 6.867 0 0 0-5.185.581 6.683 6.683 0 0 0-3.25 4.021Z" mask="url(#a)"/><path fill="#15444E" stroke="#15444E" d="m219.915 11.282.144.297.329-.015 3.279-.146.676 2.432-2.892 1.516-.296.155.03.333c.069.752.074 1.496.016 2.23l-.026.333.297.151 2.905 1.484-.647 2.437-3.283-.111-.328-.011-.141.296c-.32.675-.693 1.324-1.12 1.935l-.192.276.183.283 1.763 2.716-1.805 1.798-2.783-1.713-.277-.17-.269.185a13.64 13.64 0 0 1-1.958 1.123l-.302.142.015.334.148 3.223-2.482.67-1.542-2.854-.156-.29-.328.03c-.762.067-1.52.073-2.266.015l-.327-.025-.153.29-1.509 2.867-2.488-.643.113-3.225.012-.334-.304-.139a13.561 13.561 0 0 1-1.966-1.103l-.27-.183-.276.174-2.769 1.746-1.823-1.777 1.729-2.73.18-.285-.196-.274c-.43-.601-.809-1.245-1.139-1.926l-.143-.296-.329.014-3.279.147-.676-2.432 2.892-1.516.296-.155-.031-.333a13.193 13.193 0 0 1-.016-2.23l.026-.333-.297-.152-2.905-1.483.648-2.438 3.283.112.328.01.141-.296c.319-.675.692-1.323 1.119-1.935l.193-.276-.183-.282-1.763-2.717 1.804-1.797 2.783 1.712.278.171.268-.185a13.69 13.69 0 0 1 1.958-1.124l.303-.141-.016-.334-.148-3.224 2.482-.67 1.542 2.855.157.29.327-.03c.763-.067 1.52-.073 2.266-.016l.328.025.153-.29 1.508-2.867 2.488.643-.113 3.226-.011.334.304.138c.684.313 1.343.682 1.965 1.103l.271.183.276-.174 2.769-1.745 1.823 1.777-1.729 2.73-.181.285.196.274c.43.6.81 1.244 1.139 1.925Zm-9.822 14.49c4.883-1.32 7.77-6.295 6.428-11.122-1.339-4.824-6.39-7.654-11.271-6.338-4.884 1.318-7.77 6.293-6.428 11.122 1.338 4.824 6.39 7.654 11.271 6.337ZM302.463 44.438c0 16.396-13.499 29.7-30.168 29.7-16.668 0-30.167-13.304-30.167-29.7s13.499-29.7 30.167-29.7c16.669 0 30.168 13.304 30.168 29.7Z"/><path fill="#F0F9FB" stroke="#15444E" d="m282.556 39.805-.116-9.145c-.114-4.73-4.234-8.636-8.726-8.817l-.285-.011c-5.318-.062-9.385 4.147-9.265 9.246v.005l.042 2.822a1.31 1.31 0 0 0 1.271 1.278c.774.03 1.396-.586 1.378-1.326l-.068-2.973.5-.011c-.082-3.414 2.791-6.2 6.253-6.044 3.142.141 5.634 2.675 5.705 5.77l3.311 9.206Zm0 0-2.665-.106 2.665.106Z"/><path fill="#15444E" stroke="#15444E" d="m267.746 30.858.069 2.973m-.069-2.973a5.447 5.447 0 0 1 1.672-4.034l-1.603 7.007m-.069-2.973-.42.01 6.214-5.993h-.003a5.916 5.916 0 0 0-4.404 1.652l-.012.011a5.839 5.839 0 0 0-1.795 4.33l.42-.01Zm.069 2.973a2.241 2.241 0 0 1-.683 1.657m.683-1.657-.683 1.657m0 0a2.325 2.325 0 0 1-1.695.643l1.695-.643Z"/><path fill="#F0F9FB" stroke="#15444E" d="M275.336 66.021h-.02l-4.087.16c-2.637-.071-5.175-1.662-7.006-4.238-1.83-2.577-2.92-6.1-2.66-9.917l.831-12.113 23.688-.187h.001c1.862-.007 3.416 1.638 3.289 3.444l.493.035-.493-.035-.745 10.62c-.471 6.88-6.276 12.231-13.291 12.231Z"/><path fill="#F0F9FB" stroke="#15444E" d="m258.077 51.829.805-11.724h25.069c.893 0 1.585.742 1.527 1.597l-.816 11.893c-.473 6.878-6.278 12.229-13.294 12.229-7.719 0-13.812-6.432-13.291-13.995Z"/><mask id="b" fill="#fff"><path d="M271.369 66.78c-3.999 0-7.705-1.585-10.434-4.462-2.73-2.876-4.085-6.624-3.816-10.554l.837-12.19a.456.456 0 0 1 .46-.422h25.535c.687 0 1.351.283 1.82.777.468.494.712 1.164.666 1.839l-.816 11.893c-.506 7.355-6.766 13.118-14.252 13.118Zm-12.522-26.722-.808 11.768c-.252 3.676 1.016 7.181 3.57 9.871 2.555 2.692 6.021 4.172 9.762 4.172 7.003 0 12.859-5.39 13.332-12.27l.816-11.893a1.52 1.52 0 0 0-.418-1.158c-.3-.316-.708-.49-1.148-.49h-25.106Z"/></mask><path fill="#15444E" d="M271.369 66.78c-3.999 0-7.705-1.585-10.434-4.462-2.73-2.876-4.085-6.624-3.816-10.554l.837-12.19a.456.456 0 0 1 .46-.422h25.535c.687 0 1.351.283 1.82.777.468.494.712 1.164.666 1.839l-.816 11.893c-.506 7.355-6.766 13.118-14.252 13.118Zm-12.522-26.722-.808 11.768c-.252 3.676 1.016 7.181 3.57 9.871 2.555 2.692 6.021 4.172 9.762 4.172 7.003 0 12.859-5.39 13.332-12.27l.816-11.893a1.52 1.52 0 0 0-.418-1.158c-.3-.316-.708-.49-1.148-.49h-25.106Z"/><path fill="#15444E" d="m257.119 51.764-.998-.068.998.068Zm.837-12.19-.998-.07v.002l.998.068Zm28.481 2.194.998.068-.998-.068Zm-.816 11.893.998.068-.998-.068Zm-26.774-13.603v-1h-.934l-.064.931.998.069Zm-.808 11.768-.998-.069.998.069Zm3.57 9.871.726-.688h-.001l-.725.688Zm23.094-8.098.998.069-.998-.069Zm.816-11.893.998.069v-.001l-.998-.068Zm-14.15 24.073c-3.728 0-7.17-1.474-9.709-4.149l-1.451 1.377c2.92 3.077 6.889 4.772 11.16 4.772v-2Zm-9.709-4.149c-2.538-2.675-3.793-6.149-3.544-9.798l-1.995-.136c-.288 4.212 1.168 8.233 4.088 11.31l1.451-1.376Zm-3.544-9.797.837-12.19-1.995-.137-.837 12.19 1.995.137Zm.837-12.189a.543.543 0 0 1-.537.508v-2c-.756 0-1.404.578-1.458 1.352l1.995.14Zm-.537.508h25.535v-2h-25.535v2Zm25.535 0c.417 0 .817.173 1.094.465l1.452-1.376a3.518 3.518 0 0 0-2.546-1.09v2Zm1.094.465c.279.294.421.69.394 1.083l1.996.136c.065-.957-.28-1.9-.938-2.595l-1.452 1.376Zm.394 1.082-.816 11.893 1.996.137.816-11.893-1.996-.137Zm-.816 11.893c-.469 6.819-6.281 12.187-13.254 12.187v2c7.999 0 14.707-6.157 15.25-14.05l-1.996-.137ZM257.849 39.99l-.808 11.767 1.995.137.808-11.767-1.995-.138Zm-.808 11.767c-.271 3.958 1.097 7.738 3.843 10.629l1.45-1.378c-2.363-2.488-3.53-5.72-3.298-9.114l-1.995-.137Zm3.843 10.629c2.745 2.892 6.474 4.483 10.487 4.483v-2c-3.47 0-6.673-1.37-9.036-3.86l-1.451 1.377Zm10.487 4.483c7.516 0 13.82-5.784 14.33-13.201l-1.996-.137c-.435 6.342-5.843 11.338-12.334 11.338v2Zm14.33-13.201.816-11.893-1.996-.137-.816 11.893 1.996.137Zm.816-11.894a2.518 2.518 0 0 0-.691-1.915l-1.451 1.378c.108.113.157.25.146.402l1.996.135Zm-.691-1.915a2.57 2.57 0 0 0-1.873-.801v2c.168 0 .313.064.422.179l1.451-1.378Zm-1.873-.801h-25.106v2h25.106v-2Z" mask="url(#b)"/><path fill="#15444E" stroke="#15444E" d="m270.431 57.464.614-9.478a.621.621 0 0 1 .627-.573.62.62 0 0 1 .628.65l-.615 9.478a.62.62 0 0 1-.627.574.618.618 0 0 1-.627-.65Z"/><path fill="#15444E" stroke="#15444E" d="M275.109 48.817c0 1.978-1.63 3.594-3.657 3.594-2.028 0-3.658-1.616-3.658-3.594 0-1.977 1.63-3.594 3.658-3.594 2.027 0 3.657 1.617 3.657 3.594ZM232.235 207.825l.02.003.02.002a.108.108 0 0 1 .071.033.087.087 0 0 1 .023.063l-.001.014v44.82c0 4.079-2.65 7.861-6.92 9.63l-24.625 10.212-.001.001a15.349 15.349 0 0 1-5.776 1.193l-44.74-8.18-.044-.008H149.526a1.271 1.271 0 0 1-.891-.338 1.222 1.222 0 0 1-.389-.836l.033-4.265.002-.001c.259-.055.615-.153 1.048-.283.87-.262 2.088-.671 3.536-1.187a199.22 199.22 0 0 0 10.548-4.139c3.819-1.627 7.643-3.412 10.519-5.064 1.435-.824 2.653-1.627 3.519-2.37.432-.372.792-.741 1.047-1.105.252-.358.432-.754.432-1.166v-44.755c0-.042.003-.08.009-.11l53.296 7.836Z"/><mask id="c" fill="#fff"><path d="M173.017 196.864v44.765c0 4.414-2.883 8.434-7.415 10.339l-16.612 6.982c-1.086.457-.716 1.889.487 1.889l45.643 8.189a15.552 15.552 0 0 0 5.931-1.168l18.405-7.631c4.565-1.893 7.479-5.931 7.479-10.365v-44.801a.361.361 0 0 0-.379-.333l-53.17-8.19a.355.355 0 0 0-.369.324Z"/></mask><path fill="#F0F9FB" d="M173.017 196.864v44.765c0 4.414-2.883 8.434-7.415 10.339l-16.612 6.982c-1.086.457-.716 1.889.487 1.889l45.643 8.189a15.552 15.552 0 0 0 5.931-1.168l18.405-7.631c4.565-1.893 7.479-5.931 7.479-10.365v-44.801a.361.361 0 0 0-.379-.333l-53.17-8.19a.355.355 0 0 0-.369.324Z"/><path fill="#15444E" d="m173.017 196.864-.996-.081-.004.041v.04h1Zm-7.415 55.104.388.922-.388-.922Zm-16.612 6.982-.387-.922-.001.001.388.921Zm.487 1.889.177-.984-.088-.016h-.089v1Zm45.643 8.189-.176.984.087.016h.088l.001-1Zm5.931-1.168.38.924.003-.001-.383-.923Zm18.405-7.631.383.924-.383-.924Zm7.479-55.166h1v-.032l-.002-.031-.998.063Zm-.379-.333-.152.989.102.015.103-.005-.053-.999Zm-53.17-8.19.152-.989-.06-.009-.061-.002-.031 1Zm-1.369.324v44.765h2v-44.765h-2Zm0 44.765c0 3.956-2.588 7.645-6.802 9.417l.775 1.844c4.848-2.038 8.027-6.389 8.027-11.261h-2Zm-6.802 9.417-16.612 6.982.775 1.844 16.612-6.982-.775-1.844Zm-16.613 6.983c-.994.418-1.427 1.386-1.195 2.287.226.875 1.032 1.523 2.07 1.523v-2a.329.329 0 0 1-.101-.013.104.104 0 0 1-.032-.015c-.007-.006-.003-.006 0 .005a.11.11 0 0 1-.01.069c-.007.014-.014.02-.012.019a.187.187 0 0 1 .056-.032l-.776-1.843Zm.698 3.795 45.644 8.188.353-1.969-45.643-8.188-.354 1.969Zm45.819 8.204a16.53 16.53 0 0 0 6.312-1.244l-.761-1.849a14.544 14.544 0 0 1-5.549 1.093l-.002 2Zm6.315-1.245 18.405-7.63-.766-1.848-18.405 7.631.766 1.847Zm18.405-7.63c4.883-2.025 8.096-6.394 8.096-11.289h-2c0 3.973-2.616 7.68-6.862 9.441l.766 1.848Zm8.096-11.289v-44.801h-2v44.801h2ZM227.933 205a1.355 1.355 0 0 0-.458-.932l-1.32 1.503a.65.65 0 0 1-.218-.446l1.996-.125Zm-.458-.932a1.363 1.363 0 0 0-.971-.336l.105 1.997a.642.642 0 0 1-.454-.158l1.32-1.503Zm-.766-.326-53.171-8.191-.305 1.977 53.171 8.191.305-1.977Zm-53.292-8.202a1.357 1.357 0 0 0-.942.339l1.322 1.501a.64.64 0 0 1-.443.159l.063-1.999Zm-.942.339c-.261.23-.426.553-.454.904l1.993.162a.653.653 0 0 1-.217.435l-1.322-1.501Z" mask="url(#c)"/><mask id="d" fill="#fff"><path d="M195.125 269.475a.561.561 0 0 1-.082 0l-45.604-8.183c-.35.004-.691-.11-.966-.324a1.499 1.499 0 0 1-.545-.85 1.373 1.373 0 0 1 .153-.945c.163-.287.424-.508.736-.624l16.612-6.984c4.338-1.812 7.139-5.719 7.139-9.928v-44.773a.803.803 0 0 1 .254-.556.831.831 0 0 1 .577-.222.42.42 0 0 1 .071 0l53.136 8.185c.211.005.412.09.561.238a.803.803 0 0 1 .237.553v44.809c0 4.594-3.043 8.823-7.755 10.777l-18.405 7.63a16.09 16.09 0 0 1-6.119 1.197Zm-21.651-72.48v44.634c0 4.567-3.018 8.786-7.689 10.75l-16.612 6.982a.51.51 0 0 0-.36.572.622.622 0 0 0 .669.459.375.375 0 0 1 .082 0l45.604 8.182a15.175 15.175 0 0 0 5.726-1.133l18.406-7.631c4.374-1.812 7.2-5.721 7.2-9.955v-44.708l-53.026-8.152Z"/></mask><path fill="#15444E" d="M195.125 269.475a.561.561 0 0 1-.082 0l-45.604-8.183c-.35.004-.691-.11-.966-.324a1.499 1.499 0 0 1-.545-.85 1.373 1.373 0 0 1 .153-.945c.163-.287.424-.508.736-.624l16.612-6.984c4.338-1.812 7.139-5.719 7.139-9.928v-44.773a.803.803 0 0 1 .254-.556.831.831 0 0 1 .577-.222.42.42 0 0 1 .071 0l53.136 8.185c.211.005.412.09.561.238a.803.803 0 0 1 .237.553v44.809c0 4.594-3.043 8.823-7.755 10.777l-18.405 7.63a16.09 16.09 0 0 1-6.119 1.197Zm-21.651-72.48v44.634c0 4.567-3.018 8.786-7.689 10.75l-16.612 6.982a.51.51 0 0 0-.36.572.622.622 0 0 0 .669.459.375.375 0 0 1 .082 0l45.604 8.182a15.175 15.175 0 0 0 5.726-1.133l18.406-7.631c4.374-1.812 7.2-5.721 7.2-9.955v-44.708l-53.026-8.152Z"/><path fill="#15444E" d="m195.125 269.475.002-1h-.039l-.039.003.076.997Zm-.082 0-.176.984.05.009.05.004.076-.997Zm-45.604-8.183.177-.984-.094-.017-.094.001.011 1Zm-1.511-1.174-.981.194.003.016.003.015.975-.225Zm.889-1.569.348.938.02-.007.02-.009-.388-.922Zm16.612-6.984-.385-.923-.002.001.387.922Zm7.139-54.701-.999-.036-.001.018v.018h1Zm.831-.778-.016 1 .05.001.049-.004-.083-.997Zm.071 0 .153-.988-.035-.005-.034-.003-.084.996Zm53.136 8.185-.152.988.064.01.064.002.024-1Zm.798.791h1v-.017l-1 .017Zm-7.755 55.586.383.924-.383-.924Zm-18.405 7.63.378.926.005-.002-.383-.924Zm-27.77-71.283.152-.989-1.152-.177v1.166h1Zm-7.689 55.384.388.922-.388-.922Zm-16.612 6.982.28.96.055-.016.053-.022-.388-.922Zm-.36.572-.984.175.007.04.01.038.967-.253Zm.669.459.099.995.014-.001-.113-.994Zm.082 0 .176-.984-.031-.006-.033-.004-.112.994Zm45.604 8.182-.176.985.088.016.09-.001-.002-1Zm5.726-1.133.38.925.003-.002-.383-.923Zm18.406-7.631-.383-.924.383.924Zm7.2-54.663h1v-.858l-.848-.13-.152.988Zm-31.451 63.331a.42.42 0 0 1 .071 0l-.153 1.994c.078.006.156.006.235 0l-.153-1.994Zm.171.012-45.604-8.182-.354 1.969 45.605 8.182.353-1.969Zm-45.792-8.198a.545.545 0 0 1-.342-.113l-1.227 1.579a2.547 2.547 0 0 0 1.591.534l-.022-2Zm-.342-.113a.512.512 0 0 1-.184-.286l-1.949.45c.13.563.451 1.061.906 1.415l1.227-1.579Zm-.177-.255a.373.373 0 0 1 .042-.257l-1.74-.987a2.375 2.375 0 0 0-.264 1.632l1.962-.388Zm.042-.257a.407.407 0 0 1 .214-.18l-.695-1.875a2.409 2.409 0 0 0-1.259 1.068l1.74.987Zm.254-.196 16.612-6.984-.775-1.844-16.612 6.984.775 1.844Zm16.61-6.983c4.655-1.946 7.753-6.184 7.753-10.851h-2c0 3.75-2.505 7.326-6.524 9.005l.771 1.846Zm7.753-10.851v-44.773h-2v44.773h2Zm0-44.738a.2.2 0 0 1-.062.139l-1.367-1.46a1.798 1.798 0 0 0-.57 1.25l1.999.071Zm-.062.139a.176.176 0 0 1-.123.048l.031-1.999a1.82 1.82 0 0 0-1.275.491l1.367 1.46Zm-.024.045a.503.503 0 0 1-.095 0l.167-1.993a1.363 1.363 0 0 0-.239 0l.167 1.993Zm-.164-.008 53.136 8.184.305-1.976-53.136-8.185-.305 1.977Zm53.264 8.196a.178.178 0 0 1-.12-.052l1.409-1.42a1.826 1.826 0 0 0-1.24-.528l-.049 2Zm-.12-.052a.205.205 0 0 1-.058-.139l2-.035a1.797 1.797 0 0 0-.533-1.246l-1.409 1.42Zm-.058-.157v44.809h2v-44.809h-2Zm0 44.809c0 4.135-2.747 8.032-7.138 9.853l.766 1.848c5.033-2.087 8.372-6.648 8.372-11.701h-2Zm-7.138 9.853-18.405 7.631.766 1.847 18.405-7.63-.766-1.848Zm-18.401 7.629a15.09 15.09 0 0 1-5.738 1.122l-.003 2a17.1 17.1 0 0 0 6.498-1.271l-.757-1.851Zm-28.391-70.358v44.634h2v-44.634h-2Zm0 44.634c0 4.111-2.724 7.998-7.077 9.828l.776 1.844c4.989-2.098 8.301-6.649 8.301-11.672h-2Zm-7.076 9.828-16.612 6.982.775 1.844 16.612-6.982-.775-1.844Zm-16.505 6.944a1.511 1.511 0 0 0-.857.646l1.693 1.065a.485.485 0 0 1-.276.209l-.56-1.92Zm-.857.646a1.497 1.497 0 0 0-.207 1.061l1.969-.35a.504.504 0 0 1-.069.354l-1.693-1.065Zm-.19 1.139c.099.378.331.704.649.923l1.132-1.649c.074.05.129.127.154.219l-1.935.507Zm.649.923c.319.218.703.316 1.086.278l-.198-1.99a.369.369 0 0 1 .244.063l-1.132 1.649Zm1.1.277a.693.693 0 0 1-.144 0l.225-1.988a1.432 1.432 0 0 0-.307 0l.226 1.988Zm-.208-.01 45.605 8.183.353-1.969-45.605-8.182-.353 1.968Zm45.783 8.198a16.163 16.163 0 0 0 6.104-1.208l-.759-1.85a14.162 14.162 0 0 1-5.349 1.058l.004 2Zm6.107-1.21 18.406-7.63-.766-1.848-18.406 7.631.766 1.847Zm18.405-7.63c4.692-1.944 7.818-6.183 7.818-10.879h-2c0 3.771-2.526 7.35-6.583 9.031l.765 1.848Zm7.818-10.879v-44.708h-2v44.708h2Zm-.848-45.696-53.026-8.153-.304 1.977 53.026 8.152.304-1.976Z" mask="url(#d)"/><path fill="#15444E" stroke="#15444E" d="M102.155 66.217h-.001a6.194 6.194 0 0 0-3.973.612l-6.896 3.64L88.93 210.6l220.299 37.547 5.778-5.311-212.851-176.62Zm0 0 209.725 37.257h.001a6.127 6.127 0 0 1 3.599 2.072 5.947 5.947 0 0 1 1.41 3.855v.001M102.155 66.217l214.735 43.185m0 0 .045 129.059m-.045-129.059.045 129.059m0 0a5.933 5.933 0 0 1-.504 2.383 6.035 6.035 0 0 1-1.424 1.991l1.928-4.374Z"/><path fill="#F0F9FB" stroke="#15444E" d="M92.846 211.357a5.04 5.04 0 0 1-2.964-1.696 4.888 4.888 0 0 1-1.165-3.165V75.543c0-.722.16-1.435.471-2.09a4.949 4.949 0 0 1 1.328-1.698 5.052 5.052 0 0 1 1.937-.986 5.104 5.104 0 0 1 2.181-.085l211.512 37.6a5.036 5.036 0 0 1 2.963 1.696 4.895 4.895 0 0 1 1.165 3.164v130.955a4.871 4.871 0 0 1-.469 2.091 4.942 4.942 0 0 1-1.327 1.701 5.052 5.052 0 0 1-1.937.989 5.106 5.106 0 0 1-2.183.086l-.087.493.087-.493-211.512-37.609Z"/><mask id="e" fill="#fff"><path d="M305.258 249.992c-.358 0-.715-.031-1.068-.095L92.68 212.288a5.99 5.99 0 0 1-3.521-2.017 5.824 5.824 0 0 1-1.387-3.773V75.545c0-.862.192-1.713.562-2.493.37-.78.91-1.47 1.582-2.023a6.007 6.007 0 0 1 2.303-1.173 6.063 6.063 0 0 1 2.59-.101l211.506 37.609a5.984 5.984 0 0 1 3.521 2.018 5.82 5.82 0 0 1 1.387 3.772v130.953c0 1.56-.629 3.057-1.749 4.16a6.022 6.022 0 0 1-4.222 1.725h.006Zm-.906-.971a5.128 5.128 0 0 0 4.151-1.083 5.016 5.016 0 0 0 1.342-1.716 4.92 4.92 0 0 0 .478-2.115V113.154a4.936 4.936 0 0 0-1.179-3.202 5.08 5.08 0 0 0-2.99-1.712L94.644 70.63a5.15 5.15 0 0 0-2.198.088 5.101 5.101 0 0 0-1.954.995 5.005 5.005 0 0 0-1.342 1.717 4.93 4.93 0 0 0-.478 2.115v130.953a4.942 4.942 0 0 0 1.178 3.202 5.083 5.083 0 0 0 2.99 1.712l211.512 37.609Z"/></mask><path fill="#15444E" d="M305.258 249.992c-.358 0-.715-.031-1.068-.095L92.68 212.288a5.99 5.99 0 0 1-3.521-2.017 5.824 5.824 0 0 1-1.387-3.773V75.545c0-.862.192-1.713.562-2.493.37-.78.91-1.47 1.582-2.023a6.007 6.007 0 0 1 2.303-1.173 6.063 6.063 0 0 1 2.59-.101l211.506 37.609a5.984 5.984 0 0 1 3.521 2.018 5.82 5.82 0 0 1 1.387 3.772v130.953c0 1.56-.629 3.057-1.749 4.16a6.022 6.022 0 0 1-4.222 1.725h.006Zm-.906-.971a5.128 5.128 0 0 0 4.151-1.083 5.016 5.016 0 0 0 1.342-1.716 4.92 4.92 0 0 0 .478-2.115V113.154a4.936 4.936 0 0 0-1.179-3.202 5.08 5.08 0 0 0-2.99-1.712L94.644 70.63a5.15 5.15 0 0 0-2.198.088 5.101 5.101 0 0 0-1.954.995 5.005 5.005 0 0 0-1.342 1.717 4.93 4.93 0 0 0-.478 2.115v130.953a4.942 4.942 0 0 0 1.178 3.202 5.083 5.083 0 0 0 2.99 1.712l211.512 37.609Z"/><path fill="#15444E" d="m305.258 249.992.001 1-.001-2v1Zm-1.068-.095.177-.984h-.002l-.175.984ZM92.68 212.288l.175-.985-.175.985Zm-4.908-5.79 1 .001v-.001h-1Zm0-130.953h1-1Zm7.037-5.79-.175.984.175-.984Zm211.506 37.609.175-.984-.175.984Zm4.908 5.79-1-.001v.001h1Zm0 130.953h-1 1Zm-5.971 5.885-.001-1 .001 2v-1Zm-.9-.971-.175.985h.001l.174-.985Zm5.971-4.914 1 .001v-.001h-1Zm0-130.953h-1 1Zm-4.169-4.914-.176.985h.001l.175-.985ZM94.644 70.63l.175-.984-.175.985Zm-5.972 4.915h-1 1Zm0 130.953 1 .001v-.001h-1Zm4.168 4.914.175-.985-.175.985Zm212.417 37.58c-.299 0-.596-.026-.89-.079l-.354 1.969c.411.073.828.11 1.246.11l-.002-2Zm-.892-.079-211.51-37.61-.35 1.969 211.51 37.61.35-1.969Zm-211.51-37.61a4.986 4.986 0 0 1-2.933-1.679l-1.526 1.293a6.985 6.985 0 0 0 4.11 2.355l.35-1.969Zm-2.933-1.679a4.823 4.823 0 0 1-1.15-3.125l-2-.002a6.822 6.822 0 0 0 1.624 4.42l1.526-1.293Zm-1.15-3.126V75.545h-2v130.953h2Zm0-130.954c0-.712.159-1.416.466-2.063l-1.807-.858a6.807 6.807 0 0 0-.659 2.922h2Zm.466-2.063a4.895 4.895 0 0 1 1.313-1.68l-1.27-1.544a6.896 6.896 0 0 0-1.85 2.366l1.807.858Zm1.313-1.68a5.005 5.005 0 0 1 1.92-.977l-.504-1.936a7.008 7.008 0 0 0-2.686 1.369l1.27 1.544Zm1.92-.977a5.063 5.063 0 0 1 2.163-.085l.35-1.969a7.063 7.063 0 0 0-3.017.118l.504 1.936Zm2.163-.085 211.506 37.61.35-1.969L94.984 68.77l-.35 1.97Zm211.506 37.61c1.151.204 2.188.8 2.934 1.679l1.525-1.293a6.983 6.983 0 0 0-4.109-2.355l-.35 1.969Zm2.934 1.679a4.83 4.83 0 0 1 1.149 3.125l2 .002a6.818 6.818 0 0 0-1.624-4.42l-1.525 1.293Zm1.149 3.126v130.953h2V113.154h-2Zm0 130.953c0 1.29-.52 2.531-1.45 3.448l1.403 1.424a6.84 6.84 0 0 0 2.047-4.872h-2Zm-1.45 3.448a5.028 5.028 0 0 1-3.522 1.437l.001 2a7.021 7.021 0 0 0 4.924-2.013l-1.403-1.424Zm-3.521 3.437h.006v-2h-.006v2Zm-1.074-.986a6.148 6.148 0 0 0 2.624-.105l-.505-1.935a4.15 4.15 0 0 1-1.771.071l-.348 1.969Zm2.624-.105a6.1 6.1 0 0 0 2.336-1.191l-1.27-1.544a4.118 4.118 0 0 1-1.571.8l.505 1.935Zm2.336-1.191a6.008 6.008 0 0 0 1.61-2.059l-1.806-.859a4.012 4.012 0 0 1-1.074 1.374l1.27 1.544Zm1.61-2.059a5.927 5.927 0 0 0 .575-2.543l-2-.001c0 .582-.13 1.157-.381 1.685l1.806.859Zm.575-2.544V113.154h-2v130.953h2Zm0-130.953a5.937 5.937 0 0 0-1.416-3.849l-1.525 1.294c.61.718.942 1.623.941 2.555h2Zm-1.416-3.849a6.085 6.085 0 0 0-3.579-2.05l-.349 1.97a4.084 4.084 0 0 1 2.403 1.374l1.525-1.294Zm-3.578-2.049-211.51-37.61-.35 1.97 211.509 37.609.351-1.969Zm-211.51-37.61a6.148 6.148 0 0 0-2.626.104l.505 1.936a4.147 4.147 0 0 1 1.77-.07l.35-1.97Zm-2.626.104a6.1 6.1 0 0 0-2.337 1.191l1.271 1.544a4.1 4.1 0 0 1 1.571-.8l-.505-1.935Zm-2.337 1.191a6.004 6.004 0 0 0-1.61 2.06l1.807.858a4.005 4.005 0 0 1 1.074-1.373l-1.27-1.545Zm-1.61 2.06a5.93 5.93 0 0 0-.574 2.543h2c0-.581.13-1.157.381-1.685L88.247 73Zm-.574 2.544v130.953h2V75.545h-2Zm0 130.952a5.943 5.943 0 0 0 1.415 3.85l1.526-1.294a3.94 3.94 0 0 1-.94-2.554l-2-.002Zm1.415 3.85a6.076 6.076 0 0 0 3.578 2.049l.35-1.969a4.082 4.082 0 0 1-2.402-1.374l-1.526 1.294Zm3.578 2.049 211.512 37.61.35-1.969-211.512-37.61-.35 1.969Z" mask="url(#e)"/><path fill="#F0F9FB" stroke="#15444E" d="m124.642 193.246 146.054 25.979-146.054-25.979Zm0 0a1.347 1.347 0 0 1-.79-.452 1.297 1.297 0 0 1-.309-.838l1.099 1.29Zm-1.099-1.29v-91.847a1.291 1.291 0 0 1 .478-1.003 1.352 1.352 0 0 1 1.101-.287l146.053 25.979c.311.055.59.216.79.452.2.237.309.533.309.838v91.857a1.283 1.283 0 0 1-.481.996 1.357 1.357 0 0 1-1.097.285l-147.153-27.27Z"/><mask id="f" fill="#fff"><path d="M270.942 220.194a2.44 2.44 0 0 1-.409-.037l-146.054-25.969a2.296 2.296 0 0 1-1.349-.772 2.232 2.232 0 0 1-.534-1.443v-91.864a2.234 2.234 0 0 1 .824-1.727 2.306 2.306 0 0 1 1.873-.488l146.054 25.979a2.303 2.303 0 0 1 1.35.771c.344.405.533.916.534 1.444v91.86a2.243 2.243 0 0 1-.671 1.594 2.31 2.31 0 0 1-1.618.662v-.01Zm-.247-.913a1.406 1.406 0 0 0 1.137-.295 1.35 1.35 0 0 0 .499-1.048v-91.86c0-.32-.115-.629-.323-.875a1.397 1.397 0 0 0-.818-.468l-146.052-25.98a1.407 1.407 0 0 0-1.138.295 1.35 1.35 0 0 0-.498 1.049v91.874c-.001.32.113.63.321.875.209.246.498.411.818.468l146.054 25.965Z"/></mask><path fill="#15444E" d="M270.942 220.194a2.44 2.44 0 0 1-.409-.037l-146.054-25.969a2.296 2.296 0 0 1-1.349-.772 2.232 2.232 0 0 1-.534-1.443v-91.864a2.234 2.234 0 0 1 .824-1.727 2.306 2.306 0 0 1 1.873-.488l146.054 25.979a2.303 2.303 0 0 1 1.35.771c.344.405.533.916.534 1.444v91.86a2.243 2.243 0 0 1-.671 1.594 2.31 2.31 0 0 1-1.618.662v-.01Zm-.247-.913a1.406 1.406 0 0 0 1.137-.295 1.35 1.35 0 0 0 .499-1.048v-91.86c0-.32-.115-.629-.323-.875a1.397 1.397 0 0 0-.818-.468l-146.052-25.98a1.407 1.407 0 0 0-1.138.295 1.35 1.35 0 0 0-.498 1.049v91.874c-.001.32.113.63.321.875.209.246.498.411.818.468l146.054 25.965Z"/><path fill="#15444E" d="M270.942 220.194h1v-.999l-.998-.001-.002 1Zm-.409-.037-.175.985h.001l.174-.985Zm-146.054-25.969.175-.984-.175.984Zm-1.883-2.215h-1v.002l1-.002Zm0-91.864-1-.003v.003h1Zm2.697-2.215.175-.985h-.001l-.174.985Zm146.054 25.979-.175.985h.001l.174-.985Zm1.884 2.215h1v-.001l-1 .001Zm0 91.86 1 .001v-.001h-1Zm-2.289 2.256h-1v1.001l1.002-.001-.002-1Zm-.247-.923.176-.984h-.001l-.175.984Zm1.636-1.343 1 .002v-.002h-1Zm0-91.86h1v-.001l-1 .001Zm-1.141-1.343.175-.984-.175.984Zm-146.052-25.98-.178.985h.002l.176-.984Zm-1.636 1.344h1-1Zm0 91.874 1 .001v-.001h-1Zm1.139 1.343.175-.984h-.001l-.174.984Zm146.303 25.878a1.556 1.556 0 0 1-.236-.021l-.349 1.969c.192.034.387.051.582.052l.003-2Zm-.235-.021-146.055-25.969-.35 1.969 146.054 25.969.351-1.969Zm-146.055-25.969a1.3 1.3 0 0 1-.762-.435l-1.524 1.295a3.296 3.296 0 0 0 1.936 1.109l.35-1.969Zm-.762-.435a1.232 1.232 0 0 1-.296-.798l-2 .004c.001.766.276 1.505.772 2.089l1.524-1.295Zm-.296-.796v-91.864h-2v91.864h2Zm0-91.861c0-.181.041-.36.12-.526l-1.805-.861a3.221 3.221 0 0 0-.315 1.381l2 .006Zm.12-.526c.079-.165.194-.312.338-.431l-1.269-1.546a3.27 3.27 0 0 0-.874 1.116l1.805.861Zm.338-.431c.145-.119.315-.206.5-.254l-.505-1.935c-.463.12-.894.34-1.264.643l1.269 1.546Zm.5-.254c.184-.048.377-.056.565-.022l.348-1.97a3.327 3.327 0 0 0-1.418.057l.505 1.935Zm.564-.023 146.054 25.98.351-1.969-146.055-25.98-.35 1.97Zm146.055 25.98c.301.053.57.208.762.434l1.524-1.295a3.299 3.299 0 0 0-1.937-1.109l-.349 1.97Zm.762.434c.192.226.296.508.296.798l2-.003a3.231 3.231 0 0 0-.772-2.09l-1.524 1.295Zm.296.796v91.86h2v-91.86h-2Zm0 91.859c0 .328-.133.646-.373.883l1.404 1.424a3.242 3.242 0 0 0 .969-2.305l-2-.002Zm-.373.883c-.241.237-.57.373-.917.374l.003 2a3.314 3.314 0 0 0 2.318-.95l-1.404-1.424Zm.084 1.374v-.01h-2v.01h2Zm-1.423.062c.342.061.693.047 1.029-.04l-.503-1.936a.409.409 0 0 1-.174.007l-.352 1.969Zm1.029-.04c.336-.087.65-.247.918-.467l-1.269-1.546a.39.39 0 0 1-.152.077l.503 1.936Zm.918-.467c.269-.221.486-.498.636-.812l-1.805-.861a.371.371 0 0 1-.1.127l1.269 1.546Zm.636-.812c.15-.315.228-.659.229-1.007l-2-.004a.354.354 0 0 1-.034.15l1.805.861Zm.229-1.009v-91.86h-2v91.86h2Zm0-91.861a2.356 2.356 0 0 0-.561-1.521l-1.525 1.295a.35.35 0 0 1 .086.229l2-.003Zm-.561-1.521a2.394 2.394 0 0 0-1.405-.805l-.351 1.969a.384.384 0 0 1 .231.131l1.525-1.295Zm-1.405-.805-146.052-25.98-.351 1.97 146.053 25.979.35-1.969Zm-146.05-25.98a2.407 2.407 0 0 0-1.03.04l.501 1.935a.407.407 0 0 1 .174-.006l.355-1.968Zm-1.03.04c-.336.086-.65.245-.919.466l1.269 1.546a.397.397 0 0 1 .151-.076l-.501-1.937Zm-.919.466c-.269.221-.487.499-.637.814l1.806.858a.377.377 0 0 1 .1-.126l-1.269-1.546Zm-.637.814a2.33 2.33 0 0 0-.227 1.008h2c0-.051.011-.102.033-.15l-1.806-.858Zm-.227 1.008v91.874h2v-91.874h-2Zm0 91.873a2.345 2.345 0 0 0 .559 1.523l1.525-1.294a.342.342 0 0 1-.084-.227l-2-.002Zm.559 1.523c.36.425.858.709 1.405.806l.349-1.969a.39.39 0 0 1-.229-.131l-1.525 1.294Zm1.405.806 146.054 25.965.35-1.969-146.054-25.965-.35 1.969Z" mask="url(#f)"/><path fill="#15444E" stroke="#15444E" stroke-linejoin="round" stroke-width=".4" d="m242.537 142.563.013.002.036.002a.518.518 0 0 0 .385-.122.492.492 0 0 0 .062-.682.524.524 0 0 0-.318-.184h-.001l-86.133-14.934.001-.001-.012-.001a.526.526 0 0 0-.361.093.49.49 0 0 0-.126.679.514.514 0 0 0 .307.212l.012.002 86.135 14.934ZM213.938 146.235a.097.097 0 0 0 .017.001l-35.058-6.602-.031.198.031-.198a.48.48 0 0 0-.389.112.552.552 0 0 0-.187.358.583.583 0 0 0 .095.393.51.51 0 0 0 .34.22l35.159 5.516a.164.164 0 0 0 .023.002Z"/><path fill="#F0F9FB" stroke="#15444E" d="M278.512 280.183c.722 2.664-.48 5.662-3.217 8.38-2.726 2.706-6.903 5.052-11.893 6.364-4.99 1.312-9.799 1.329-13.532.321-3.748-1.012-6.308-3.021-7.03-5.685-.722-2.663.48-5.662 3.217-8.379 2.726-2.707 6.903-5.052 11.893-6.364 4.99-1.312 9.799-1.33 13.532-.322 3.748 1.013 6.308 3.022 7.03 5.685Z"/><mask id="g" fill="#fff"><path d="M255.707 296.908c-6.996 0-12.595-2.64-13.802-7.091-.806-2.974.424-6.273 3.462-9.29 2.976-2.954 7.352-5.302 12.322-6.607 10.342-2.721 20.092-.014 21.73 6.041 1.638 6.056-5.439 13.179-15.783 15.898a31.293 31.293 0 0 1-7.929 1.049Zm9.988-23.16a30.789 30.789 0 0 0-7.771 1.04c-4.818 1.266-9.049 3.53-11.914 6.376-2.802 2.781-3.949 5.775-3.23 8.43 1.512 5.572 10.763 7.997 20.623 5.405 9.859-2.592 16.652-9.236 15.133-14.808-1.09-4.062-6.291-6.455-12.841-6.455v.012Z"/></mask><path fill="#15444E" d="M255.707 296.908c-6.996 0-12.595-2.64-13.802-7.091-.806-2.974.424-6.273 3.462-9.29 2.976-2.954 7.352-5.302 12.322-6.607 10.342-2.721 20.092-.014 21.73 6.041 1.638 6.056-5.439 13.179-15.783 15.898a31.293 31.293 0 0 1-7.929 1.049Zm9.988-23.16a30.789 30.789 0 0 0-7.771 1.04c-4.818 1.266-9.049 3.53-11.914 6.376-2.802 2.781-3.949 5.775-3.23 8.43 1.512 5.572 10.763 7.997 20.623 5.405 9.859-2.592 16.652-9.236 15.133-14.808-1.09-4.062-6.291-6.455-12.841-6.455v.012Z"/><path fill="#15444E" d="M255.707 296.908v1h.004l-.004-1Zm-13.802-7.091-.965.262.965-.262Zm3.462-9.29.705.71-.705-.71Zm12.322-6.607.254.967-.254-.967Zm5.947 21.939-.254-.967h-.003l.257.967Zm2.059-22.111.005 1 .995-.005v-.995h-1Zm-7.771 1.04.254.967.004-.001-.258-.966Zm-11.914 6.376.704.709-.704-.709Zm-3.23 8.43-.965.261.965-.261Zm35.756-9.403-.966.259.001.004.965-.263Zm-12.841-6.455v-1h-1v1h1Zm-9.988 22.172c-3.383 0-6.37-.64-8.624-1.77-2.252-1.13-3.705-2.709-4.213-4.582l-1.93.523c.699 2.577 2.649 4.544 5.247 5.847 2.596 1.302 5.907 1.982 9.52 1.982v-2Zm-12.837-6.352c-.676-2.499.307-5.445 3.202-8.319l-1.409-1.42c-3.183 3.16-4.658 6.811-3.723 10.262l1.93-.523Zm3.202-8.319c2.826-2.806 7.034-5.08 11.871-6.35l-.508-1.935c-5.102 1.34-9.647 3.762-12.772 6.866l1.409 1.419Zm11.871-6.35c5.029-1.323 9.87-1.313 13.607-.274 3.766 1.046 6.216 3.064 6.904 5.609l1.931-.522c-.95-3.51-4.195-5.874-8.299-7.014-4.133-1.149-9.339-1.131-14.652.267l.509 1.934Zm20.511 5.335c.688 2.542-.413 5.486-3.143 8.235-2.711 2.73-6.899 5.113-11.929 6.435l.508 1.934c5.313-1.396 9.836-3.935 12.84-6.96 2.985-3.006 4.605-6.652 3.655-10.166l-1.931.522Zm-15.075 14.67a30.26 30.26 0 0 1-7.675 1.016l.007 2a32.326 32.326 0 0 0 8.182-1.083l-.514-1.933Zm2.311-22.144c-2.71.015-5.408.375-8.024 1.073l.516 1.933a29.8 29.8 0 0 1 7.518-1.006l-.01-2Zm-8.02 1.072c-4.949 1.302-9.349 3.638-12.365 6.634l1.409 1.419c2.714-2.696 6.777-4.886 11.464-6.118l-.508-1.935Zm-12.365 6.634c-2.933 2.912-4.342 6.26-3.49 9.401l1.931-.523c-.588-2.167.298-4.808 2.968-7.459l-1.409-1.419Zm-3.49 9.401c.891 3.286 3.999 5.45 7.893 6.47 3.928 1.03 8.883.973 13.949-.359l-.509-1.934c-4.793 1.26-9.393 1.287-12.933.359-3.576-.937-5.849-2.772-6.469-5.059l-1.931.523Zm21.842 6.111c5.066-1.332 9.392-3.715 12.279-6.539 2.861-2.799 4.462-6.209 3.565-9.499l-1.93.526c.622 2.282-.414 4.98-3.034 7.544-2.596 2.539-6.595 4.774-11.389 6.034l.509 1.934Zm15.845-16.034c-.642-2.393-2.473-4.2-4.899-5.39-2.425-1.189-5.522-1.806-8.908-1.806v2c3.164 0 5.943.58 8.028 1.602 2.084 1.022 3.399 2.443 3.847 4.112l1.932-.518Zm-14.807-6.196v.012h2v-.012h-2Z" mask="url(#g)"/><path fill="#F0F9FB" stroke="#15444E" d="m246.245 290.976-.016.012-.015.014.337.37-.337-.37-.002.002-.006.005-.025.023-.101.091a306.956 306.956 0 0 1-1.901 1.705 576.123 576.123 0 0 1-5.485 4.825c-4.599 3.996-10.871 9.329-17.565 14.679-6.696 5.351-13.805 10.712-20.081 14.769-3.138 2.029-6.059 3.726-8.609 4.931-2.563 1.211-4.702 1.903-6.293 1.97-5.701.238-12.394-1.19-19.254-3.491-6.853-2.299-13.837-5.458-20.109-8.652-6.27-3.194-11.82-6.418-15.802-8.844a215.07 215.07 0 0 1-4.689-2.936c-.534-.344-.95-.616-1.237-.806l29.798-35.518.11.183c.308.509.76 1.249 1.34 2.172a193.77 193.77 0 0 0 4.862 7.359c4.068 5.863 9.621 13.162 15.534 18.858 1.445 1.392 3.533 2.042 5.994 2.17 2.466.129 5.365-.261 8.508-1.009 6.288-1.497 13.649-4.451 20.654-7.712 7.01-3.263 13.685-6.845 18.606-9.609a308.77 308.77 0 0 0 5.893-3.395c.704-.417 1.255-.748 1.63-.974l.428-.259.109-.067.028-.018.005-.002c5.639-3.289 8.448-6.066 10.697-8.29.223-.221.441-.437.656-.647 1.182-1.156 2.245-2.126 3.578-2.938 1.33-.809 2.949-1.475 5.246-1.986 8.073-1.799 14.675.411 18.972 3.453 2.152 1.524 3.712 3.248 4.589 4.763.44.759.697 1.446.784 2.017.087.573-.003.982-.192 1.248-1.838 2.589-4.548 2.996-7.833 3.111-.448.016-.906.026-1.373.036-2.899.063-6.119.134-9.13 1.605l-1.774.868c-3.406 1.668-5.407 2.649-6.993 3.277-1.813.719-3.071.974-5.298 1.258l.064.496-.064-.496a8.744 8.744 0 0 0-4.238 1.749Z"/><mask id="h" fill="#fff"><path d="M184.906 334.969c-23.164 0-60.472-24.973-60.852-25.224a.449.449 0 0 1-.195-.306.457.457 0 0 1 .101-.347l30.612-36.477a.44.44 0 0 1 .386-.16c.073.006.143.03.205.068a.44.44 0 0 1 .149.154c.104.177 10.471 17.825 22.045 28.976 10.226 9.846 60.192-20.697 60.695-21.007 5.548-3.234 8.307-5.963 10.524-8.154 2.734-2.703 4.703-4.656 9.943-5.823 12.849-2.863 21.411 3.952 24.143 7.953 1.395 2.042 1.767 3.911.996 4.997-2.396 3.377-6.079 3.46-9.979 3.548-2.9.065-5.9.133-8.712 1.507l-1.734.85c-7.418 3.625-8.371 4.098-12.633 4.644a7.796 7.796 0 0 0-3.76 1.546c-2.107 1.913-47.126 42.663-60.656 43.228-.421.017-.849.027-1.278.027Zm-59.93-25.688c4.139 2.725 38.346 24.795 59.919 24.797.423 0 .841-.008 1.254-.026 13.233-.554 59.627-42.581 60.095-43.006l.027-.025a8.74 8.74 0 0 1 4.217-1.738c4.113-.525 4.892-.908 12.346-4.559l1.734-.848c2.992-1.464 6.094-1.532 9.094-1.601 3.822-.084 7.125-.159 9.258-3.168.532-.749.137-2.314-1.004-3.987-2.611-3.827-10.822-10.338-23.193-7.581-4.977 1.108-6.875 2.985-9.501 5.581-2.249 2.229-5.057 5-10.695 8.287-1.767 1.088-37.705 23.047-54.875 23.049-2.953 0-5.35-.65-6.922-2.165-10.506-10.12-20.005-25.52-21.868-28.617l-29.886 35.607Z"/></mask><path fill="#15444E" d="M184.906 334.969c-23.164 0-60.472-24.973-60.852-25.224a.449.449 0 0 1-.195-.306.457.457 0 0 1 .101-.347l30.612-36.477a.44.44 0 0 1 .386-.16c.073.006.143.03.205.068a.44.44 0 0 1 .149.154c.104.177 10.471 17.825 22.045 28.976 10.226 9.846 60.192-20.697 60.695-21.007 5.548-3.234 8.307-5.963 10.524-8.154 2.734-2.703 4.703-4.656 9.943-5.823 12.849-2.863 21.411 3.952 24.143 7.953 1.395 2.042 1.767 3.911.996 4.997-2.396 3.377-6.079 3.46-9.979 3.548-2.9.065-5.9.133-8.712 1.507l-1.734.85c-7.418 3.625-8.371 4.098-12.633 4.644a7.796 7.796 0 0 0-3.76 1.546c-2.107 1.913-47.126 42.663-60.656 43.228-.421.017-.849.027-1.278.027Zm-59.93-25.688c4.139 2.725 38.346 24.795 59.919 24.797.423 0 .841-.008 1.254-.026 13.233-.554 59.627-42.581 60.095-43.006l.027-.025a8.74 8.74 0 0 1 4.217-1.738c4.113-.525 4.892-.908 12.346-4.559l1.734-.848c2.992-1.464 6.094-1.532 9.094-1.601 3.822-.084 7.125-.159 9.258-3.168.532-.749.137-2.314-1.004-3.987-2.611-3.827-10.822-10.338-23.193-7.581-4.977 1.108-6.875 2.985-9.501 5.581-2.249 2.229-5.057 5-10.695 8.287-1.767 1.088-37.705 23.047-54.875 23.049-2.953 0-5.35-.65-6.922-2.165-10.506-10.12-20.005-25.52-21.868-28.617l-29.886 35.607Z"/><path fill="#15444E" d="m124.054 309.745-.553.833.001.001.552-.834Zm-.195-.306-.991.134.001.006.99-.14Zm.101-.347-.766-.643-.002.002.768.641Zm30.612-36.477.766.642.004-.005-.77-.637Zm.386-.16-.094.996.014.001.08-.997Zm.354.222-.865.502.003.005.862-.507Zm22.045 28.976-.693.72.693-.72Zm60.695-21.007-.504-.864-.01.006-.011.007.525.851Zm10.524-8.154.703.711-.703-.711Zm9.943-5.823.217.977-.217-.977Zm24.143 7.953-.825.564.825-.564Zm.996 4.997-.815-.579.815.579Zm-9.979 3.548.022 1-.022-1Zm-8.712 1.507-.439-.899-.001.001.44.898Zm-1.734.85.439.898h.001l-.44-.898Zm-12.633 4.644.127.992v-.001l-.127-.991Zm-3.76 1.546-.61-.793-.032.025-.031.028.673.74Zm-60.656 43.228.038 1h.004l-.042-1Zm-61.208-25.661-.766-.642-.722.86.938.618.55-.836Zm59.919 24.797v1-1Zm1.254-.026-.042-.999.042.999Zm60.095-43.006.672.74h.001l-.673-.74Zm.027-.025-.61-.792-.032.025-.031.027.673.74Zm4.217-1.738-.127-.991.127.991Zm12.346-4.559-.439-.898h-.001l.44.898Zm1.734-.848.439.899.001-.001-.44-.898Zm9.094-1.601-.022-1h-.001l.023 1Zm9.258-3.168-.815-.578h-.001l.816.578Zm-1.004-3.987.826-.564-.826.564Zm-23.193-7.581.218.977-.218-.977Zm-9.501 5.581-.703-.711-.001.001.704.71Zm-10.695 8.287-.504-.864-.01.006-.011.007.525.851Zm-54.875 23.049v1-1Zm-6.922-2.165-.694.72v.001l.694-.721Zm-21.868-28.617.857-.516-.722-1.2-.901 1.073.766.643Zm30.044 60.295c-11.318 0-26.243-6.133-38.515-12.408-12.219-6.249-21.604-12.53-21.786-12.65l-1.103 1.668c.199.131 9.658 6.462 21.978 12.762 12.268 6.274 27.579 12.628 39.426 12.628v-2Zm-60.3-25.058a.579.579 0 0 1 .162.165l-1.689 1.072c.109.172.253.318.422.43l1.105-1.667Zm.162.165a.56.56 0 0 1 .081.222l-1.98.281c.029.203.101.397.21.569l1.689-1.072Zm.082.228a.537.537 0 0 1-.017.229l-1.921-.556a1.447 1.447 0 0 0-.044.596l1.982-.269Zm-.017.229a.55.55 0 0 1-.106.2l-1.535-1.282a1.46 1.46 0 0 0-.28.526l1.921.556Zm-.107.202 30.612-36.478-1.532-1.285-30.612 36.477 1.532 1.286Zm30.616-36.483a.559.559 0 0 1-.217.16l-.761-1.85c-.218.09-.412.232-.563.415l1.541 1.275Zm-.217.16a.555.555 0 0 1-.261.039l.188-1.991a1.459 1.459 0 0 0-.688.102l.761 1.85Zm-.247.04a.543.543 0 0 1-.246-.081l1.062-1.695a1.439 1.439 0 0 0-.655-.217l-.161 1.993Zm-.246-.081a.558.558 0 0 1-.185-.192l1.73-1.004a1.451 1.451 0 0 0-.483-.499l-1.062 1.695Zm-.182-.187c.1.17 10.528 17.931 22.214 29.189l1.387-1.44c-11.464-11.044-21.769-28.579-21.877-28.763l-1.724 1.014Zm22.214 29.189c1.524 1.467 3.703 2.104 6.171 2.216 2.478.112 5.373-.296 8.484-1.049 6.227-1.507 13.517-4.444 20.454-7.676 13.885-6.468 26.541-14.205 26.804-14.367l-1.05-1.702c-.239.147-12.818 7.837-26.599 14.256-6.896 3.213-14.045 6.085-20.079 7.545-3.019.731-5.709 1.095-7.923.995-2.223-.101-3.842-.664-4.875-1.659l-1.387 1.441Zm61.892-20.863c5.654-3.296 8.482-6.092 10.723-8.307l-1.406-1.423c-2.193 2.167-4.882 4.829-10.325 8.002l1.008 1.728Zm10.723-8.307c1.379-1.363 2.485-2.454 3.875-3.361 1.373-.896 3.059-1.635 5.582-2.196l-.434-1.953c-2.717.605-4.635 1.426-6.241 2.474-1.587 1.036-2.833 2.274-4.188 3.613l1.406 1.423Zm9.457-5.557c12.377-2.759 20.554 3.811 23.101 7.54l1.651-1.128c-2.918-4.273-11.866-11.334-25.187-8.365l.435 1.953Zm23.101 7.54c.646.947 1.018 1.8 1.155 2.489.138.692.025 1.12-.149 1.365l1.631 1.158c.597-.841.683-1.89.479-2.914-.205-1.028-.717-2.13-1.465-3.226l-1.651 1.128Zm1.006 3.854c-2.063 2.907-5.188 3.037-9.187 3.128l.045 1.999c3.801-.086 8.042-.122 10.773-3.969l-1.631-1.158Zm-9.187 3.128c-2.867.063-6.089.123-9.128 1.607l.878 1.797c2.584-1.262 5.363-1.34 8.295-1.405l-.045-1.999Zm-9.129 1.608-1.734.85.88 1.796 1.734-.85-.88-1.796Zm-1.733.849c-3.731 1.823-5.771 2.821-7.413 3.439-1.596.602-2.815.844-4.908 1.112l.254 1.983c2.169-.277 3.558-.545 5.359-1.223 1.753-.661 3.899-1.712 7.586-3.514l-.878-1.797Zm-12.32 4.551a8.795 8.795 0 0 0-4.244 1.745l1.219 1.586a6.785 6.785 0 0 1 3.278-1.347l-.253-1.984Zm-4.307 1.798c-1.048.952-12.81 11.6-25.994 22.077-6.593 5.24-13.524 10.422-19.638 14.324-3.058 1.952-5.893 3.572-8.367 4.719-2.497 1.156-4.535 1.787-6.026 1.849l.084 1.999c1.891-.08 4.22-.846 6.783-2.034 2.585-1.198 5.504-2.869 8.602-4.847 6.198-3.956 13.191-9.187 19.807-14.444 13.235-10.518 25.035-21.201 26.094-22.162l-1.345-1.481Zm-60.021 42.969c-.412.016-.826.026-1.24.026v2c.445 0 .885-.011 1.316-.027l-.076-1.999Zm-61.72-23.826c2.085 1.373 11.71 7.595 23.526 13.479 11.77 5.86 25.901 11.481 36.943 11.482l.001-2c-10.531 0-24.29-5.415-36.052-11.272-11.715-5.833-21.264-12.008-23.318-13.36l-1.1 1.671Zm60.469 24.961c.437 0 .869-.009 1.296-.027l-.084-1.998c-.399.017-.803.025-1.212.025v2Zm1.296-.027c1.862-.077 4.184-.868 6.749-2.085 2.591-1.229 5.531-2.943 8.659-4.968 6.259-4.051 13.343-9.393 20.009-14.716 13.335-10.649 25.069-21.279 25.308-21.496l-1.343-1.481c-.229.208-11.927 10.804-25.213 21.414-6.646 5.307-13.67 10.602-19.847 14.6-3.09 2-5.949 3.663-8.43 4.84-2.507 1.19-4.53 1.834-5.976 1.894l.084 1.998Zm60.726-43.265.027-.025-1.346-1.48-.026.025 1.345 1.48Zm-.036.028a7.736 7.736 0 0 1 3.734-1.539l-.254-1.983a9.736 9.736 0 0 0-4.7 1.937l1.22 1.585Zm3.734-1.539c2.089-.267 3.399-.506 5.145-1.163 1.697-.639 3.809-1.675 7.514-3.49l-.88-1.796c-3.749 1.836-5.754 2.817-7.339 3.414-1.535.578-2.67.793-4.694 1.052l.254 1.983Zm12.658-4.653 1.734-.847-.878-1.797-1.734.848.878 1.796Zm1.735-.848c2.765-1.353 5.649-1.43 8.677-1.499l-.046-2c-2.971.068-6.292.128-9.511 1.703l.88 1.796Zm8.676-1.499c3.709-.082 7.582-.105 10.052-3.589l-1.632-1.157c-1.796 2.533-4.528 2.659-8.464 2.746l.044 2Zm10.052-3.589c.519-.732.48-1.674.279-2.47-.211-.839-.657-1.756-1.273-2.66l-1.652 1.127c.525.77.847 1.472.986 2.021.149.592.041.808.029.825l1.631 1.157Zm-.994-5.13c-2.8-4.102-11.397-10.854-24.236-7.993l.435 1.953c11.902-2.653 19.726 3.617 22.149 7.168l1.652-1.128Zm-24.236-7.993c-2.587.576-4.422 1.364-5.963 2.372-1.522.996-2.723 2.187-4.024 3.474l1.406 1.422c1.324-1.309 2.386-2.354 3.713-3.223 1.309-.856 2.912-1.56 5.303-2.092l-.435-1.953Zm-9.988 5.847c-2.224 2.203-4.962 4.908-10.495 8.133l1.007 1.728c5.744-3.348 8.621-6.186 10.896-8.441l-1.408-1.42Zm-10.516 8.146c-.872.536-10.268 6.28-21.581 11.887-5.656 2.803-11.775 5.564-17.536 7.622-5.782 2.066-11.117 3.391-15.233 3.391v2c4.469 0 10.066-1.421 15.906-3.507 5.861-2.094 12.057-4.892 17.752-7.714 11.39-5.646 20.846-11.426 21.741-11.976l-1.049-1.703Zm-54.35 22.9c-2.838 0-4.925-.63-6.229-1.885l-1.387 1.441c1.842 1.773 4.548 2.444 7.616 2.444v-2Zm-6.229-1.885c-10.4-10.019-19.841-25.316-21.704-28.413l-1.714 1.031c1.864 3.098 11.421 18.602 22.031 28.822l1.387-1.44Zm-23.327-28.54-29.886 35.608 1.532 1.285 29.886-35.607-1.532-1.286Z" mask="url(#h)"/><path fill="#15444E" stroke="#15444E" d="M29.656 280.334v-.001c-4.713-27.938-3.465-45.31.49-55.864 3.936-10.509 10.552-14.255 16.711-15.003 5.655-.685 15.602-.001 26.35 1.561 10.736 1.56 22.211 3.986 30.904 6.756 14.954 4.768 30.267 17.536 42.151 29.846 5.934 6.147 10.998 12.163 14.716 16.979 1.859 2.409 3.38 4.514 4.504 6.184 1.133 1.683 1.841 2.891 2.099 3.518 3.528 8.536 1.604 19.119-1.948 28.683-3.543 9.542-8.663 17.954-11.372 22.079a3.747 3.747 0 0 1-1.905 1.477 3.82 3.82 0 0 1-2.43.022l-2.204-.721a1.489 1.489 0 0 0-1.485.333 1.465 1.465 0 0 0-.404.678 1.44 1.44 0 0 0 .011.789v.001c1.576 5.258 7.668 21.573 26.938 41.768-21.819-1.447-41.884-4.763-57.684-8.297-16.125-3.608-27.766-7.435-32.298-9.721-20.657-10.434-36.238-24.777-47.99-41.562-1.405-6.311-2.512-13.202-3.712-20.67-.46-2.861-.933-5.806-1.442-8.835Z"/><path fill="#F0F9FB" stroke="#15444E" d="M113.11 176.317v.001a.581.581 0 0 1-.095.78l-.002.002-3.217 2.816-.002.002a1.505 1.505 0 0 0-.524 1.13 374.01 374.01 0 0 1-.066 5.051 121.923 121.923 0 0 1-.086 2.842c-.036.834-.08 1.447-.129 1.717v.001c-.109.618-.423 1.224-.792 1.72-.374.503-.76.837-.962.947-.123.065-.332.13-.641.182a8.823 8.823 0 0 1-1.075.101c-.817.036-1.775.009-2.697-.044a58.247 58.247 0 0 1-3.207-.279l-.086-.01a16.35 16.35 0 0 1-.125-.015l-.055-.006-.014-.002h-.004l-.055-.007-.054.005.047.498c-.047-.498-.048-.498-.05-.498h-.002l-.005.001-.01.001-.024.004a.886.886 0 0 0-.183.054 1.73 1.73 0 0 0-.355.205c-.276.201-.644.556-1.107 1.189-.924 1.262-2.266 3.688-4.025 8.378-1.949 5.194-.914 8.838.666 11.186a10.744 10.744 0 0 0 2.397 2.531 9.612 9.612 0 0 0 1.147.75l.074.038.021.011.004.002c.712.367 1.218.715 1.536 1.03.324.321.401.553.398.697-.003.132-.078.33-.409.582-.331.252-.864.51-1.636.753-5.451 1.709-13.826 3.191-22.252 2.671-8.433-.52-16.837-3.039-22.456-9.248a.827.827 0 0 1-.191-.367l-.487.111.487-.111a.817.817 0 0 1 .226-.768l-.352-.356.352.356a.86.86 0 0 1 .366-.214l.002-.001c7.366-2.139 12.066-5.301 14.954-8.884 2.891-3.585 3.933-7.548 4.06-11.225.127-3.67-.658-7.063-1.428-9.536-.38-1.224-.76-2.227-1.024-2.927l-.009-.023c-.101-.27-.182-.484-.24-.649l.072-.041c.173-.103.369-.237.58-.393.424-.311.938-.732 1.518-1.224.75-.637 1.624-1.41 2.57-2.245.515-.454 1.05-.927 1.599-1.407 3.139-2.749 6.682-5.722 9.272-7.023 1.52-.766 3.188-.684 4.965-.597.172.008.345.017.519.024 1.911.086 3.948.078 5.588-1.454l.02-.018.017-.02 8.575-9.889a36.625 36.625 0 0 1 1.734 3.113c1.07 2.165 2.142 4.91 2.266 7.358.071 1.419.662 5.831 4.101 10.641Z"/><mask id="i" fill="#fff"><path d="M78.904 224.395c-9.634 0-19.947-2.293-26.616-9.666a1.767 1.767 0 0 1-.386-1.673c.084-.288.241-.55.456-.763.215-.212.48-.368.773-.452 8.21-2.385 13.738-6.28 16.43-11.576 3.997-7.866.613-16.816-.491-19.756-.389-1.03-.469-1.243-.338-1.493a.497.497 0 0 1 .3-.237c.543-.141 2.694-2.04 4.774-3.877 3.523-3.11 7.906-6.978 11.086-8.579 1.75-.884 3.62-.788 5.428-.697 2.026.103 3.94.201 5.405-1.16l8.998-10.38a.45.45 0 0 1 .571-.095.456.456 0 0 1 .151.142c.171.255 4.253 6.333 4.513 11.499.041.834.427 5.236 3.926 10.142a1.52 1.52 0 0 1-.241 2.038l-3.223 2.819a.57.57 0 0 0-.204.427c-.013 1.972-.07 8.503-.295 9.768-.27 1.52-1.495 2.936-2.249 3.331-1.557.827-7.303.177-8.37.046-.3.155-1.96 1.321-4.919 9.21-3.591 9.576 3.538 13.199 3.843 13.348 1.736.892 2.535 1.768 2.454 2.68-.082.912-.964 1.581-2.706 2.129-4.618 1.454-11.64 2.825-19.07 2.825Zm-9.254-44.909c.068.201.168.459.268.721 1.143 3.02 4.626 12.254.452 20.467-2.808 5.526-8.522 9.574-16.974 12.033a.905.905 0 0 0-.38.22.88.88 0 0 0-.06 1.197c11.5 12.712 34.302 9.869 44.752 6.592 1.818-.572 2.058-1.138 2.078-1.355.02-.218-.13-.866-1.965-1.813-.072-.036-8.162-4.106-4.28-14.454 3.343-8.913 5.19-9.753 5.674-9.797a.42.42 0 0 1 .1 0c2.522.316 6.905.604 7.931.068.501-.266 1.555-1.43 1.779-2.7.17-.953.256-5.593.281-9.621a1.46 1.46 0 0 1 .503-1.085l3.223-2.832a.634.634 0 0 0 .106-.858c-3.644-5.097-4.049-9.733-4.09-10.611-.205-4.096-3.068-8.99-4.041-10.547l-8.616 9.939a.226.226 0 0 1-.03.032c-1.751 1.641-3.96 1.529-6.095 1.41-1.689-.085-3.433-.173-4.967.604-3.068 1.549-7.411 5.375-10.894 8.458-2.442 2.169-3.92 3.46-4.755 3.917v.015Z"/></mask><path fill="#15444E" d="M78.904 224.395c-9.634 0-19.947-2.293-26.616-9.666a1.767 1.767 0 0 1-.386-1.673c.084-.288.241-.55.456-.763.215-.212.48-.368.773-.452 8.21-2.385 13.738-6.28 16.43-11.576 3.997-7.866.613-16.816-.491-19.756-.389-1.03-.469-1.243-.338-1.493a.497.497 0 0 1 .3-.237c.543-.141 2.694-2.04 4.774-3.877 3.523-3.11 7.906-6.978 11.086-8.579 1.75-.884 3.62-.788 5.428-.697 2.026.103 3.94.201 5.405-1.16l8.998-10.38a.45.45 0 0 1 .571-.095.456.456 0 0 1 .151.142c.171.255 4.253 6.333 4.513 11.499.041.834.427 5.236 3.926 10.142a1.52 1.52 0 0 1-.241 2.038l-3.223 2.819a.57.57 0 0 0-.204.427c-.013 1.972-.07 8.503-.295 9.768-.27 1.52-1.495 2.936-2.249 3.331-1.557.827-7.303.177-8.37.046-.3.155-1.96 1.321-4.919 9.21-3.591 9.576 3.538 13.199 3.843 13.348 1.736.892 2.535 1.768 2.454 2.68-.082.912-.964 1.581-2.706 2.129-4.618 1.454-11.64 2.825-19.07 2.825Zm-9.254-44.909c.068.201.168.459.268.721 1.143 3.02 4.626 12.254.452 20.467-2.808 5.526-8.522 9.574-16.974 12.033a.905.905 0 0 0-.38.22.88.88 0 0 0-.06 1.197c11.5 12.712 34.302 9.869 44.752 6.592 1.818-.572 2.058-1.138 2.078-1.355.02-.218-.13-.866-1.965-1.813-.072-.036-8.162-4.106-4.28-14.454 3.343-8.913 5.19-9.753 5.674-9.797a.42.42 0 0 1 .1 0c2.522.316 6.905.604 7.931.068.501-.266 1.555-1.43 1.779-2.7.17-.953.256-5.593.281-9.621a1.46 1.46 0 0 1 .503-1.085l3.223-2.832a.634.634 0 0 0 .106-.858c-3.644-5.097-4.049-9.733-4.09-10.611-.205-4.096-3.068-8.99-4.041-10.547l-8.616 9.939a.226.226 0 0 1-.03.032c-1.751 1.641-3.96 1.529-6.095 1.41-1.689-.085-3.433-.173-4.967.604-3.068 1.549-7.411 5.375-10.894 8.458-2.442 2.169-3.92 3.46-4.755 3.917v.015Z"/><path fill="#15444E" d="m52.288 214.729-.742.67.742-.67Zm.843-2.888.276.961.002-.001-.278-.96Zm16.43-11.576-.892-.453.891.453Zm-.491-19.756.936-.352v-.002l-.936.354Zm-.338-1.493-.875-.483-.006.01-.005.009.886.464Zm.3-.237-.251-.968-.01.003-.01.002.272.963Zm4.774-3.877-.662-.75.662.75Zm11.086-8.579.45.893v-.001l-.45-.892Zm5.428-.697.05-.999-.05.999Zm5.405-1.16.68.732.04-.036.035-.041-.755-.655Zm8.998-10.38.755.655.005-.005-.76-.65Zm.372-.155-.069.998h.005l.064-.998Zm.35.202-.835.551.004.006.831-.557Zm4.513 11.499.999-.049v-.001l-.999.05Zm3.926 10.142-.814.581h.001l.813-.581Zm-.241 2.038-.658-.753.658.753Zm-3.223 2.819.638.77.011-.008.01-.009-.659-.753Zm-.204.427-1-.01v.004l1 .006Zm-.295 9.768-.984-.175.984.175Zm-2.249 3.331-.464-.886-.006.003.47.883Zm-8.37.046.121-.993-.308-.037-.275.143.461.887Zm-4.919 9.21-.936-.352.936.352Zm3.843 13.348.457-.89-.01-.004-.008-.005-.44.899Zm-.252 4.809-.3-.954.3.954ZM69.65 179.486h-1v.163l.052.154.948-.317Zm.268.721.935-.354v-.004l-.935.358Zm.452 20.467-.891-.453.891.453Zm-16.974 12.033.276.961.004-.001-.28-.96Zm-.44 1.417-.763.646.01.013.012.012.742-.671Zm44.752 6.592.3.954-.3-.954Zm.113-3.168.458-.889-.007-.003-.451.892Zm-4.28-14.454-.937-.351.936.351Zm5.674-9.797.091.996.015-.002.015-.001-.12-.993Zm.1 0 .125-.992-.004-.001-.12.993Zm7.931.068.463.887.006-.003-.469-.884Zm1.779-2.7-.984-.176v.001l.984.175Zm.281-9.621-1-.01v.004l1 .006Zm.503-1.085.657.753.003-.002-.66-.751Zm3.223-2.832-.648-.762-.006.005-.006.006.66.751Zm.106-.858-.813.582.001.002.812-.584Zm-4.09-10.611.999-.046v-.004l-.999.05Zm-4.041-10.547.848-.53-.717-1.147-.887 1.022.756.655Zm-8.616 9.939-.755-.655-.017.019-.015.019.787.617Zm-.03.032-.655-.756-.015.013-.014.014.684.729Zm-6.095 1.41.056-.999h-.006l-.05.999Zm-4.967.604.45.893.002-.001-.452-.892Zm-10.894 8.458-.663-.748-.001.001.664.747Zm-4.755 3.917-.48-.877-.52.285v.592h1Zm9.254 43.924c-9.522 0-19.485-2.273-25.874-9.337l-1.484 1.341c6.949 7.683 17.611 9.996 27.358 9.996v-2Zm-25.874-9.336a.774.774 0 0 1-.179-.342l-1.948.449c.105.459.327.883.643 1.233l1.484-1.34Zm-.179-.342a.756.756 0 0 1 .011-.381l-1.92-.56a2.753 2.753 0 0 0-.04 1.39l1.95-.449Zm.011-.381a.772.772 0 0 1 .2-.332l-1.408-1.422c-.334.332-.58.742-.712 1.194l1.92.56Zm.2-.332a.809.809 0 0 1 .346-.202l-.554-1.922c-.452.13-.865.371-1.2.702l1.407 1.422Zm.347-.203c8.358-2.427 14.18-6.448 17.043-12.083l-1.783-.906c-2.52 4.958-7.754 8.727-15.817 11.068l.557 1.921Zm17.043-12.083c2.122-4.176 2.268-8.604 1.767-12.312-.5-3.709-1.659-6.773-2.213-8.249l-1.873.703c.55 1.464 1.636 4.346 2.104 7.813.469 3.469.308 7.448-1.568 11.139l1.783.906Zm-.447-20.563c-.098-.26-.172-.456-.228-.614a3.555 3.555 0 0 1-.1-.308c-.013-.055 0-.026-.004.045a.535.535 0 0 1-.055.203l-1.772-.929a1.471 1.471 0 0 0-.169.59c-.014.214.019.407.058.566.07.288.217.672.399 1.154l1.871-.707Zm-.397-.656a.505.505 0 0 1-.13.153l-1.24-1.569a1.502 1.502 0 0 0-.381.45l1.75.966Zm-.13.153a.505.505 0 0 1-.173.089l-.545-1.925c-.19.054-.367.145-.522.267l1.24 1.569Zm-.194.094a2.09 2.09 0 0 0 .54-.242c.15-.09.313-.202.48-.325.337-.245.74-.569 1.18-.935.878-.733 1.947-1.677 2.984-2.593l-1.324-1.499c-1.043.922-2.09 1.845-2.942 2.556-.427.356-.792.648-1.077.856a4.907 4.907 0 0 1-.332.226c-.1.06-.09.041-.012.021l.503 1.935Zm5.183-4.094c1.766-1.558 3.725-3.287 5.638-4.826 1.923-1.548 3.746-2.86 5.237-3.61l-.9-1.786c-1.689.85-3.648 2.274-5.591 3.838-1.954 1.572-3.948 3.332-5.707 4.884l1.323 1.5Zm10.876-8.437c1.477-.746 3.076-.683 4.926-.59l.1-1.998c-1.765-.088-3.904-.219-5.928.803l.902 1.785Zm4.926-.59c1.93.097 4.311.271 6.136-1.427l-1.361-1.464c-1.103 1.025-2.55 1.001-4.674.893l-.101 1.998Zm6.211-1.504 8.998-10.38-1.511-1.31-8.998 10.38 1.511 1.31Zm9.003-10.385a.552.552 0 0 1-.208.152l-.77-1.846a1.447 1.447 0 0 0-.542.394l1.52 1.3Zm-.208.152a.545.545 0 0 1-.249.041l.138-1.995a1.446 1.446 0 0 0-.659.108l.77 1.846Zm-.244.041a.54.54 0 0 1-.236-.071l.998-1.733a1.455 1.455 0 0 0-.635-.192l-.127 1.996Zm-.236-.071a.549.549 0 0 1-.185-.174l1.669-1.103a1.462 1.462 0 0 0-.486-.456l-.998 1.733Zm-.181-.168a34.09 34.09 0 0 1 2.156 3.79c1.057 2.162 2.07 4.825 2.189 7.202l1.998-.1c-.14-2.789-1.299-5.747-2.39-7.98a36.199 36.199 0 0 0-2.292-4.027l-1.661 1.115Zm4.345 10.991c.047.956.467 5.564 4.111 10.674l1.629-1.162c-3.354-4.702-3.707-8.899-3.742-9.61l-1.998.098Zm4.112 10.674c.077.108.11.238.094.366l1.987.235a2.527 2.527 0 0 0-.454-1.763l-1.627 1.162Zm.094.366a.532.532 0 0 1-.18.338l1.316 1.506c.472-.413.777-.985.851-1.609l-1.987-.235Zm-.18.338-3.223 2.82 1.317 1.505 3.223-2.819-1.317-1.506Zm-3.203 2.803a1.559 1.559 0 0 0-.413.529l1.803.864a.42.42 0 0 1-.114.146l-1.276-1.539Zm-.413.529a1.555 1.555 0 0 0-.153.657l2 .021a.442.442 0 0 1-.044.186l-1.803-.864Zm-.153.661a355.47 355.47 0 0 1-.068 5.134c-.021 1.015-.05 2.003-.087 2.812-.037.836-.082 1.413-.124 1.653l1.969.35c.07-.393.117-1.106.153-1.912.038-.833.067-1.838.089-2.86.044-2.045.062-4.177.068-5.164l-2-.013Zm-.279 9.599c-.101.569-.393 1.163-.766 1.672-.383.524-.77.847-.963.948l.927 1.772c.562-.294 1.165-.876 1.65-1.539.496-.678.952-1.552 1.121-2.503l-1.969-.35Zm-1.735 2.623c-.185.098-.645.207-1.413.26-.722.05-1.579.043-2.443.006a53.338 53.338 0 0 1-3.923-.33l-.243 1.986c.544.066 2.277.265 4.08.342.901.039 1.839.048 2.666-.009.78-.054 1.622-.174 2.215-.489l-.939-1.766Zm-8.362.042c-.375.194-.98.694-1.845 2.056-.872 1.377-2.055 3.71-3.548 7.689l1.872.703c1.467-3.909 2.593-6.103 3.365-7.321.781-1.231 1.155-1.392 1.078-1.352l-.922-1.775Zm-5.393 9.745c-1.903 5.073-.993 8.706.557 11.104 1.512 2.34 3.555 3.383 3.782 3.494l.879-1.797c-.078-.038-1.752-.88-2.982-2.783-1.193-1.845-2.052-4.812-.364-9.315l-1.872-.703Zm4.322 14.589c.82.422 1.335.799 1.628 1.118.277.304.295.486.287.584l1.992.178c.073-.814-.268-1.526-.804-2.112-.521-.57-1.273-1.076-2.19-1.547l-.913 1.779Zm1.915 1.702c-.01.115-.062.278-.35.502-.31.243-.836.503-1.66.762l.6 1.908c.919-.289 1.705-.637 2.291-1.093.609-.475 1.039-1.104 1.111-1.901l-1.992-.178Zm-2.01 1.264c-4.53 1.426-11.451 2.779-18.77 2.779v2c7.54 0 14.665-1.39 19.37-2.871l-.6-1.908Zm-28.972-40.813c.076.227.187.512.282.761l1.868-.715c-.105-.275-.195-.505-.254-.681l-1.896.635Zm.281.757c1.16 3.063 4.446 11.888.496 19.661l1.783.906c4.397-8.653.719-18.296-.409-21.274l-1.87.707Zm.496 19.661c-2.638 5.19-8.061 9.111-16.362 11.526l.559 1.92c8.603-2.503 14.608-6.679 17.586-12.54l-1.783-.906ZM53.12 211.746c-.301.086-.577.245-.802.464l1.394 1.434a.1.1 0 0 1-.04.024l-.552-1.922Zm-.802.464a1.883 1.883 0 0 0-.486.792l1.91.593a.12.12 0 0 1-.03.049l-1.394-1.434Zm-.486.792c-.094.302-.11.622-.047.931l1.96-.401a.127.127 0 0 1-.003.063l-1.91-.593Zm-.047.931c.064.31.204.597.407.837l1.527-1.291a.118.118 0 0 1 .026.053l-1.96.401Zm.43.862c6 6.634 14.885 9.144 23.455 9.619 8.582.476 17.016-1.076 22.336-2.744l-.598-1.908c-5.13 1.608-13.322 3.116-21.628 2.655-8.319-.461-16.585-2.885-22.083-8.963l-1.483 1.341Zm45.792 6.875c1.856-.584 2.69-1.33 2.774-2.216l-1.992-.187c.02-.209.125-.241-.007-.131-.151.125-.53.36-1.375.626l.6 1.908Zm2.774-2.216c.042-.449-.135-.925-.525-1.378-.38-.443-1-.912-1.978-1.417l-.917 1.778c.857.442 1.23.77 1.379.943.14.162.028.119.05-.113l1.991.187Zm-2.51-2.798-.016-.008-.055-.03a8.755 8.755 0 0 1-1.013-.679 9.913 9.913 0 0 1-2.158-2.306c-1.368-2.049-2.38-5.316-.553-10.187l-1.873-.703c-2.054 5.476-.962 9.418.763 12a11.885 11.885 0 0 0 3.568 3.451 7.308 7.308 0 0 0 .42.239l.01.005.004.002.903-1.784Zm-3.795-13.21c1.659-4.424 2.921-6.771 3.79-7.999.895-1.267 1.25-1.174 1.04-1.154l-.183-1.992c-.695.064-1.506.599-2.49 1.991-1.012 1.431-2.345 3.961-4.03 8.451l1.873.703Zm4.86-9.156a.666.666 0 0 1-.142 0l.241-1.986a1.394 1.394 0 0 0-.341 0l.241 1.986Zm-.146-.001c1.288.161 3.046.315 4.622.361.786.023 1.546.019 2.188-.028.588-.042 1.247-.13 1.708-.37l-.925-1.773c.005-.003-.012.006-.061.021a1.952 1.952 0 0 1-.197.047 5.968 5.968 0 0 1-.67.081c-.548.04-1.233.045-1.986.023a50.343 50.343 0 0 1-4.43-.346l-.249 1.984Zm8.524-.04c.441-.234.936-.727 1.331-1.266.411-.561.817-1.311.964-2.144l-1.969-.349c-.078.438-.311.905-.608 1.311a3.882 3.882 0 0 1-.423.489c-.064.062-.12.11-.165.144-.047.037-.069.049-.067.048l.937 1.767Zm2.295-3.409c.101-.57.165-2.063.21-3.807.046-1.791.073-3.965.086-5.983l-2-.012c-.013 2.01-.04 4.17-.086 5.944-.046 1.821-.111 3.124-.179 3.507l1.969.351Zm.296-9.785c0-.064.014-.127.042-.185l-1.815-.841a2.439 2.439 0 0 0-.227 1.005l2 .021Zm.042-.185a.475.475 0 0 1 .118-.158l-1.315-1.507a2.47 2.47 0 0 0-.618.824l1.815.841Zm.121-.16 3.223-2.831-1.32-1.503-3.223 2.832 1.32 1.502Zm3.21-2.82c.312-.266.516-.639.567-1.048l-1.985-.246a.358.358 0 0 1 .123-.231l1.295 1.525Zm.567-1.048c.05-.41-.056-.823-.296-1.157l-1.624 1.168a.364.364 0 0 1-.065-.257l1.985.246Zm-.294-1.154c-3.498-4.892-3.87-9.32-3.905-10.076l-1.998.093c.047 1 .484 5.843 4.276 11.146l1.627-1.163Zm-3.905-10.08c-.112-2.232-.937-4.613-1.818-6.584a37.922 37.922 0 0 0-2.374-4.443l-1.696 1.061a35.598 35.598 0 0 1 2.244 4.199c.845 1.889 1.553 4.003 1.646 5.867l1.998-.1Zm-5.796-11.152-8.615 9.939 1.51 1.31 8.617-9.939-1.512-1.31Zm-8.647 9.977a.819.819 0 0 1 .102-.107l1.31 1.512c.059-.052.114-.109.163-.172l-1.575-1.233Zm.073-.08c-1.394 1.306-3.15 1.263-5.355 1.14l-.111 1.997c2.065.115 4.726.298 6.834-1.678l-1.368-1.459Zm-5.36 1.14c-1.635-.082-3.659-.207-5.47.711l.904 1.784c1.256-.637 2.722-.585 4.465-.497l.1-1.998Zm-5.469.71c-1.633.825-3.554 2.226-5.468 3.768-1.925 1.553-3.899 3.295-5.638 4.835l1.326 1.497c1.743-1.543 3.683-3.256 5.567-4.775 1.896-1.528 3.68-2.815 5.115-3.539l-.902-1.786Zm-11.107 8.604a140.253 140.253 0 0 1-2.957 2.58c-.782.653-1.293 1.031-1.614 1.207l.96 1.754c.514-.281 1.16-.777 1.936-1.426.793-.662 1.784-1.537 3.003-2.62l-1.328-1.495Zm-5.09 4.664v.015h2v-.015h-2Z" mask="url(#i)"/><mask id="j" fill="#fff"><path d="M93.449 178.409c-1.923 0-4.941-.696-6.577-4.656-1.006-2.432-.677-4.589.88-5.771 1.617-1.227 4.106-1.08 6.054.36.73.542 1.69 2.048 1.796 2.215a.443.443 0 0 1-.312.674.455.455 0 0 1-.457-.204c-.266-.423-1.067-1.612-1.57-1.974-1.624-1.208-3.663-1.349-4.96-.367-1.227.937-1.45 2.659-.593 4.729 2.2 5.323 7.043 3.992 7.248 3.931a.458.458 0 0 1 .54.308.44.44 0 0 1-.031.329.453.453 0 0 1-.251.219 7.058 7.058 0 0 1-1.767.207Z"/></mask><path fill="#15444E" d="M93.449 178.409c-1.923 0-4.941-.696-6.577-4.656-1.006-2.432-.677-4.589.88-5.771 1.617-1.227 4.106-1.08 6.054.36.73.542 1.69 2.048 1.796 2.215a.443.443 0 0 1-.312.674.455.455 0 0 1-.457-.204c-.266-.423-1.067-1.612-1.57-1.974-1.624-1.208-3.663-1.349-4.96-.367-1.227.937-1.45 2.659-.593 4.729 2.2 5.323 7.043 3.992 7.248 3.931a.458.458 0 0 1 .54.308.44.44 0 0 1-.031.329.453.453 0 0 1-.251.219 7.058 7.058 0 0 1-1.767.207Z"/><path fill="#15444E" d="m93.449 178.409.008-1h-.008v1Zm-6.577-4.656.924-.382-.924.382Zm.88-5.771-.605-.797.604.797Zm6.054.36.596-.803-.001-.001-.595.804Zm1.796 2.215.846-.532-.002-.004-.844.536Zm-.648.597.577-.817-.578.817Zm-.12-.127-.848.532.847-.532Zm-1.572-1.974-.597.802.007.005.006.004.585-.811Zm-4.959-.367-.604-.797-.002.002.606.795Zm-.593 4.729.924-.382-.924.382Zm7.248 3.931-.226-.974-.03.007-.028.008.284.959Zm.258.856.24.971.047-.012.046-.016-.334-.943Zm-1.767-.793c-.847 0-1.901-.154-2.909-.716-.991-.553-2.007-1.538-2.744-3.322l-1.849.764c.9 2.176 2.211 3.519 3.619 4.304 1.39.776 2.807.97 3.883.97v-2Zm-5.653-4.038c-.91-2.202-.494-3.792.56-4.593l-1.21-1.593c-2.058 1.564-2.3 4.287-1.198 6.951l1.848-.765Zm.56-4.593c1.18-.895 3.173-.876 4.856.368l1.189-1.608c-2.215-1.636-5.2-1.911-7.254-.353l1.208 1.593Zm4.855.367c.233.173.578.574.923 1.04.323.437.575.832.624.909l1.688-1.073c-.057-.09-.339-.532-.704-1.026-.344-.464-.843-1.087-1.34-1.456l-1.191 1.606Zm1.545 1.945a.554.554 0 0 1-.079-.206l1.973-.328c-.031-.189-.1-.37-.202-.531l-1.692 1.065Zm-.079-.206a.563.563 0 0 1 .008-.222l1.946.464c.044-.187.05-.381.02-.57l-1.974.328Zm.008-.222a.559.559 0 0 1 .092-.2l1.615 1.18c.113-.154.194-.33.239-.516l-1.946-.464Zm.092-.2a.55.55 0 0 1 .158-.145l1.042 1.707c.161-.099.303-.228.415-.382l-1.615-1.18Zm.158-.145a.542.542 0 0 1 .197-.073l.317 1.975c.187-.03.366-.096.528-.195l-1.042-1.707Zm.197-.073a.54.54 0 0 1 .207.007l-.45 1.949c.184.042.374.049.56.019l-.317-1.975Zm.207.007a.551.551 0 0 1 .192.086l-1.155 1.633c.154.109.329.187.513.23l.45-1.949Zm.192.086a.564.564 0 0 1 .148.157l-1.692 1.065c.101.162.234.301.389.411l1.155-1.633Zm.149.157a17.18 17.18 0 0 0-.743-1.077c-.29-.385-.698-.893-1.09-1.175l-1.17 1.622c.112.08.356.348.66.753.277.37.528.749.65.942l1.693-1.065Zm-1.82-2.243c-1.873-1.394-4.413-1.686-6.16-.362l1.207 1.594c.846-.64 2.384-.651 3.758.372l1.194-1.604Zm-6.163-.36c-1.755 1.339-1.845 3.649-.91 5.906l1.847-.764c-.78-1.884-.424-3.018.276-3.552l-1.213-1.59Zm-.91 5.906c1.232 2.983 3.272 4.19 5.085 4.58 1.745.375 3.193-.02 3.37-.072l-.568-1.918c.002 0-.068.02-.195.046a5.51 5.51 0 0 1-2.186-.011c-1.21-.26-2.691-1.049-3.659-3.389l-1.848.764Zm8.397 4.523a.538.538 0 0 1-.39-.057l.992-1.737a1.463 1.463 0 0 0-1.054-.154l.452 1.948Zm-.39-.057a.551.551 0 0 1-.254-.321l1.915-.576a1.448 1.448 0 0 0-.67-.84l-.991 1.737Zm-.254-.321a.558.558 0 0 1 .038-.416l1.778.915c.17-.332.207-.717.099-1.075l-1.915.576Zm.038-.416a.548.548 0 0 1 .304-.267l.667 1.886c.347-.123.637-.373.807-.704l-1.778-.915Zm.397-.295a6.108 6.108 0 0 1-1.518.179l-.017 1.999a8.1 8.1 0 0 0 2.016-.236l-.48-1.942Z" mask="url(#j)"/><path fill="#15444E" stroke="#15444E" d="M93.979 168.684c-.027.006-.158-.042-.367-.118-1.26-.46-5.358-1.956-6.586 1.023a4.688 4.688 0 0 0 .059 3.564m6.894-4.469-.104-.489.004-.001m.1.49c10.02-2.048 13.55-4.934 15.368-6.899m-15.368 6.899 15.001-7.239m-21.895 11.708-.463.189.002.004m.46-.193-.459.198-.001-.005m.46-.193.77 1.883 25.8-35.95m-27.03 34.26a5.19 5.19 0 0 1-.064-3.94l.003-.008c.416-1.008 1.131-1.594 1.962-1.882.81-.281 1.705-.273 2.511-.162.812.113 1.574.337 2.137.526.243.082.453.159.61.217l.072.025.136.049m-7.367 5.175.733 1.797v.019a20.229 20.229 0 0 1-.026 1.439 20.735 20.735 0 0 1-.497 3.572c-.638 2.715-1.99 5.502-4.79 6.459a19.696 19.696 0 0 1-9.098.846l-.118-.016-.112.038a.262.262 0 0 1-.14.008l-.284-.065c-2.111-.479-3.573-.811-7.264-2.7-2.85-1.46-6.138-3.527-8.788-6.125-2.653-2.6-4.627-5.692-4.94-9.205v-.001l-.002-.018c-.062-.682-.506-5.526 4.052-8.846 2.567-1.871 5.475-1.886 6.947-1.746l.009.001.009.001c.318.019.633-.079.884-.276l-.308-.393.308.393c.251-.196.421-.478.476-.793 1.134-6.312 3.38-11.743 4.697-14.11v-.001c.898-1.617 2.618-4.014 4.726-5.925 2.127-1.928 4.54-3.266 6.844-2.996.707.083 1.537.621 2.342 1.349.785.71 1.466 1.526 1.878 2.037l.006.008.008.009a1.224 1.224 0 0 0 .936.415 1.236 1.236 0 0 0 .914-.422c1.874-1.955 4.736-3.801 7.729-5.041 3.01-1.247 6.067-1.848 8.333-1.408 3.455.67 5.709 1.742 7.354 3.051 1.649 1.313 2.721 2.89 3.784 4.644m-19.235 28.826a4.256 4.256 0 0 1-.112.023m.112-.023c9.857-2.03 13.264-4.861 14.989-6.726m-14.989 6.726a.615.615 0 0 0 .07.023h-.002a.183.183 0 0 0-.035-.006h-.001a.434.434 0 0 0-.144.006m0 0 15.101-6.749m0 0 .367.34m-.367-.34.367.34m-.367-.34c3.23-3.496 5.537-6.957 6.418-10.563.875-3.581.357-7.36-2.172-11.537m-3.879 22.44c6.509-7.045 9.485-14.146 4.307-22.699m0 0-.428.259m.428-.259-.428.259M130.408 364.205c-23.954-4.298-41.735-9.838-47.609-12.8-28.878-14.584-47.838-36.809-60.29-62.679l-2.766-15.696a6.08 6.08 0 0 1 .348-.344 10.84 10.84 0 0 1 4.774-2.554h.002l2.96-.733a10.986 10.986 0 0 1 4.397-.179c1.463.238 2.86.768 4.105 1.559l.389.249c16.866 10.816 36.215 17.295 56.278 18.847l21.8 1.692.019.001h.044a19.373 19.373 0 0 1 11.084 6.582 18.83 18.83 0 0 1 4.371 12.036v40.882l.014 1.909.08 11.228Z"/><path fill="#F0F9FB" stroke="#15444E" d="m130.869 364.845.006.001-84.774-40.24c10.416 11.163 22.591 20.287 36.445 27.286l-.182.36.182-.36a.046.046 0 0 1 .01.005c5.356 2.703 22.449 8.322 47.821 12.86l.492.088Z"/><path fill="#F0F9FB" stroke="#15444E" d="m31.827 275.028-.002-.001a86.23 86.23 0 0 0-4.782-2.885l4.784 2.886Zm0 0c16.787 10.778 36.053 17.229 56.03 18.763l-56.03-18.763Zm53.176 88.735c-33.045-6.486-47.074-14.276-57.177-20.113a20.495 20.495 0 0 1-7.467-7.431 20.081 20.081 0 0 1-2.728-10.098v-48.6c0-4.733 5.201-7.733 9.412-5.379l57.96 91.621Zm0 0 .017.003.08.012.309.048a697.157 697.157 0 0 0 5.413.806 655.71 655.71 0 0 0 13.051 1.766c4.816.597 9.718 1.131 13.602 1.393 1.944.131 3.622.192 4.902.161a13.149 13.149 0 0 0 1.58-.116c.281-.043.477-.093.605-.14.013-.091.027-.215.041-.372.037-.405.072-.992.106-1.742.068-1.498.129-3.618.184-6.155.109-5.072.193-11.795.256-18.507a4734.26 4734.26 0 0 0 .161-24.493l.007-1.698.001-.447.001-.115V314.13a18.823 18.823 0 0 0-4.384-12.056 19.362 19.362 0 0 0-11.135-6.58l-21.942-1.703-2.855 69.972Z"/><path fill="#15444E" stroke="#15444E" d="m110.291 360.53-.001.001.001-.001Zm0 0v-.001m0 .001v-.001m0 .001.002-.001-.002.001Zm0-.001Zm-88.159-71.42v-.001.001Zm0-.002Z"/><mask id="k" fill="#fff"><path d="M303.645 119.484c.56 3.788 5.112 27.953 31.242 39.221.094.04.199.048.298.022 2.203-.586 27.622-8.012 43.314-42.004a.449.449 0 0 0-.135-.547.46.46 0 0 0-.186-.083c-3.605-.689-23.581-4.878-31.835-14.72a.455.455 0 0 0-.724.03c-1.967 2.898-13.002 17.032-41.531 17.569a.469.469 0 0 0-.339.157.45.45 0 0 0-.104.355Z"/></mask><path fill="#F0F9FB" d="M303.645 119.484c.56 3.788 5.112 27.953 31.242 39.221.094.04.199.048.298.022 2.203-.586 27.622-8.012 43.314-42.004a.449.449 0 0 0-.135-.547.46.46 0 0 0-.186-.083c-3.605-.689-23.581-4.878-31.835-14.72a.455.455 0 0 0-.724.03c-1.967 2.898-13.002 17.032-41.531 17.569a.469.469 0 0 0-.339.157.45.45 0 0 0-.104.355Z"/><path fill="#15444E" d="m303.645 119.484.989-.146-.989.146Zm31.242 39.221-.396.918h.001l.395-.918Zm.298.022.254.967.003-.001-.257-.966Zm43.314-42.004-.903-.43-.005.011.908.419Zm-.321-.63.199-.981-.011-.002-.188.983Zm-31.835-14.72-.775.632.009.011.766-.643Zm-.724.03-.826-.564-.001.003.827.561Zm-41.531 17.569.012 1h.007l-.019-1Zm-1.433.658c.576 3.892 5.216 28.514 31.836 39.993l.792-1.837c-25.64-11.056-30.104-34.763-30.649-38.448l-1.979.292Zm31.837 39.993c.299.129.633.153.947.071l-.508-1.934a.534.534 0 0 1 .35.026l-.789 1.837Zm.95.07c2.374-.632 28.106-8.195 43.965-42.551l-1.816-.838c-15.524 33.629-40.632 40.916-42.663 41.456l.514 1.933Zm43.96-42.541c.095-.199.143-.417.14-.639l-2 .027a.567.567 0 0 1 .054-.247l1.806.859Zm.14-.639a1.447 1.447 0 0 0-.157-.636l-1.782.908a.545.545 0 0 1-.061-.245l2-.027Zm-.157-.636a1.465 1.465 0 0 0-.419-.499l-1.205 1.596a.537.537 0 0 1-.158-.189l1.782-.908Zm-.419-.499a1.465 1.465 0 0 0-.589-.266l-.398 1.961a.546.546 0 0 1-.218-.099l1.205-1.596Zm-.6-.268c-1.777-.339-7.614-1.546-14.02-3.884-6.442-2.351-13.287-5.786-17.237-10.496l-1.532 1.286c4.304 5.132 11.574 8.713 18.084 11.089 6.547 2.389 12.501 3.62 14.329 3.97l.376-1.965Zm-31.248-14.369a1.46 1.46 0 0 0-.532-.407l-.816 1.826a.543.543 0 0 1-.202-.155l1.55-1.264Zm-.532-.407a1.448 1.448 0 0 0-.655-.125l.084 1.998a.533.533 0 0 1-.245-.047l.816-1.826Zm-.655-.125c-.224.009-.444.07-.641.179l.965 1.752a.538.538 0 0 1-.24.067l-.084-1.998Zm-.641.179a1.451 1.451 0 0 0-.497.451l1.652 1.128a.551.551 0 0 1-.19.173l-.965-1.752Zm-.498.454c-1.826 2.689-12.585 16.6-40.723 17.131l.038 1.999c28.919-.545 40.23-14.9 42.339-18.007l-1.654-1.123Zm-40.716 17.131a1.457 1.457 0 0 0-.594.133l.838 1.817a.542.542 0 0 1-.22.049l-.024-1.999Zm-.594.133a1.468 1.468 0 0 0-.489.368l1.511 1.31a.55.55 0 0 1-.184.139l-.838-1.817Zm-.489.368c-.135.156-.236.34-.295.54l1.919.563a.55.55 0 0 1-.113.207l-1.511-1.31Zm-.295.54c-.059.2-.073.41-.043.616l1.979-.292a.552.552 0 0 1-.017.239l-1.919-.563Z" mask="url(#k)"/><mask id="l" fill="#fff"><path d="M335.076 159.188a.92.92 0 0 1-.366-.077c-26.087-11.243-30.825-34.929-31.508-39.563a.866.866 0 0 1 .026-.375.891.891 0 0 1 .485-.561.916.916 0 0 1 .372-.085c28.322-.535 39.265-14.564 41.163-17.371a.869.869 0 0 1 .302-.279.877.877 0 0 1 .397-.114.925.925 0 0 1 .751.326c8.11 9.667 27.722 13.831 31.573 14.567a.884.884 0 0 1 .626.465.885.885 0 0 1 .02.785c-15.673 33.95-40.796 41.503-43.608 42.252a.92.92 0 0 1-.233.03Zm10.922-57.531c-1.947 2.866-13.125 17.219-41.896 17.761.284 1.927 1.556 8.822 5.977 16.652 5.669 10.04 14.08 17.521 24.999 22.224 2.769-.737 27.518-8.181 43.019-41.758-3.902-.752-23.79-4.973-32.099-14.879Z"/></mask><path fill="#15444E" d="M335.076 159.188a.92.92 0 0 1-.366-.077c-26.087-11.243-30.825-34.929-31.508-39.563a.866.866 0 0 1 .026-.375.891.891 0 0 1 .485-.561.916.916 0 0 1 .372-.085c28.322-.535 39.265-14.564 41.163-17.371a.869.869 0 0 1 .302-.279.877.877 0 0 1 .397-.114.925.925 0 0 1 .751.326c8.11 9.667 27.722 13.831 31.573 14.567a.884.884 0 0 1 .626.465.885.885 0 0 1 .02.785c-15.673 33.95-40.796 41.503-43.608 42.252a.92.92 0 0 1-.233.03Zm10.922-57.531c-1.947 2.866-13.125 17.219-41.896 17.761.284 1.927 1.556 8.822 5.977 16.652 5.669 10.04 14.08 17.521 24.999 22.224 2.769-.737 27.518-8.181 43.019-41.758-3.902-.752-23.79-4.973-32.099-14.879Z"/><path fill="#15444E" d="m335.076 159.188-.003 1h.004l-.001-1Zm-.366-.077.398-.917-.003-.001-.395.918Zm-31.508-39.563.989-.145v-.001l-.989.146Zm.883-1.021.014 1h.005l-.019-1Zm41.163-17.371.828.56.003-.005-.831-.555Zm.699-.393.047.999h.002l-.049-.999Zm.751.326-.767.642.001.001.766-.643Zm31.573 14.567.188-.983h-.001l-.187.983Zm.626.465-.889.458.006.012.883-.47Zm.02.785-.906-.423-.002.004.908.419Zm-43.608 42.252.253.967.004-.001-.257-.966Zm10.689-57.501.766-.643-.85-1.013-.743 1.094.827.562Zm-41.896 17.761-.019-1-1.137.021.166 1.124.99-.145Zm5.977 16.652.871-.491-.871.491Zm24.999 22.224-.396.918.318.137.335-.089-.257-.966Zm43.019-41.758.908.419.535-1.16-1.254-.241-.189.982Zm-43.019 41.652c.01 0 .02.002.03.006l-.797 1.834c.241.105.5.159.762.16l.005-2Zm.027.005c-25.602-11.035-30.248-34.272-30.914-38.79l-1.979.291c.701 4.75 5.531 28.884 32.102 40.336l.791-1.837Zm-30.914-38.791a.11.11 0 0 1-.004.051l-1.919-.561a1.88 1.88 0 0 0-.055.803l1.978-.293Zm-.004.051a.094.094 0 0 1-.022.042l-1.513-1.308a1.882 1.882 0 0 0-.384.705l1.919.561Zm-.022.042a.121.121 0 0 1-.032.025l-.841-1.815a1.902 1.902 0 0 0-.64.482l1.513 1.308Zm-.032.025a.083.083 0 0 1-.034.007l-.028-2a1.928 1.928 0 0 0-.779.178l.841 1.815Zm-.029.007c28.711-.543 39.931-14.793 41.972-17.811l-1.657-1.121c-1.755 2.596-12.421 16.404-40.353 16.933l.038 1.999Zm41.975-17.816a.12.12 0 0 1-.04.038l-.979-1.744a1.873 1.873 0 0 0-.644.595l1.663 1.111Zm-.04.038a.106.106 0 0 1-.045.013l-.094-1.998a1.896 1.896 0 0 0-.84.241l.979 1.744Zm-.043.013a.078.078 0 0 1-.033-.007l.797-1.834a1.923 1.923 0 0 0-.862-.157l.098 1.998Zm-.033-.007a.077.077 0 0 1-.032-.024l1.533-1.284a1.906 1.906 0 0 0-.704-.526l-.797 1.834Zm-.031-.023c4.232 5.044 11.374 8.575 17.806 10.929 6.469 2.367 12.393 3.604 14.345 3.977l.375-1.965c-1.898-.362-7.705-1.575-14.033-3.89-6.364-2.329-13.083-5.714-16.961-10.337l-1.532 1.286Zm32.15 14.906a.118.118 0 0 1-.04-.018l1.193-1.606a1.914 1.914 0 0 0-.776-.341l-.377 1.965Zm-.04-.018a.127.127 0 0 1-.034-.041l1.777-.917a1.879 1.879 0 0 0-.55-.648l-1.193 1.606Zm-.028-.029a.14.14 0 0 1-.014-.054l1.999-.052a1.883 1.883 0 0 0-.219-.834l-1.766.94Zm-.014-.054c0-.019.004-.038.011-.054l1.812.847c.123-.264.184-.553.176-.845l-1.999.052Zm.009-.05c-15.507 33.591-40.322 41.002-42.958 41.704l.515 1.933c2.989-.796 28.42-8.489 44.259-42.799l-1.816-.838Zm-42.954 41.703.019-.002.003 2c.164 0 .327-.021.485-.063l-.507-1.935Zm10.116-57.095c-1.806 2.659-12.709 16.788-41.088 17.323l.037 1.999c29.165-.549 40.618-15.126 42.705-18.198l-1.654-1.124Zm-42.059 18.468c.296 2.003 1.595 9.028 6.096 16.999l1.742-.983c-4.342-7.689-5.586-14.456-5.859-16.307l-1.979.291Zm6.096 16.999c5.78 10.236 14.361 17.864 25.474 22.65l.791-1.837c-10.724-4.618-18.965-11.953-24.523-21.796l-1.742.983Zm26.127 22.698c2.947-.785 28.003-8.369 43.67-42.305l-1.816-.839c-15.336 33.22-39.778 40.522-42.368 41.211l.514 1.933Zm42.951-43.706c-1.925-.371-7.814-1.602-14.241-3.963-6.463-2.375-13.302-5.833-17.281-10.577l-1.532 1.286c4.33 5.162 11.589 8.768 18.123 11.168 6.57 2.414 12.576 3.669 14.553 4.05l.378-1.964Z" mask="url(#l)"/><mask id="m" fill="#fff"><path d="M369.005 120.191a.417.417 0 0 1-.099-.011c-12.407-2.7-23.839-11.165-23.953-11.251a.447.447 0 0 1-.174-.295.438.438 0 0 1 .088-.329.455.455 0 0 1 .634-.085c.113.083 11.391 8.432 23.6 11.09a.446.446 0 0 1 .354.483.447.447 0 0 1-.45.398Z"/></mask><path fill="#15444E" d="M369.005 120.191a.417.417 0 0 1-.099-.011c-12.407-2.7-23.839-11.165-23.953-11.251a.447.447 0 0 1-.174-.295.438.438 0 0 1 .088-.329.455.455 0 0 1 .634-.085c.113.083 11.391 8.432 23.6 11.09a.446.446 0 0 1 .354.483.447.447 0 0 1-.45.398Z"/><path fill="#15444E" d="m369.005 120.191.001-1h-.018l.017 1Zm-.099-.011.22-.975-.007-.002-.213.977Zm-23.953-11.251.603-.798-.003-.002-.6.8Zm.548-.709-.6.8.008.006.592-.806Zm23.6 11.09-.213.978h.004l.209-.978Zm-.113-.119a.583.583 0 0 1 .138.014l-.439 1.951c.11.025.222.036.335.034l-.034-1.999Zm.131.012c-6.068-1.321-11.931-4.061-16.312-6.502a82.05 82.05 0 0 1-5.256-3.191 64.703 64.703 0 0 1-1.86-1.28l-.135-.099-1.206 1.595c.131.1 11.71 8.682 24.344 11.432l.425-1.955Zm-23.566-11.074a.553.553 0 0 1 .216.369l-1.981.272c.053.385.258.729.565.959l1.2-1.6Zm.216.369a.555.555 0 0 1-.111.418l-1.582-1.223a1.439 1.439 0 0 0-.288 1.077l1.981-.272Zm-.111.418a.541.541 0 0 1-.359.208l-.265-1.982a1.45 1.45 0 0 0-.958.551l1.582 1.223Zm-.359.208a.54.54 0 0 1-.398-.104l1.2-1.6a1.453 1.453 0 0 0-1.067-.278l.265 1.982Zm-.39-.098.001.001.003.002.009.006.031.024.112.08a66.31 66.31 0 0 0 1.902 1.309 83.086 83.086 0 0 0 5.311 3.225c4.401 2.453 10.37 5.256 16.61 6.615l.426-1.955c-11.982-2.609-23.11-10.838-23.221-10.919l-1.184 1.612Zm23.983 11.262a.545.545 0 0 1-.327-.212l1.613-1.182a1.454 1.454 0 0 0-.869-.562l-.417 1.956Zm-.327-.212a.565.565 0 0 1-.105-.392l1.989.218a1.441 1.441 0 0 0-.271-1.008l-1.613 1.182Zm-.105-.392a.561.561 0 0 1 .185-.357l1.324 1.499c.268-.237.44-.565.48-.924l-1.989-.218Zm.185-.357a.541.541 0 0 1 .361-.136l-.003 2c.354 0 .699-.128.966-.365l-1.324-1.499Z" mask="url(#m)"/><path fill="#15444E" stroke="#15444E" d="M365.769 126.883a.451.451 0 0 0 .557-.377.444.444 0 0 0-.072-.304l-.485.681Zm0 0c-5.76-1.476-11.48-4.245-17.004-8.232l17.004 8.232Zm.117-.432-.005.003.005-.003Zm0 0Zm0 0v.001m0-.001v.001m0-.001v.001m0-.001v.001M341.387 111.69l.003-.001-.004.002.001-.001ZM337.129 114.962l-.002.004.002-.004Zm0 0 .001-.001-.001.001Z"/><mask id="n" fill="#fff"><path d="M355.419 138.781a.476.476 0 0 1-.205-.053c-16.19-8.486-23.231-21.146-23.301-21.262a.443.443 0 0 1 .185-.604.46.46 0 0 1 .613.183c.069.123 6.992 12.544 22.929 20.896a.447.447 0 0 1 .231.498.452.452 0 0 1-.436.342h-.016Z"/></mask><path fill="#15444E" d="M355.419 138.781a.476.476 0 0 1-.205-.053c-16.19-8.486-23.231-21.146-23.301-21.262a.443.443 0 0 1 .185-.604.46.46 0 0 1 .613.183c.069.123 6.992 12.544 22.929 20.896a.447.447 0 0 1 .231.498.452.452 0 0 1-.436.342h-.016Z"/><path fill="#15444E" d="m355.419 138.781-.026.999.013.001h.013v-1Zm-.205-.053-.464.886.007.003.457-.889Zm-23.301-21.262-.878.478.009.016.01.017.859-.511Zm.798-.421-.878.478.004.007.004.007.87-.492Zm22.929 20.896-.464.886.007.004.457-.89Zm-.205.84v1h.01l-.01-1Zm.01-1a.53.53 0 0 1 .227.058l-.915 1.778c.197.102.414.157.636.163l.052-1.999Zm.234.062c-15.941-8.356-22.864-20.818-22.906-20.889l-1.719 1.023c-.008-.013.131.233.366.613.239.387.592.939 1.064 1.622a55.576 55.576 0 0 0 4.289 5.413 64.164 64.164 0 0 0 17.977 13.989l.929-1.771Zm-22.887-20.855a.564.564 0 0 1 .043.432l-1.912-.587c-.114.371-.073.771.112 1.111l1.757-.956Zm.043.432a.551.551 0 0 1-.27.327l-.933-1.769a1.45 1.45 0 0 0-.709.855l1.912.587Zm-.27.327a.544.544 0 0 1-.407.04l.57-1.917a1.46 1.46 0 0 0-1.096.108l.933 1.769Zm-.407.04a.544.544 0 0 1-.325-.264l1.756-.956a1.446 1.446 0 0 0-.861-.697l-.57 1.917Zm-.317-.25.028.051.073.125c.062.106.152.257.27.448.235.381.583.924 1.047 1.595a54.658 54.658 0 0 0 4.221 5.318 63.261 63.261 0 0 0 17.696 13.753l.928-1.772c-15.69-8.222-22.494-20.451-22.523-20.503l-1.74.985Zm23.342 21.294a.554.554 0 0 1-.248-.26l1.815-.84a1.452 1.452 0 0 0-.654-.68l-.913 1.78Zm-.248-.26a.562.562 0 0 1-.036-.368l1.943.473c.077-.317.045-.65-.092-.945l-1.815.84Zm-.036-.368c.03-.124.1-.231.197-.306l1.234 1.574c.253-.199.435-.478.512-.795l-1.943-.473Zm.197-.306a.541.541 0 0 1 .33-.116l.019 2c.32-.003.631-.112.885-.31l-1.234-1.574Zm.339-.116h-.016v2h.016v-2Z" mask="url(#n)"/><path fill="#15444E" stroke="#15444E" d="m348.995 143.533-.002-.002.002.002Zm0 0ZM336.698 134.05l-.002-.003.002.003Zm0 0 .002.004-.002-.004Zm-.002.009-.004.003v.005l.004-.003v-.005Zm-.016.019.004-.008-.004.008Zm.01-.022.002-.005-.002.005Zm-9.8-14.377.043-.018.003-.001.042-.018a.06.06 0 0 1-.003.037.053.053 0 0 1-.027.028.042.042 0 0 1-.031 0 .05.05 0 0 1-.027-.028Zm.089-.038.371-.158c.03.072 3.161 7.282 9.679 14.27l-10.05-14.112Z"/><mask id="o" fill="#fff"><path d="M334.241 148.504a.456.456 0 0 1-.318-.136.44.44 0 0 1-.128-.317l.049-3.222a.372.372 0 0 0-.121-.286.362.362 0 0 0-.133-.08.39.39 0 0 0-.155-.019l-4.573.375a1.276 1.276 0 0 1-1.374-1.07 1.266 1.266 0 0 1 .061-.628l.221-.604a.371.371 0 0 0-.075-.389.374.374 0 0 0-.371-.111 1.277 1.277 0 0 1-.846-.073 1.257 1.257 0 0 1-.608-.585 1.247 1.247 0 0 1 .334-1.565l.891-.725a.377.377 0 0 0 .119-.435.371.371 0 0 0-.354-.246l-4.775.063a.45.45 0 0 1-.452-.445.45.45 0 0 1 .452-.445l4.775-.063h.019c.263-.002.52.077.736.226.216.149.38.36.468.604a1.252 1.252 0 0 1-.392 1.43l-.892.725a.37.37 0 0 0-.102.473.359.359 0 0 0 .427.201 1.298 1.298 0 0 1 1.26.379 1.257 1.257 0 0 1 .257 1.287l-.222.604a.376.376 0 0 0 .057.367.372.372 0 0 0 .331.145l4.571-.375a1.302 1.302 0 0 1 .985.339c.131.122.235.269.305.432.07.163.104.339.1.516l-.051 3.222a.429.429 0 0 1-.145.315.462.462 0 0 1-.331.116Z"/></mask><path fill="#15444E" d="M334.241 148.504a.456.456 0 0 1-.318-.136.44.44 0 0 1-.128-.317l.049-3.222a.372.372 0 0 0-.121-.286.362.362 0 0 0-.133-.08.39.39 0 0 0-.155-.019l-4.573.375a1.276 1.276 0 0 1-1.374-1.07 1.266 1.266 0 0 1 .061-.628l.221-.604a.371.371 0 0 0-.075-.389.374.374 0 0 0-.371-.111 1.277 1.277 0 0 1-.846-.073 1.257 1.257 0 0 1-.608-.585 1.247 1.247 0 0 1 .334-1.565l.891-.725a.377.377 0 0 0 .119-.435.371.371 0 0 0-.354-.246l-4.775.063a.45.45 0 0 1-.452-.445.45.45 0 0 1 .452-.445l4.775-.063h.019c.263-.002.52.077.736.226.216.149.38.36.468.604a1.252 1.252 0 0 1-.392 1.43l-.892.725a.37.37 0 0 0-.102.473.359.359 0 0 0 .427.201 1.298 1.298 0 0 1 1.26.379 1.257 1.257 0 0 1 .257 1.287l-.222.604a.376.376 0 0 0 .057.367.372.372 0 0 0 .331.145l4.571-.375a1.302 1.302 0 0 1 .985.339c.131.122.235.269.305.432.07.163.104.339.1.516l-.051 3.222a.429.429 0 0 1-.145.315.462.462 0 0 1-.331.116Z"/><path fill="#15444E" d="m334.241 148.504.058-.998-.02-.001-.021-.001-.017 1Zm-.446-.453-1-.015v.001l1 .014Zm.049-3.222-1-.028v.012l1 .016Zm-.121-.286.681-.733-.001-.001-.68.734Zm-.288-.099.082.997.002-.001-.084-.996Zm-4.573.375-.081-.997h-.003l.084.997Zm-1.122-.49.79-.612v-.001l-.79.613Zm-.191-1.208-.939-.343.939.343Zm.221-.604-.932-.361-.004.009-.003.008.939.344Zm-.075-.389-.745.667.006.007.007.008.732-.682Zm-.371-.111.25.969.002-.001-.252-.968Zm-1.454-.658.897-.443-.006-.013-.007-.012-.884.468Zm.334-1.565.621.784.01-.008-.631-.776Zm.891-.725-.616-.788-.007.006-.007.006.63.776Zm.119-.435-.944.33.007.021.008.02.929-.371Zm-.354-.246-.01-1h-.003l.013 1Zm-4.775.063v1h.013l-.013-1Zm0-.89v1l.013-.001-.013-.999Zm4.775-.063v-1h-.013l.013 1Zm.019 0v1h.006l-.006-1Zm1.204.83-.94.341.003.008.003.007.934-.356Zm-.392 1.43-.626-.781-.005.005.631.776Zm-.892.725.603.798.014-.011.014-.011-.631-.776Zm-.102.473.914-.405-.017-.04-.021-.038-.876.483Zm.427.201-.24-.97-.01.002-.01.003.26.965Zm1.26.379-.739.674.002.002.737-.676Zm.257 1.287.939.346.001-.003-.94-.343Zm-.222.604.936.351.002-.005-.938-.346Zm.057.367.795-.607-.004-.006-.005-.005-.786.618Zm.331.145-.082-.997h-.007l.089.997Zm4.571-.375-.08-.997h-.002l.082.997Zm1.39 1.287-.999-.02v.004l.999.016Zm-.051 3.222 1 .026v-.01l-1-.016Zm-.459-.569c.14.003.276.059.378.163l-1.426 1.402c.269.274.633.428 1.013.435l.035-2Zm.378.163a.558.558 0 0 1 .159.398l-2-.028c-.005.388.146.759.415 1.032l1.426-1.402Zm.159.399.049-3.222-2-.031-.049 3.223 2 .03Zm.049-3.209a1.388 1.388 0 0 0-.108-.573l-1.843.778a.645.645 0 0 1-.049-.261l2 .056Zm-.108-.573a1.383 1.383 0 0 0-.332-.474l-1.361 1.466a.633.633 0 0 1-.15-.214l1.843-.778Zm-.333-.475a1.388 1.388 0 0 0-.489-.292l-.648 1.892a.632.632 0 0 1-.222-.133l1.359-1.467Zm-.489-.292a1.364 1.364 0 0 0-.563-.069l.168 1.992a.607.607 0 0 1-.253-.031l.648-1.892Zm-.561-.07-4.572.375.163 1.993 4.573-.374-.164-1.994Zm-4.575.375a.292.292 0 0 1-.141-.023l-.799 1.834c.349.152.73.214 1.109.182l-.169-1.993Zm-.141-.023a.276.276 0 0 1-.107-.082l-1.581 1.224c.234.302.54.539.889.692l.799-1.834Zm-.107-.083a.266.266 0 0 1-.054-.123l-1.975.311c.059.379.214.736.448 1.038l1.581-1.226Zm-.054-.123a.263.263 0 0 1 .013-.13l-1.879-.685a2.26 2.26 0 0 0-.109 1.126l1.975-.311Zm.013-.129.221-.604-1.879-.687-.221.605 1.879.686Zm.214-.587c.093-.241.116-.503.067-.756l-1.963.382a.623.623 0 0 1 .031-.347l1.865.721Zm.067-.756a1.372 1.372 0 0 0-.344-.675l-1.463 1.364a.63.63 0 0 1-.156-.307l1.963-.382Zm-.33-.66a1.367 1.367 0 0 0-.628-.398l-.573 1.916a.627.627 0 0 1-.289-.184l1.49-1.334Zm-.628-.398a1.374 1.374 0 0 0-.739-.014l.503 1.936a.622.622 0 0 1-.337-.006l.573-1.916Zm-.737-.014a.28.28 0 0 1-.185-.016l-.825 1.822c.473.214 1.006.26 1.509.131l-.499-1.937Zm-.185-.016a.255.255 0 0 1-.123-.117l-1.793.886a2.25 2.25 0 0 0 1.091 1.053l.825-1.822Zm-.136-.142a.244.244 0 0 1-.023-.165l-1.956-.417a2.242 2.242 0 0 0 .211 1.517l1.768-.935Zm-.023-.165a.26.26 0 0 1 .094-.148l-1.242-1.568a2.262 2.262 0 0 0-.808 1.299l1.956.417Zm.104-.156.891-.725-1.261-1.552-.892.725 1.262 1.552Zm.877-.714c.232-.182.402-.434.48-.722l-1.929-.526a.625.625 0 0 1 .216-.327l1.233 1.575Zm.48-.722a1.375 1.375 0 0 0-.049-.871l-1.858.742a.628.628 0 0 1-.022-.397l1.929.526Zm-.034-.83a1.374 1.374 0 0 0-.51-.671l-1.141 1.643a.633.633 0 0 1-.237-.312l1.888-.66Zm-.51-.671a1.375 1.375 0 0 0-.798-.245l.02 2a.627.627 0 0 1-.363-.112l1.141-1.643Zm-.801-.245-4.775.063.026 2 4.775-.063-.026-2Zm-4.762.063c.14 0 .278.054.382.157l-1.403 1.425c.273.269.641.418 1.021.418v-2Zm.382.157a.555.555 0 0 1 .166.398h-2c0 .388.157.757.431 1.027l1.403-1.425Zm.166.398a.555.555 0 0 1-.166.397l-1.403-1.425c-.274.27-.431.639-.431 1.028h2Zm-.166.397a.543.543 0 0 1-.382.158v-2c-.38 0-.748.148-1.021.417l1.403 1.425Zm-.369.157 4.775-.062-.026-2-4.775.063.026 1.999Zm4.762-.062h.019v-2h-.019v2Zm.025 0c.06 0 .117.018.163.049l1.134-1.647a2.286 2.286 0 0 0-1.31-.402l.013 2Zm.163.049a.254.254 0 0 1 .095.122l1.88-.682a2.252 2.252 0 0 0-.841-1.087l-1.134 1.647Zm.101.137a.246.246 0 0 1 .007.156l1.929.53a2.251 2.251 0 0 0-.067-1.398l-1.869.712Zm.007.156a.264.264 0 0 1-.091.137l1.251 1.561c.372-.299.642-.707.769-1.168l-1.929-.53Zm-.096.142-.892.725 1.262 1.552.891-.725-1.261-1.552Zm-.864.703a1.369 1.369 0 0 0-.514.805l1.955.422a.635.635 0 0 1-.235.369l-1.206-1.596Zm-.514.805c-.07.323-.02.66.139.948l1.752-.965a.637.637 0 0 1 .064.439l-1.955-.422Zm.1.871c.133.301.37.54.664.679l.852-1.81a.644.644 0 0 1 .313.321l-1.829.81Zm.664.679c.293.138.626.167.938.083l-.52-1.931a.632.632 0 0 1 .434.038l-.852 1.81Zm.918.088a.295.295 0 0 1 .156.004l.575-1.915a2.284 2.284 0 0 0-1.211-.03l.48 1.941Zm.156.004c.05.015.093.043.125.078l1.477-1.348a2.27 2.27 0 0 0-1.027-.645l-.575 1.915Zm.127.08a.262.262 0 0 1 .066.129l1.961-.393a2.255 2.255 0 0 0-.554-1.088l-1.473 1.352Zm.066.129a.25.25 0 0 1-.011.138l1.879.687c.142-.39.175-.811.093-1.218l-1.961.393Zm-.01.136-.223.604 1.877.692.223-.604-1.877-.692Zm-.221.599a1.375 1.375 0 0 0-.071.696l1.976-.309a.614.614 0 0 1-.032.315l-1.873-.702Zm-.071.696c.037.234.133.454.279.639l1.572-1.235a.61.61 0 0 1 .125.287l-1.976.309Zm.27.628c.141.186.328.332.54.425l.802-1.833a.636.636 0 0 1 .248.195l-1.59 1.213Zm.54.425c.213.092.445.13.675.11l-.178-1.993a.626.626 0 0 1 .305.05l-.802 1.833Zm.668.11 4.57-.374-.163-1.994-4.571.375.164 1.993Zm4.569-.374a.3.3 0 0 1 .123.015l.652-1.891a2.321 2.321 0 0 0-.935-.118l.16 1.994Zm.123.015c.04.014.074.035.103.061l1.358-1.468a2.294 2.294 0 0 0-.809-.484l-.652 1.891Zm.103.061c.029.027.05.058.064.091l1.839-.786a2.26 2.26 0 0 0-.545-.773l-1.358 1.468Zm.064.091a.247.247 0 0 1 .021.103l1.999.039a2.24 2.24 0 0 0-.181-.928l-1.839.786Zm.021.107-.052 3.222 2 .032.051-3.222-1.999-.032Zm-.051 3.212a.558.558 0 0 1 .051-.221l1.816.838a1.43 1.43 0 0 0 .132-.565l-1.999-.052Zm.051-.221a.563.563 0 0 1 .132-.18l1.342 1.484c.143-.13.26-.288.342-.466l-1.816-.838Zm.132-.18a.566.566 0 0 1 .187-.111l.661 1.888c.182-.064.35-.163.494-.293l-1.342-1.484Zm.187-.111a.562.562 0 0 1 .211-.029l-.117 1.996a1.44 1.44 0 0 0 .567-.079l-.661-1.888Z" mask="url(#o)"/><mask id="p" fill="#fff"><path d="M298.242 277.475a.45.45 0 0 1-.417-.27.438.438 0 0 1 .09-.483l2.137-2.2a.459.459 0 0 1 .64-.014.444.444 0 0 1 .014.631l-2.137 2.199a.465.465 0 0 1-.149.102.47.47 0 0 1-.178.035Z"/></mask><path fill="#15444E" d="M298.242 277.475a.45.45 0 0 1-.417-.27.438.438 0 0 1 .09-.483l2.137-2.2a.459.459 0 0 1 .64-.014.444.444 0 0 1 .014.631l-2.137 2.199a.465.465 0 0 1-.149.102.47.47 0 0 1-.178.035Z"/><path fill="#15444E" d="m298.242 277.475.004-1h-.006l.002 1Zm-.327-.753.716.697h.001l-.717-.697Zm2.137-2.2.717.697-.717-.697Zm.654.617.717.697.001-.001-.718-.696Zm-2.137 2.199-.717-.697.717.697Zm-.329-.863a.55.55 0 0 1 .296.087l-1.087 1.679c.237.154.514.235.795.234l-.004-2Zm.296.087a.56.56 0 0 1 .207.244l-1.835.797c.114.263.303.484.541.638l1.087-1.679Zm.207.244a.568.568 0 0 1 .037.326l-1.967-.364a1.44 1.44 0 0 0 .095.835l1.835-.797Zm.037.326a.556.556 0 0 1-.149.287l-1.432-1.395a1.438 1.438 0 0 0-.386.744l1.967.364Zm-.148.287 2.137-2.2-1.434-1.393-2.137 2.199 1.434 1.394Zm2.137-2.2a.541.541 0 0 1-.378.166l-.044-2c-.38.008-.745.165-1.013.441l1.435 1.393Zm-.378.166a.545.545 0 0 1-.385-.149l1.372-1.456a1.46 1.46 0 0 0-1.031-.395l.044 2Zm-.385-.149a.556.556 0 0 1-.174-.393l1.999-.045a1.445 1.445 0 0 0-.453-1.018l-1.372 1.456Zm-.174-.393a.557.557 0 0 1 .157-.401l1.435 1.393a1.44 1.44 0 0 0 .407-1.037l-1.999.045Zm.157-.401-2.137 2.199 1.434 1.394 2.137-2.199-1.434-1.394Zm-2.137 2.199a.536.536 0 0 1 .182-.124l.772 1.845a1.45 1.45 0 0 0 .481-.328l-1.435-1.393Zm.182-.124a.553.553 0 0 1 .212-.042l-.008 2c.195.001.388-.038.568-.113l-.772-1.845Z" mask="url(#p)"/><mask id="q" fill="#fff"><path d="M290.767 285.175a.46.46 0 0 1-.417-.27.438.438 0 0 1 .09-.484l2.137-2.199a.455.455 0 0 1 .317-.137.454.454 0 0 1 .323.123.443.443 0 0 1 .014.63l-2.137 2.2a.45.45 0 0 1-.327.137Z"/></mask><path fill="#15444E" d="M290.767 285.175a.46.46 0 0 1-.417-.27.438.438 0 0 1 .09-.484l2.137-2.199a.455.455 0 0 1 .317-.137.454.454 0 0 1 .323.123.443.443 0 0 1 .014.63l-2.137 2.2a.45.45 0 0 1-.327.137Z"/><path fill="#15444E" d="m290.767 285.175.012-1h-.014l.002 1Zm-.327-.754.716.698.001-.001-.717-.697Zm2.137-2.199.717.697-.717-.697Zm.654.616.717.697h.001l-.718-.697Zm-2.137 2.2-.717-.697-.006.006.723.691Zm-.329-.863a.533.533 0 0 1 .296.087l-1.088 1.678c.238.154.515.235.796.235l-.004-2Zm.296.087c.09.058.162.142.206.244l-1.834.797c.114.262.303.483.54.637l1.088-1.678Zm.206.244a.551.551 0 0 1 .037.326l-1.966-.364a1.44 1.44 0 0 0 .095.835l1.834-.797Zm.037.326a.548.548 0 0 1-.148.287l-1.433-1.395a1.44 1.44 0 0 0-.385.744l1.966.364Zm-.147.286 2.137-2.199-1.434-1.394-2.137 2.199 1.434 1.394Zm2.137-2.199a.544.544 0 0 1-.378.165l-.044-1.999a1.454 1.454 0 0 0-1.013.441l1.435 1.393Zm-.378.165a.544.544 0 0 1-.385-.148l1.371-1.456a1.453 1.453 0 0 0-1.03-.395l.044 1.999Zm-.385-.148a.556.556 0 0 1-.174-.393l1.999-.045a1.444 1.444 0 0 0-.454-1.018l-1.371 1.456Zm-.174-.393a.555.555 0 0 1 .157-.401l1.435 1.393a1.44 1.44 0 0 0 .407-1.037l-1.999.045Zm.157-.401-2.137 2.199 1.434 1.394 2.137-2.2-1.434-1.393Zm-2.143 2.205a.562.562 0 0 1 .188-.13l.772 1.845c.183-.076.348-.189.486-.334l-1.446-1.381Zm.188-.13a.556.556 0 0 1 .22-.042l-.024 1.999c.197.003.393-.035.576-.112l-.772-1.845Z" mask="url(#q)"/><mask id="r" fill="#fff"><path d="M292.863 277.593a.46.46 0 0 1-.317-.129l-2.17-2.105a.442.442 0 0 1 .012-.615.46.46 0 0 1 .624-.021l2.17 2.107a.444.444 0 0 1 .102.487.454.454 0 0 1-.421.276Z"/></mask><path fill="#15444E" d="M292.863 277.593a.46.46 0 0 1-.317-.129l-2.17-2.105a.442.442 0 0 1 .012-.615.46.46 0 0 1 .624-.021l2.17 2.107a.444.444 0 0 1 .102.487.454.454 0 0 1-.421.276Z"/><path fill="#15444E" d="m292.863 277.593.007-1h-.003l-.004 1Zm-.317-.129.697-.717-.001-.001-.696.718Zm-2.17-2.105-.733.68.018.02.019.018.696-.718Zm.636-.636.697-.717-.02-.019-.02-.018-.657.754Zm2.17 2.107-.697.717.003.003.694-.72Zm-.315-.237a.54.54 0 0 1 .376.154l-1.394 1.434c.272.264.634.41 1.01.412l.008-2Zm.375.153-2.17-2.104-1.392 1.435 2.17 2.105 1.392-1.436Zm-2.133-2.067a.554.554 0 0 1 .148.39l-1.999-.038a1.44 1.44 0 0 0 .385 1.008l1.466-1.36Zm.148.39a.549.549 0 0 1-.162.382l-1.414-1.414a1.443 1.443 0 0 0-.423.994l1.999.038Zm-.162.382a.545.545 0 0 1-.365.16l-.068-1.999a1.454 1.454 0 0 0-.981.425l1.414 1.414Zm-.365.16a.546.546 0 0 1-.375-.134l1.314-1.508a1.456 1.456 0 0 0-1.007-.357l.068 1.999Zm-.414-.17 2.169 2.106 1.394-1.435-2.17-2.106-1.393 1.435Zm2.172 2.109a.555.555 0 0 1-.158-.287l1.958-.41a1.449 1.449 0 0 0-.412-.744l-1.388 1.441Zm-.158-.287a.567.567 0 0 1 .031-.331l1.846.771c.112-.269.14-.565.081-.85l-1.958.41Zm.031-.331a.554.554 0 0 1 .207-.25l1.096 1.673c.241-.158.431-.384.543-.652l-1.846-.771Zm.207-.25a.546.546 0 0 1 .302-.089l-.014 2c.286.002.568-.08.808-.238l-1.096-1.673Z" mask="url(#r)"/><path fill="#15444E" stroke="#15444E" d="M298.282 282.406h-.001.001Z"/><path fill="#15444E" stroke="#15444E" stroke-width=".4" d="m224.511 161.077.015.002h.016c1.78 0 3.217 1.42 3.217 3.165 0 1.74-1.429 3.157-3.201 3.165l-64.385-10.222-.015-.002h-.016c-1.78 0-3.217-1.42-3.217-3.165 0-1.741 1.429-3.157 3.201-3.166l64.385 10.223Zm-64.338-11.138-.015-.002h-.016c-2.285 0-4.143 1.825-4.143 4.083 0 2.252 1.849 4.074 4.127 4.082l64.385 10.223.015.002h.016c2.285 0 4.143-1.825 4.143-4.083 0-2.252-1.849-4.074-4.127-4.082l-64.385-10.223ZM224.511 177.901l.015.003h.016c1.78 0 3.217 1.42 3.217 3.165 0 1.74-1.429 3.157-3.201 3.165l-64.385-10.222-.015-.003h-.016c-1.78 0-3.217-1.42-3.217-3.165 0-1.74 1.429-3.157 3.201-3.165l64.385 10.222Zm-64.338-11.137-.015-.003h-.016c-2.285 0-4.143 1.825-4.143 4.083 0 2.253 1.849 4.075 4.127 4.083l64.385 10.222.015.003h.016c2.285 0 4.143-1.825 4.143-4.083 0-2.252-1.849-4.074-4.127-4.083l-64.385-10.222Z"/><path stroke="#15444E" stroke-linecap="round" stroke-linejoin="round" d="M27.604 112.859c2.323 0 4.206-1.854 4.206-4.142 0-2.287-1.883-4.141-4.206-4.141-2.323 0-4.206 1.854-4.206 4.141 0 2.288 1.883 4.142 4.206 4.142Z"/><path stroke="#15444E" stroke-linecap="round" stroke-linejoin="round" d="M31.807 104.577v5.177c0 .824.332 1.614.924 2.196.591.583 1.393.91 2.23.91s1.639-.327 2.23-.91a3.08 3.08 0 0 0 .924-2.196v-1.036c0-2.337-.803-4.605-2.278-6.435a10.533 10.533 0 0 0-5.847-3.647 10.662 10.662 0 0 0-6.881.722 10.44 10.44 0 0 0-4.936 4.777 10.212 10.212 0 0 0-.85 6.764c.499 2.285 1.769 4.335 3.602 5.819a10.617 10.617 0 0 0 6.495 2.354c2.373.04 4.69-.712 6.574-2.132"/><mask id="s" fill="#fff"><path d="M20.404 138.385c-4.7 0-8.982-1.343-12.419-3.954C.306 128.6-2.043 117.567 1.85 105.656a.431.431 0 0 1 .774-.052.417.417 0 0 1 .038.31c-3.78 11.571-1.54 22.245 5.844 27.854 4.618 3.507 10.858 4.623 17.565 3.139 6.708-1.483 13.392-5.415 18.89-11.09 1.08-1.118 6.907.898 10.39 2.249-2.056-3.1-5.29-8.309-4.659-9.499a.423.423 0 0 1 .029-.047c8.972-14.056 8.445-30.192-1.228-37.534-4.843-3.678-11.396-4.719-18.454-2.93-7.058 1.789-13.992 6.238-19.512 12.523a.43.43 0 0 1-.73-.251.416.416 0 0 1 .085-.299c5.632-6.411 12.716-10.953 19.945-12.786 7.312-1.855 14.131-.758 19.188 3.078 10.026 7.607 10.64 24.223 1.427 38.641-.261.757 2.583 5.657 5.37 9.758a.412.412 0 0 1-.022.498.43.43 0 0 1-.491.123c-5.284-2.131-10.198-3.48-10.729-2.948-5.61 5.794-12.472 9.819-19.318 11.331-1.919.432-3.88.654-5.848.661Z"/></mask><path fill="#15444E" d="M20.404 138.385c-4.7 0-8.982-1.343-12.419-3.954C.306 128.6-2.043 117.567 1.85 105.656a.431.431 0 0 1 .774-.052.417.417 0 0 1 .038.31c-3.78 11.571-1.54 22.245 5.844 27.854 4.618 3.507 10.858 4.623 17.565 3.139 6.708-1.483 13.392-5.415 18.89-11.09 1.08-1.118 6.907.898 10.39 2.249-2.056-3.1-5.29-8.309-4.659-9.499a.423.423 0 0 1 .029-.047c8.972-14.056 8.445-30.192-1.228-37.534-4.843-3.678-11.396-4.719-18.454-2.93-7.058 1.789-13.992 6.238-19.512 12.523a.43.43 0 0 1-.73-.251.416.416 0 0 1 .085-.299c5.632-6.411 12.716-10.953 19.945-12.786 7.312-1.855 14.131-.758 19.188 3.078 10.026 7.607 10.64 24.223 1.427 38.641-.261.757 2.583 5.657 5.37 9.758a.412.412 0 0 1-.022.498.43.43 0 0 1-.491.123c-5.284-2.131-10.198-3.48-10.729-2.948-5.61 5.794-12.472 9.819-19.318 11.331-1.919.432-3.88.654-5.848.661Z"/><path fill="#15444E" d="M20.404 138.385v1h.003l-.003-1Zm-12.419-3.954.605-.796v-.001l-.605.797ZM1.85 105.656l-.932-.362-.01.026-.008.025.95.311Zm.812.258.95.31.009-.025.007-.026-.966-.259Zm5.844 27.854-.605.796.605-.796Zm36.454-7.951.718.696v-.001l-.718-.695Zm10.39 2.249-.361.932 2.934 1.139-1.74-2.623-.833.552Zm-4.658-9.499.884.469.005-.01-.889-.459Zm.029-.047.815.58.014-.021.014-.021-.843-.538Zm-1.228-37.534-.604.796.604-.796Zm-37.966 9.593.707.707.023-.023.02-.024-.75-.66Zm-.645-.55-.751-.66-.021.025-.02.025.792.61Zm19.945-12.786.246.97-.245-.97Zm19.188 3.078.604-.797-.604.796Zm1.427 38.641-.842-.539-.064.1-.039.112.945.327Zm5.37 9.758-.826.562.001.002.826-.564Zm-.513.621-.374.928.374-.928Zm-10.729-2.948-.708-.706-.005.005-.005.005.718.696Zm-19.318 11.331-.216-.976-.004.001.22.975Zm-5.848-.339c-4.505 0-8.57-1.286-11.813-3.75l-1.21 1.592c3.63 2.758 8.132 4.158 13.024 4.158v-2ZM8.59 133.634c-7.227-5.487-9.6-16.008-5.79-27.667l-1.901-.622c-3.975 12.163-1.65 23.709 6.482 29.882l1.209-1.593Zm-5.808-27.616a.575.575 0 0 1-.291.313l-.854-1.808a1.42 1.42 0 0 0-.72.771l1.865.724Zm-.291.313a.565.565 0 0 1-.414.028l.605-1.906a1.427 1.427 0 0 0-1.045.07l.854 1.808Zm-.414.028a.574.574 0 0 1-.328-.269l1.748-.971a1.425 1.425 0 0 0-.815-.666l-.605 1.906Zm-.328-.269a.586.586 0 0 1-.054-.436l1.932.519a1.415 1.415 0 0 0-.13-1.054l-1.748.971Zm-.038-.487C-2.151 117.421.06 128.609 7.9 134.564l1.21-1.593c-6.928-5.262-9.199-15.421-5.498-26.747l-1.901-.621ZM7.9 134.564c4.895 3.718 11.45 4.854 18.386 3.32l-.432-1.953c-6.479 1.433-12.404.337-16.744-2.96l-1.21 1.593Zm18.386 3.32c6.927-1.532 13.78-5.578 19.391-11.371l-1.436-1.392c-5.383 5.557-11.9 9.375-18.387 10.81l.432 1.953Zm19.392-11.372c-.07.072-.094.04.075.009.156-.029.395-.04.726-.017.66.047 1.53.218 2.52.479 1.972.518 4.258 1.344 5.989 2.015l.723-1.864c-1.752-.68-4.12-1.538-6.203-2.085-1.036-.273-2.044-.48-2.889-.54a5.013 5.013 0 0 0-1.225.045c-.371.067-.814.216-1.154.568l1.438 1.39Zm10.505 1.002c-1.023-1.543-2.325-3.589-3.289-5.386-.484-.903-.865-1.709-1.087-2.341a3.649 3.649 0 0 1-.189-.718c-.023-.189.02-.154-.044-.033l-1.766-.937c-.222.418-.216.877-.175 1.212.044.362.151.75.287 1.137.272.777.71 1.689 1.212 2.625 1.009 1.88 2.352 3.988 3.384 5.546l1.667-1.105Zm-4.603-8.488a.648.648 0 0 1-.045.074l-1.63-1.159a1.323 1.323 0 0 0-.103.168l1.778.917Zm-.017.032c9.101-14.258 8.813-31.067-1.466-38.869l-1.21 1.593c9.067 6.883 9.833 22.347.99 36.2l1.686 1.076Zm-1.466-38.869c-5.134-3.899-12.017-4.95-19.305-3.102l.492 1.938c6.827-1.73 13.052-.7 17.604 2.757l1.21-1.593Zm-19.305-3.102c-7.281 1.845-14.384 6.418-20.018 12.832l1.503 1.32c5.407-6.157 12.173-10.482 19.007-12.214l-.492-1.938ZM10.818 89.872a.57.57 0 0 1 .381-.167l.078 1.998c.358-.014.7-.161.956-.417l-1.415-1.414Zm.381-.167c.14-.006.28.042.391.136l-1.297 1.522c.275.234.627.355.984.34l-.078-1.998Zm.391.136c.111.095.185.23.2.381l-1.988.21c.038.364.216.696.49.93l1.298-1.521Zm.2.381a.584.584 0 0 1-.117.418l-1.584-1.221c-.222.288-.326.65-.287 1.014l1.989-.21Zm-.158.468c5.519-6.283 12.435-10.702 19.44-12.477l-.491-1.94c-7.453 1.89-14.706 6.555-20.451 13.097l1.502 1.32Zm19.44-12.477c7.079-1.796 13.57-.712 18.338 2.904l1.208-1.593c-5.345-4.054-12.492-5.164-20.038-3.25l.492 1.939Zm18.337 2.904c9.426 7.152 10.268 23.099 1.19 37.306l1.685 1.077c9.347-14.628 8.962-31.912-1.666-39.976l-1.209 1.593Zm1.087 37.518a1.453 1.453 0 0 0-.064.606c.014.156.047.311.086.451.076.281.197.601.343.935.293.676.73 1.521 1.25 2.449 1.043 1.862 2.467 4.137 3.874 6.206l1.654-1.124c-1.382-2.032-2.774-4.257-3.784-6.06-.506-.904-.906-1.682-1.16-2.267a5.234 5.234 0 0 1-.247-.662 1.174 1.174 0 0 1-.02-.082l-.004-.027c0 .001.002.021 0 .054a.673.673 0 0 1-.037.174l-1.89-.653Zm5.49 10.649a.584.584 0 0 1-.101-.357l1.998.092a1.416 1.416 0 0 0-.246-.864l-1.65 1.129Zm-.101-.357a.583.583 0 0 1 .133-.346l1.542 1.274c.194-.235.309-.529.323-.836l-1.998-.092Zm.133-.346a.573.573 0 0 1 .303-.191l.486 1.939c.294-.073.558-.238.753-.474l-1.542-1.274Zm.303-.191a.564.564 0 0 1 .35.024l-.747 1.855c.28.113.59.134.883.06l-.486-1.939Zm.351.024c-2.67-1.077-5.256-1.961-7.256-2.51-.996-.274-1.873-.472-2.553-.565a5.113 5.113 0 0 0-.948-.058 2.123 2.123 0 0 0-.469.072 1.331 1.331 0 0 0-.585.334l1.416 1.412a.677.677 0 0 1-.285.178c-.03.009-.028.004.024.001.107-.005.293.003.574.042.556.076 1.337.249 2.296.512 1.911.525 4.423 1.382 7.038 2.437l.748-1.855Zm-11.821-2.717c-5.496 5.676-12.189 9.587-18.816 11.051l.432 1.953c7.065-1.561 14.094-5.699 19.82-11.612l-1.436-1.392Zm-18.82 11.052a26.073 26.073 0 0 1-5.631.636l.007 2a28.04 28.04 0 0 0 6.064-.685l-.44-1.951Z" mask="url(#s)"/></svg>