<svg width="806" height="205" fill="none" xmlns="http://www.w3.org/2000/svg"><path d="M362.087 39.5h-54.569v161.34h54.569V39.5zM351.168 28.24h-32.879v11.25h32.879V28.24z" stroke="#6F99A1" stroke-width="2" stroke-linejoin="round"/><path d="M323.604 39.5h-16.086v16.13h16.086V39.5zM323.903 39.5l-16.385 16.42M307.518 39.5l16.086 16.13M323.604 55.63h-16.086v16.13h16.086V55.63zM323.604 55.63l-16.086 16.13M307.518 55.63l16.086 16.13M323.604 71.76h-16.086v16.13h16.086V71.76zM323.604 71.76 307.518 87.9M307.518 71.76l16.086 16.14M323.604 87.9h-16.086v16.13h16.086V87.9zM323.604 87.9l-16.086 16.13M307.518 87.9l54.27 48.4" stroke="#6F99A1" stroke-linejoin="round"/><path d="M323.604 104.03h-16.086v16.13h16.086v-16.13zM323.604 104.03l-16.086 16.13M307.518 104.03l16.086 16.13M323.604 120.16h-16.086v16.13h16.086v-16.13zM307.518 120.16l16.086 16.14M323.604 136.3h-16.086v16.13h16.086V136.3zM323.604 136.3l-16.086 16.13M307.518 136.3l16.086 16.13M323.604 152.43h-16.086v16.13h16.086v-16.13zM323.604 152.43l-16.086 16.13M307.518 152.43l16.086 16.13M323.604 168.56h-16.086v16.13h16.086v-16.13zM323.604 168.56l-16.086 16.14M307.518 168.56l16.086 16.14M323.604 184.7h-16.086v16.13h16.086V184.7zM323.604 184.7l-16.086 16.13M307.518 184.7l16.086 16.13M361.779 39.5h-16.085v16.13h16.085V39.5zM362.078 39.5l-16.384 16.42M345.694 39.5l16.095 16.13M361.779 55.63h-16.085v16.13h16.085V55.63zM361.789 55.63l-16.095 16.13M345.694 55.63l16.095 16.13M361.779 71.76h-16.085v16.13h16.085V71.76zM361.789 71.76 345.694 87.9M345.694 71.76l16.095 16.14" stroke="#6F99A1" stroke-linejoin="round"/><path d="M361.779 87.9h-16.085v16.13h16.085V87.9z" stroke="#6F99A1" stroke-width="2" stroke-linejoin="round"/><path d="m361.788 87.9-54.27 48.4M345.694 87.9l16.095 16.13M361.779 104.03h-16.085v16.13h16.085v-16.13zM361.789 104.03l-16.095 16.13M345.694 104.03l16.095 16.13" stroke="#6F99A1" stroke-linejoin="round"/><path d="M361.779 120.16h-16.085v16.13h16.085v-16.13z" stroke="#6F99A1" stroke-width="2" stroke-linejoin="round"/><path d="m361.789 120.16-16.095 16.14M361.779 136.3h-16.085v16.13h16.085V136.3zM361.789 136.3l-16.095 16.13M345.694 136.3l16.095 16.13M361.779 152.43h-16.085v16.13h16.085v-16.13zM361.789 152.43l-16.095 16.13M345.694 152.43l16.095 16.13M361.779 168.56h-16.085v16.13h16.085v-16.13zM361.789 168.56l-16.095 16.14M345.694 168.56l16.095 16.14M361.779 184.7h-16.085v16.13h16.085V184.7zM361.789 184.7l-16.095 16.13M345.694 184.7l16.095 16.13M323.605 39.5l22.088 16.13M345.693 39.5l-22.088 16.13" stroke="#6F99A1" stroke-linejoin="round"/><path d="M323.605 55.63h24.133M345.693 184.7h-22.088v16.13h22.088V184.7zM345.693 152.43h-22.088v16.13h22.088v-16.13zM345.693 136.3h-22.088v16.13h22.088V136.3zM345.693 120.17h-22.088v16.13h22.088v-16.13zM345.693 104.03h-22.088v16.13h22.088v-16.13zM345.693 87.9h-22.088v16.13h22.088V87.9zM345.693 71.77h-22.088V87.9h22.088V71.77zM345.693 55.63h-22.088v16.13h22.088V55.63zM345.693 168.56h-22.088v16.13h22.088v-16.13z" stroke="#6F99A1" stroke-width="2" stroke-linejoin="round"/><path d="M345.693 152.43h-22.088v16.13h22.088v-16.13zM345.693 136.3h-22.088v16.13h22.088V136.3zM345.693 120.17h-22.088v16.13h22.088v-16.13zM345.693 104.03h-22.088v16.13h22.088v-16.13zM345.693 87.9h-22.088v16.13h22.088V87.9zM345.693 71.77h-22.088V87.9h22.088V71.77zM345.693 55.63h-22.088v16.13h22.088V55.63zM328.84 60.56v11.21M334.794 55.92v11.83M340.756 60.56v11.2" stroke="#6F99A1" stroke-width="2" stroke-linejoin="round"/><path d="M318.289 30.83h32.879M331.643 64.16v7.6M337.626 64.16v7.6" stroke="#6F99A1" stroke-linejoin="round"/><path d="M328.84 76.55v11.2M334.794 71.91v11.83M340.756 76.55v11.2" stroke="#6F99A1" stroke-width="2" stroke-linejoin="round"/><path d="M331.643 80.15v7.6M337.626 80.15v7.6" stroke="#6F99A1" stroke-linejoin="round"/><path d="M328.84 92.54v11.2M334.794 87.9v11.83M340.756 92.54v11.2" stroke="#6F99A1" stroke-width="2" stroke-linejoin="round"/><path d="M331.643 96.13v7.61M337.626 96.13v7.61" stroke="#6F99A1" stroke-linejoin="round"/><path d="M328.84 124.51v11.2M334.794 119.87v11.83M340.756 124.51v11.2" stroke="#6F99A1" stroke-width="2" stroke-linejoin="round"/><path d="M331.643 128.11v7.6M337.626 128.11v7.6" stroke="#6F99A1" stroke-linejoin="round"/><path d="M328.84 140.5v11.2M334.794 135.86v11.83M340.756 140.5v11.2" stroke="#6F99A1" stroke-width="2" stroke-linejoin="round"/><path d="M331.643 144.1v7.6M337.626 144.1v7.6" stroke="#6F99A1" stroke-linejoin="round"/><path d="M328.84 156.49v11.2M334.794 151.85v11.83M340.756 156.49v11.2" stroke="#6F99A1" stroke-width="2" stroke-linejoin="round"/><path d="M331.643 160.08v7.61M337.626 160.08v7.61" stroke="#6F99A1" stroke-linejoin="round"/><path d="M328.84 172.48v11.2M334.794 167.84v11.83M340.756 172.48v11.19" stroke="#6F99A1" stroke-width="2" stroke-linejoin="round"/><path d="M331.643 176.07v7.6M337.626 176.07v7.6" stroke="#6F99A1" stroke-linejoin="round"/><path d="M328.84 189.48v11.21M334.794 184.84v11.83M340.756 189.48v11.2" stroke="#6F99A1" stroke-width="2" stroke-linejoin="round"/><path d="M331.643 193.08v7.6M337.626 193.08v7.6" stroke="#6F99A1" stroke-linejoin="round"/><mask id="a" style="mask-type:luminance" maskUnits="userSpaceOnUse" x="711" y="24" width="58" height="181"><path d="M767.622 204.078c.997-35.71.07-97.85-2.134-123.59-4.826-56.38-15.756-56.4-25.928-56.4s-21.101.11-25.928 56.65c-2.184 25.69-3.111 87.74-2.114 123.34h56.104z" fill="#fff"/></mask><g mask="url(#a)" stroke="#6F99A1" stroke-linejoin="round"><path d="M761.709 200.498h6.003M711.479 200.498h46.531M711.479 197.268h56.234M711.479 194.038h56.234M736.43 190.808h31.283M711.479 190.808h20.543M711.479 187.578h56.234M711.479 184.348h56.234M751.768 181.118h15.945M711.479 181.118h37.446M711.479 177.888h56.234M711.479 174.658h56.234M711.479 171.428h56.234M729.899 168.198h37.815M711.479 168.198h15.148M711.479 164.968h56.234M711.479 161.738h56.234M748.496 158.508h19.216M711.479 158.508h33.039M711.479 155.278h56.234M711.479 152.038h56.234M711.479 148.818h56.234M711.479 145.578h56.234M725.779 142.348h41.934M711.479 142.348h10.74" stroke-width="2"/><path d="M711.479 139.118h56.234"/><path d="M711.479 135.888h56.234M711.479 132.658h56.234M754.321 129.428h13.393M711.479 129.428h40.717" stroke-width="2"/><path d="M733.866 126.198h33.846"/><path d="M711.479 126.198h19.975M711.479 122.968h56.234M711.479 119.738h56.234M753.472 116.508h14.24M711.479 116.508h38.862M711.479 113.278h56.234" stroke-width="2"/><path d="M738.414 110.048h29.299"/><path d="M711.479 110.048h24.662" stroke-width="2"/><path d="M711.479 106.818h56.234"/><path d="M711.479 103.588h56.234M711.479 100.348h56.234M737.707 97.118h30.007M711.479 97.118h22.817" stroke-width="2"/><path d="M711.479 93.888h56.234M711.479 90.658h56.234"/><path d="M711.479 87.428h56.234M711.479 84.198h56.234M753.334 80.968h14.38M711.479 80.968h39.431" stroke-width="2"/><path d="M711.479 77.738h56.234"/><path d="M711.479 74.508h56.234M750.49 71.278h17.222M711.479 71.278h35.881M733.019 68.048h34.694M711.479 68.048h19.696M711.479 64.818h56.234" stroke-width="2"/><path d="M711.479 61.588h56.234"/><path d="M711.479 58.358h56.234" stroke-width="2"/><path d="M711.479 55.128h56.234"/><path d="M734.585 51.898h33.128M711.479 51.898h20.543M711.479 48.658h56.234M711.479 45.428h56.234M747.22 42.198h20.493" stroke-width="2"/><path d="M711.479 42.198h33.896"/><path d="M711.479 38.968h56.234M711.479 35.738h56.234M740.687 32.508h27.025M711.479 32.508h27.075" stroke-width="2"/><path d="M711.479 29.278h56.234"/><path d="M711.479 26.048h56.234" stroke-width="2"/></g><path d="M435.314 177.19h-25.599v23.57h25.599v-23.57z" stroke="#6F99A1" stroke-width="2" stroke-linejoin="round"/><path d="M435.314 151.52h-25.599v25.68h25.599v-25.68zM435.314 136.08h-25.599v15.44h25.599v-15.44z" stroke="#6F99A1" stroke-width="2" stroke-linejoin="round"/><path d="M422.52 157.1c-1.506 0-2.95.599-4.016 1.666a5.708 5.708 0 0 0-1.668 4.024v14.4h11.358v-14.4a5.698 5.698 0 0 0-1.662-4.023 5.662 5.662 0 0 0-4.012-1.667z" stroke="#6F99A1" stroke-width="2" stroke-linejoin="round"/><path d="M423.916 157.28a5.675 5.675 0 0 0-3.063 2.027 5.695 5.695 0 0 0-1.185 3.483v14.4h5.874M685.599 157.28a5.675 5.675 0 0 0-3.063 2.027 5.695 5.695 0 0 0-1.185 3.483v14.4h5.834M529.552 159.19a4.562 4.562 0 0 0-3.41 4.42v11.54h4.706M581.229 159.19a4.55 4.55 0 0 0-2.452 1.629 4.58 4.58 0 0 0-.949 2.791v11.54h4.707" stroke="#6F99A1" stroke-linejoin="round"/><path d="M543.583 161.15a3.472 3.472 0 0 0-3.47 3.49v8.82h6.98v-8.82a3.499 3.499 0 0 0-1.03-2.478 3.47 3.47 0 0 0-2.48-1.012zM527.627 159.4a4.466 4.466 0 0 0-3.162 1.309 4.47 4.47 0 0 0-1.305 3.171v11.33h8.975v-11.33a4.491 4.491 0 0 0-1.323-3.182 4.46 4.46 0 0 0-3.185-1.298zM528.076 142.93a2.43 2.43 0 0 0-1.72.708 2.44 2.44 0 0 0-.713 1.722v6.16h4.857v-6.16c0-.645-.256-1.263-.71-1.718a2.42 2.42 0 0 0-1.714-.712zM579.175 159.4a4.459 4.459 0 0 0-3.159 1.312 4.482 4.482 0 0 0-1.308 3.168v11.33h8.975v-11.33a4.47 4.47 0 0 0-2.784-4.153 4.427 4.427 0 0 0-1.724-.327zM553.555 161.15c-.923 0-1.808.368-2.46 1.022a3.495 3.495 0 0 0-1.02 2.468v8.82h6.981v-8.82a3.488 3.488 0 0 0-2.161-3.233 3.455 3.455 0 0 0-1.34-.257zM563.23 161.15c-.923 0-1.809.368-2.461 1.022a3.495 3.495 0 0 0-1.02 2.468v8.82h6.981v-8.82a3.502 3.502 0 0 0-1.026-2.475 3.473 3.473 0 0 0-2.474-1.015zM477.887 125.81a2.9 2.9 0 0 0-2.052.852 2.916 2.916 0 0 0-.85 2.058v7.36h5.774v-7.37a2.92 2.92 0 0 0-.843-2.041 2.9 2.9 0 0 0-2.029-.859z" stroke="#6F99A1" stroke-width="2" stroke-linejoin="round"/><path d="M478.474 126.21a2.894 2.894 0 0 0-1.446 2.51v7.36h1.735M629.506 126.21a2.89 2.89 0 0 0-1.446 2.51v7.36h1.715" stroke="#6F99A1" stroke-linejoin="round"/><path d="M431.664 182.41h-18.299v18.35h18.299v-18.35zM422.519 145.55l-12.804 5.97h25.599l-12.795-5.97zM408.319 151.52h28.391M409.716 136.08a12.867 12.867 0 0 1 3.62-9.31 12.774 12.774 0 0 1 18.359 0 12.867 12.867 0 0 1 3.62 9.31" stroke="#6F99A1" stroke-width="2" stroke-linejoin="round"/><path d="M424.784 123.45v-8.14h-4.538v8.14M420.246 115.31c0-1.26 2.274-2.28 2.274-2.28s2.264 1 2.264 2.28" stroke="#6F99A1" stroke-width="2" stroke-linejoin="round"/><path d="M422.519 113.03v-5.73M422.519 106.33v-.89" stroke="#6F99A1" stroke-linejoin="round"/><path d="M480.149 105.04V96.9h-4.537v8.14M475.612 96.9c0-1.26 2.274-2.28 2.274-2.28s2.263 1 2.263 2.28" stroke="#6F99A1" stroke-width="2" stroke-linejoin="round"/><path d="M477.885 94.62v-5.73M477.885 87.92v-.89" stroke="#6F99A1" stroke-linejoin="round"/><path d="M555.699 97.4V85.83h-6.452V97.4M549.247 85.83c0-1.79 3.231-3.23 3.231-3.23s3.231 1.44 3.231 3.23M552.479 82.6v-8.14M552.479 73.09v-1.28M416.835 148.2v-7.29a1.6 1.6 0 0 0-1.596-1.6c-.423 0-.829.169-1.128.469-.299.3-.467.707-.467 1.131v8.8M424.115 146.3v-5.39c0-.424-.168-.831-.467-1.131a1.593 1.593 0 0 0-2.724 1.131v5.39M431.384 149.71v-8.8c0-.424-.168-.831-.467-1.131a1.593 1.593 0 0 0-2.724 1.131v7.29M408.319 177.19h28.391M519.64 151.52h-84.326v49.25h84.326v-49.25zM435.314 177.19h84.326" stroke="#6F99A1" stroke-width="2" stroke-linejoin="round"/><path d="M519.64 151.52h-84.326v3.45h84.326v-3.45z" stroke="#6F99A1" stroke-width="2" stroke-linejoin="round"/><path d="M444.079 154.97h-2.184v19.82h2.184v-19.82zM445.834 174.79h-5.684v2.41h5.684v-2.41zM454.051 154.97h-2.184v19.82h2.184v-19.82zM455.807 174.79h-5.685v2.41h5.685v-2.41zM464.024 154.97h-2.184v19.82h2.184v-19.82zM465.769 174.79h-5.684v2.41h5.684v-2.41zM473.986 154.97h-2.184v19.82h2.184v-19.82zM475.741 174.79h-5.684v2.41h5.684v-2.41zM483.959 154.97h-2.184v19.82h2.184v-19.82zM485.714 174.79h-5.685v2.41h5.685v-2.41zM493.931 154.97h-2.184v19.82h2.184v-19.82zM495.676 174.79h-5.684v2.41h5.684v-2.41zM503.893 154.97h-2.184v19.82h2.184v-19.82zM505.649 174.79h-5.685v2.41h5.685v-2.41zM513.338 154.97h-2.184v19.82h2.184v-19.82zM515.093 174.79h-5.684v2.41h5.684v-2.41z" stroke="#6F99A1" stroke-linejoin="round"/><path d="M443.281 180.75h-3.131v9.06h3.131v-9.06zM449.545 180.75h-3.131v9.06h3.131v-9.06zM455.807 180.75h-3.131v9.06h3.131v-9.06zM473.188 180.75h-3.131v9.06h3.131v-9.06zM479.452 180.75h-3.131v9.06h3.131v-9.06zM485.714 180.75h-3.131v9.06h3.131v-9.06zM503.096 180.75h-3.132v9.06h3.132v-9.06zM509.358 180.75h-3.132v9.06h3.132v-9.06zM515.621 180.75h-3.131v9.06h3.131v-9.06zM488.795 136.08h-21.829v15.44h21.829v-15.44zM472.899 136.08v15.44M482.871 136.08v15.44M485.704 120.48h-15.647v15.6h15.647v-15.6zM477.885 109.25l-7.828 11.23h15.647l-7.819-11.23z" stroke="#6F99A1" stroke-width="2" stroke-linejoin="round"/><path d="M470.057 109.25v11.23l2.384-3.42-2.384-7.81zM485.704 109.25v11.23l-2.373-3.42 2.373-7.81z" stroke="#6F99A1" stroke-width="2" stroke-linejoin="round"/><path d="M470.396 112.55a7.517 7.517 0 0 1 2.322-5.058 7.476 7.476 0 0 1 10.315 0 7.526 7.526 0 0 1 2.322 5.058" stroke="#6F99A1" stroke-width="2" stroke-linejoin="round"/><path d="M469.449 141.9v2.6M485.974 141.9v2.6M477.885 141.9v2.6" stroke="#6F99A1" stroke-linejoin="round"/><path d="M587.202 151.52H519.64v49.25h67.562v-49.25zM697.077 177.19h-25.599v23.57h25.599v-23.57z" stroke="#6F99A1" stroke-width="2" stroke-linejoin="round"/><path d="M697.077 151.52h-25.599v25.68h25.599v-25.68zM697.077 136.08h-25.599v15.44h25.599v-15.44z" stroke="#6F99A1" stroke-width="2" stroke-linejoin="round"/><path d="M684.283 157.1c1.506 0 2.95.599 4.016 1.666a5.712 5.712 0 0 1 1.668 4.024v14.4h-11.358v-14.4a5.694 5.694 0 0 1 3.502-5.257 5.665 5.665 0 0 1 2.172-.433zM628.917 125.81a2.903 2.903 0 0 1 2.901 2.91v7.36h-5.803v-7.37a2.91 2.91 0 0 1 2.902-2.9zM693.427 182.41h-18.289v18.35h18.289v-18.35zM684.283 145.55l12.804 5.97h-25.609l12.805-5.97zM698.483 151.52h-28.392M697.087 136.08a12.865 12.865 0 0 0-3.75-9.079 12.782 12.782 0 0 0-18.109 0 12.865 12.865 0 0 0-3.75 9.079" stroke="#6F99A1" stroke-width="2" stroke-linejoin="round"/><path d="M682.009 123.45v-8.14h4.548v8.14M686.557 115.31c0-1.26-2.274-2.28-2.274-2.28s-2.274 1-2.274 2.28" stroke="#6F99A1" stroke-width="2" stroke-linejoin="round"/><path d="M684.282 113.03v-5.73M684.282 106.33v-.89" stroke="#6F99A1" stroke-linejoin="round"/><path d="M626.642 105.04V96.9h4.547v8.14M631.189 96.9c0-1.26-2.274-2.28-2.274-2.28s-2.273 1-2.273 2.28" stroke="#6F99A1" stroke-width="2" stroke-linejoin="round"/><path d="M628.917 94.62v-5.73M628.917 87.92v-.89" stroke="#6F99A1" stroke-linejoin="round"/><path d="M689.966 148.2v-7.29c0-.424.168-.831.467-1.131a1.593 1.593 0 0 1 2.724 1.131v8.8M682.687 146.3v-5.39a1.6 1.6 0 0 1 1.596-1.6c.423 0 .829.169 1.128.469.299.3.467.707.467 1.131v5.39M675.407 149.71v-8.8a1.607 1.607 0 0 1 1.6-1.483 1.603 1.603 0 0 1 1.601 1.483v7.29M698.483 177.19h-28.392M671.487 151.52h-84.325v49.25h84.325v-49.25zM671.477 177.19h-84.315" stroke="#6F99A1" stroke-width="2" stroke-linejoin="round"/><path d="M671.487 151.52h-84.325v3.45h84.325v-3.45z" stroke="#6F99A1" stroke-width="2" stroke-linejoin="round"/><path d="M664.897 154.97h-2.184v19.82h2.184v-19.82zM666.652 174.79h-5.684v2.41h5.684v-2.41zM654.935 154.97h-2.184v19.82h2.184v-19.82zM656.68 174.79h-5.684v2.41h5.684v-2.41zM644.963 154.97h-2.184v19.82h2.184v-19.82zM646.718 174.79h-5.685v2.41h5.685v-2.41zM634.99 154.97h-2.184v19.82h2.184v-19.82zM636.745 174.79h-5.684v2.41h5.684v-2.41zM625.028 154.97h-2.184v19.82h2.184v-19.82zM626.773 174.79h-5.684v2.41h5.684v-2.41zM615.055 154.97h-2.184v19.82h2.184v-19.82zM616.81 174.79h-5.684v2.41h5.684v-2.41zM605.083 154.97h-2.184v19.82h2.184v-19.82zM606.838 174.79h-5.684v2.41h5.684v-2.41zM595.639 154.97h-2.184v19.82h2.184v-19.82zM597.394 174.79h-5.685v2.41h5.685v-2.41z" stroke="#6F99A1" stroke-linejoin="round"/><path d="M666.651 180.75h-3.131v9.06h3.131v-9.06zM660.389 180.75h-3.131v9.06h3.131v-9.06zM654.127 180.75h-3.131v9.06h3.131v-9.06zM636.744 180.75h-3.131v9.06h3.131v-9.06zM630.482 180.75h-3.131v9.06h3.131v-9.06zM624.22 180.75h-3.131v9.06h3.131v-9.06zM606.837 180.75h-3.132v9.06h3.132v-9.06zM600.575 180.75h-3.131v9.06h3.131v-9.06zM594.313 180.75h-3.131v9.06h3.131v-9.06zM639.827 136.08h-21.829v15.44h21.829v-15.44zM633.903 136.08v15.44M623.931 136.08v15.44M636.745 120.48h-15.656v15.6h15.656v-15.6zM628.917 109.25l7.828 11.23h-15.656l7.828-11.23z" stroke="#6F99A1" stroke-width="2" stroke-linejoin="round"/><path d="M636.744 109.25v11.23l-2.383-3.42 2.383-7.81zM621.089 109.25v11.23l2.383-3.42-2.383-7.81z" stroke="#6F99A1" stroke-width="2" stroke-linejoin="round"/><path d="M636.406 112.55a7.526 7.526 0 0 0-2.049-5.559 7.483 7.483 0 0 0-5.43-2.338 7.47 7.47 0 0 0-5.431 2.338 7.512 7.512 0 0 0-2.049 5.559" stroke="#6F99A1" stroke-width="2" stroke-linejoin="round"/><path d="M637.352 141.9v2.6M620.83 141.9v2.6M628.917 141.9v2.6M519.64 182.07v18.69h16.056v-18.69" stroke="#6F99A1" stroke-linejoin="round"/><path d="M533.401 182.41h-11.468v18.35h11.468v-18.35z" stroke="#6F99A1" stroke-width="2" stroke-linejoin="round"/><path d="M571.147 182.07v18.69h16.056v-18.69" stroke="#6F99A1" stroke-linejoin="round"/><path d="M584.908 182.41H573.44v18.35h11.468v-18.35zM540.113 178.24h26.596M523.201 154.97h8.935M574.708 154.97h8.935M540.113 154.97h6.95M549.925 154.97h6.961M559.749 154.97h6.961M547.063 185.28h-6.95v15.48h6.95v-15.48zM556.997 185.28h-6.951v15.48h6.951v-15.48zM566.928 185.28h-6.951v15.48h6.951v-15.48zM550.474 178.24a1.868 1.868 0 0 1-1.86 1.733c-.471 0-.924-.178-1.269-.5a1.874 1.874 0 0 1-.591-1.233v-.23M560.376 178.24a1.868 1.868 0 0 1-1.86 1.733 1.868 1.868 0 0 1-1.859-1.963M546.754 141.9h-6.641v9.61h6.641v-9.61zM538.558 141.9h10.052M532.994 138.37h15.616" stroke="#6F99A1" stroke-width="2" stroke-linejoin="round"/><path d="M546.754 138.37h-6.641v3.54h6.641v-3.54zM540.103 130.95h-5.485v20.57h5.485v-20.57z" stroke="#6F99A1" stroke-width="2" stroke-linejoin="round"/><path d="M534.618 138.37h-12.126v13.15h12.126v-13.15zM528.555 133.11l-6.063 5.26h12.126l-6.063-5.26zM534.619 138.37H519.64M576.881 142.93a2.43 2.43 0 0 1 1.72.708 2.44 2.44 0 0 1 .713 1.722v6.16h-4.817v-6.16a2.431 2.431 0 0 1 2.384-2.43zM564.845 141.9h-6.642v9.61h6.642v-9.61zM566.401 141.9h-10.052M571.965 138.37h-15.616" stroke="#6F99A1" stroke-width="2" stroke-linejoin="round"/><path d="M564.845 138.37h-6.642v3.54h6.642v-3.54z" stroke="#6F99A1" stroke-width="2" stroke-linejoin="round"/><path d="M570.329 130.95h-5.484v20.57h5.484v-20.57zM582.465 138.37h-12.126v13.15h12.126v-13.15zM576.402 133.11l6.063 5.26h-12.126l6.063-5.26zM570.339 138.37h14.979M558.173 145.91h-11.419v5.61h11.419v-5.61zM552.619 141.9l5.554 4.01h-11.109l5.555-4.01zM547.093 138.37c0-1.469.582-2.878 1.618-3.917a5.516 5.516 0 0 1 7.813 0 5.548 5.548 0 0 1 1.618 3.917M540.113 130.95l12.505-4.04 12.226 4.04" stroke="#6F99A1" stroke-width="2" stroke-linejoin="round"/><path d="M570.329 114.87h-35.711v16.08h35.711v-16.08z" stroke="#6F99A1" stroke-width="2" stroke-linejoin="round"/><path d="M534.608 115.21c0-4.75 1.882-9.305 5.232-12.664a17.833 17.833 0 0 1 12.629-5.246c4.737 0 9.279 1.887 12.629 5.246a17.937 17.937 0 0 1 5.231 12.664" stroke="#6F99A1" stroke-width="2" stroke-linejoin="round"/><path d="M571.675 114.87h-38.383v2.4h38.383v-2.4z" stroke="#6F99A1" stroke-width="2" stroke-linejoin="round"/><path d="M538.926 120.32a1.557 1.557 0 0 0-1.556 1.57v9.06h3.122v-9.06a1.57 1.57 0 0 0-1.566-1.57zM545.439 129.23v-7.34a1.57 1.57 0 0 0-1.566-1.57c-.415 0-.813.165-1.107.46a1.574 1.574 0 0 0-.458 1.11v8.35M550.374 127.63v-5.74a1.57 1.57 0 0 0-1.565-1.57 1.57 1.57 0 0 0-1.566 1.57v6.75M566.031 120.32c.415 0 .813.165 1.107.46.293.294.458.694.458 1.11v9.06h-3.131v-9.06c0-.416.165-.816.458-1.11.294-.295.692-.46 1.108-.46zM559.539 129.23v-7.34a1.57 1.57 0 0 1 1.566-1.57c.415 0 .813.165 1.107.46.293.294.458.694.458 1.11v8.35M554.553 127.63v-5.74a1.571 1.571 0 0 1 1.566-1.57 1.572 1.572 0 0 1 1.565 1.57v6.75M547.502 97.59s-7.978 3.57-7.978 17.28M557.075 97.59s9.145 4.36 9.145 17.28M414.573 136.08c0-7.09 3.56-12.84 7.977-12.84 4.418 0 7.978 5.75 7.978 12.84" stroke="#6F99A1" stroke-linejoin="round"/><path d="M419.169 136.08c0-7.09 1.496-12.84 3.351-12.84s3.341 5.75 3.341 12.84M675.596 136.08c0-7.09 3.56-12.84 7.977-12.84 4.418 0 7.978 5.75 7.978 12.84" stroke="#6F99A1" stroke-linejoin="round"/><path d="M680.204 136.08c0-7.09 1.496-12.84 3.351-12.84 1.854 0 3.34 5.75 3.34 12.84M416.836 182.41v18.24M428.193 182.41v18.35M678.609 182.41v18.24M689.966 182.41v18.35M477.887 109.25l-2.902 11.23h5.794l-2.892-11.23zM628.917 109.25l-2.902 11.23h5.803l-2.901-11.23zM530.021 182.41h-4.707v18.35h4.707v-18.35zM581.528 182.41h-4.707v18.35h4.707v-18.35zM544.9 161.41a3.49 3.49 0 0 0-2.164 3.23v8.82h2.164M554.604 161.41a3.496 3.496 0 0 0-2.164 3.23v8.82h2.164M564.305 161.41a3.49 3.49 0 0 0-2.164 3.23v8.82h2.164M542.237 185.5v15.26M552.249 185.5v15.26M562.221 185.5v15.26M550.274 97.59s-3.849 3.57-3.849 17.28M554.902 97.59s4.417 4.36 4.417 17.28" stroke="#6F99A1" stroke-linejoin="round"/><path d="M62.13 130.95v35.21h-1.266v2.95h1.267v24.92l-3.44 6.91h13.053l-3.301-6.91v-24.92h1.266v-2.95h-1.266v-35.21M59.598 169.09h11.228M59.598 166.16h11.228" stroke="#6F99A1" stroke-width="2" stroke-linejoin="round"/><path d="M60.924 130.95h8.796c0-1.17-.464-2.291-1.288-3.118a4.392 4.392 0 0 0-6.22 0 4.414 4.414 0 0 0-1.288 3.118z" stroke="#6F99A1" stroke-width="2" stroke-linejoin="round"/><path d="M67.576 124.24a2.302 2.302 0 0 1-1.409 2.132 2.296 2.296 0 0 1-3.134-1.67 2.306 2.306 0 0 1 .974-2.364 2.29 2.29 0 0 1 2.894.282c.43.429.672 1.012.675 1.62zM66.409 130.95v35.21M64.025 130.95v35.21M66.409 169.09v24.87l1.685 6.98M64.374 169.09v24.87l-1.685 6.98" stroke="#6F99A1" stroke-linejoin="round"/><path d="M75.184 130.95v35.21h-1.266v2.95h1.266v24.92l-3.44 6.91h13.053l-3.3-6.91v-24.92h1.266v-2.95h-1.266v-35.21M72.651 169.09h11.23M72.651 166.16h11.23" stroke="#6F99A1" stroke-width="2" stroke-linejoin="round"/><path d="M73.948 130.95h8.785a4.421 4.421 0 0 0-1.21-3.253 4.399 4.399 0 0 0-3.183-1.367 4.386 4.386 0 0 0-3.182 1.367 4.414 4.414 0 0 0-1.21 3.253z" stroke="#6F99A1" stroke-width="2" stroke-linejoin="round"/><path d="M80.63 124.24a2.302 2.302 0 0 1-1.41 2.132c-.418.176-.88.223-1.325.135a2.296 2.296 0 0 1-1.808-1.805 2.306 2.306 0 0 1 .974-2.364 2.29 2.29 0 0 1 2.893.282c.43.429.673 1.012.675 1.62zM79.463 130.95v35.21M77.078 130.95v35.21M79.463 169.09v24.87l1.685 6.98M77.428 169.09v24.87l-1.686 6.98" stroke="#6F99A1" stroke-linejoin="round"/><path d="M73.947 130.95H69.68M132.365 130.95v35.21h-1.256v2.95h1.256v24.92l-3.44 6.91h13.063l-3.3-6.91v-24.92h1.266v-2.95h-1.266v-35.21M129.842 169.09h11.229M129.842 166.16h11.229" stroke="#6F99A1" stroke-width="2" stroke-linejoin="round"/><path d="M131.129 130.95h8.796a4.423 4.423 0 0 0-1.288-3.118 4.372 4.372 0 0 0-1.427-.956 4.377 4.377 0 0 0-3.366 0 4.378 4.378 0 0 0-1.426.956 4.423 4.423 0 0 0-1.289 3.118z" stroke="#6F99A1" stroke-width="2" stroke-linejoin="round"/><path d="M137.81 124.24a2.292 2.292 0 0 1-1.41 2.116 2.282 2.282 0 0 1-3.113-1.669 2.286 2.286 0 0 1 .13-1.323 2.28 2.28 0 0 1 3.724-.743c.428.429.669 1.012.669 1.619zM136.653 130.95v35.21M134.259 130.95v35.21M136.653 169.09v24.87l1.686 6.98M134.62 169.09v24.87l-1.685 6.98" stroke="#6F99A1" stroke-linejoin="round"/><path d="M145.428 130.95v35.21h-1.266v2.95h1.266v24.92l-3.44 6.91h13.054l-3.301-6.91v-24.92h1.266v-2.95h-1.266v-35.21M142.896 169.09h11.228M142.896 166.16h11.228" stroke="#6F99A1" stroke-width="2" stroke-linejoin="round"/><path d="M144.183 130.95h8.796c0-1.17-.464-2.291-1.288-3.118a4.392 4.392 0 0 0-6.22 0 4.414 4.414 0 0 0-1.288 3.118z" stroke="#6F99A1" stroke-width="2" stroke-linejoin="round"/><path d="M150.874 124.24a2.301 2.301 0 0 1-1.409 2.132 2.282 2.282 0 0 1-2.503-.492 2.304 2.304 0 0 1 .343-3.542 2.288 2.288 0 0 1 2.894.282c.429.429.672 1.012.675 1.62zM149.707 130.95v35.21M147.325 130.95v35.21M149.707 169.09v24.87l1.685 6.98M147.674 169.09v24.87l-1.685 6.98" stroke="#6F99A1" stroke-linejoin="round"/><path d="M144.184 130.95h-4.259M81.498 130.95h50.819M119.96 200.37v-34.21c0-3.472-1.376-6.801-3.824-9.256a13.034 13.034 0 0 0-9.23-3.834 13.036 13.036 0 0 0-9.23 3.834 13.108 13.108 0 0 0-3.824 9.256v34.21M88.987 165.95h6.462" stroke="#6F99A1" stroke-width="2" stroke-linejoin="round"/><path d="M88.987 169.09h6.462" stroke="#6F99A1" stroke-linejoin="round"/><path d="M88.987 172.24h6.462" stroke="#6F99A1" stroke-width="2" stroke-linejoin="round"/><path d="M88.987 175.38h6.462" stroke="#6F99A1" stroke-linejoin="round"/><path d="M88.987 178.53h6.462" stroke="#6F99A1" stroke-width="2" stroke-linejoin="round"/><path d="M88.987 181.67h6.462" stroke="#6F99A1" stroke-linejoin="round"/><path d="M88.987 184.82h6.462" stroke="#6F99A1" stroke-width="2" stroke-linejoin="round"/><path d="M88.987 187.96h6.462" stroke="#6F99A1" stroke-linejoin="round"/><path d="M88.987 191.11h6.462" stroke="#6F99A1" stroke-width="2" stroke-linejoin="round"/><path d="M88.987 194.25h6.462" stroke="#6F99A1" stroke-linejoin="round"/><path d="M88.987 197.4h6.462M118.325 165.95h6.462" stroke="#6F99A1" stroke-width="2" stroke-linejoin="round"/><path d="M118.325 169.09h6.462" stroke="#6F99A1" stroke-linejoin="round"/><path d="M118.325 172.24h6.462" stroke="#6F99A1" stroke-width="2" stroke-linejoin="round"/><path d="M118.325 175.38h6.462" stroke="#6F99A1" stroke-linejoin="round"/><path d="M118.325 178.53h6.462" stroke="#6F99A1" stroke-width="2" stroke-linejoin="round"/><path d="M118.325 181.67h6.462" stroke="#6F99A1" stroke-linejoin="round"/><path d="M118.325 184.82h6.462" stroke="#6F99A1" stroke-width="2" stroke-linejoin="round"/><path d="M118.325 187.96h6.462" stroke="#6F99A1" stroke-linejoin="round"/><path d="M118.325 191.11h6.462" stroke="#6F99A1" stroke-width="2" stroke-linejoin="round"/><path d="M118.325 194.25h6.462" stroke="#6F99A1" stroke-linejoin="round"/><path d="M118.325 197.4h6.462" stroke="#6F99A1" stroke-width="2" stroke-linejoin="round"/><path d="M86.743 160.57h3.87a17.108 17.108 0 0 1 6.177-8.69 17.027 17.027 0 0 1 20.224 0 17.108 17.108 0 0 1 6.178 8.69h3.61" stroke="#6F99A1" stroke-linejoin="round"/><path d="M86.743 134.34h40.059" stroke="#6F99A1" stroke-width="2" stroke-linejoin="round"/><path d="M88.987 137.53v-3.19M92.218 137.53v-3.19M95.447 137.53v-3.19M98.669 137.53v-3.19M101.9 137.53v-3.19M105.131 137.53v-3.19M108.363 137.53v-3.19M111.584 137.53v-3.19M114.813 137.53v-3.19M118.045 137.53v-3.19M121.276 137.53v-3.19M124.507 137.53v-3.19" stroke="#6F99A1" stroke-linejoin="round"/><path d="M86.743 140.63h40.059" stroke="#6F99A1" stroke-width="2" stroke-linejoin="round"/><path d="M88.987 143.82v-3.19M92.218 143.82v-3.19M95.447 143.82v-3.19M98.669 143.82v-3.19M101.9 143.82v-3.19M105.131 143.82v-3.19M108.363 143.82v-3.19M111.584 143.82v-3.19M114.813 143.82v-3.19M118.045 143.82v-3.19M121.276 143.82v-3.19M124.507 143.82v-3.19" stroke="#6F99A1" stroke-linejoin="round"/><path d="M107.705 127.75h-3.181v3.19h3.181v-3.19zM58.69 200.94h96.352M231.261 139.89c-.808 0-48.435 18.73-48.017 19.15 7.719 7.73-15.955 41.61-15.955 41.61h48.116" stroke="#6F99A1" stroke-width="2" stroke-linejoin="round"/><path d="m188.401 200.65 7.06-33c.648-3.41-4.567-2.84-7.06 1.47l-15.487 31.53" stroke="#6F99A1" stroke-width="2" stroke-linejoin="round"/><path d="M194.554 166.5a8.266 8.266 0 0 0-2.414 2.66l-15.487 31.49" stroke="#6F99A1" stroke-linejoin="round"/><path d="m206.968 200.65 4.896-39.51c.499-8.32-10.59-3.41-12.335 4.34l-7.779 35.17" stroke="#6F99A1" stroke-width="2" stroke-linejoin="round"/><path d="M210.419 157.23a12.174 12.174 0 0 0-4.536 3.281 12.208 12.208 0 0 0-2.594 4.969l-7.739 35.17M268.626 166.5a8.179 8.179 0 0 1 2.424 2.66l15.487 31.49M252.772 157.23a12.182 12.182 0 0 1 4.536 3.281 12.22 12.22 0 0 1 2.594 4.969l7.779 35.17" stroke="#6F99A1" stroke-linejoin="round"/><path d="M210.867 200.65s4.089-33.58 5.335-39.2c2.064-9.23 13.154-16.05 15.058-16.05" stroke="#6F99A1" stroke-width="2" stroke-linejoin="round"/><path d="M231.231 139.89c.808 0 48.436 18.73 48.017 19.15-7.709 7.73 15.955 41.61 15.955 41.61H213.66M231.262 119.38c-.738 0-44.666 17.27-44.277 17.66 2.991 3 1.924 13.49-1.606 20.95" stroke="#6F99A1" stroke-width="2" stroke-linejoin="round"/><path d="M231.23 119.38c.738 0 44.666 17.27 44.277 17.66-2.991 3-1.884 13.54 1.606 20.95M274.093 200.65l-7.07-33c-.639-3.41 4.577-2.84 7.07 1.47l15.487 31.49M255.523 200.65l-4.897-39.51c-.498-8.32 10.591-3.41 12.336 4.34l7.779 35.17M251.624 200.65s-4.089-33.58-5.336-39.2c-2.064-9.23-13.153-16.05-15.058-16.05M205.573 129.22V69.38l-7.749-53.13-8.436 53.13v66.3" stroke="#6F99A1" stroke-width="2" stroke-linejoin="round"/><path d="M197.824 19.96c2.043 0 3.7-1.661 3.7-3.71a3.705 3.705 0 0 0-3.7-3.71 3.705 3.705 0 0 0-3.7 3.71 3.705 3.705 0 0 0 3.7 3.71z" stroke="#6F99A1" stroke-linejoin="round"/><path d="M189.656 45.59h15.647M189.656 48.13h15.647" stroke="#6F99A1" stroke-width="2" stroke-linejoin="round"/><path d="m199.728 48.13 2.523 20.91v62.28M195.241 48.13l-2.523 20.91v65.3" stroke="#6F99A1" stroke-linejoin="round"/><path d="M221.748 123.25V57.8L214 4.67l-8.427 53.13v66.3" stroke="#6F99A1" stroke-width="2" stroke-linejoin="round"/><path d="M217.698 4.71a3.714 3.714 0 0 1-2.284 3.428 3.691 3.691 0 0 1-4.032-.805 3.711 3.711 0 0 1-.802-4.043A3.695 3.695 0 0 1 213.998 1c.98.003 1.92.394 2.613 1.09a3.728 3.728 0 0 1 1.087 2.62z" stroke="#6F99A1" stroke-linejoin="round"/><path d="M205.832 34.01h15.647M205.832 36.55h15.647M257.11 129.22V69.38l7.748-53.13 8.427 53.13v66.3" stroke="#6F99A1" stroke-width="2" stroke-linejoin="round"/><path d="M261.157 16.25a3.706 3.706 0 0 0 2.284 3.428 3.688 3.688 0 0 0 4.032-.805 3.717 3.717 0 0 0-.561-5.708 3.691 3.691 0 0 0-4.671.462 3.715 3.715 0 0 0-1.084 2.623z" stroke="#6F99A1" stroke-linejoin="round"/><path d="M273.025 45.59h-15.647M273.025 48.13h-15.647M240.934 123.25V57.8l7.748-53.13 8.427 53.13v66.3" stroke="#6F99A1" stroke-width="2" stroke-linejoin="round"/><path d="M244.983 4.71a3.714 3.714 0 0 0 2.284 3.428 3.691 3.691 0 0 0 4.032-.805 3.718 3.718 0 0 0-.561-5.708 3.69 3.69 0 0 0-4.671.462 3.715 3.715 0 0 0-1.084 2.623z" stroke="#6F99A1" stroke-linejoin="round"/><path d="M256.839 34.01h-15.636M256.839 36.55h-15.636M221.747 77.86c0-3.47 19.187-3.07 19.187 0M221.747 69.38l9.484-4.01 9.703 4.01M221.747 69.38h19.187M221.747 94.35l9.513-8.43 9.674 8.43" stroke="#6F99A1" stroke-width="2" stroke-linejoin="round"/><path d="m221.747 98.56 9.513-8.43 9.674 8.43" stroke="#6F99A1" stroke-linejoin="round"/><path d="M234.601 121.13c3.101-9.35 2.154-20.48-3.989-20.48h.598c-6.113 0-7.07 11.13-3.989 20.48" stroke="#6F99A1" stroke-width="2" stroke-linejoin="round"/><path d="M235.628 120.98c1.735-8.32.309-16.69-4.986-16.69h.598c-5.345 0-6.751 8.51-4.986 16.91" stroke="#6F99A1" stroke-linejoin="round"/><path d="M233.624 129.93c0 3.18-.997 5.75-2.284 5.75-1.286 0-2.283-2.57-2.283-5.75s.997-5.74 2.283-5.74c1.287 0 2.284 2.57 2.284 5.74zM244.693 134.14c0 3.18-.997 5.75-2.284 5.75-1.286 0-2.283-2.57-2.283-5.75s.997-5.74 2.283-5.74c1.287 0 2.284 2.57 2.284 5.74zM255.764 138.35c0 3.18-.998 5.75-2.284 5.75-1.286 0-2.284-2.57-2.284-5.75s.998-5.74 2.284-5.74c1.286 0 2.284 2.57 2.284 5.74zM266.833 142.56c0 3.18-.998 5.75-2.284 5.75-1.287 0-2.284-2.57-2.284-5.75s.997-5.75 2.284-5.75c1.286 0 2.284 2.58 2.284 5.75zM217.1 134.14c0 3.18.997 5.75 2.283 5.75 1.287 0 2.284-2.57 2.284-5.75s-.997-5.74-2.284-5.74c-1.286 0-2.283 2.57-2.283 5.74zM206.041 138.35c0 3.18.997 5.75 2.283 5.75 1.287 0 2.284-2.57 2.284-5.75s-.997-5.74-2.284-5.74c-1.286 0-2.283 2.57-2.283 5.74zM194.972 142.56c0 3.18.997 5.75 2.283 5.75 1.287 0 2.284-2.6 2.284-5.75s-.997-5.75-2.284-5.75c-1.286 0-2.283 2.58-2.283 5.75z" stroke="#6F99A1" stroke-width="2" stroke-linejoin="round"/><path d="M199.399 145.36c-.319-2.21-1.156-3.79-2.144-3.79-.987 0-1.934 1.78-2.203 4.21M210.509 140.6c-.319-2.21-1.166-3.79-2.154-3.79-.987 0-1.934 1.79-2.203 4.21M221.569 136.39c-.32-2.21-1.167-3.78-2.154-3.78-.988 0-1.935 1.78-2.204 4.2M262.365 145.36c.319-2.21 1.156-3.79 2.144-3.79.987 0 1.934 1.78 2.203 4.21M251.286 140.6c.319-2.21 1.167-3.79 2.154-3.79.987 0 1.935 1.79 2.194 4.21M240.215 136.39c.319-2.21 1.167-3.78 2.154-3.78.987 0 1.935 1.78 2.204 4.2M233.516 132.45c-.319-2.21-1.157-3.79-2.154-3.79-.998 0-1.925 1.78-2.194 4.21" stroke="#6F99A1" stroke-linejoin="round"/><path d="M222.725 174.79c4.148-3.61 12.834-3.28 16.344 0" stroke="#6F99A1" stroke-width="2" stroke-linejoin="round"/><path d="M222.725 169.85c4.148-3.6 12.834-3.27 16.344 0" stroke="#6F99A1" stroke-linejoin="round"/><path d="M228.408 188.14h-5.734v12.52h5.734v-12.52zM239.198 188.14h-5.734v12.52h5.734v-12.52z" stroke="#6F99A1" stroke-width="2" stroke-linejoin="round"/><path d="M214.737 200.65s3.311-33.58 4.318-39.2c1.675-9.23 10.66-16.05 12.196-16.05" stroke="#6F99A1" stroke-linejoin="round"/><path d="M247.754 200.65s-3.34-33.58-4.338-39.2c-1.665-9.23-10.65-16.05-12.186-16.05M198.542 48.13l1.177 20.91v62.28M196.439 48.13l-1.177 20.91v64.41M215.904 36.72l2.523 20.92v66.46M211.417 36.72l-2.523 20.92v70.24M214.708 36.72l1.177 20.92v67.46M212.603 36.72l-1.177 20.92v69.28M263.082 48.52l-2.523 20.92v62.28M267.571 48.52l2.523 20.92v65.29M264.279 48.52l-1.176 20.92v62.28M266.373 48.52l1.177 20.92v64.41M246.908 37.12l-2.513 20.92v66.45M251.395 37.12l2.523 20.92v70.23M248.104 37.12l-1.177 20.92v67.45M250.209 37.12l1.177 20.92v69.28" stroke="#6F99A1" stroke-linejoin="round"/><path d="M381.793 186.85a5.181 5.181 0 0 1-1.51 3.656 5.14 5.14 0 0 1-3.646 1.514 5.142 5.142 0 0 1-3.646-1.514 5.174 5.174 0 0 1-1.51-3.656c0-2.85 2.344-22.54 5.196-22.53 2.852.01 5.126 19.67 5.116 22.53zM376.627 192.01l-.01 8.7M33.999 186.85a5.179 5.179 0 0 1-1.51 3.656 5.15 5.15 0 0 1-3.646 1.514 5.15 5.15 0 0 1-3.645-1.514 5.18 5.18 0 0 1-1.51-3.656c0-2.85 2.343-22.54 5.195-22.53 2.852.01 5.116 19.67 5.116 22.53zM28.834 192.01l-.02 8.7M399.184 186.71c0 .679-.133 1.351-.393 1.978a5.158 5.158 0 0 1-4.763 3.192 5.142 5.142 0 0 1-3.645-1.514 5.16 5.16 0 0 1-1.51-3.656c0-2.85 2.323-9.13 5.165-9.12 2.842.01 5.156 6.29 5.146 9.12zM786.311 188.12a5.18 5.18 0 0 1-1.51 3.656 5.136 5.136 0 0 1-3.645 1.514 5.14 5.14 0 0 1-3.646-1.514 5.177 5.177 0 0 1-1.51-3.656c0-2.85 2.324-9.13 5.166-9.12 2.842.01 5.155 6.29 5.145 9.12zM394.019 191.9l-.01 8.69M781.146 193.31l-.01 8.69M0 201h806" stroke="#6F99A1" stroke-width="2" stroke-linejoin="round"/></svg>