<svg width="806" height="204" fill="none" xmlns="http://www.w3.org/2000/svg"><path d="M362.087 39.485h-54.569v161.278h54.569V39.485zM351.168 28.23h-32.879v11.245h32.879V28.23z" stroke="#6F99A1" stroke-width="2" stroke-linejoin="round"/><path d="M323.604 39.485h-16.086V55.61h16.086V39.485zM323.903 39.485 307.518 55.9M307.518 39.485l16.086 16.124" stroke="#6F99A1" stroke-linejoin="round"/><path d="M323.604 55.609h-16.086v16.124h16.086V55.609zM323.604 55.609l-16.086 16.124M307.518 55.609l16.086 16.124M323.604 71.733h-16.086v16.123h16.086V71.733zM323.604 71.733l-16.086 16.133M307.518 71.733l16.086 16.133M323.604 87.867h-16.086v16.123h16.086V87.867zM323.604 87.867l-16.086 16.123M307.518 87.867l54.27 48.381" stroke="#6F99A1" stroke-linejoin="round"/><path d="M323.604 103.99h-16.086v16.124h16.086V103.99zM323.604 103.99l-16.086 16.124M307.518 103.99l16.086 16.124M323.604 120.114h-16.086v16.124h16.086v-16.124zM307.518 120.114l16.086 16.134M323.604 136.248h-16.086v16.124h16.086v-16.124zM323.604 136.248l-16.086 16.124M307.518 136.248l16.086 16.124M323.604 152.372h-16.086v16.123h16.086v-16.123zM323.604 152.372l-16.086 16.123M307.518 152.372l16.086 16.123M323.604 168.495h-16.086v16.124h16.086v-16.124zM323.604 168.495l-16.086 16.134M307.518 168.495l16.086 16.134M323.604 184.629h-16.086v16.124h16.086v-16.124zM323.604 184.629l-16.086 16.124M307.518 184.629l16.086 16.124M361.779 39.485h-16.085V55.61h16.085V39.485zM362.078 39.485 345.694 55.9M345.694 39.485l16.095 16.124" stroke="#6F99A1" stroke-linejoin="round"/><path d="M361.779 55.609h-16.085v16.124h16.085V55.609zM361.789 55.609l-16.095 16.124M345.694 55.609l16.095 16.124M361.779 71.733h-16.085v16.123h16.085V71.733zM361.789 71.733l-16.095 16.133M345.694 71.733l16.095 16.133" stroke="#6F99A1" stroke-linejoin="round"/><path d="M361.779 87.867h-16.085v16.123h16.085V87.867z" stroke="#6F99A1" stroke-width="2" stroke-linejoin="round"/><path d="m361.788 87.867-54.27 48.381M345.694 87.867l16.095 16.123M361.779 103.99h-16.085v16.124h16.085V103.99zM361.789 103.99l-16.095 16.124M345.694 103.99l16.095 16.124" stroke="#6F99A1" stroke-linejoin="round"/><path d="M361.779 120.114h-16.085v16.124h16.085v-16.124z" stroke="#6F99A1" stroke-width="2" stroke-linejoin="round"/><path d="m361.789 120.114-16.095 16.134M361.779 136.248h-16.085v16.124h16.085v-16.124zM361.789 136.248l-16.095 16.124M345.694 136.248l16.095 16.124M361.779 152.372h-16.085v16.123h16.085v-16.123zM361.789 152.372l-16.095 16.123M345.694 152.372l16.095 16.123M361.779 168.495h-16.085v16.124h16.085v-16.124zM361.789 168.495l-16.095 16.134M345.694 168.495l16.095 16.134M361.779 184.629h-16.085v16.124h16.085v-16.124zM361.789 184.629l-16.095 16.124M345.694 184.629l16.095 16.124M323.605 39.485l22.088 16.124M345.693 39.485 323.605 55.61" stroke="#6F99A1" stroke-linejoin="round"/><path d="M323.605 55.609h24.133M345.693 184.629h-22.088v16.124h22.088v-16.124zM345.693 152.372h-22.088v16.123h22.088v-16.123zM345.693 136.248h-22.088v16.124h22.088v-16.124zM345.693 120.124h-22.088v16.124h22.088v-16.124zM345.693 103.99h-22.088v16.124h22.088V103.99z" stroke="#6F99A1" stroke-width="2" stroke-linejoin="round"/><path d="M345.693 87.867h-22.088v16.123h22.088V87.867zM345.693 71.743h-22.088v16.124h22.088V71.743zM345.693 55.609h-22.088v16.124h22.088V55.609zM345.693 168.495h-22.088v16.124h22.088v-16.124zM345.693 152.372h-22.088v16.123h22.088v-16.123zM345.693 136.248h-22.088v16.124h22.088v-16.124zM345.693 120.124h-22.088v16.124h22.088v-16.124z" stroke="#6F99A1" stroke-width="2" stroke-linejoin="round"/><path d="M345.693 103.99h-22.088v16.124h22.088V103.99z" stroke="#6F99A1" stroke-width="2" stroke-linejoin="round"/><path d="M345.693 87.867h-22.088v16.123h22.088V87.867zM345.693 71.743h-22.088v16.124h22.088V71.743zM345.693 55.609h-22.088v16.124h22.088V55.609zM328.84 60.537v11.206M334.794 55.899v11.825M340.756 60.537v11.196" stroke="#6F99A1" stroke-width="2" stroke-linejoin="round"/><path d="M318.289 30.818h32.879M331.643 64.136v7.597M337.626 64.136v7.597" stroke="#6F99A1" stroke-linejoin="round"/><path d="M328.84 76.52v11.197M334.794 71.883v11.825M340.756 76.52v11.197" stroke="#6F99A1" stroke-width="2" stroke-linejoin="round"/><path d="M331.643 80.12v7.597M337.626 80.12v7.597" stroke="#6F99A1" stroke-linejoin="round"/><path d="M328.84 92.505V103.7M334.794 87.867v11.825M340.756 92.505V103.7" stroke="#6F99A1" stroke-width="2" stroke-linejoin="round"/><path d="M331.643 96.093v7.607M337.626 96.093v7.607" stroke="#6F99A1" stroke-linejoin="round"/><path d="M328.84 124.462v11.196M334.794 119.824v11.826M340.756 124.462v11.196" stroke="#6F99A1" stroke-width="2" stroke-linejoin="round"/><path d="M331.643 128.061v7.597M337.626 128.061v7.597" stroke="#6F99A1" stroke-linejoin="round"/><path d="M328.84 140.446v11.196M334.794 135.808v11.825M340.756 140.446v11.196" stroke="#6F99A1" stroke-width="2" stroke-linejoin="round"/><path d="M331.643 144.045v7.597M337.626 144.045v7.597" stroke="#6F99A1" stroke-linejoin="round"/><path d="M328.84 156.43v11.196M334.794 151.792v11.825M340.756 156.43v11.196" stroke="#6F99A1" stroke-width="2" stroke-linejoin="round"/><path d="M331.643 160.019v7.607M337.626 160.019v7.607" stroke="#6F99A1" stroke-linejoin="round"/><path d="M328.84 172.414v11.196M334.794 167.776v11.825M340.756 172.414V183.6" stroke="#6F99A1" stroke-width="2" stroke-linejoin="round"/><path d="M331.643 176.002v7.597M337.626 176.002v7.597" stroke="#6F99A1" stroke-linejoin="round"/><path d="M328.84 189.407v11.206M334.794 184.769v11.825M340.756 189.407v11.196" stroke="#6F99A1" stroke-width="2" stroke-linejoin="round"/><path d="M331.643 193.006v7.597M337.626 193.006v7.597" stroke="#6F99A1" stroke-linejoin="round"/><mask id="a" style="mask-type:luminance" maskUnits="userSpaceOnUse" x="711" y="24" width="58" height="180"><path d="M767.622 204c.997-35.696.07-97.812-2.134-123.542-4.826-56.358-15.756-56.379-25.928-56.379s-21.101.11-25.928 56.629c-2.184 25.68-3.111 87.706-2.114 123.292h56.104z" fill="#fff"/></mask><g mask="url(#a)" stroke="#6F99A1" stroke-linejoin="round"><path d="M761.709 200.421h6.003M711.479 200.421h46.531M711.479 197.193h56.234M711.479 193.964h56.234M736.43 190.735h31.283M711.479 190.735h20.543M711.479 187.506h56.234M711.479 184.278h56.234M751.768 181.049h15.945M711.479 181.049h37.446M711.479 177.82h56.234M711.479 174.591h56.234M711.479 171.363h56.234M729.899 168.134h37.815M711.479 168.134h15.148M711.479 164.905h56.234M711.479 161.676h56.234M748.496 158.448h19.216M711.479 158.448h33.039M711.479 155.219h56.234M711.479 151.98h56.234M711.479 148.761h56.234M711.479 145.523h56.234M725.779 142.294h41.934M711.479 142.294h10.74" stroke-width="2"/><path d="M711.479 139.065h56.234"/><path d="M711.479 135.836h56.234M711.479 132.608h56.234M754.321 129.379h13.393M711.479 129.379h40.717" stroke-width="2"/><path d="M733.866 126.15h33.846"/><path d="M711.479 126.15h19.975M711.479 122.921h56.234M711.479 119.693h56.234M753.472 116.464h14.24M711.479 116.464h38.862M711.479 113.235h56.234" stroke-width="2"/><path d="M738.414 110.006h29.299"/><path d="M711.479 110.006h24.662" stroke-width="2"/><path d="M711.479 106.778h56.234"/><path d="M711.479 103.549h56.234M711.479 100.31h56.234M737.707 97.081h30.007M711.479 97.081h22.817" stroke-width="2"/><path d="M711.479 93.853h56.234M711.479 90.624h56.234"/><path d="M711.479 87.395h56.234M711.479 84.166h56.234M753.334 80.938h14.38M711.479 80.938h39.431" stroke-width="2"/><path d="M711.479 77.709h56.234"/><path d="M711.479 74.48h56.234M750.49 71.251h17.222M711.479 71.251h35.881M733.019 68.022h34.694M711.479 68.022h19.696M711.479 64.794h56.234" stroke-width="2"/><path d="M711.479 61.565h56.234"/><path d="M711.479 58.336h56.234" stroke-width="2"/><path d="M711.479 55.108h56.234"/><path d="M734.585 51.879h33.128M711.479 51.879h20.543M711.479 48.64h56.234M711.479 45.411h56.234M747.22 42.182h20.493" stroke-width="2"/><path d="M711.479 42.182h33.896"/><path d="M711.479 38.954h56.234M711.479 35.725h56.234M740.687 32.496h27.025M711.479 32.496h27.075" stroke-width="2"/><path d="M711.479 29.267h56.234"/><path d="M711.479 26.039h56.234" stroke-width="2"/></g><path d="M435.314 177.122h-25.599v23.561h25.599v-23.561z" stroke="#6F99A1" stroke-width="2" stroke-linejoin="round"/><path d="M435.314 151.462h-25.599v25.67h25.599v-25.67zM435.314 136.028h-25.599v15.434h25.599v-15.434z" stroke="#6F99A1" stroke-width="2" stroke-linejoin="round"/><path d="M422.52 157.04a5.68 5.68 0 0 0-4.016 1.665 5.704 5.704 0 0 0-1.668 4.023v14.394h11.358v-14.394a5.694 5.694 0 0 0-1.662-4.022 5.665 5.665 0 0 0-4.012-1.666z" stroke="#6F99A1" stroke-width="2" stroke-linejoin="round"/><path d="M423.916 157.22a5.668 5.668 0 0 0-3.063 2.026 5.693 5.693 0 0 0-1.185 3.482v14.394h5.874M685.599 157.22a5.668 5.668 0 0 0-3.063 2.026 5.693 5.693 0 0 0-1.185 3.482v14.394h5.834M529.552 159.129a4.563 4.563 0 0 0-3.41 4.418v11.536h4.706M581.229 159.129a4.554 4.554 0 0 0-2.452 1.628 4.579 4.579 0 0 0-.949 2.79v11.536h4.707" stroke="#6F99A1" stroke-linejoin="round"/><path d="M543.583 161.088a3.472 3.472 0 0 0-3.47 3.489v8.816h6.98v-8.816a3.49 3.49 0 0 0-3.51-3.489zM527.627 159.339a4.447 4.447 0 0 0-3.162 1.309 4.467 4.467 0 0 0-1.305 3.169v11.326h8.975v-11.326a4.49 4.49 0 0 0-1.323-3.181 4.473 4.473 0 0 0-3.185-1.297zM528.076 142.875a2.43 2.43 0 0 0-1.72.708 2.444 2.444 0 0 0-.713 1.721v6.158h4.857v-6.158c0-.644-.256-1.262-.71-1.717a2.42 2.42 0 0 0-1.714-.712zM579.175 159.339a4.459 4.459 0 0 0-3.159 1.312 4.474 4.474 0 0 0-1.308 3.166v11.326h8.975v-11.326a4.488 4.488 0 0 0-1.32-3.184 4.444 4.444 0 0 0-3.188-1.294zM553.555 161.088c-.923 0-1.808.368-2.46 1.022a3.493 3.493 0 0 0-1.02 2.467v8.816h6.981v-8.816a3.467 3.467 0 0 0-2.161-3.232 3.473 3.473 0 0 0-1.34-.257zM563.23 161.088c-.923 0-1.809.368-2.461 1.022a3.493 3.493 0 0 0-1.02 2.467v8.816h6.981v-8.816a3.502 3.502 0 0 0-1.026-2.474 3.473 3.473 0 0 0-2.474-1.015zM477.887 125.762c-.77 0-1.508.306-2.052.852a2.912 2.912 0 0 0-.85 2.057v7.357h5.774v-7.367a2.915 2.915 0 0 0-.843-2.04 2.895 2.895 0 0 0-2.029-.859z" stroke="#6F99A1" stroke-width="2" stroke-linejoin="round"/><path d="M478.474 126.162a2.894 2.894 0 0 0-1.446 2.509v7.357h1.735M629.506 126.162a2.887 2.887 0 0 0-1.446 2.509v7.357h1.715" stroke="#6F99A1" stroke-linejoin="round"/><path d="M431.664 182.34h-18.299v18.343h18.299V182.34zM422.519 145.494l-12.804 5.968h25.599l-12.795-5.968zM408.319 151.462h28.391M409.716 136.028a12.857 12.857 0 0 1 3.62-9.307 12.79 12.79 0 0 1 14.162-2.875 12.817 12.817 0 0 1 6.947 7.161c.622 1.599.918 3.306.87 5.021" stroke="#6F99A1" stroke-width="2" stroke-linejoin="round"/><path d="M424.784 123.403v-8.137h-4.538v8.137" stroke="#6F99A1" stroke-width="2" stroke-linejoin="round"/><path d="M420.246 115.267c0-1.26 2.274-2.28 2.274-2.28s2.264 1 2.264 2.28" stroke="#6F99A1" stroke-width="2" stroke-linejoin="round"/><path d="M422.519 112.987v-5.728M422.519 106.29v-.89" stroke="#6F99A1" stroke-linejoin="round"/><path d="M480.149 105v-8.137h-4.537V105" stroke="#6F99A1" stroke-width="2" stroke-linejoin="round"/><path d="M475.612 96.864c0-1.26 2.274-2.28 2.274-2.28s2.263 1 2.263 2.28" stroke="#6F99A1" stroke-width="2" stroke-linejoin="round"/><path d="M477.885 94.584v-5.728M477.885 87.887v-.89" stroke="#6F99A1" stroke-linejoin="round"/><path d="M555.699 97.363V85.797h-6.452v11.566M549.247 85.797c0-1.79 3.231-3.228 3.231-3.228s3.231 1.439 3.231 3.228M552.479 82.569v-8.137M552.479 73.063v-1.28M416.835 148.143v-7.287a1.6 1.6 0 0 0-1.596-1.599 1.592 1.592 0 0 0-1.595 1.599v8.797M424.115 146.244v-5.388a1.592 1.592 0 0 0-2.724-1.131c-.299.3-.467.707-.467 1.131v5.388M431.384 149.653v-8.797a1.592 1.592 0 0 0-2.724-1.131c-.299.3-.467.707-.467 1.131v7.287M408.319 177.122h28.391M519.64 151.462h-84.326v49.231h84.326v-49.231zM435.314 177.122h84.326" stroke="#6F99A1" stroke-width="2" stroke-linejoin="round"/><path d="M519.64 151.462h-84.326v3.449h84.326v-3.449z" stroke="#6F99A1" stroke-width="2" stroke-linejoin="round"/><path d="M444.079 154.911h-2.184v19.812h2.184v-19.812zM445.834 174.723h-5.684v2.41h5.684v-2.41zM454.051 154.911h-2.184v19.812h2.184v-19.812zM455.807 174.723h-5.685v2.41h5.685v-2.41zM464.024 154.911h-2.184v19.812h2.184v-19.812zM465.769 174.723h-5.684v2.41h5.684v-2.41zM473.986 154.911h-2.184v19.812h2.184v-19.812zM475.741 174.723h-5.684v2.41h5.684v-2.41zM483.959 154.911h-2.184v19.812h2.184v-19.812zM485.714 174.723h-5.685v2.41h5.685v-2.41zM493.931 154.911h-2.184v19.812h2.184v-19.812zM495.676 174.723h-5.684v2.41h5.684v-2.41zM503.893 154.911h-2.184v19.812h2.184v-19.812zM505.649 174.723h-5.685v2.41h5.685v-2.41zM513.338 154.911h-2.184v19.812h2.184v-19.812zM515.093 174.723h-5.684v2.41h5.684v-2.41z" stroke="#6F99A1" stroke-linejoin="round"/><path d="M443.281 180.681h-3.131v9.056h3.131v-9.056zM449.545 180.681h-3.131v9.056h3.131v-9.056zM455.807 180.681h-3.131v9.056h3.131v-9.056zM473.188 180.681h-3.131v9.056h3.131v-9.056zM479.452 180.681h-3.131v9.056h3.131v-9.056zM485.714 180.681h-3.131v9.056h3.131v-9.056zM503.096 180.681h-3.132v9.056h3.132v-9.056zM509.358 180.681h-3.132v9.056h3.132v-9.056zM515.621 180.681h-3.131v9.056h3.131v-9.056zM488.795 136.028h-21.829v15.434h21.829v-15.434zM472.899 136.028v15.434M482.871 136.028v15.434M485.704 120.434h-15.647v15.594h15.647v-15.594zM477.885 109.208l-7.828 11.226h15.647l-7.819-11.226zM470.057 109.208v11.226l2.384-3.419-2.384-7.807zM485.704 109.208v11.226l-2.373-3.419 2.373-7.807z" stroke="#6F99A1" stroke-width="2" stroke-linejoin="round"/><path d="M470.396 112.507a7.514 7.514 0 0 1 2.322-5.056 7.48 7.48 0 0 1 10.315 0 7.523 7.523 0 0 1 2.322 5.056" stroke="#6F99A1" stroke-width="2" stroke-linejoin="round"/><path d="M469.449 141.846v2.599M485.974 141.846v2.599M477.885 141.846v2.599" stroke="#6F99A1" stroke-linejoin="round"/><path d="M587.202 151.462H519.64v49.231h67.562v-49.231zM697.077 177.122h-25.599v23.561h25.599v-23.561z" stroke="#6F99A1" stroke-width="2" stroke-linejoin="round"/><path d="M697.077 151.462h-25.599v25.67h25.599v-25.67zM697.077 136.028h-25.599v15.434h25.599v-15.434z" stroke="#6F99A1" stroke-width="2" stroke-linejoin="round"/><path d="M684.283 157.04a5.68 5.68 0 0 1 4.016 1.665 5.708 5.708 0 0 1 1.668 4.023v14.394h-11.358v-14.394a5.685 5.685 0 0 1 5.674-5.688zM628.917 125.762c.769 0 1.507.306 2.052.852a2.91 2.91 0 0 1 .849 2.057v7.357h-5.803v-7.367a2.9 2.9 0 0 1 2.902-2.899zM693.427 182.34h-18.289v18.343h18.289V182.34zM684.283 145.494l12.804 5.968h-25.609l12.805-5.968zM698.483 151.462h-28.392M697.087 136.028a12.85 12.85 0 0 0-3.75-9.076 12.804 12.804 0 0 0-9.054-3.759 12.798 12.798 0 0 0-11.83 7.923 12.85 12.85 0 0 0-.975 4.912" stroke="#6F99A1" stroke-width="2" stroke-linejoin="round"/><path d="M682.009 123.403v-8.137h4.548v8.137" stroke="#6F99A1" stroke-width="2" stroke-linejoin="round"/><path d="M686.557 115.267c0-1.26-2.274-2.28-2.274-2.28s-2.274 1-2.274 2.28" stroke="#6F99A1" stroke-width="2" stroke-linejoin="round"/><path d="M684.282 112.987v-5.728M684.282 106.29v-.89" stroke="#6F99A1" stroke-linejoin="round"/><path d="M626.642 105v-8.137h4.547V105" stroke="#6F99A1" stroke-width="2" stroke-linejoin="round"/><path d="M631.189 96.864c0-1.26-2.274-2.28-2.274-2.28s-2.273 1-2.273 2.28" stroke="#6F99A1" stroke-width="2" stroke-linejoin="round"/><path d="M628.917 94.584v-5.728M628.917 87.887v-.89" stroke="#6F99A1" stroke-linejoin="round"/><path d="M689.966 148.143v-7.287a1.592 1.592 0 0 1 2.724-1.131c.299.3.467.707.467 1.131v8.797M682.687 146.244v-5.388a1.6 1.6 0 0 1 1.596-1.599 1.592 1.592 0 0 1 1.595 1.599v5.388M675.407 149.653v-8.797a1.605 1.605 0 0 1 3.201 0v7.287M698.483 177.122h-28.392M671.487 151.462h-84.325v49.231h84.325v-49.231zM671.477 177.122h-84.315" stroke="#6F99A1" stroke-width="2" stroke-linejoin="round"/><path d="M671.487 151.462h-84.325v3.449h84.325v-3.449z" stroke="#6F99A1" stroke-width="2" stroke-linejoin="round"/><path d="M664.897 154.911h-2.184v19.812h2.184v-19.812zM666.652 174.723h-5.684v2.41h5.684v-2.41zM654.935 154.911h-2.184v19.812h2.184v-19.812zM656.68 174.723h-5.684v2.41h5.684v-2.41zM644.963 154.911h-2.184v19.812h2.184v-19.812zM646.718 174.723h-5.685v2.41h5.685v-2.41zM634.99 154.911h-2.184v19.812h2.184v-19.812zM636.745 174.723h-5.684v2.41h5.684v-2.41zM625.028 154.911h-2.184v19.812h2.184v-19.812zM626.773 174.723h-5.684v2.41h5.684v-2.41zM615.055 154.911h-2.184v19.812h2.184v-19.812zM616.81 174.723h-5.684v2.41h5.684v-2.41zM605.083 154.911h-2.184v19.812h2.184v-19.812zM606.838 174.723h-5.684v2.41h5.684v-2.41zM595.639 154.911h-2.184v19.812h2.184v-19.812zM597.394 174.723h-5.685v2.41h5.685v-2.41z" stroke="#6F99A1" stroke-linejoin="round"/><path d="M666.651 180.681h-3.131v9.056h3.131v-9.056zM660.389 180.681h-3.131v9.056h3.131v-9.056zM654.127 180.681h-3.131v9.056h3.131v-9.056zM636.744 180.681h-3.131v9.056h3.131v-9.056zM630.482 180.681h-3.131v9.056h3.131v-9.056zM624.22 180.681h-3.131v9.056h3.131v-9.056zM606.837 180.681h-3.132v9.056h3.132v-9.056zM600.575 180.681h-3.131v9.056h3.131v-9.056zM594.313 180.681h-3.131v9.056h3.131v-9.056zM639.827 136.028h-21.829v15.434h21.829v-15.434zM633.903 136.028v15.434M623.931 136.028v15.434M636.745 120.434h-15.656v15.594h15.656v-15.594zM628.917 109.208l7.828 11.226h-15.656l7.828-11.226z" stroke="#6F99A1" stroke-width="2" stroke-linejoin="round"/><path d="M636.744 109.208v11.226l-2.383-3.419 2.383-7.807zM621.089 109.208v11.226l2.383-3.419-2.383-7.807z" stroke="#6F99A1" stroke-width="2" stroke-linejoin="round"/><path d="M636.406 112.507a7.521 7.521 0 0 0-2.049-5.557 7.494 7.494 0 0 0-5.43-2.337 7.47 7.47 0 0 0-5.431 2.337 7.507 7.507 0 0 0-2.049 5.557" stroke="#6F99A1" stroke-width="2" stroke-linejoin="round"/><path d="M637.352 141.846v2.599M620.83 141.846v2.599M628.917 141.846v2.599M519.64 182v18.683h16.056V182" stroke="#6F99A1" stroke-linejoin="round"/><path d="M533.401 182.34h-11.468v18.343h11.468V182.34z" stroke="#6F99A1" stroke-width="2" stroke-linejoin="round"/><path d="M571.147 182v18.683h16.056V182" stroke="#6F99A1" stroke-linejoin="round"/><path d="M584.908 182.34H573.44v18.343h11.468V182.34zM540.113 178.172h26.596M523.201 154.911h8.935M574.708 154.911h8.935M540.113 154.911h6.95M549.925 154.911h6.961M559.749 154.911h6.961M547.063 185.209h-6.95v15.474h6.95v-15.474zM556.997 185.209h-6.951v15.474h6.951v-15.474zM566.928 185.209h-6.951v15.474h6.951v-15.474zM550.474 178.172a1.865 1.865 0 0 1-3.129 1.233 1.876 1.876 0 0 1-.591-1.233v-.23M560.376 178.172a1.865 1.865 0 0 1-3.129 1.233 1.87 1.87 0 0 1-.59-1.463M546.754 141.846h-6.641v9.606h6.641v-9.606zM538.558 141.846h10.052M532.994 138.317h15.616" stroke="#6F99A1" stroke-width="2" stroke-linejoin="round"/><path d="M546.754 138.317h-6.641v3.539h6.641v-3.539zM540.103 130.9h-5.485v20.562h5.485V130.9z" stroke="#6F99A1" stroke-width="2" stroke-linejoin="round"/><path d="M534.618 138.317h-12.126v13.145h12.126v-13.145zM528.555 133.059l-6.063 5.258h12.126l-6.063-5.258zM534.619 138.317H519.64M576.881 142.875a2.43 2.43 0 0 1 1.72.708 2.444 2.444 0 0 1 .713 1.721v6.158h-4.817v-6.158a2.43 2.43 0 0 1 2.384-2.429zM564.845 141.846h-6.642v9.606h6.642v-9.606zM566.401 141.846h-10.052M571.965 138.317h-15.616" stroke="#6F99A1" stroke-width="2" stroke-linejoin="round"/><path d="M564.845 138.317h-6.642v3.539h6.642v-3.539z" stroke="#6F99A1" stroke-width="2" stroke-linejoin="round"/><path d="M570.329 130.9h-5.484v20.562h5.484V130.9zM582.465 138.317h-12.126v13.145h12.126v-13.145zM576.402 133.059l6.063 5.258h-12.126l6.063-5.258zM570.339 138.317h14.979M558.173 145.854h-11.419v5.608h11.419v-5.608zM552.619 141.846l5.554 4.008h-11.109l5.555-4.008zM547.093 138.317c0-1.469.582-2.877 1.618-3.916a5.517 5.517 0 0 1 7.813 0 5.545 5.545 0 0 1 1.618 3.916M540.113 130.9l12.505-4.039 12.226 4.039" stroke="#6F99A1" stroke-width="2" stroke-linejoin="round"/><path d="M570.329 114.826h-35.711V130.9h35.711v-16.074z" stroke="#6F99A1" stroke-width="2" stroke-linejoin="round"/><path d="M534.608 115.166c0-4.748 1.882-9.302 5.232-12.659a17.836 17.836 0 0 1 12.629-5.244c4.737 0 9.279 1.886 12.629 5.244a17.925 17.925 0 0 1 5.231 12.659" stroke="#6F99A1" stroke-width="2" stroke-linejoin="round"/><path d="M571.675 114.826h-38.383v2.4h38.383v-2.4z" stroke="#6F99A1" stroke-width="2" stroke-linejoin="round"/><path d="M538.926 120.274a1.557 1.557 0 0 0-1.556 1.569v9.057h3.122v-9.057a1.568 1.568 0 0 0-1.566-1.569zM545.439 129.18v-7.337a1.568 1.568 0 0 0-1.566-1.569c-.415 0-.813.165-1.107.46a1.572 1.572 0 0 0-.458 1.109v8.347M550.374 127.581v-5.738a1.567 1.567 0 0 0-1.565-1.569 1.568 1.568 0 0 0-1.566 1.569v6.748M566.031 120.274c.415 0 .813.165 1.107.46.293.294.458.693.458 1.109v9.057h-3.131v-9.057c0-.416.165-.815.458-1.109.294-.295.692-.46 1.108-.46zM559.539 129.18v-7.337a1.568 1.568 0 0 1 1.566-1.569c.415 0 .813.165 1.107.46.293.294.458.693.458 1.109v8.347M554.553 127.581v-5.738a1.562 1.562 0 0 1 .458-1.109 1.572 1.572 0 0 1 1.108-.46 1.561 1.561 0 0 1 1.446.969c.079.19.119.394.119.6v6.748M547.502 97.553s-7.978 3.568-7.978 17.273M557.075 97.553s9.145 4.358 9.145 17.273M414.573 136.028c0-7.087 3.56-12.835 7.977-12.835 4.418 0 7.978 5.748 7.978 12.835" stroke="#6F99A1" stroke-linejoin="round"/><path d="M419.169 136.028c0-7.087 1.496-12.835 3.351-12.835s3.341 5.748 3.341 12.835M675.596 136.028c0-7.087 3.56-12.835 7.977-12.835 4.418 0 7.978 5.748 7.978 12.835" stroke="#6F99A1" stroke-linejoin="round"/><path d="M680.204 136.028c0-7.087 1.496-12.835 3.351-12.835 1.854 0 3.34 5.748 3.34 12.835M416.836 182.34v18.233M428.193 182.34v18.343M678.609 182.34v18.233M689.966 182.34v18.343M477.887 109.208l-2.902 11.226h5.794l-2.892-11.226zM628.917 109.208l-2.902 11.226h5.803l-2.901-11.226zM530.021 182.34h-4.707v18.343h4.707V182.34zM581.528 182.34h-4.707v18.343h4.707V182.34zM544.9 161.348a3.49 3.49 0 0 0-2.164 3.229v8.816h2.164M554.604 161.348a3.48 3.48 0 0 0-2.164 3.229v8.816h2.164M564.305 161.348a3.49 3.49 0 0 0-2.164 3.229v8.816h2.164M542.237 185.429v15.254M552.249 185.429v15.254M562.221 185.429v15.254M550.274 97.553s-3.849 3.568-3.849 17.273M554.902 97.553s4.417 4.358 4.417 17.273" stroke="#6F99A1" stroke-linejoin="round"/><path d="M62.13 130.9v35.196h-1.266v2.949h1.267v24.91l-3.44 6.908h13.053l-3.301-6.908v-24.91h1.266v-2.949h-1.266V130.9M59.598 169.025h11.228M59.598 166.096h11.228M60.924 130.9h8.796a4.413 4.413 0 0 0-1.288-3.117 4.391 4.391 0 0 0-6.22 0 4.412 4.412 0 0 0-1.288 3.117z" stroke="#6F99A1" stroke-width="2" stroke-linejoin="round"/><path d="M67.576 124.192a2.3 2.3 0 0 1-2.735 2.267 2.296 2.296 0 0 1-1.807-1.804 2.305 2.305 0 0 1 .973-2.364 2.29 2.29 0 0 1 2.894.282 2.3 2.3 0 0 1 .675 1.619zM66.409 130.9v35.196M64.025 130.9v35.196M66.409 169.025v24.86l1.685 6.978M64.374 169.025v24.86l-1.685 6.978" stroke="#6F99A1" stroke-linejoin="round"/><path d="M75.184 130.9v35.196h-1.266v2.949h1.266v24.91l-3.44 6.908h13.053l-3.3-6.908v-24.91h1.266v-2.949h-1.266V130.9M72.651 169.025h11.23M72.651 166.096h11.23M73.948 130.9h8.785a4.421 4.421 0 0 0-1.21-3.252 4.381 4.381 0 0 0-3.183-1.366 4.386 4.386 0 0 0-3.182 1.366 4.42 4.42 0 0 0-1.21 3.252z" stroke="#6F99A1" stroke-width="2" stroke-linejoin="round"/><path d="M80.63 124.192a2.3 2.3 0 0 1-2.735 2.267 2.296 2.296 0 0 1-1.808-1.804 2.305 2.305 0 0 1 .974-2.364 2.29 2.29 0 0 1 2.893.282c.43.429.673 1.011.675 1.619zM79.463 130.9v35.196M77.078 130.9v35.196M79.463 169.025v24.86l1.685 6.978M77.428 169.025v24.86l-1.686 6.978" stroke="#6F99A1" stroke-linejoin="round"/><path d="M73.947 130.9H69.68M132.365 130.9v35.196h-1.256v2.949h1.256v24.91l-3.44 6.908h13.063l-3.3-6.908v-24.91h1.266v-2.949h-1.266V130.9M129.842 169.025h11.229M129.842 166.096h11.229M131.129 130.9h8.796a4.418 4.418 0 0 0-1.288-3.117 4.388 4.388 0 0 0-6.219 0 4.418 4.418 0 0 0-1.289 3.117z" stroke="#6F99A1" stroke-width="2" stroke-linejoin="round"/><path d="M137.81 124.192a2.292 2.292 0 0 1-1.41 2.115 2.274 2.274 0 0 1-2.488-.496 2.288 2.288 0 0 1 1.614-3.908 2.291 2.291 0 0 1 2.284 2.289zM136.653 130.9v35.196M134.259 130.9v35.196M136.653 169.025v24.86l1.686 6.978M134.62 169.025v24.86l-1.685 6.978" stroke="#6F99A1" stroke-linejoin="round"/><path d="M145.428 130.9v35.196h-1.266v2.949h1.266v24.91l-3.44 6.908h13.054l-3.301-6.908v-24.91h1.266v-2.949h-1.266V130.9M142.896 169.025h11.228M142.896 166.096h11.228M144.183 130.9h8.796a4.415 4.415 0 0 0-1.288-3.117 4.393 4.393 0 0 0-6.22 0 4.411 4.411 0 0 0-1.288 3.117z" stroke="#6F99A1" stroke-width="2" stroke-linejoin="round"/><path d="M150.874 124.192a2.299 2.299 0 0 1-2.735 2.267 2.296 2.296 0 0 1-1.808-1.804 2.31 2.31 0 0 1 .974-2.364 2.288 2.288 0 0 1 2.894.282c.429.429.672 1.011.675 1.619zM149.707 130.9v35.196M147.325 130.9v35.196M149.707 169.025v24.86l1.685 6.978M147.674 169.025v24.86l-1.685 6.978" stroke="#6F99A1" stroke-linejoin="round"/><path d="M144.184 130.9h-4.259M81.498 130.9h50.819M119.96 200.293v-34.197c0-3.47-1.376-6.798-3.824-9.252a13.037 13.037 0 0 0-9.23-3.833 13.04 13.04 0 0 0-9.23 3.833 13.1 13.1 0 0 0-3.824 9.252v34.197M88.987 165.886h6.462" stroke="#6F99A1" stroke-width="2" stroke-linejoin="round"/><path d="M88.987 169.025h6.462" stroke="#6F99A1" stroke-linejoin="round"/><path d="M88.987 172.174h6.462" stroke="#6F99A1" stroke-width="2" stroke-linejoin="round"/><path d="M88.987 175.313h6.462" stroke="#6F99A1" stroke-linejoin="round"/><path d="M88.987 178.461h6.462" stroke="#6F99A1" stroke-width="2" stroke-linejoin="round"/><path d="M88.987 181.6h6.462" stroke="#6F99A1" stroke-linejoin="round"/><path d="M88.987 184.749h6.462" stroke="#6F99A1" stroke-width="2" stroke-linejoin="round"/><path d="M88.987 187.888h6.462" stroke="#6F99A1" stroke-linejoin="round"/><path d="M88.987 191.037h6.462" stroke="#6F99A1" stroke-width="2" stroke-linejoin="round"/><path d="M88.987 194.175h6.462" stroke="#6F99A1" stroke-linejoin="round"/><path d="M88.987 197.324h6.462M118.325 165.886h6.462" stroke="#6F99A1" stroke-width="2" stroke-linejoin="round"/><path d="M118.325 169.025h6.462" stroke="#6F99A1" stroke-linejoin="round"/><path d="M118.325 172.174h6.462" stroke="#6F99A1" stroke-width="2" stroke-linejoin="round"/><path d="M118.325 175.313h6.462" stroke="#6F99A1" stroke-linejoin="round"/><path d="M118.325 178.461h6.462" stroke="#6F99A1" stroke-width="2" stroke-linejoin="round"/><path d="M118.325 181.6h6.462" stroke="#6F99A1" stroke-linejoin="round"/><path d="M118.325 184.749h6.462" stroke="#6F99A1" stroke-width="2" stroke-linejoin="round"/><path d="M118.325 187.888h6.462" stroke="#6F99A1" stroke-linejoin="round"/><path d="M118.325 191.037h6.462" stroke="#6F99A1" stroke-width="2" stroke-linejoin="round"/><path d="M118.325 194.175h6.462" stroke="#6F99A1" stroke-linejoin="round"/><path d="M118.325 197.324h6.462" stroke="#6F99A1" stroke-width="2" stroke-linejoin="round"/><path d="M86.743 160.508h3.87a17.109 17.109 0 0 1 6.177-8.687 17.039 17.039 0 0 1 10.112-3.327 17.04 17.04 0 0 1 10.112 3.327 17.109 17.109 0 0 1 6.178 8.687h3.61" stroke="#6F99A1" stroke-linejoin="round"/><path d="M86.743 134.289h40.059" stroke="#6F99A1" stroke-width="2" stroke-linejoin="round"/><path d="M88.987 137.477v-3.188M92.218 137.477v-3.188M95.447 137.477v-3.188M98.669 137.477v-3.188M101.9 137.477v-3.188M105.131 137.477v-3.188M108.363 137.477v-3.188M111.584 137.477v-3.188M114.813 137.477v-3.188M118.045 137.477v-3.188M121.276 137.477v-3.188M124.507 137.477v-3.188" stroke="#6F99A1" stroke-linejoin="round"/><path d="M86.743 140.576h40.059" stroke="#6F99A1" stroke-width="2" stroke-linejoin="round"/><path d="M88.987 143.765v-3.189M92.218 143.765v-3.189M95.447 143.765v-3.189M98.669 143.765v-3.189M101.9 143.765v-3.189M105.131 143.765v-3.189M108.363 143.765v-3.189M111.584 143.765v-3.189M114.813 143.765v-3.189M118.045 143.765v-3.189M121.276 143.765v-3.189M124.507 143.765v-3.189" stroke="#6F99A1" stroke-linejoin="round"/><path d="M107.705 127.701h-3.181v3.189h3.181v-3.189zM58.69 200.863h96.352M231.261 139.836c-.808 0-48.435 18.723-48.017 19.143 7.719 7.727-15.955 41.594-15.955 41.594h48.116" stroke="#6F99A1" stroke-width="2" stroke-linejoin="round"/><path d="m188.401 200.573 7.06-32.987c.648-3.409-4.567-2.839-7.06 1.469l-15.487 31.518" stroke="#6F99A1" stroke-width="2" stroke-linejoin="round"/><path d="M194.554 166.436a8.262 8.262 0 0 0-2.414 2.659l-15.487 31.478" stroke="#6F99A1" stroke-linejoin="round"/><path d="m206.968 200.573 4.896-39.495c.499-8.317-10.59-3.408-12.335 4.339l-7.779 35.156" stroke="#6F99A1" stroke-width="2" stroke-linejoin="round"/><path d="M210.419 157.17a12.202 12.202 0 0 0-7.13 8.246l-7.739 35.157M268.626 166.436a8.176 8.176 0 0 1 2.424 2.659l15.487 31.478M252.772 157.17a12.168 12.168 0 0 1 4.536 3.28 12.215 12.215 0 0 1 2.594 4.966l7.779 35.157" stroke="#6F99A1" stroke-linejoin="round"/><path d="M210.867 200.573s4.089-33.567 5.335-39.185c2.064-9.226 13.154-16.044 15.058-16.044" stroke="#6F99A1" stroke-width="2" stroke-linejoin="round"/><path d="M231.231 139.836c.808 0 48.436 18.723 48.017 19.143-7.709 7.727 15.955 41.594 15.955 41.594H213.66M231.262 119.334c-.738 0-44.666 17.264-44.277 17.653 2.991 2.999 1.924 13.485-1.606 20.942" stroke="#6F99A1" stroke-width="2" stroke-linejoin="round"/><path d="M231.23 119.334c.738 0 44.666 17.264 44.277 17.653-2.991 2.999-1.884 13.535 1.606 20.942M274.093 200.573l-7.07-32.987c-.639-3.409 4.577-2.839 7.07 1.469l15.487 31.478M255.523 200.573l-4.897-39.495c-.498-8.317 10.591-3.408 12.336 4.339l7.779 35.156M251.624 200.573s-4.089-33.567-5.336-39.185c-2.064-9.226-13.153-16.044-15.058-16.044M205.573 129.171V69.354l-7.749-53.11-8.436 53.11v66.274" stroke="#6F99A1" stroke-width="2" stroke-linejoin="round"/><path d="M197.824 19.953c2.043 0 3.7-1.66 3.7-3.709a3.705 3.705 0 0 0-3.7-3.708c-2.043 0-3.7 1.66-3.7 3.708a3.705 3.705 0 0 0 3.7 3.709z" stroke="#6F99A1" stroke-linejoin="round"/><path d="M189.656 45.573h15.647M189.656 48.112h15.647" stroke="#6F99A1" stroke-width="2" stroke-linejoin="round"/><path d="m199.728 48.112 2.523 20.902v62.256M195.241 48.112l-2.523 20.902v65.275" stroke="#6F99A1" stroke-linejoin="round"/><path d="M221.748 123.203V57.778L214 4.668l-8.427 53.11v66.275" stroke="#6F99A1" stroke-width="2" stroke-linejoin="round"/><path d="M217.698 4.709a3.712 3.712 0 0 1-2.284 3.426 3.693 3.693 0 0 1-4.032-.804 3.71 3.71 0 0 1-.802-4.042A3.696 3.696 0 0 1 213.998 1c.98.004 1.92.395 2.613 1.09a3.726 3.726 0 0 1 1.087 2.62z" stroke="#6F99A1" stroke-linejoin="round"/><path d="M205.832 33.997h15.647M205.832 36.536h15.647M257.11 129.171V69.354l7.748-53.11 8.427 53.11v66.274" stroke="#6F99A1" stroke-width="2" stroke-linejoin="round"/><path d="M261.157 16.244a3.706 3.706 0 0 0 2.284 3.426 3.69 3.69 0 0 0 4.032-.803 3.715 3.715 0 0 0-.561-5.706 3.693 3.693 0 0 0-4.671.46 3.713 3.713 0 0 0-1.084 2.623z" stroke="#6F99A1" stroke-linejoin="round"/><path d="M273.025 45.573h-15.647M273.025 48.112h-15.647M240.934 123.203V57.778l7.748-53.11 8.427 53.11v66.275" stroke="#6F99A1" stroke-width="2" stroke-linejoin="round"/><path d="M244.983 4.709a3.712 3.712 0 0 0 2.284 3.426 3.693 3.693 0 0 0 4.032-.804 3.715 3.715 0 0 0-.561-5.706 3.69 3.69 0 0 0-4.671.461 3.713 3.713 0 0 0-1.084 2.623z" stroke="#6F99A1" stroke-linejoin="round"/><path d="M256.839 33.997h-15.636M256.839 36.536h-15.636M221.747 77.831c0-3.47 19.187-3.07 19.187 0M221.747 69.354l9.484-4.009 9.703 4.009M221.747 69.354h19.187M221.747 94.314l9.513-8.427 9.674 8.427" stroke="#6F99A1" stroke-width="2" stroke-linejoin="round"/><path d="m221.747 98.522 9.513-8.426 9.674 8.426" stroke="#6F99A1" stroke-linejoin="round"/><path d="M234.601 121.084c3.101-9.347 2.154-20.472-3.989-20.472h.598c-6.113 0-7.07 11.125-3.989 20.472" stroke="#6F99A1" stroke-width="2" stroke-linejoin="round"/><path d="M235.628 120.934c1.735-8.317.309-16.684-4.986-16.684h.598c-5.345 0-6.751 8.507-4.986 16.904" stroke="#6F99A1" stroke-linejoin="round"/><path d="M233.624 129.88c0 3.179-.997 5.748-2.284 5.748-1.286 0-2.283-2.569-2.283-5.748 0-3.178.997-5.737 2.283-5.737 1.287 0 2.284 2.569 2.284 5.737zM244.693 134.089c0 3.178-.997 5.747-2.284 5.747-1.286 0-2.283-2.569-2.283-5.747 0-3.179.997-5.738 2.283-5.738 1.287 0 2.284 2.569 2.284 5.738zM255.764 138.297c0 3.179-.998 5.748-2.284 5.748-1.286 0-2.284-2.569-2.284-5.748 0-3.179.998-5.738 2.284-5.738 1.286 0 2.284 2.569 2.284 5.738zM266.833 142.505c0 3.179-.998 5.748-2.284 5.748-1.287 0-2.284-2.569-2.284-5.748 0-3.178.997-5.747 2.284-5.747 1.286 0 2.284 2.579 2.284 5.747zM217.1 134.089c0 3.178.997 5.747 2.283 5.747 1.287 0 2.284-2.569 2.284-5.747 0-3.179-.997-5.738-2.284-5.738-1.286 0-2.283 2.569-2.283 5.738zM206.041 138.297c0 3.179.997 5.748 2.283 5.748 1.287 0 2.284-2.569 2.284-5.748 0-3.179-.997-5.738-2.284-5.738-1.286 0-2.283 2.569-2.283 5.738zM194.972 142.505c0 3.179.997 5.748 2.283 5.748 1.287 0 2.284-2.599 2.284-5.748 0-3.148-.997-5.747-2.284-5.747-1.286 0-2.283 2.579-2.283 5.747z" stroke="#6F99A1" stroke-width="2" stroke-linejoin="round"/><path d="M199.399 145.304c-.319-2.209-1.156-3.788-2.144-3.788-.987 0-1.934 1.779-2.203 4.208M210.509 140.546c-.319-2.209-1.166-3.788-2.154-3.788-.987 0-1.934 1.789-2.203 4.208M221.569 136.338c-.32-2.209-1.167-3.779-2.154-3.779-.988 0-1.935 1.78-2.204 4.199M262.365 145.304c.319-2.209 1.156-3.788 2.144-3.788.987 0 1.934 1.779 2.203 4.208M251.286 140.546c.319-2.209 1.167-3.788 2.154-3.788.987 0 1.935 1.789 2.194 4.208M240.215 136.338c.319-2.209 1.167-3.779 2.154-3.779.987 0 1.935 1.78 2.204 4.199M233.516 132.399c-.319-2.209-1.157-3.788-2.154-3.788-.998 0-1.925 1.779-2.194 4.208" stroke="#6F99A1" stroke-linejoin="round"/><path d="M222.725 174.724c4.148-3.61 12.834-3.28 16.344 0" stroke="#6F99A1" stroke-width="2" stroke-linejoin="round"/><path d="M222.725 169.786c4.148-3.6 12.834-3.27 16.344 0" stroke="#6F99A1" stroke-linejoin="round"/><path d="M228.408 188.068h-5.734v12.515h5.734v-12.515zM239.198 188.068h-5.734v12.515h5.734v-12.515z" stroke="#6F99A1" stroke-width="2" stroke-linejoin="round"/><path d="M214.737 200.573s3.311-33.567 4.318-39.185c1.675-9.226 10.66-16.044 12.196-16.044" stroke="#6F99A1" stroke-linejoin="round"/><path d="M247.754 200.573s-3.34-33.567-4.338-39.185c-1.665-9.226-10.65-16.044-12.186-16.044M198.542 48.112l1.177 20.902v62.256M196.439 48.112l-1.177 20.902v64.385M215.904 36.706l2.523 20.912v66.434M211.417 36.706l-2.523 20.912v70.213M214.708 36.706l1.177 20.912v67.434M212.603 36.706l-1.177 20.912v69.253M263.082 48.502l-2.523 20.912v62.256M267.571 48.502l2.523 20.912v65.264M264.279 48.502l-1.176 20.912v62.256M266.373 48.502l1.177 20.912v64.385M246.908 37.106l-2.513 20.912v66.424M251.395 37.106l2.523 20.912v70.203M248.104 37.106l-1.177 20.912v67.424M250.209 37.106l1.177 20.912v69.253" stroke="#6F99A1" stroke-linejoin="round"/><path d="M381.793 186.778a5.181 5.181 0 0 1-1.51 3.655 5.138 5.138 0 0 1-5.619 1.12 5.183 5.183 0 0 1-1.673-1.12 5.18 5.18 0 0 1-1.51-3.655c0-2.849 2.344-22.531 5.196-22.521 2.852.01 5.126 19.662 5.116 22.521zM376.627 191.936l-.01 8.697M33.999 186.778a5.176 5.176 0 0 1-1.51 3.655 5.15 5.15 0 0 1-7.291 0 5.177 5.177 0 0 1-1.51-3.655c0-2.849 2.343-22.531 5.195-22.521 2.852.01 5.116 19.662 5.116 22.521zM28.834 191.936l-.02 8.697M399.184 186.638c0 .679-.133 1.351-.393 1.978a5.164 5.164 0 0 1-2.79 2.797 5.138 5.138 0 0 1-3.946 0 5.168 5.168 0 0 1-3.182-4.775c0-2.849 2.323-9.126 5.165-9.116 2.842.01 5.156 6.287 5.146 9.116zM786.311 188.048a5.179 5.179 0 0 1-1.51 3.654 5.136 5.136 0 0 1-3.645 1.514 5.14 5.14 0 0 1-3.646-1.514 5.183 5.183 0 0 1-1.51-3.654c0-2.849 2.324-9.127 5.166-9.117 2.842.01 5.155 6.288 5.145 9.117zM394.019 191.826l-.01 8.687M781.146 193.236l-.01 8.686M0 200.923h806" stroke="#6F99A1" stroke-width="2" stroke-linejoin="round"/></svg>