<svg width="306" height="327" fill="none" xmlns="http://www.w3.org/2000/svg"><path d="M100.497 182.424c3.804 9.992 7.606 41.758-7.036 61.455-14.624 19.672-49.765 30.157-73.039 14.68-28.068-18.667-24.03-65.229-6.94-84.679 9.57-10.893 18.699-8.123 31.907-23.748 13.173-15.584 10.592-26.031 22.119-32.328 13.862-7.571 34.096-1.602 37.686 6.585 3.212 7.323-7.044 13.29-9.005 30.405-.367 3.212-.332 5.848-.06 8.175 1.203 10.268 3.681 17.653 4.368 19.455z" fill="#15444E"/><path d="M61.182 110.04c2.165 3.179 3.893 13.448-.91 16.688-4.803 3.239-14.317-1.777-16.482-4.956-2.165-3.18-.028-8.384 4.775-11.624 4.803-3.239 10.452-3.288 12.617-.108z" fill="#15444E"/><path d="M49.056 216.417s-10.395-25.998-4.271-31.485c.32-.287 4.458-.707 8.694 3.15 3.999 3.641 8.12 11.566 8.12 11.566l1.36 17.947-13.903-1.178z" fill="#fff"/><path d="M62.96 217.977c-.011 0-.022 0-.034-.002l-13.903-1.18a.383.383 0 0 1-.322-.238c-.428-1.071-10.42-26.309-4.17-31.908.573-.514 4.926-.747 9.207 3.152 4.004 3.645 8.032 11.347 8.202 11.673a.36.36 0 0 1 .042.147l1.359 17.947a.38.38 0 0 1-.381.409zm-13.633-1.918 13.218 1.121-1.32-17.425c-.412-.78-4.294-8.016-8.002-11.394-3.993-3.638-7.76-3.312-8.204-3.127-5.522 5.032 3.328 28.311 4.308 30.825z" fill="#15444E"/><path d="M128.113 169.227s4.051.87 7.235 5.764c6.354 9.763 16.174 27.523 31.886 30.176 23.587 3.983 37.877-24.577 35.849-30.975 0 0-3.387-4.478-8.953-5.829 0 0-.059-4.463 4.781-2.349 4.838 2.113 6.775.822 8.939.317 3.802-.888 11.882-9.978 14.892-11.133 3.011-1.156 2.07 1.342 2.07 1.342s2.95-3.304 4.982-1.648l-4.334 5.7s3.505-4.609 5.536-2.294l-9.067 10.559 6.646-5.193s.924 1.014-.813 2.81c-1.737 1.798-8.802 11.601-15.567 11.601 0 0 3.643 54.085-37.048 56.281-34.961 1.887-49.197-26.181-49.197-26.181l2.163-38.948z" fill="#fff"/><path d="M171.853 234.824c-16.401 0-27.827-6.717-34.663-12.563-7.896-6.752-11.544-13.844-11.581-13.916a.374.374 0 0 1-.04-.191l2.164-38.948a.38.38 0 0 1 .461-.351c.171.037 4.241.96 7.475 5.928.6.921 1.231 1.914 1.895 2.96 6.242 9.826 15.673 24.673 29.735 27.048 12.999 2.195 22.272-5.853 26.643-10.845 6.776-7.74 9.671-16.567 8.799-19.576-.394-.493-3.652-4.412-8.698-5.637a.379.379 0 0 1-.291-.364c-.002-.081-.011-1.986 1.336-2.874.95-.626 2.288-.569 3.978.171 3.903 1.706 5.782 1.143 7.599.6.374-.112.726-.217 1.099-.304 2.042-.476 5.543-3.577 8.634-6.313 2.589-2.293 4.825-4.273 6.208-4.804 1.155-.444 1.935-.442 2.385.003.196.193.29.437.326.681 1.092-.936 3.105-2.246 4.72-.929.16.129.186.36.063.522l-1.95 2.564c.459-.24.936-.402 1.405-.418.676-.022 1.257.24 1.73.78a.376.376 0 0 1 .002.497l-6.569 7.649 3.619-2.829a.383.383 0 0 1 .518.043c.047.051 1.141 1.299-.82 3.329-.256.264-.641.719-1.128 1.297-2.793 3.305-8.535 10.104-14.314 10.411.156 3.522.818 29.646-12.82 44.97-6.198 6.966-14.478 10.775-24.61 11.321a63.05 63.05 0 0 1-3.31.088zm-45.516-26.733c.442.83 4.058 7.365 11.374 13.614 7.178 6.133 19.497 13.238 37.416 12.271 9.92-.535 18.021-4.26 24.079-11.067 14.361-16.137 12.628-44.525 12.609-44.809a.384.384 0 0 1 .381-.406c5.557 0 11.346-6.855 14.13-10.15.496-.588.889-1.052 1.161-1.335.898-.93.997-1.58.938-1.947l-6.259 4.89a.382.382 0 0 1-.527-.547l8.835-10.288a1.32 1.32 0 0 0-.893-.293c-1.423.048-3.238 2.032-3.817 2.793l-.001.001a.384.384 0 0 1-.534.073.378.378 0 0 1-.135-.414v-.002a.404.404 0 0 1 .06-.119l4.089-5.377c-1.723-.873-4.12 1.779-4.146 1.808a.383.383 0 0 1-.643-.386c.087-.233.206-.816-.002-1.022-.074-.074-.41-.279-1.572.168-1.255.481-3.548 2.513-5.976 4.662-3.311 2.933-6.736 5.966-8.967 6.487-.348.081-.69.183-1.052.291-1.858.556-3.964 1.187-8.126-.633-1.437-.628-2.532-.705-3.25-.233-.74.488-.929 1.46-.977 1.943 5.449 1.449 8.72 5.708 8.859 5.891a.37.37 0 0 1 .059.113c1.118 3.532-2.275 12.764-8.932 20.368-3.956 4.518-11.839 11.478-22.842 11.478-1.449 0-2.95-.12-4.505-.383-14.399-2.43-23.939-17.452-30.252-27.391-.662-1.042-1.291-2.034-1.891-2.954-2.451-3.765-5.453-5.089-6.559-5.466l-2.132 38.371z" fill="#15444E"/><path d="M217.209 164.629a.38.38 0 0 1-.272-.647l7.603-7.712a.382.382 0 1 1 .546.533l-7.603 7.712a.386.386 0 0 1-.274.114zM220.304 166.189a.38.38 0 0 1-.272-.647l5.157-5.222a.385.385 0 0 1 .541-.005.38.38 0 0 1 .005.538l-5.157 5.222a.386.386 0 0 1-.274.114zM206.743 174.587a.38.38 0 0 1-.348-.538c.093-.209 2.355-5.089 6.044-4.337 3.286.671 5.612-.171 5.635-.179a.381.381 0 0 1 .491.224.377.377 0 0 1-.226.488c-.102.038-2.558.926-6.054.212-3.098-.631-5.174 3.859-5.195 3.904a.38.38 0 0 1-.347.226z" fill="#15444E"/><path d="M44.78 184.932s71.601-19.972 86.071-17.571l5.061 33.574 9.575 25.685c2.752 7.383 1.196 15.711-4.145 21.525-5.967 6.494-15.887 13.36-31.427 14.057-30.17 1.352-44.846 8.753-46.446-4.516-1.6-13.269-3.501-45.096-3.501-45.096-4.82-12.664-10.692-27.294-15.188-27.658z" fill="#fff"/><path d="M73.994 265.855c-3.467 0-6.098-.516-7.932-1.946-1.652-1.289-2.622-3.309-2.97-6.177-1.55-12.862-3.407-43.521-3.499-45.062-3.605-9.463-10.289-26.988-14.842-27.357a.385.385 0 0 1-.35-.344.382.382 0 0 1 .277-.402c2.928-.815 71.848-19.97 86.237-17.579a.38.38 0 0 1 .315.319l5.056 33.535 9.561 25.647c2.833 7.599 1.215 15.997-4.22 21.914-5.578 6.07-15.604 13.458-31.693 14.181-8.855.397-16.489 1.33-22.623 2.081-5.342.65-9.767 1.19-13.317 1.19zm-27.905-80.889c4.375 2.413 9.417 14.827 14.24 27.487a.36.36 0 0 1 .023.112c.02.317 1.92 31.968 3.5 45.073.324 2.695 1.177 4.498 2.682 5.671 3.465 2.701 10.315 1.864 20.685.597 6.148-.753 13.797-1.688 22.682-2.084 15.827-.709 25.683-7.97 31.162-13.935 5.242-5.707 6.802-13.806 4.068-21.135l-9.575-25.685a.485.485 0 0 1-.019-.075l-5.019-33.297c-13.754-1.924-75.036 14.69-84.43 17.271z" fill="#15444E"/><path d="M93.34 162.073c2.584.412 5.09-.012 6.361-1.151 1.567-1.404 1.436-3.419 1.614-5.906.075-1.041.082-2.234.865-3.459a5.382 5.382 0 0 1 1.465-1.506 1.56 1.56 0 0 0 .469-2.015l-.293-.397c-2.298-3.119-3.374-8.675-3.003-14.459l-1.607-2.953c-4.457-.654-8.005-.442-8.407.333-.149.284-.412.512-.128 1.652 1.376 5.505-3.746 6.109-8.16 6.072-4.415-.036-1.126 7.321-1.126 7.321s-3.38-2.722-5.574.846c-1.572 2.556 3.248 5.008 6.107 6.191 0 0 .034 17.889-3.606 20.278l-10.105 6.401s22.114 5.364 37.346-7.495c0 0-6.772.359-9.75-1.935-2.98-2.293-2.165-7.239-2.468-7.818z" fill="#fff"/><path d="M79.135 180.779c-6.364 0-10.913-1.066-11.014-1.09a.379.379 0 0 1-.114-.69l10.105-6.402c2.792-1.832 3.416-14.604 3.428-19.705-2.575-1.088-5.664-2.758-6.295-4.695-.219-.672-.137-1.327.246-1.948.695-1.13 1.58-1.792 2.626-1.972.957-.164 1.858.112 2.508.419-.539-1.518-1.296-4.283-.315-5.773.452-.687 1.2-1.021 2.208-1.023 2.699.022 5.968-.174 7.337-1.903.702-.887.85-2.096.45-3.697-.266-1.062-.1-1.473.11-1.832.017-.029.035-.057.049-.086.606-1.164 4.988-1.092 8.801-.533.12.017.224.09.281.195l1.607 2.953a.37.37 0 0 1 .045.206c-.373 5.806.751 11.252 2.931 14.209l.293.396a.615.615 0 0 1 .03.047 1.941 1.941 0 0 1-.588 2.505 5.03 5.03 0 0 0-1.364 1.399c-.659 1.031-.725 2.03-.787 2.994l-.019.287c-.024.347-.043.685-.063 1.014-.114 2.058-.213 3.837-1.676 5.148-1.263 1.133-3.593 1.623-6.16 1.316.009.165.014.367.02.616.035 1.685.105 4.821 2.226 6.455 2.834 2.182 9.431 1.859 9.497 1.856a.381.381 0 0 1 .269.669c-8.372 7.068-18.881 8.665-26.672 8.665zm-9.925-1.64c4.206.797 22.138 3.401 35.25-6.911-2.085-.003-6.545-.235-8.887-2.037-2.409-1.855-2.483-5.227-2.523-7.04-.009-.381-.018-.813-.056-.916a.373.373 0 0 1 .404-.538c2.508.4 4.881-.016 6.044-1.059 1.231-1.103 1.316-2.657 1.425-4.625.019-.333.038-.675.062-1.027l.02-.281c.065-1.011.14-2.158.904-3.353a5.762 5.762 0 0 1 1.569-1.613c.477-.335.631-.977.364-1.505l-.276-.372c-2.301-3.124-3.452-8.575-3.083-14.599l-1.463-2.689c-4.722-.67-7.6-.259-7.824.158-.021.04-.044.08-.068.119-.12.204-.243.414-.03 1.266.455 1.82.257 3.283-.589 4.353-1.574 1.987-5.068 2.215-7.944 2.192-.745-.001-1.258.216-1.561.678-.948 1.439.25 4.898.79 6.109a.378.378 0 0 1-.116.455.385.385 0 0 1-.473-.005c-.014-.011-1.43-1.127-2.909-.871-.82.141-1.527.686-2.1 1.619-.264.428-.32.86-.17 1.317.436 1.342 2.603 2.879 6.097 4.326a.383.383 0 0 1 .236.35c.002.739-.007 18.124-3.777 20.597l-9.316 5.902z" fill="#15444E"/><path d="M93.337 162.452c-.013 0-.026 0-.04-.002-5.004-.507-8.422-6.405-8.566-6.655a.381.381 0 0 1 .664-.374c.033.058 3.368 5.808 7.979 6.275a.38.38 0 0 1-.036.756zM136.129 247.5a4.299 4.299 0 0 0-3.962-2.651c-16.219.003-32.688 4.038-49.418 12.33a7.856 7.856 0 0 0-3.381 3.224c-3.067 5.515-11.251 20.863-15.437 34.743-1.493 4.949-3.096 11.349-4.387 16.805 1.012.53 2.03 1.05 3.059 1.552 18.312 8.955 38.854 13.495 61.053 13.497h.005c12.513 0 24.972-1.475 36.936-4.023-5.618-29.058-20.325-65.524-24.468-75.477z" fill="#15444E"/><path d="M162.632 257.549h-53.659c-1.666 0-2.936-1.506-2.669-3.167l11.54-71.893a2.713 2.713 0 0 1 2.669-2.294h53.659c1.666 0 2.936 1.506 2.669 3.167l-11.54 71.893a2.71 2.71 0 0 1-2.669 2.294z" fill="#15444E"/><path d="M160.926 257.362h-53.659c-1.665 0-2.936-1.504-2.669-3.162l11.541-71.768a2.709 2.709 0 0 1 2.669-2.289h53.659c1.665 0 2.936 1.504 2.669 3.162l-11.541 71.768a2.707 2.707 0 0 1-2.669 2.289z" fill="#fff"/><path d="M160.924 257.744h-53.658a3.074 3.074 0 0 1-2.337-1.078 3.114 3.114 0 0 1-.709-2.526l11.541-71.768a3.077 3.077 0 0 1 3.047-2.61h53.659c.897 0 1.75.393 2.336 1.078.596.697.855 1.616.709 2.525l-11.541 71.769a3.08 3.08 0 0 1-3.047 2.61zm-42.118-77.222a2.318 2.318 0 0 0-2.291 1.97l-11.541 71.769a2.352 2.352 0 0 0 .537 1.911 2.317 2.317 0 0 0 1.756.811h53.659a2.322 2.322 0 0 0 2.293-1.97l11.541-71.768a2.356 2.356 0 0 0-.536-1.912 2.309 2.309 0 0 0-1.756-.811h-53.662z" fill="#15444E"/><path d="M160.927 257.744h-53.659a3.075 3.075 0 0 1-2.338-1.078 3.106 3.106 0 0 1-.709-2.52l11.54-71.681a3.077 3.077 0 0 1 3.048-2.606h53.658c.9 0 1.753.393 2.339 1.078.596.695.854 1.615.707 2.52l-11.541 71.681a3.075 3.075 0 0 1-3.045 2.606zm-42.118-77.128a2.32 2.32 0 0 0-2.292 1.967l-11.54 71.68a2.352 2.352 0 0 0 .535 1.908 2.311 2.311 0 0 0 1.758.811h53.659a2.322 2.322 0 0 0 2.293-1.967l11.54-71.68a2.352 2.352 0 0 0-.535-1.908 2.311 2.311 0 0 0-1.758-.811h-53.66z" fill="#15444E"/><path d="M127.366 217.68c-3.198-2.384-13.641-9.322-17.337-7.159-2.458 1.439-4.881 3.666-6.847 9.976l-41.804 14.674.116-12.661a38.594 38.594 0 0 0-3.993-17.452l-7.807-15.805c-4.875 3.202-8.688 7.798-10.808 13.214-8.588 21.936-6.165 61.427 2.09 63.499 22.184 5.567 65.068-38.717 65.068-38.717s11.669-.055 13.955-.285c9.476-.95 9.511-7.685 7.367-9.284z" fill="#fff"/><path d="M45.17 266.837c-1.52 0-2.95-.167-4.285-.502-1.338-.336-2.553-1.542-3.612-3.584-5.57-10.751-5.96-41.982 1.259-60.421 2.137-5.458 5.924-10.09 10.953-13.394a.39.39 0 0 1 .31-.05c.106.03.194.102.242.199l7.807 15.805a39.176 39.176 0 0 1 4.032 17.624l-.11 12.117 41.11-14.43c2.027-6.398 4.542-8.592 6.961-10.009 4.498-2.636 17.219 6.781 17.758 7.183 1.132.846 1.597 2.738 1.105 4.501-.397 1.421-2.037 4.801-8.66 5.465-2.16.216-12.364.278-13.83.286-1.186 1.211-11.517 11.658-24.144 21.368-15.427 11.86-27.804 17.842-36.896 17.842zm4.375-77.026c-4.716 3.198-8.273 7.614-10.3 12.793-3.315 8.463-5.265 20.488-5.355 32.995-.083 11.537 1.473 21.806 4.063 26.802.953 1.84 2.003 2.915 3.12 3.196 21.713 5.449 64.272-38.172 64.7-38.611a.376.376 0 0 1 .274-.116c.116 0 11.677-.059 13.918-.283 6.155-.616 7.646-3.64 8.001-4.911.461-1.651-.081-3.133-.826-3.688-3.561-2.655-13.541-9.112-16.914-7.137-2.309 1.353-4.717 3.469-6.675 9.761a.376.376 0 0 1-.238.244L61.509 235.53a.383.383 0 0 1-.508-.363l.116-12.66a38.403 38.403 0 0 0-3.954-17.281l-7.618-15.415z" fill="#15444E"/><path d="M128.515 220.863a.374.374 0 0 1-.123-.021l-14.567-4.971a.38.38 0 1 1 .248-.72l14.567 4.972a.382.382 0 0 1 .238.483.384.384 0 0 1-.363.257zM127.69 223.582a.418.418 0 0 1-.11-.016l-14.213-4.206a.378.378 0 0 1-.257-.472.382.382 0 0 1 .475-.256l14.214 4.206a.38.38 0 0 1-.109.744zM124.982 225.983a.406.406 0 0 1-.103-.014c-4.647-1.287-11.743-3.22-12.246-3.271a.372.372 0 0 1-.372-.379c0-.21.18-.38.391-.38.486 0 9.64 2.524 12.432 3.299a.379.379 0 0 1-.102.745z" fill="#15444E"/><path d="M269.395 58.81v4.883a53.045 53.045 0 0 1-10.577 31.75 53.133 53.133 0 0 1-27.492 19.118 53.186 53.186 0 0 1-33.479-1.111 53.116 53.116 0 0 1-26.16-20.899 53.029 53.029 0 0 1 4.183-63.374 53.142 53.142 0 0 1 28.681-17.287 53.185 53.185 0 0 1 33.335 3.29" stroke="#15444E" stroke-width="2" stroke-linecap="round" stroke-linejoin="round"/><path d="m269.395 21.231-53.134 53.13-15.94-15.923" stroke="#15444E" stroke-width="2" stroke-linecap="round" stroke-linejoin="round"/><path d="M219.209 285.153a.471.471 0 0 1-.094-.935 112.605 112.605 0 0 0 15.278-4.261c32.129-11.452 57.236-36.613 70.698-70.851a.471.471 0 1 1 .876.347c-13.564 34.495-38.87 59.852-71.259 71.396a113.97 113.97 0 0 1-15.407 4.298c-.03.002-.062.006-.092.006zM200.299 308.613a.472.472 0 0 1-.003-.945c14.129-.112 48.286-14.373 48.605-14.517a.472.472 0 0 1 .385.862c-.321.144-34.688 14.489-48.983 14.6h-.004zM253.355 291.929a.472.472 0 0 1-.212-.894c16.579-8.363 30.989-20.474 42.83-36a.472.472 0 0 1 .748.574c-11.928 15.641-26.448 27.844-43.155 36.271a.5.5 0 0 1-.211.049z" fill="#15444E"/></svg>