<svg width="52" height="46" fill="none" xmlns="http://www.w3.org/2000/svg"><path d="M14.715 11.958a35.673 35.673 0 0 1 6.752 4.86c.583.51 1.433-.34.85-.875a36.645 36.645 0 0 0-6.946-5.03c-.68-.388-1.287.681-.607 1.045h-.049zM21.37 23.548a69.267 69.267 0 0 1-7.043-4.52.632.632 0 0 1-.219-.825.607.607 0 0 1 .826-.22 69.29 69.29 0 0 0 7.043 4.52.608.608 0 0 1-.607 1.045zM14.4 26.828a95.165 95.165 0 0 1 6.557 3.596.631.631 0 0 0 .631-1.069c-2.137-1.263-4.347-2.43-6.581-3.572-.68-.364-1.311.705-.607 1.045zM38.2 13.392l-6.946 4.568c-.607.413-1.263-.632-.607-1.045l6.946-4.568c.607-.437 1.263.608.607 1.045zM31.181 24.155a50.59 50.59 0 0 1 6.824-3.572.607.607 0 0 0 .219-.826.631.631 0 0 0-.826-.219 49.173 49.173 0 0 0-6.824 3.572c-.656.413 0 1.482.607 1.045zM35.99 29.258a24.453 24.453 0 0 0-4.663 1.92h.072a.607.607 0 0 1-.607-1.045 26.362 26.362 0 0 1 4.857-2.04.607.607 0 1 1 .34 1.165z" fill="#1E5F6C"/><path fill-rule="evenodd" clip-rule="evenodd" d="M26.47 10.16a111.707 111.707 0 0 0-15.348-8.601c-.428-.192-.829.118-.914.462-.293.01-.58.204-.592.582-.062 1.689-.126 3.377-.193 5.064a.608.608 0 0 0-.56-.374L4.564 6.88a.607.607 0 0 0-.583.777 159.277 159.277 0 0 1-2.283 34.819.73.73 0 0 0-.008.098c-.428.31-.086 1.173.567 1.068a56.97 56.97 0 0 1 23.63.85.607.607 0 0 0 .704-.582.614.614 0 0 0 .559-.025h.024c.392-.23.785-.46 1.179-.686.09.07.207.118.351.127l20.011.923c.34 0 .53-.222.574-.476a.548.548 0 0 0 .179-.447c-.38-11.39-.06-22.791.954-34.141a.619.619 0 0 0 .04-.516c-.043-.57-.732-.676-1.053-.322a26.531 26.531 0 0 1-5.89.428.565.565 0 0 0-.405.153 43.764 43.764 0 0 0-.373-5.62c0-.288-.176-.422-.394-.44-.169-.215-.45-.328-.723-.143a143.014 143.014 0 0 1-14.766 7.92.624.624 0 0 0-.108-.033.6.6 0 0 0-.28-.452zm21.774 32.853a278.975 278.975 0 0 1 1.048-33.398 29.52 29.52 0 0 1-5.773.375.582.582 0 0 1-.407-.167c-.031 3.245-.327 6.487-.622 9.729-.485 5.329-.97 10.658-.283 15.999.028.222-.06.38-.199.472a.476.476 0 0 1-.263.257 163.832 163.832 0 0 0-11.596 5.898l18.095.835zM9.285 8.323a.632.632 0 0 0 .119-.164c-.357 8.883-.796 17.754-1.318 26.614 0 .195.073.34.183.438a.512.512 0 0 0 .278.267 284.345 284.345 0 0 1 16.151 7.486 57.94 57.94 0 0 0-21.843-.644A160.998 160.998 0 0 0 5.216 8.2l3.647.308a.631.631 0 0 0 .422-.184zm16.693 2.944a.683.683 0 0 1-.115-.062 113.18 113.18 0 0 0-15.038-8.458c-.385 10.585-.888 21.17-1.51 31.755a298.772 298.772 0 0 1 16.46 7.656c-.647-10.29-.58-20.611.203-30.891zm1.036 31.282a223.349 223.349 0 0 1 13.948-7.242c-.628-5.199-.148-10.386.332-15.57.48-5.198.961-10.392.325-15.592a142.686 142.686 0 0 1-14.47 7.703 222.845 222.845 0 0 0-.135 30.701z" fill="#1E5F6C"/><path d="M14.715 11.958a35.673 35.673 0 0 1 6.752 4.86c.583.51 1.433-.34.85-.875a36.645 36.645 0 0 0-6.946-5.03c-.68-.388-1.287.681-.607 1.045h-.049zM21.37 23.548a69.267 69.267 0 0 1-7.043-4.52.632.632 0 0 1-.219-.825.607.607 0 0 1 .826-.22 69.29 69.29 0 0 0 7.043 4.52.608.608 0 0 1-.607 1.045zM14.4 26.828a95.165 95.165 0 0 1 6.557 3.596.631.631 0 0 0 .631-1.069c-2.137-1.263-4.347-2.43-6.581-3.572-.68-.364-1.311.705-.607 1.045zM38.2 13.392l-6.946 4.568c-.607.413-1.263-.632-.607-1.045l6.946-4.568c.607-.437 1.263.608.607 1.045zM31.181 24.155a50.59 50.59 0 0 1 6.824-3.572.607.607 0 0 0 .219-.826.631.631 0 0 0-.826-.219 49.173 49.173 0 0 0-6.824 3.572c-.656.413 0 1.482.607 1.045zM35.99 29.258a24.453 24.453 0 0 0-4.663 1.92h.072a.607.607 0 0 1-.607-1.045 26.362 26.362 0 0 1 4.857-2.04.607.607 0 1 1 .34 1.165z" stroke="#1E5F6C" stroke-width="1.3" stroke-linejoin="round"/><path clip-rule="evenodd" d="M26.47 10.16a111.707 111.707 0 0 0-15.348-8.601c-.428-.192-.829.118-.914.462-.293.01-.58.204-.592.582-.062 1.689-.126 3.377-.193 5.064a.608.608 0 0 0-.56-.374L4.564 6.88a.607.607 0 0 0-.583.777 159.277 159.277 0 0 1-2.283 34.819.73.73 0 0 0-.008.098c-.428.31-.086 1.173.567 1.068a56.97 56.97 0 0 1 23.63.85.607.607 0 0 0 .704-.582.614.614 0 0 0 .559-.025h.024c.392-.23.785-.46 1.179-.686.09.07.207.118.351.127l20.011.923c.34 0 .53-.222.574-.476a.548.548 0 0 0 .179-.447c-.38-11.39-.06-22.791.954-34.141a.619.619 0 0 0 .04-.516c-.043-.57-.732-.676-1.053-.322a26.531 26.531 0 0 1-5.89.428.565.565 0 0 0-.405.153 43.764 43.764 0 0 0-.373-5.62c0-.288-.176-.422-.394-.44-.169-.215-.45-.328-.723-.143a143.014 143.014 0 0 1-14.766 7.92.624.624 0 0 0-.108-.033.6.6 0 0 0-.28-.452zm21.774 32.853a278.975 278.975 0 0 1 1.048-33.398 29.52 29.52 0 0 1-5.773.375.582.582 0 0 1-.407-.167c-.031 3.245-.327 6.487-.622 9.729-.485 5.329-.97 10.658-.283 15.999.028.222-.06.38-.199.472a.476.476 0 0 1-.263.257 163.832 163.832 0 0 0-11.596 5.898l18.095.835zM9.285 8.323a.632.632 0 0 0 .119-.164c-.357 8.883-.796 17.754-1.318 26.614 0 .195.073.34.183.438a.512.512 0 0 0 .278.267 284.345 284.345 0 0 1 16.151 7.486 57.94 57.94 0 0 0-21.843-.644A160.998 160.998 0 0 0 5.216 8.2l3.647.308a.631.631 0 0 0 .422-.184zm16.693 2.944a.683.683 0 0 1-.115-.062 113.18 113.18 0 0 0-15.038-8.458c-.385 10.585-.888 21.17-1.51 31.755a298.772 298.772 0 0 1 16.46 7.656c-.647-10.29-.58-20.611.203-30.891zm1.036 31.282a223.349 223.349 0 0 1 13.948-7.242c-.628-5.199-.148-10.386.332-15.57.48-5.198.961-10.392.325-15.592a142.686 142.686 0 0 1-14.47 7.703 222.845 222.845 0 0 0-.135 30.701z" stroke="#1E5F6C" stroke-width="1.3" stroke-linejoin="round"/></svg>