<svg width="50" height="42" fill="none" xmlns="http://www.w3.org/2000/svg"><path d="M45.323 13.861c0 .68-.01 1.364 0 2.046.033 1.869.093 3.737.11 5.607.037 3.654.052 7.309.077 10.963.014 2.038.025 4.077.054 6.115 0 .887-2.127 1.126-2.677 1.193-2.304.281-4.612.532-6.924.715-4.04.317-8.09.424-12.141.461-2.566.024-5.132.057-7.697.027-2.92-.036-5.839-.127-8.76-.215-.628-.017-.811-.234-.822-.887-.02-1.256-.017-2.513-.053-3.77-.089-3.093-.189-6.185-.3-9.276-.067-1.835-.157-3.67-.268-5.504-.126-1.99-.277-3.979-.419-5.968-.04-.557-.095-1.114-.125-1.673a5.37 5.37 0 0 1 .06-.698H2.628c-.664-.062-.86-.284-.846-.952.023-1.193.069-2.386.064-3.579a21.262 21.262 0 0 0-.737-5.341 3.563 3.563 0 0 1-.098-.496c-.069-.6.18-.88.773-.87 1.025.017 2.052.045 3.077.061 2.596.04 5.192.094 7.791.106 2.806.012 5.612.002 8.42-.03a790.77 790.77 0 0 0 9.703-.175c2.427-.057 4.855-.143 7.281-.242 2.708-.111 5.416-.253 8.123-.38.471-.023.941-.052 1.41-.096.29-.027.442.145.581.35.29.427.343.922.395 1.414.296 2.74.44 5.494.435 8.25 0 .749-.037 1.5-.05 2.248 0 .272-.125.46-.384.508-.349.06-.701.093-1.055.1-.734-.002-1.465-.012-2.188-.012zm-39.02-.77c.043.13.075.265.098.401.125 1.494.266 2.985.377 4.48.18 2.505.363 5.01.502 7.518.14 2.509.239 5.041.314 7.563.063 2.068.063 4.14.09 6.21 0 .18-.028.358.251.381 1.086.074 2.169.19 3.255.24 2.332.102 4.665.23 6.997.244 2.732.016 5.466-.044 8.197-.134 2.038-.067 4.075-.223 6.11-.361 1.257-.087 2.524-.203 3.783-.327 1.54-.151 3.079-.32 4.615-.492 1.071-.127 2.137-.264 3.207-.39.22-.025.3-.126.292-.348a25.528 25.528 0 0 1-.008-1.456c.08-3.803.176-7.606.241-11.409a90.653 90.653 0 0 0-.42-10.911c-.056-.524-.048-.526-.57-.536l-9.173-.163a2.252 2.252 0 0 0-.276.03v.282c.053 1.394.125 2.789.15 4.183.017 1.033-.028 2.068-.074 3.1-.02.45-.377.769-.836.794-1.683.089-3.364.192-5.048.254-3.466.127-6.93.072-10.394-.06-.629-.024-.901-.303-.918-.948l-.188-7.569c-.01-.404-.01-.402-.422-.41l-8.7-.156c-.485-.018-.958-.01-1.452-.01zm-3.37-1.315c.106.019.147.03.187.033 2.025.127 4.05.292 6.078.363 3.785.135 7.573.238 11.362.309 3.393.06 6.785.053 10.178.07l16.74.09c.28 0 .362-.09.36-.358-.01-1.109-.01-2.217 0-3.326 0-.293-.083-.4-.393-.404-3.81-.049-7.621-.106-11.434-.172-3.977-.073-7.954-.158-11.93-.253-4.196-.098-8.391-.203-12.587-.314-2.585-.066-5.17-.134-7.755-.205-.277-.006-.555 0-.809 0l.004 4.167zm44.838-4.397c-.032-.348-.05-.634-.086-.912-.163-1.328-.437-2.645-.351-3.995.013-.216-.087-.24-.264-.23-2.262.118-4.514.244-6.772.344-2.195.098-4.392.19-6.588.253-3.852.102-7.702.203-11.554.254-3.528.044-7.056.034-10.584.019-2.765-.013-5.53-.07-8.294-.106H2.18c0 .06.004.12.011.18.175 1.006.355 2.011.523 3.019.036.223.18.215.343.22 3.725.09 7.45.181 11.176.274 4.227.114 8.454.254 12.681.356 3.38.085 6.761.154 10.142.208 3.433.055 6.866.084 10.304.127l.41-.011zM18.212 20.942c.222.018.408.04.594.047.585.021 1.172.043 1.759.054 4.126.078 8.25.02 12.37-.237.238-.015.322-.105.334-.343.046-1.014.14-2.028.158-3.042.023-1.182-.019-2.364-.023-3.55 0-.253-.096-.316-.338-.322-4.375-.076-8.75-.159-13.126-.245-.628-.012-1.249 0-1.917 0 .063 2.568.125 5.09.19 7.638z" fill="#1E5F6C" stroke="#1E5F6C" stroke-width="1.3"/><path d="M26.525 32.25h7.818c.094 0 .189.01.283.015.4.032.583.239.564.634-.018.363-.229.563-.613.56-3.026-.02-6.051-.044-9.075-.07-2.304-.02-4.608-.042-6.911-.068-.56 0-.865-.422-.658-.887.12-.27.338-.345.614-.341.491.007 5.381.157 7.978.157zM27.286 28.777c-2.287.066-4.826-.005-7.358.073-.543.017-1.086.068-1.634.102-.393.024-.64-.176-.67-.544-.028-.367.22-.66.615-.683 4.213-.246 8.43-.308 12.65-.244 1.005.016 2.01.066 3.016.104.418.017.613.23.6.634-.01.38-.22.567-.64.558h-6.58z" fill="#1E5F6C" stroke="#1E5F6C" stroke-width="1.3"/></svg>