<svg width="57" height="69" fill="none" xmlns="http://www.w3.org/2000/svg"><path d="M16.76 32.451a14.002 14.002 0 0 0 7.796-3.982 15.904 15.904 0 0 0 3.464-6.319c1.759-5.942.604-13.293-4.026-17.658a12.933 12.933 0 0 0-16.773-.77 16.58 16.58 0 0 0-5.44 7.526c-.972 2.896-.858 6.022-.604 9.02.345 3.643 1.68 6.981 4.503 9.391 2.956 2.52 7.29 3.43 11.05 2.792.984-.163.567-1.675-.412-1.505A12.518 12.518 0 0 1 7.18 28.84a11.239 11.239 0 0 1-4.23-7.163 23.505 23.505 0 0 1-.103-8.377 14.421 14.421 0 0 1 3.916-7.078A11.447 11.447 0 0 1 21.71 4.62c4.696 3.34 6.261 9.865 5.24 15.316a15.316 15.316 0 0 1-3.022 6.902c-1.922 2.343-4.648 3.557-7.568 4.109-.997.182-.58 1.694.4 1.505z" fill="#1E5F6C" stroke="#1E5F6C" stroke-width=".3"/><path d="M13.829 32.421c-.708 7.284-1.094 14.66-2.176 21.92-.073.485-.145.97-.26 1.45-.115.48-.284 1.858-.84 1.985-.877.206-.605-2.477-.556-3.035.2-3.727.483-7.454.761-11.175.296-4.019.605-8.037.961-12.05.097-1.001-1.462-.995-1.553 0-.734 7.742-1.31 15.5-1.729 23.274-.072 1.36-.29 3.193.834 4.194a1.984 1.984 0 0 0 2.829-.473c.397-.731.671-1.523.81-2.344.276-1.404.478-2.823.604-4.249.248-2.112.46-4.249.665-6.349.417-4.377.768-8.753 1.21-13.124.096-1.001-1.464-.995-1.554 0l-.006-.024zM27.767 14.575c-2.956 0-5.948-.425-8.891-.716-4.038-.395-8.075-.82-12.119-1.214-1.445-.152-2.883-.304-4.334-.431-.997-.085-.991 1.475 0 1.566 7.139.607 14.247 1.517 21.379 2.13 1.317.11 2.647.25 3.965.255a.778.778 0 0 0 .78-.783.784.784 0 0 0-.78-.783v-.024zM27.367 17.926c-8.516-.049-16.888-2.161-25.386-2.198a.778.778 0 0 0-.711.78.785.785 0 0 0 .711.78c8.522.043 16.894 2.15 25.416 2.204a.778.778 0 0 0 .78-.783.785.785 0 0 0-.78-.783h-.03zM26.637 23.225c-.605-.899-1.53-1.9-2.672-1.955a2.134 2.134 0 0 0-1.384.492c-.254.194-.502.395-.768.607-.133.097-.465.413-.64.413-.176 0-.828-.795-1.058-1.026a2.968 2.968 0 0 0-1.21-.856c-1.033-.297-2.036.4-2.798 1.014-.388.347-.814.65-1.269.904-.084.037-.338 0-.205.073-.164-.06-.333-.534-.417-.692-.478-.917-1.07-1.949-2.164-2.21a1.806 1.806 0 0 0-1.42.34 5.354 5.354 0 0 0-1.451 1.384c0 .049-.17.134-.176.17-.006.037.405.116.405-.036s-.405-.607-.465-.704a6.833 6.833 0 0 0-.852-1.372 1.62 1.62 0 0 0-1.505-.522c-.605.152-.532.57-.822.977.048-.073-.145.116-.127.08l-.188.12c-.169.098-.054.104.345 0 0 0-.78-.528-.846-.57-.738-.492-1.457-1.014-2.212-1.481-.853-.528-1.638.825-.786 1.354.64.394 1.257.831 1.88 1.25.439.371.924.684 1.444.929.774.242 1.813-.547 1.989-1.293.115-.474-.315 0-.26.218.113.26.253.51.417.74.23.472.513.914.846 1.318.677.759 1.445.522 2.085-.127.32-.322.859-1.172 1.33-1.215.472-.042.798.686.949.972.417.789.84 1.924 1.892 1.96 1.052.037 1.928-.82 2.696-1.426.296-.237.773-.656 1.172-.607.4.049.756.607.998.844.912.91 1.758 1.408 2.937.637.399-.261 1.052-1.026 1.547-1.056.496-.03 1.155.795 1.415 1.214.55.844 1.898.06 1.348-.79v-.072zM23.324 13.178a18.07 18.07 0 0 0-3.626-.643 81.19 81.19 0 0 0-3.832-.382c-.502-.03-.502.752 0 .783 1.209.085 2.466.218 3.693.364 1.208.077 2.405.28 3.572.606.477.164.683-.606.212-.752l-.019.024zM12.8 11.8a3.465 3.465 0 0 1-.35-.036h.103c-.327-.042-.653-.109-.98-.127a.392.392 0 0 0-.441.391.396.396 0 0 0 .277.377c.053.017.11.022.164.015.116.006.23.018.345.036h-.103c.326.057.655.095.985.115a.38.38 0 0 0 .387-.388.395.395 0 0 0-.387-.388v.006z" fill="#1E5F6C" stroke="#1E5F6C" stroke-width=".3"/><path d="M36.15 46.565c3.13.904 6.419 1.02 9.453-.292a16.465 16.465 0 0 0 6.232-4.94C55.69 36.44 57.42 29.38 54.62 23.564a13.008 13.008 0 0 0-6.27-6.03 12.932 12.932 0 0 0-8.653-.714 16.47 16.47 0 0 0-7.495 4.17c-1.94 1.979-3.155 4.498-4.183 7.041a16.23 16.23 0 0 0-1.438 6.234c.01 1.939.467 3.848 1.336 5.579a14.162 14.162 0 0 0 8.232 6.72c.961.297 1.366-1.215.41-1.506a12.742 12.742 0 0 1-6.877-5.3c-1.777-2.828-1.892-6.367-.859-9.48a24.449 24.449 0 0 1 3.482-7.042 13.7 13.7 0 0 1 5.82-4.25 12.27 12.27 0 0 1 8.057-.606 11.195 11.195 0 0 1 6.172 4.407c3.276 4.807 2.375 11.187-.556 15.928a16.064 16.064 0 0 1-6.008 5.773c-2.896 1.553-6.135 1.499-9.23.607a.778.778 0 0 0-.787.57.787.787 0 0 0 .376.899z" fill="#1E5F6C"/><path d="M36.15 46.565c3.13.904 6.419 1.02 9.453-.292a16.465 16.465 0 0 0 6.232-4.94C55.69 36.44 57.42 29.38 54.62 23.564a13.008 13.008 0 0 0-6.27-6.03 12.932 12.932 0 0 0-8.653-.714 16.47 16.47 0 0 0-7.495 4.17c-1.94 1.979-3.155 4.498-4.183 7.041a16.23 16.23 0 0 0-1.438 6.234c.01 1.939.467 3.848 1.336 5.579a14.162 14.162 0 0 0 8.232 6.72zm0 0c.961.297 1.366-1.215.41-1.506a12.742 12.742 0 0 1-6.877-5.3c-1.777-2.828-1.892-6.367-.859-9.48a24.449 24.449 0 0 1 3.482-7.042 13.7 13.7 0 0 1 5.82-4.25 12.27 12.27 0 0 1 8.057-.606 11.195 11.195 0 0 1 6.172 4.407c3.276 4.807 2.375 11.187-.556 15.928a16.064 16.064 0 0 1-6.008 5.773c-2.896 1.553-6.135 1.499-9.23.607a.779.779 0 0 0-.787.57.787.787 0 0 0 .376.899z" stroke="#1E5F6C" stroke-width=".3"/><path d="M33.617 45.193c-3.916 6.228-7.585 12.656-11.804 18.684-.296.419-.568.813-.822 1.116-.254.304-1.21 1.682-1.747 1.403-.725-.383.604-2.398.925-2.926 1.85-3.236 3.765-6.434 5.681-9.633 2.061-3.454 4.122-6.92 6.25-10.32.538-.856-.81-1.639-1.342-.789A567.578 567.578 0 0 0 18.803 62.76c-.671 1.171-1.656 2.658-1.21 4.055a1.98 1.98 0 0 0 1.115 1.06 1.962 1.962 0 0 0 1.533-.065 6.332 6.332 0 0 0 1.886-1.772 39.219 39.219 0 0 0 2.46-3.509 336.618 336.618 0 0 0 3.433-5.372c2.333-3.721 4.606-7.472 6.939-11.187.538-.856-.81-1.64-1.342-.79v.013zM54.076 35.638c-2.641-1.341-5.125-3.035-7.621-4.65-3.434-2.179-6.849-4.382-10.276-6.58-1.209-.783-2.417-1.578-3.68-2.343-.853-.528-1.639.826-.786 1.354 6.092 3.776 12.046 7.782 18.132 11.533 1.125.692 2.249 1.42 3.428 2.022.894.449 1.68-.899.785-1.354l.018.018zM52.222 38.43c-7.586-3.897-14.126-9.56-21.718-13.439-.888-.455-1.68.893-.785 1.348 7.591 3.885 14.131 9.548 21.717 13.44.888.454 1.68-.893.786-1.349zM49.127 42.856c-.134-1.172-.605-2.732-1.814-3.157a3.064 3.064 0 0 0-1.535.043c-.26.054-1.106.291-1.3.176-.193-.116-.35-.905-.429-1.142a3.613 3.613 0 0 0-.64-1.402c-.69-.783-1.85-.734-2.787-.552a8.388 8.388 0 0 1-1.686.291c-.218 0-.43-.121-.345 0a2.11 2.11 0 0 1-.06-.868c0-1.038-.121-2.355-1.076-2.998-.955-.644-2.091-.043-3.022.279-.103.036-.38.121-.38.133 0 .013.604.037.344.207 0 0-.049-.207-.049-.23.002-.231-.02-.461-.066-.687 0-.334 0-.661-.043-.99a1.906 1.906 0 0 0-.936-1.62 1.139 1.139 0 0 0-.798-.103c-.303.085-.4.334-.641.467-.054 0-.447.043-.465.073l.392.23-.078-.139a1.755 1.755 0 0 0-.248-.455 61.663 61.663 0 0 0-1.493-2.665c-.526-.88-1.873-.073-1.348.79.442.716.834 1.462 1.252 2.197.205.504.5.966.87 1.365a1.5 1.5 0 0 0 1.209.164c.236-.018.466-.084.677-.194.102-.06.785-.607.272-.376-.345.164-.194.249-.176.607v.807c-.001.518.104 1.03.309 1.505.501.874 1.45.51 2.194.243.29-.103.997-.485 1.311-.358.315.128.387.79.411 1.08.073.996-.187 2.32.895 2.866 1.082.546 2.297-.043 3.373-.182.272-.03.797-.098 1.015.115.218.212.357.965.484 1.317.368 1.069.876 1.821 2.115 1.736.345 0 .69-.09 1.028-.146.285-.099.586-.148.888-.145.562.133.774 1.214.828 1.687.115.99 1.674 1.002 1.56 0l-.013.03zM50.71 32.33a17.444 17.444 0 0 0-2.937-2.215c-1.076-.71-2.158-1.42-3.27-2.076a.387.387 0 0 0-.532.14.392.392 0 0 0 .139.533c1.076.607 2.127 1.324 3.173 2.016a17.214 17.214 0 0 1 2.877 2.154c.35.359.9-.194.55-.552zM41.927 26.363c-.357-.206-.671-.48-1.034-.686a.387.387 0 0 0-.532.14.392.392 0 0 0 .14.534c.362.206.677.485 1.033.692a.391.391 0 0 0 .506-.16.396.396 0 0 0-.113-.52z" fill="#1E5F6C" stroke="#1E5F6C" stroke-width=".3"/></svg>