<svg width="71" height="67" fill="none" xmlns="http://www.w3.org/2000/svg"><g clip-path="url(#a)"><path d="M31.76 31.451a14.002 14.002 0 0 0 7.796-3.982 15.904 15.904 0 0 0 3.464-6.319c1.759-5.942.604-13.293-4.026-17.658a12.933 12.933 0 0 0-16.773-.77 16.58 16.58 0 0 0-5.44 7.526c-.972 2.896-.858 6.022-.604 9.02.345 3.643 1.68 6.981 4.503 9.391 2.956 2.52 7.29 3.43 11.05 2.792.984-.163.567-1.675-.412-1.505a12.518 12.518 0 0 1-9.139-2.106 11.239 11.239 0 0 1-4.23-7.163 23.505 23.505 0 0 1-.104-8.377 14.421 14.421 0 0 1 3.917-7.078A11.447 11.447 0 0 1 36.71 3.62c4.697 3.34 6.262 9.865 5.241 15.316a15.316 15.316 0 0 1-3.022 6.902c-1.922 2.343-4.648 3.557-7.567 4.109-.998.182-.58 1.694.398 1.505z" fill="#1E5F6C" stroke="#1E5F6C" stroke-width=".3"/><path d="M28.829 31.421c-.707 7.284-1.094 14.66-2.176 21.92-.073.485-.145.97-.26 1.45-.115.48-.284 1.858-.84 1.985-.877.206-.605-2.477-.556-3.035.2-3.727.483-7.454.761-11.175.296-4.019.605-8.037.961-12.05.097-1.001-1.463-.995-1.553 0-.733 7.742-1.31 15.5-1.729 23.273-.072 1.36-.29 3.193.834 4.195a1.985 1.985 0 0 0 2.829-.474c.397-.73.671-1.522.81-2.343.276-1.404.478-2.823.604-4.249.248-2.112.46-4.249.665-6.349.417-4.377.768-8.753 1.21-13.124.096-1.001-1.464-.995-1.554 0l-.006-.024zM42.767 13.575c-2.956 0-5.948-.425-8.891-.716-4.038-.395-8.075-.82-12.119-1.214-1.445-.152-2.883-.304-4.334-.431-.997-.085-.991 1.475 0 1.566 7.139.607 14.247 1.517 21.379 2.13 1.318.11 2.647.25 3.965.255a.778.778 0 0 0 .78-.783.784.784 0 0 0-.78-.783v-.024zM42.367 16.926c-8.516-.049-16.888-2.161-25.386-2.198a.779.779 0 0 0-.711.78.785.785 0 0 0 .711.78c8.522.043 16.894 2.15 25.416 2.204a.778.778 0 0 0 .78-.783.785.785 0 0 0-.78-.783h-.03zM41.637 22.225c-.605-.899-1.53-1.9-2.672-1.955a2.134 2.134 0 0 0-1.384.492c-.254.194-.502.395-.768.607-.133.097-.465.413-.64.413-.176 0-.829-.795-1.058-1.026a2.968 2.968 0 0 0-1.21-.856c-1.033-.297-2.036.4-2.798 1.014-.388.347-.814.65-1.269.904-.085.037-.338 0-.205.073-.164-.06-.333-.534-.417-.692-.478-.917-1.07-1.949-2.164-2.21a1.806 1.806 0 0 0-1.42.34 5.355 5.355 0 0 0-1.451 1.384c0 .049-.17.134-.176.17-.006.037.405.116.405-.036s-.405-.607-.465-.704a6.833 6.833 0 0 0-.852-1.372 1.62 1.62 0 0 0-1.505-.522c-.605.152-.532.57-.822.977.048-.073-.145.116-.127.08l-.188.12c-.169.098-.054.104.345 0 0 0-.78-.528-.846-.57-.738-.492-1.457-1.014-2.212-1.481-.853-.528-1.639.825-.786 1.354.64.394 1.257.831 1.88 1.25.439.371.924.684 1.444.929.774.242 1.813-.547 1.989-1.293.114-.474-.315 0-.26.218.113.26.253.51.417.74.23.472.513.914.846 1.318.677.759 1.445.522 2.085-.127.32-.322.859-1.172 1.33-1.215.471-.042.798.686.949.972.417.789.84 1.924 1.892 1.96 1.052.037 1.928-.82 2.696-1.426.296-.237.773-.656 1.172-.607.4.049.756.607.997.844.913.91 1.76 1.408 2.938.637.399-.261 1.052-1.026 1.547-1.056.496-.03 1.155.795 1.415 1.214.55.844 1.898.06 1.348-.79v-.072zM38.324 12.178a18.07 18.07 0 0 0-3.626-.643 81.057 81.057 0 0 0-3.832-.382c-.502-.03-.502.752 0 .783a78.18 78.18 0 0 1 3.693.364c1.208.077 2.406.28 3.572.606.477.164.683-.606.212-.752l-.019.024zM27.8 10.8a3.436 3.436 0 0 1-.35-.036h.103c-.327-.042-.653-.109-.98-.127a.39.39 0 0 0-.406.23.395.395 0 0 0 .406.553c.116.006.23.018.345.036h-.103c.326.057.655.095.985.115a.377.377 0 0 0 .36-.238.395.395 0 0 0-.359-.538v.006z" fill="#1E5F6C" stroke="#1E5F6C" stroke-width=".3"/><path d="M51.15 45.565c3.13.904 6.419 1.02 9.453-.292a16.463 16.463 0 0 0 6.232-4.941C70.69 35.44 72.42 28.38 69.62 22.565a13.007 13.007 0 0 0-6.27-6.03 12.932 12.932 0 0 0-8.653-.714 16.47 16.47 0 0 0-7.495 4.17c-1.94 1.979-3.155 4.498-4.183 7.041a16.23 16.23 0 0 0-1.438 6.234c.01 1.939.467 3.848 1.336 5.579a14.163 14.163 0 0 0 8.232 6.72c.961.297 1.366-1.215.41-1.506a12.742 12.742 0 0 1-6.877-5.3c-1.777-2.828-1.892-6.367-.859-9.48a24.447 24.447 0 0 1 3.482-7.042 13.699 13.699 0 0 1 5.82-4.25 12.27 12.27 0 0 1 8.057-.606 11.195 11.195 0 0 1 6.172 4.407c3.276 4.807 2.375 11.187-.556 15.928a16.064 16.064 0 0 1-6.009 5.773c-2.895 1.553-6.134 1.499-9.23.607a.777.777 0 0 0-.786.57.787.787 0 0 0 .376.899z" fill="#1E5F6C"/><path d="M51.15 45.565c3.13.904 6.419 1.02 9.453-.292a16.463 16.463 0 0 0 6.232-4.941C70.69 35.44 72.42 28.38 69.62 22.565a13.007 13.007 0 0 0-6.27-6.03 12.932 12.932 0 0 0-8.653-.714 16.47 16.47 0 0 0-7.495 4.17c-1.94 1.979-3.155 4.498-4.183 7.041a16.23 16.23 0 0 0-1.438 6.234c.01 1.939.467 3.848 1.336 5.579a14.163 14.163 0 0 0 8.232 6.72zm0 0c.961.297 1.366-1.215.41-1.506a12.742 12.742 0 0 1-6.877-5.3c-1.777-2.828-1.892-6.367-.859-9.48a24.447 24.447 0 0 1 3.482-7.042 13.699 13.699 0 0 1 5.82-4.25 12.27 12.27 0 0 1 8.057-.606 11.195 11.195 0 0 1 6.172 4.407c3.276 4.807 2.375 11.187-.556 15.928a16.064 16.064 0 0 1-6.009 5.773c-2.895 1.553-6.134 1.499-9.23.607a.777.777 0 0 0-.786.57.787.787 0 0 0 .376.899z" stroke="#1E5F6C" stroke-width=".3"/><path d="M48.617 44.193c-3.916 6.228-7.585 12.656-11.804 18.684-.296.418-.568.813-.822 1.116-.254.304-1.21 1.682-1.747 1.403-.725-.383.604-2.398.925-2.926 1.85-3.236 3.765-6.434 5.681-9.633 2.061-3.454 4.122-6.92 6.25-10.32.538-.856-.81-1.639-1.342-.789A567.637 567.637 0 0 0 33.803 61.76c-.671 1.171-1.656 2.658-1.21 4.054a1.979 1.979 0 0 0 1.115 1.06 1.962 1.962 0 0 0 1.533-.064 6.332 6.332 0 0 0 1.886-1.772 39.235 39.235 0 0 0 2.46-3.509 335.72 335.72 0 0 0 3.433-5.372c2.333-3.721 4.606-7.472 6.939-11.187.538-.856-.81-1.64-1.342-.79v.013zM69.076 34.638c-2.641-1.341-5.125-3.035-7.621-4.65-3.434-2.179-6.849-4.382-10.276-6.58-1.209-.783-2.417-1.578-3.68-2.343-.853-.528-1.639.826-.786 1.354 6.092 3.776 12.046 7.782 18.132 11.533 1.125.692 2.249 1.42 3.427 2.022.895.449 1.68-.899.786-1.354l.018.018zM67.222 37.43c-7.586-3.897-14.126-9.56-21.717-13.439-.889-.455-1.68.893-.786 1.348 7.591 3.885 14.131 9.548 21.717 13.44.888.454 1.68-.893.786-1.349zM64.126 41.856c-.133-1.172-.604-2.732-1.813-3.157a3.064 3.064 0 0 0-1.535.043c-.26.054-1.106.291-1.3.176-.193-.116-.35-.905-.429-1.142a3.613 3.613 0 0 0-.64-1.402c-.69-.783-1.85-.734-2.787-.552a8.388 8.388 0 0 1-1.686.291c-.218 0-.43-.121-.345 0a2.11 2.11 0 0 1-.06-.868c0-1.038-.121-2.355-1.076-2.998-.955-.644-2.091-.043-3.022.279-.103.036-.38.121-.38.133 0 .013.604.037.344.207 0 0-.049-.207-.049-.23.002-.231-.02-.461-.066-.687 0-.334 0-.661-.043-.99a1.906 1.906 0 0 0-.936-1.62 1.139 1.139 0 0 0-.798-.103c-.303.085-.4.334-.641.467-.054 0-.447.043-.465.073l.392.23-.078-.139a1.755 1.755 0 0 0-.248-.455 61.663 61.663 0 0 0-1.493-2.665c-.526-.88-1.873-.073-1.348.79.442.716.834 1.462 1.252 2.197.205.504.5.966.87 1.365a1.5 1.5 0 0 0 1.209.164c.236-.019.466-.085.677-.194.102-.06.785-.607.272-.376-.345.164-.194.249-.176.607v.807c-.001.518.104 1.03.309 1.505.501.874 1.45.51 2.194.243.29-.103.997-.485 1.311-.358.315.128.387.79.411 1.08.073.996-.187 2.32.895 2.866 1.082.546 2.297-.043 3.373-.182.272-.03.797-.098 1.015.115.218.212.357.965.484 1.317.368 1.069.876 1.821 2.115 1.736.345 0 .69-.09 1.028-.146.285-.099.586-.148.888-.145.562.133.774 1.214.828 1.687.115.99 1.674 1.002 1.56 0l-.013.03zM65.71 31.33a17.444 17.444 0 0 0-2.937-2.215c-1.076-.71-2.158-1.421-3.27-2.076a.387.387 0 0 0-.532.14.392.392 0 0 0 .139.533c1.076.607 2.127 1.324 3.173 2.015a17.225 17.225 0 0 1 2.877 2.155c.35.359.9-.194.55-.552zM56.927 25.363c-.357-.206-.671-.48-1.034-.686a.387.387 0 0 0-.532.14.392.392 0 0 0 .14.534c.362.206.677.485 1.033.692a.391.391 0 0 0 .506-.16.396.396 0 0 0-.113-.52z" fill="#1E5F6C" stroke="#1E5F6C" stroke-width=".3"/></g><defs><clipPath id="a"><path fill="#fff" d="M0 0h71v67H0z"/></clipPath></defs></svg>