<svg width="71" height="67" viewBox="0 0 71 67" fill="none" xmlns="http://www.w3.org/2000/svg">
<g clip-path="url(#clip0_18_34)">
<path d="M31.7594 31.4514C34.7147 30.993 37.4467 29.5977 39.5565 27.4694C41.1782 25.6576 42.3632 23.4956 43.0199 21.1504C44.7788 15.2077 43.6243 7.85675 38.9944 3.49231C36.7435 1.38773 33.8212 0.154834 30.7489 0.0136292C27.6767 -0.127575 24.6545 0.832098 22.2216 2.7214C19.7305 4.65793 17.843 7.26965 16.7817 10.2484C15.8086 13.1438 15.9234 16.27 16.1773 19.2686C16.5218 22.9107 17.8576 26.2493 20.6803 28.6592C23.6359 31.1783 27.9697 32.0888 31.7292 31.4514C32.7144 31.2875 32.2974 29.7761 31.3182 29.946C28.1153 30.455 24.8406 29.7003 22.1792 27.8397C19.9069 26.085 18.3923 23.5209 17.9483 20.6769C17.4127 17.9136 17.3779 15.0759 17.8455 12.3001C18.4503 9.61326 19.8096 7.15693 21.7622 5.2223C23.6459 3.19549 26.1935 1.91795 28.9386 1.62365C31.6836 1.32936 34.4424 2.03799 36.7097 3.61978C41.4061 6.95836 42.9715 13.4838 41.95 18.9348C41.5323 21.4527 40.4934 23.8255 38.9279 25.8365C37.0058 28.1796 34.2799 29.3936 31.3605 29.946C30.3632 30.1281 30.7802 31.6396 31.7594 31.4514Z" fill="#1E5F6C" stroke="#1E5F6C" stroke-width="0.3"/>
<path d="M28.8287 31.421C28.1215 38.7052 27.7347 46.0804 26.6527 53.3403C26.5802 53.8259 26.5077 54.3116 26.3928 54.7911C26.278 55.2706 26.1088 56.6486 25.5527 56.776C24.6763 56.9824 24.9483 54.2994 24.9966 53.741C25.1961 50.0139 25.4802 46.2868 25.7582 42.5658C26.0544 38.5474 26.3626 34.5289 26.7192 30.5166C26.8159 29.515 25.2565 29.5211 25.1658 30.5166C24.4325 38.258 23.8563 46.0157 23.4372 53.7895C23.3647 55.1492 23.1471 56.9824 24.2713 57.984C24.4861 58.1447 24.731 58.2601 24.9913 58.3234C25.2516 58.3867 25.5219 58.3965 25.7861 58.3523C26.0502 58.308 26.3028 58.2107 26.5286 58.0661C26.7544 57.9214 26.9487 57.7325 27.1 57.5105C27.4974 56.7799 27.7711 55.9881 27.9099 55.1674C28.1863 53.7628 28.3881 52.3445 28.5144 50.9183C28.7622 48.8059 28.9737 46.6692 29.1792 44.569C29.5963 40.1924 29.9469 35.8158 30.3881 31.4453C30.4848 30.4437 28.9254 30.4498 28.8347 31.4453L28.8287 31.421Z" fill="#1E5F6C" stroke="#1E5F6C" stroke-width="0.3"/>
<path d="M42.7669 13.5749C39.8113 13.5749 36.8194 13.15 33.8758 12.8587C29.8382 12.4641 25.8007 12.0392 21.757 11.6446C20.3125 11.4929 18.8739 11.3411 17.4233 11.2137C16.426 11.1287 16.432 12.6887 17.4233 12.7798C24.5616 13.3868 31.6696 14.2973 38.8019 14.9104C40.1195 15.0196 41.4493 15.1593 42.7669 15.1653C42.9737 15.1653 43.172 15.0828 43.3182 14.936C43.4645 14.7891 43.5466 14.59 43.5466 14.3823C43.5466 14.1746 43.4645 13.9754 43.3182 13.8286C43.172 13.6817 42.9737 13.5992 42.7669 13.5992V13.5749Z" fill="#1E5F6C" stroke="#1E5F6C" stroke-width="0.3"/>
<path d="M42.367 16.9258C33.8506 16.8772 25.4793 14.7648 16.981 14.7284C16.7869 14.7456 16.6062 14.8352 16.4745 14.9796C16.3429 15.124 16.2699 15.3126 16.2699 15.5084C16.2699 15.7041 16.3429 15.8928 16.4745 16.0372C16.6062 16.1816 16.7869 16.2712 16.981 16.2884C25.5034 16.3309 33.8748 18.4372 42.3972 18.4919C42.604 18.4919 42.8023 18.4094 42.9485 18.2625C43.0947 18.1157 43.1769 17.9165 43.1769 17.7088C43.1769 17.5011 43.0947 17.302 42.9485 17.1551C42.8023 17.0083 42.604 16.9258 42.3972 16.9258H42.367Z" fill="#1E5F6C" stroke="#1E5F6C" stroke-width="0.3"/>
<path d="M41.6366 22.2249C41.0321 21.3265 40.1074 20.3249 38.965 20.2703C38.4603 20.2651 37.9701 20.4393 37.5809 20.762C37.327 20.9562 37.0792 21.1565 36.8132 21.369C36.6803 21.4661 36.3478 21.7818 36.1725 21.7818C35.9973 21.7818 35.3445 20.9866 35.1148 20.7559C34.7902 20.3727 34.3744 20.0783 33.9059 19.9C32.8724 19.6026 31.869 20.3006 31.1074 20.9137C30.7186 21.2609 30.2929 21.5642 29.8381 21.8182C29.7535 21.8546 29.4997 21.8182 29.6326 21.891C29.4694 21.8303 29.3002 21.3569 29.2156 21.199C28.7381 20.2824 28.1458 19.2505 27.0517 18.9895C26.8045 18.9442 26.5505 18.951 26.306 19.0095C26.0614 19.068 25.8317 19.177 25.6313 19.3294C25.0653 19.6949 24.5732 20.1645 24.1807 20.7134C24.1807 20.762 24.0115 20.847 24.0054 20.8834C23.9994 20.9198 24.4104 20.9987 24.4104 20.847C24.4104 20.6952 24.0054 20.2399 23.945 20.1428C23.716 19.6533 23.4299 19.1927 23.0927 18.771C22.9079 18.5612 22.6722 18.4029 22.4085 18.3114C22.1448 18.22 21.8621 18.1984 21.5877 18.2489C20.9833 18.4007 21.0558 18.8195 20.7657 19.2262C20.8141 19.1534 20.6206 19.3416 20.6388 19.3051L20.4514 19.4265C20.2822 19.5237 20.397 19.5297 20.7959 19.4265C20.7959 19.4265 20.0162 18.8984 19.9497 18.8559C19.2123 18.3643 18.4931 17.8422 17.7375 17.3748C16.8853 16.8467 16.0995 18.2004 16.9518 18.7285C17.5925 19.123 18.209 19.5601 18.8315 19.9789C19.2708 20.3503 19.7564 20.6625 20.2761 20.9077C21.0498 21.1505 22.0894 20.3613 22.2647 19.6147C22.3795 19.1412 21.9504 19.6147 22.0048 19.8332C22.118 20.0939 22.2577 20.3421 22.4218 20.5738C22.6514 21.0447 22.9354 21.4868 23.268 21.891C23.945 22.6498 24.7126 22.4131 25.3533 21.7636C25.6736 21.4418 26.2116 20.592 26.683 20.5495C27.1545 20.507 27.4809 21.2354 27.632 21.5207C28.049 22.3099 28.4721 23.445 29.5238 23.4814C30.5755 23.5178 31.452 22.6619 32.2196 22.0549C32.5158 21.8182 32.9933 21.3993 33.3922 21.4479C33.7911 21.4965 34.1477 22.0549 34.3895 22.2917C35.3022 23.2022 36.1484 23.6999 37.327 22.929C37.7259 22.668 38.3787 21.9032 38.8743 21.8728C39.37 21.8425 40.0288 22.668 40.2887 23.0868C40.8387 23.9306 42.1866 23.1475 41.6366 22.2977V22.2249Z" fill="#1E5F6C" stroke="#1E5F6C" stroke-width="0.3"/>
<path d="M38.3244 12.1783C37.1404 11.8409 35.9253 11.6254 34.6978 11.5351C33.4225 11.3834 32.1471 11.2438 30.8658 11.1528C30.3641 11.1225 30.3641 11.9052 30.8658 11.9356C32.0746 12.0205 33.3318 12.154 34.5588 12.2997C35.7673 12.3767 36.9645 12.5801 38.131 12.9065C38.6085 13.0703 38.814 12.2997 38.3425 12.154L38.3244 12.1783Z" fill="#1E5F6C" stroke="#1E5F6C" stroke-width="0.3"/>
<path d="M27.8004 10.8007C27.683 10.7946 27.566 10.7824 27.4498 10.7643H27.5526C27.2262 10.7218 26.8998 10.6551 26.5734 10.6369C26.5181 10.6299 26.462 10.6349 26.4088 10.6514C26.3556 10.6679 26.3065 10.6956 26.2647 10.7326C26.2229 10.7696 26.1895 10.8151 26.1666 10.8661C26.1437 10.917 26.1319 10.9723 26.1319 11.0282C26.1319 11.0842 26.1437 11.1394 26.1666 11.1904C26.1895 11.2414 26.2229 11.2869 26.2647 11.3239C26.3065 11.3609 26.3556 11.3886 26.4088 11.4051C26.462 11.4216 26.5181 11.4266 26.5734 11.4196C26.6888 11.4258 26.8038 11.4379 26.9179 11.456H26.8152C27.1412 11.5127 27.4701 11.5512 27.8004 11.5713C27.8514 11.5722 27.9021 11.5627 27.9494 11.5434C27.9967 11.5242 28.0396 11.4956 28.0757 11.4594C28.1118 11.4232 28.1403 11.38 28.1594 11.3326C28.1786 11.2851 28.188 11.2342 28.1872 11.183C28.1856 11.0805 28.1444 10.9826 28.0722 10.9101C28 10.8376 27.9025 10.7962 27.8004 10.7946V10.8007Z" fill="#1E5F6C" stroke="#1E5F6C" stroke-width="0.3"/>
<path d="M51.1499 45.5645C54.2809 46.4689 57.5689 46.5843 60.6032 45.2731C63.0509 44.1617 65.1904 42.4653 66.8348 40.332C70.6911 35.4395 72.4197 28.3799 69.6212 22.5647C68.2821 19.8914 66.0681 17.7621 63.3508 16.5342C60.6335 15.3062 57.5783 15.0543 54.6979 15.8207C51.8774 16.5232 49.2918 17.9619 47.203 19.9909C45.2628 21.9698 44.0479 24.4889 43.0204 27.0323C42.1322 28.9934 41.6431 31.1129 41.5818 33.2664C41.5915 35.2046 42.0487 37.1141 42.9176 38.8448C44.6902 42.0721 47.6419 44.4815 51.1499 45.5645C52.111 45.8619 52.5159 44.3505 51.5609 44.0591C48.7216 43.1549 46.2877 41.2798 44.6826 38.7599C42.9055 35.9312 42.7907 32.3923 43.8243 29.2783C44.5983 26.7576 45.774 24.3797 47.3058 22.2369C48.8342 20.3248 50.8438 18.8578 53.1264 17.9878C55.6677 16.8815 58.5062 16.6677 61.1834 17.3808C63.6878 18.0852 65.8698 19.6434 67.3546 21.7877C70.6306 26.5953 69.73 32.975 66.7985 37.7158C65.3361 40.1371 63.2638 42.1283 60.7905 43.4885C57.8953 45.0425 54.6556 44.9878 51.5609 44.0955C51.3849 44.0872 51.2112 44.1391 51.0682 44.2427C50.9253 44.3463 50.8215 44.4955 50.7738 44.6659C50.7262 44.8363 50.7374 45.0179 50.8057 45.1811C50.874 45.3443 50.9953 45.4795 51.1499 45.5645Z" fill="#1E5F6C"/>
<path d="M51.1499 45.5645C54.2809 46.4689 57.5689 46.5843 60.6032 45.2731C63.0509 44.1617 65.1904 42.4653 66.8348 40.332C70.6911 35.4395 72.4197 28.3799 69.6212 22.5647C68.2821 19.8914 66.0681 17.7621 63.3508 16.5342C60.6335 15.3062 57.5783 15.0543 54.6979 15.8207C51.8774 16.5232 49.2918 17.9619 47.203 19.9909C45.2628 21.9698 44.0479 24.4889 43.0204 27.0323C42.1322 28.9934 41.6431 31.1129 41.5818 33.2664C41.5915 35.2046 42.0487 37.1141 42.9176 38.8448C44.6902 42.0721 47.6419 44.4815 51.1499 45.5645ZM51.1499 45.5645C52.111 45.8619 52.5159 44.3505 51.5609 44.0591C48.7216 43.1549 46.2877 41.2798 44.6826 38.7599C42.9055 35.9312 42.7907 32.3923 43.8243 29.2783C44.5983 26.7576 45.774 24.3797 47.3058 22.2369C48.8342 20.3248 50.8438 18.8578 53.1264 17.9878C55.6677 16.8815 58.5062 16.6677 61.1834 17.3808C63.6878 18.0852 65.8698 19.6434 67.3546 21.7877C70.6306 26.5953 69.73 32.975 66.7985 37.7158C65.3361 40.1371 63.2638 42.1283 60.7905 43.4885C57.8953 45.0425 54.6556 44.9878 51.5609 44.0955C51.3849 44.0872 51.2112 44.1391 51.0682 44.2427C50.9253 44.3463 50.8215 44.4955 50.7738 44.6659C50.7262 44.8363 50.7374 45.0179 50.8057 45.1811C50.874 45.3443 50.9953 45.4795 51.1499 45.5645Z" stroke="#1E5F6C" stroke-width="0.3"/>
<path d="M48.6172 44.1927C44.7005 50.4206 41.0316 56.8489 36.8127 62.8766C36.5166 63.2954 36.2446 63.69 35.9907 63.9935C35.7369 64.297 34.7819 65.6749 34.2439 65.3957C33.5186 65.0133 34.8483 62.998 35.1687 62.4699C37.0182 59.2345 38.9343 56.0355 40.8503 52.8366C42.9114 49.3826 44.9725 45.9166 47.1001 42.5173C47.638 41.6614 46.2901 40.8783 45.7582 41.7282C41.6401 48.3163 37.6549 54.9935 33.8027 61.7597C33.1318 62.9312 32.1466 64.4184 32.5938 65.8145C32.6995 66.057 32.8526 66.2758 33.044 66.4578C33.2353 66.6399 33.4611 66.7815 33.708 66.8743C33.9548 66.9671 34.2177 67.0093 34.4811 66.9982C34.7445 66.9872 35.0029 66.9232 35.2412 66.81C35.9846 66.3558 36.6266 65.7524 37.127 65.0376C38.0102 63.914 38.8314 62.7427 39.5871 61.529C40.7536 59.7505 41.8899 57.9537 43.0202 56.1569C45.3533 52.4359 47.6259 48.6846 49.959 44.9696C50.497 44.1137 49.1491 43.3307 48.6172 44.1805V44.1927Z" fill="#1E5F6C" stroke="#1E5F6C" stroke-width="0.3"/>
<path d="M69.0764 34.6383C66.435 33.2968 63.9508 31.6032 61.4545 29.9886C58.0214 27.8094 54.6064 25.6059 51.1793 23.4085C49.9704 22.6255 48.7616 21.8303 47.4983 21.0654C46.6461 20.5373 45.8603 21.891 46.7126 22.4191C52.8052 26.1947 58.7588 30.201 64.8454 33.9524C65.9696 34.6444 67.0938 35.3728 68.2725 35.9737C69.167 36.4229 69.9528 35.0754 69.0582 34.6201L69.0764 34.6383Z" fill="#1E5F6C" stroke="#1E5F6C" stroke-width="0.3"/>
<path d="M67.2216 37.4305C59.636 33.5334 53.0961 27.87 45.5045 23.9912C44.616 23.5359 43.8242 24.8835 44.7188 25.3387C52.3104 29.2236 58.8503 34.8871 66.4358 38.7781C67.3243 39.2333 68.1161 37.8857 67.2216 37.4305Z" fill="#1E5F6C" stroke="#1E5F6C" stroke-width="0.3"/>
<path d="M64.1265 41.8557C63.9935 40.6842 63.5221 39.1241 62.3132 38.6992C61.8061 38.5828 61.2779 38.5974 60.778 38.7417C60.518 38.7963 59.6719 39.0331 59.4784 38.9177C59.285 38.8024 59.1279 38.0133 59.0493 37.7765C58.939 37.2682 58.7204 36.7898 58.4086 36.3743C57.7196 35.5913 56.5591 35.6399 55.6222 35.822C55.0714 35.9763 54.5064 36.074 53.9358 36.1133C53.7182 36.1133 53.5067 35.9919 53.5913 36.1133C53.5111 35.8314 53.4905 35.5357 53.5309 35.2453C53.5309 34.2073 53.41 32.8901 52.455 32.2466C51.5 31.6032 50.3637 32.2041 49.4329 32.5259C49.3301 32.5623 49.0521 32.6473 49.0521 32.6594C49.0521 32.6716 49.6565 32.6958 49.3966 32.8658C49.3966 32.8658 49.3482 32.6594 49.3482 32.6351C49.3501 32.4048 49.3278 32.1749 49.2818 31.9492C49.2818 31.6153 49.2818 31.2876 49.2394 30.9598C49.2361 30.6313 49.148 30.3094 48.9838 30.0253C48.8196 29.7413 48.5849 29.5048 48.3026 29.339C48.0579 29.2086 47.7744 29.172 47.5047 29.2358C47.2025 29.3208 47.1058 29.5697 46.864 29.7032C46.8097 29.7032 46.4168 29.7457 46.3986 29.7761L46.7915 30.0068L46.7129 29.8671C46.6533 29.7039 46.5697 29.5505 46.4651 29.4119C45.9937 28.5256 45.498 27.6273 44.9722 26.7471C44.4463 25.8669 43.0985 26.6742 43.6243 27.5362C44.0656 28.2525 44.4584 28.9991 44.8755 29.7336C45.0814 30.2377 45.3763 30.7004 45.7459 31.0994C45.9248 31.2099 46.1248 31.2816 46.333 31.3098C46.5412 31.3381 46.753 31.3222 46.9547 31.2633C47.191 31.2445 47.4212 31.1785 47.6317 31.069C47.7344 31.0083 48.4174 30.462 47.9037 30.6927C47.5591 30.8566 47.7102 30.9416 47.7284 31.2997C47.7284 31.5729 47.7284 31.8399 47.7284 32.107C47.7268 32.6248 47.8317 33.1373 48.0366 33.6124C48.5383 34.4865 49.4873 34.1223 50.2307 33.8552C50.5208 33.752 51.228 33.3696 51.5423 33.4971C51.8566 33.6246 51.9291 34.2862 51.9533 34.5776C52.0259 35.5731 51.7659 36.8964 52.8479 37.4427C53.9298 37.989 55.1447 37.4002 56.2206 37.2606C56.4926 37.2302 57.0184 37.1635 57.236 37.3759C57.4536 37.5884 57.5926 38.3411 57.7196 38.6931C58.0883 39.7615 58.596 40.5142 59.835 40.4292C60.1796 40.4292 60.5241 40.3382 60.8626 40.2835C61.1482 40.1841 61.4488 40.1349 61.7511 40.1378C62.3132 40.2714 62.5247 41.3519 62.5791 41.8253C62.694 42.8148 64.2534 42.8269 64.1386 41.8253L64.1265 41.8557Z" fill="#1E5F6C" stroke="#1E5F6C" stroke-width="0.3"/>
<path d="M65.7102 31.3301C64.8114 30.4897 63.8268 29.7471 62.7727 29.1145C61.6968 28.4043 60.6149 27.694 59.5027 27.0385C59.4138 26.9861 59.3077 26.9715 59.208 26.9976C59.1082 27.0238 59.0229 27.0887 58.9708 27.1781C58.9187 27.2674 58.9041 27.3739 58.9302 27.4741C58.9562 27.5743 59.0209 27.6599 59.1098 27.7123C60.1857 28.3193 61.2374 29.0356 62.2831 29.7275C63.3143 30.3432 64.2785 31.0654 65.1602 31.8824C65.5107 32.2406 66.0608 31.6882 65.7102 31.3301Z" fill="#1E5F6C" stroke="#1E5F6C" stroke-width="0.3"/>
<path d="M56.9269 25.3628C56.5703 25.1565 56.256 24.8835 55.8934 24.6772C55.8044 24.6248 55.6984 24.6102 55.5986 24.6363C55.4989 24.6625 55.4136 24.7274 55.3615 24.8167C55.3094 24.906 55.2948 25.0125 55.3208 25.1126C55.3469 25.2128 55.4115 25.2984 55.5005 25.3507C55.8632 25.557 56.1775 25.8361 56.5341 26.0425C56.623 26.0843 56.7243 26.0911 56.8181 26.0616C56.9118 26.0321 56.9911 25.9685 57.0404 25.8832C57.0897 25.7979 57.1054 25.6972 57.0844 25.6009C57.0634 25.5046 57.0072 25.4196 56.9269 25.3628Z" fill="#1E5F6C" stroke="#1E5F6C" stroke-width="0.3"/>
</g>
<defs>
<clipPath id="clip0_18_34">
<rect width="71" height="67" fill="white"/>
</clipPath>
</defs>
</svg>
