<svg width="36" height="46" fill="none" xmlns="http://www.w3.org/2000/svg"><path fill-rule="evenodd" clip-rule="evenodd" d="M10.29 14.097c-.448 4.56-.62 10.478 4.096 13.045 3.7 2.034 9.84 1.261 11.588-2.97a21.324 21.324 0 0 0 1.016-7.687c.114-2.8-.132-5.602-.731-8.34-1.078-4.433-4.86-7.972-9.657-6.976a8.008 8.008 0 0 0-5.449 4.068 16.074 16.074 0 0 0-.976 8.543c0 .132.044.238.113.317zm4.706-11.341c-4.049 2.054-4.203 6.631-3.937 10.597.13.056.234.167.267.333a51.956 51.956 0 0 1 14.444.073.572.572 0 0 1 .077.015 25.716 25.716 0 0 0-.87-6.137 7.182 7.182 0 0 0-6.9-5.536 7.173 7.173 0 0 0-3.081.655zM11.1 17.266c.016-.876.075-1.738.147-2.553a50.195 50.195 0 0 1 14.237.022c.15 0 .28-.047.383-.122.032.831.037 1.663.016 2.493a145.584 145.584 0 0 0-14.426.009.466.466 0 0 0-.357.151zm-.004.739c.038 3.725.964 7.516 4.875 8.771a9.368 9.368 0 0 0 6.403-.325 5.938 5.938 0 0 0 3.151-4.943 39.56 39.56 0 0 0 .32-3.386c-4.79-.214-9.599-.21-14.388.01a.445.445 0 0 1-.36-.127z" fill="#1E5F6C"/><path d="M3.375 28.654A16.99 16.99 0 0 1 1.13 17.888l.041.04c.122-.65.996-.386.996.265-1.585 9.742 7.055 17.41 16.142 18.305a13.351 13.351 0 0 0 12.198-5.308 19.817 19.817 0 0 0 3.375-13.343c-.04-.65 1.016-.63 1.016 0a21.18 21.18 0 0 1-3.07 13.22 14.455 14.455 0 0 1-8.538 6.102c-1.416.28-2.85.394-4.276.346a.512.512 0 0 1 .007.081v6.102a.5.5 0 0 1-.004.062l5.39.223c.651.02.651 1.017 0 1.017l-11.282-.468c-.65-.04-.65-1.017 0-1.017l4.88.203v-6.122c0-.048.006-.095.019-.14a18.818 18.818 0 0 1-6.281-1.67 16.977 16.977 0 0 1-8.368-7.132z" fill="#1E5F6C"/><path clip-rule="evenodd" d="M10.29 14.097c-.448 4.56-.62 10.478 4.096 13.045 3.7 2.034 9.84 1.261 11.588-2.97a21.324 21.324 0 0 0 1.016-7.687c.114-2.8-.132-5.602-.731-8.34-1.078-4.433-4.86-7.972-9.657-6.976a8.008 8.008 0 0 0-5.449 4.068 16.074 16.074 0 0 0-.976 8.543c0 .132.044.238.113.317zm4.706-11.341c-4.049 2.054-4.203 6.631-3.937 10.597.13.056.234.167.267.333a51.956 51.956 0 0 1 14.444.073.572.572 0 0 1 .077.015 25.716 25.716 0 0 0-.87-6.137 7.182 7.182 0 0 0-6.9-5.536 7.173 7.173 0 0 0-3.081.655zM11.1 17.266c.016-.876.075-1.738.147-2.553a50.195 50.195 0 0 1 14.237.022c.15 0 .28-.047.383-.122.032.831.037 1.663.016 2.493a145.584 145.584 0 0 0-14.426.009.466.466 0 0 0-.357.151zm-.004.739c.038 3.725.964 7.516 4.875 8.771a9.368 9.368 0 0 0 6.403-.325 5.938 5.938 0 0 0 3.151-4.943 39.56 39.56 0 0 0 .32-3.386c-4.79-.214-9.599-.21-14.388.01a.445.445 0 0 1-.36-.127z" stroke="#1E5F6C" stroke-width="1.3" stroke-linejoin="round"/><path d="M3.375 28.654A16.99 16.99 0 0 1 1.13 17.888l.041.04c.122-.65.996-.386.996.265-1.585 9.742 7.055 17.41 16.142 18.305a13.351 13.351 0 0 0 12.198-5.308 19.817 19.817 0 0 0 3.375-13.343c-.04-.65 1.016-.63 1.016 0a21.18 21.18 0 0 1-3.07 13.22 14.455 14.455 0 0 1-8.538 6.102c-1.416.28-2.85.394-4.276.346a.512.512 0 0 1 .007.081v6.102a.5.5 0 0 1-.004.062l5.39.223c.651.02.651 1.017 0 1.017l-11.282-.468c-.65-.04-.65-1.017 0-1.017l4.88.203v-6.122c0-.048.006-.095.019-.14a18.818 18.818 0 0 1-6.281-1.67 16.977 16.977 0 0 1-8.368-7.132z" stroke="#1E5F6C" stroke-width="1.3" stroke-linejoin="round"/></svg>