<svg width="63" height="33" viewBox="0 0 63 33" fill="none" xmlns="http://www.w3.org/2000/svg">
<g clip-path="url(#clip0_18_50)">
<path d="M25.2734 1.99783C25.3209 4.41959 25.3209 6.84135 25.2734 9.26311C25.2734 9.5835 25.34 9.76254 25.6443 9.91331C25.9771 10.0829 26.4907 10.0924 26.8521 10.0358C27.3276 9.96985 27.8316 9.83793 28.2406 9.56465C28.4878 9.40446 28.9348 9.12176 28.9348 8.79195C28.9919 6.20058 28.9919 3.59978 28.9348 1.0084C28.9348 0.725704 28.4117 0.546664 28.2215 0.508971C27.7936 0.414739 27.261 0.471278 26.8521 0.584356C26.1769 0.782243 25.2449 1.16859 25.2639 1.97899L25.2734 1.99783Z" fill="#1E5F6C"/>
<path d="M36.0578 1.26295L35.9532 8.38688C35.9532 8.70726 36.0198 8.88631 36.3241 9.03708C36.657 9.20669 37.1705 9.21612 37.5319 9.15958C38.0074 9.09362 38.5115 8.96169 38.9204 8.68842C39.1581 8.52822 39.6146 8.24553 39.6146 7.91572L39.7192 0.791788C39.7192 0.4714 39.6527 0.292359 39.3484 0.141588C39.0155 -0.0280293 38.5019 -0.0374525 38.1406 0.0190866C37.6651 0.0850489 37.161 0.216974 36.7521 0.490246C36.5143 0.65044 36.0578 0.933136 36.0578 1.26295V1.26295Z" fill="#1E5F6C"/>
<path d="M10.171 23.2659C15.1924 28.9669 22.4677 32.1425 29.9902 32.8587C37.5127 33.5749 45.8531 31.3698 52.5672 27.3367C56.4188 25.0186 59.833 22.088 62.8097 18.7428C63.4564 18.0078 62.2581 17.5931 61.716 17.5743C60.7365 17.5272 59.7094 17.9324 59.0627 18.658C54.5834 23.7088 48.7156 27.7796 42.1536 29.6454C35.5916 31.5112 28.9726 31.0118 22.9241 28.345C19.4339 26.809 16.3431 24.5852 13.8229 21.7394C12.929 20.7311 9.15346 22.1257 10.1615 23.2659H10.171V23.2659Z" fill="#1E5F6C"/>
</g>
<defs>
<clipPath id="clip0_18_50">
<rect width="53" height="33" fill="white" transform="translate(10)"/>
</clipPath>
</defs>
</svg>
