<svg width="63" height="33" fill="none" xmlns="http://www.w3.org/2000/svg"><g clip-path="url(#a)" fill="#1E5F6C"><path d="M25.273 1.998c.048 2.422.048 4.843 0 7.265 0 .32.067.5.371.65.333.17.847.18 1.208.123.476-.066.98-.198 1.389-.471.247-.16.694-.443.694-.773.057-2.591.057-5.192 0-7.784 0-.282-.523-.461-.713-.499-.428-.094-.961-.038-1.37.075-.675.198-1.607.585-1.588 1.395l.01.019zM36.058 1.263l-.105 7.124c0 .32.067.5.371.65.333.17.846.18 1.208.123.475-.066.98-.198 1.388-.472.238-.16.695-.442.695-.772l.104-7.124c0-.32-.066-.5-.37-.65-.333-.17-.847-.18-1.208-.123-.476.066-.98.198-1.389.471-.238.16-.694.443-.694.773zM10.171 23.266c5.021 5.7 12.297 8.877 19.82 9.593 7.522.716 15.862-1.49 22.576-5.522 3.852-2.318 7.266-5.249 10.243-8.594.646-.735-.552-1.15-1.094-1.169-.98-.047-2.007.358-2.653 1.084-4.48 5.05-10.347 9.122-16.91 10.987-6.561 1.866-13.18 1.367-19.229-1.3-3.49-1.536-6.58-3.76-9.101-6.606-.894-1.008-4.67.387-3.662 1.527h.01z"/></g><defs><clipPath id="a"><path fill="#fff" transform="translate(10)" d="M0 0h53v33H0z"/></clipPath></defs></svg>