<svg width="41" height="37" fill="none" xmlns="http://www.w3.org/2000/svg"><path fill-rule="evenodd" clip-rule="evenodd" d="M14.795 12.444a81.872 81.872 0 0 1 6.808-11.278c.194-.26.55-.182.683.015.01.01.018.02.026.03a32.043 32.043 0 0 1 3.79 10.598l.291.029a.388.388 0 0 1 .315.16c4.262.479 8.549.714 12.839.704.102 0 .2.04.272.111a.376.376 0 0 1 .112.247.342.342 0 0 1-.045.46l-9.248 9.028a40.131 40.131 0 0 1 2.24 13.073c0 .1-.04.197-.113.268a.388.388 0 0 1-.545 0l-.01-.01a.37.37 0 0 1-.016-.019.388.388 0 0 1-.086-.027 151.408 151.408 0 0 1-11.675-7.341A107.597 107.597 0 0 1 9.28 35.864a.393.393 0 0 1-.531-.13.375.375 0 0 1-.027-.34.374.374 0 0 1-.072-.288l3.592-12.682a286.553 286.553 0 0 0-11.11-9.207c-.284-.223-.065-.57.224-.622a.39.39 0 0 1 .208-.06h13.198a.417.417 0 0 1 .033-.09zm10.518-.713-2.277-.226a.403.403 0 0 0-.269.115.391.391 0 0 0-.116.263c0 .1.04.197.112.268.072.072.17.111.272.111l2.659.264a.398.398 0 0 0 .283.146c4.272.508 8.57.77 12.874.787l-8.961 8.747c-.172.162-.13.373-.002.508A39.346 39.346 0 0 1 32.1 34.956c-3.898-2.24-7.7-4.64-11.406-7.202a.363.363 0 0 0-.157-.068c-.098-.05-.218-.05-.336.038a110.212 110.212 0 0 1-10.678 7.115l3.408-11.82 3.096 2.583a.385.385 0 0 0 .428.085c.048-.02.09-.049.127-.085a.39.39 0 0 0 0-.53l-3.593-2.984a.428.428 0 0 0-.058-.064 235.383 235.383 0 0 0-10.465-8.73H15.21c.102 0 .2-.04.272-.112a.376.376 0 0 0 .048-.477A81.766 81.766 0 0 1 21.907 2.05a31.496 31.496 0 0 1 3.407 9.68z" fill="#1E5F6C" stroke="#1E5F6C" stroke-width="1.5" stroke-linejoin="round"/></svg>