<svg width="91" height="169" fill="none" xmlns="http://www.w3.org/2000/svg"><path d="M42.065 48.007V24.003H18.086v24.004h23.979z" fill="#1E5F6C"/><path d="M37.47 43.408a7.492 7.492 0 0 0 2.12-6.37 7.493 7.493 0 0 0-6.364 2.121 7.491 7.491 0 0 0-2.12 6.37 7.47 7.47 0 0 0 6.364-2.121zM22.682 43.405c2.343 2.345 5.191 3.297 6.362 2.125 1.17-1.172.22-4.023-2.123-6.368-2.343-2.346-5.191-3.297-6.362-2.125-1.17 1.171-.22 4.023 2.123 6.368zM33.233 32.843c2.343 2.346 5.19 3.297 6.361 2.125 1.17-1.172.22-4.023-2.122-6.368-2.343-2.345-5.191-3.297-6.362-2.125-1.17 1.172-.22 4.023 2.123 6.368zM26.92 32.845a7.474 7.474 0 0 1-6.364 2.122 7.51 7.51 0 0 1 2.12-6.371 7.474 7.474 0 0 1 6.363-2.122 7.487 7.487 0 0 1-2.12 6.37z" fill="#FFFBCC"/><path d="m33.469 36.003-3.391-3.394-3.391 3.394 3.39 3.395 3.392-3.395zM42.063 96.016V72.012H18.085v24.004h23.978z" fill="#508F86"/><path d="M32.547 94.98c1.17 1.171 4.018.22 6.361-2.125 2.343-2.346 3.294-5.197 2.123-6.369-1.17-1.171-4.019-.22-6.362 2.125-2.343 2.346-3.293 5.197-2.122 6.369zM21.241 92.855c2.343 2.345 5.192 3.296 6.362 2.125 1.17-1.172.22-4.023-2.123-6.369-2.343-2.345-5.19-3.296-6.361-2.125-1.17 1.172-.22 4.023 2.122 6.369zM34.67 79.413c2.342 2.345 5.19 3.297 6.361 2.125 1.17-1.172.22-4.023-2.123-6.368-2.343-2.346-5.19-3.297-6.361-2.125-1.17 1.171-.22 4.023 2.123 6.368zM19.119 81.538c1.17 1.172 4.018.22 6.361-2.125s3.294-5.197 2.123-6.368c-1.17-1.172-4.019-.22-6.361 2.125-2.343 2.345-3.294 5.196-2.123 6.368z" fill="#FFFBCC"/><path d="m33.468 84.014-3.391-3.395-3.391 3.395 3.39 3.395 3.392-3.395z" fill="#FFED00"/><path d="M65.3 47.258v-22.51H42.813v22.51H65.3z" fill="#FFFBCC"/><path d="M66.043 36.005c-6.623 0-11.99 5.372-11.99 12.002h11.99V36.005zM66.043 36.005V24.003h-11.99c0 6.63 5.367 12.002 11.99 12.002z" fill="#FFED00"/><path d="M54.054 48.007c0-6.63-5.367-12.002-11.99-12.002v12.002h11.99z" fill="#FFED00"/><path d="M54.054 24.003h-11.99v12.002c6.623 0 11.99-5.372 11.99-12.002z" fill="#FFED00"/><path d="m57.446 36.004-3.39-3.394-3.392 3.394 3.391 3.395 3.391-3.395z" fill="#1E5F6C"/><path d="M41.316 143.275v-22.511H18.83v22.511h22.487z" fill="#FFED00"/><path d="M42.065 132.022c-6.623 0-11.99 5.372-11.99 12.002h11.99v-12.002zM42.065 132.021V120.02h-11.99c0 6.629 5.367 12.001 11.99 12.001z" fill="#8DAEB5"/><path d="M30.075 144.024c0-6.63-5.366-12.002-11.989-12.002v12.002h11.99zM30.075 120.02H18.086v12.001c6.623 0 11.99-5.372 11.99-12.001z" fill="#8DAEB5"/><path d="m33.469 132.019-3.392-3.394-3.39 3.394 3.39 3.395 3.392-3.395z" fill="#508F86"/><path d="M17.979 96.004V72H-6v24.004H17.98z" fill="#8DAEB5"/><path d="M13.183 91.203V76.801H-1.204v14.402h14.387z" fill="#FFFBCC"/><path d="M16.163 84 5.99 73.818-4.183 84 5.99 94.184l10.173-10.183z" fill="#FFFBCC"/><path d="m5.988 89.444 5.435-5.442-5.435-5.441-5.436 5.441 5.436 5.442z" fill="#1E5F6C"/><path d="M9.83 87.852v-7.696H2.144v7.696h7.688z" fill="#1E5F6C"/><path d="M7.687 85.696v-3.394h-3.39v3.394h3.39z" fill="#8DAEB5"/><path d="m8.388 83.997-2.398-2.4-2.397 2.4 2.397 2.4 2.398-2.4z" fill="#8DAEB5"/><path d="M42.065 120.019V96.015H18.086v24.004h23.979z" fill="#FFFBCC"/><path d="M37.269 115.218v-14.403H22.882v14.403h14.387z" fill="#1E5F6C"/><path d="M40.25 108.014 30.075 97.83l-10.173 10.184 10.173 10.184 10.173-10.184z" fill="#1E5F6C"/><path d="m30.075 113.459 5.435-5.442-5.435-5.441-5.436 5.441 5.436 5.442z" fill="#FFF7DB"/><path d="M33.917 111.866v-7.695h-7.688v7.695h7.688z" fill="#FFF7DB"/><path d="M31.773 109.711v-3.394h-3.39v3.394h3.39z" fill="#FFC45A"/><path d="m32.474 108.011-2.398-2.4-2.397 2.4 2.397 2.4 2.398-2.4z" fill="#FFED00"/><path d="M90.022 72.012V48.008H66.043v24.004h23.979z" fill="#FFFBCC"/><path d="M85.226 67.21V52.81H70.839V67.21h14.387z" fill="#1E5F6C"/><path d="M88.206 60.008 78.033 49.825 67.86 60.008l10.173 10.184L88.206 60.01z" fill="#1E5F6C"/><path d="m78.03 65.452 5.437-5.442-5.436-5.441-5.436 5.441 5.436 5.442z" fill="#FFFBCC"/><path d="M81.874 63.86v-7.696h-7.688v7.695h7.688z" fill="#FFFBCC"/><path d="M79.73 61.704V58.31h-3.39v3.394h3.39z" fill="#FFED00"/><path d="m80.43 60.005-2.397-2.4-2.397 2.4 2.397 2.4 2.398-2.4zM17.979 48.004V24H-6v24.004H17.98z" fill="#FFED00"/><path d="M1.194 24H-6v7.201L1.194 24zM17.974 28.8V24h-4.791v4.8h4.79z" fill="#508F86"/><path d="M10.785 24h7.194v7.201L10.785 24zM1.194 48.005H-6v-7.201l7.194 7.2zM13.184 43.205v4.8h4.79v-4.8h-4.79z" fill="#508F86"/><path d="M10.785 48.005h7.194v-7.201l-7.194 7.2z" fill="#508F86"/><path d="m5.995 43.202 7.192-7.2-7.192-7.2-7.193 7.2 7.193 7.2z" fill="#1E5F6C"/><path d="M11.078 41.09V30.908H.906V41.09h10.172z" fill="#1E5F6C"/><path d="M9.164 36 5.99 32.823 2.816 36l3.174 3.178L9.164 36z" fill="#FFED00"/><path d="M42.065 72.012V48.008H18.086v24.004h23.979z" fill="#508F86"/><path d="M22.882 52.81v-4.801H18.09v4.8h4.79z" fill="#FFED00"/><path d="M25.28 48.009h-7.194v7.201l7.194-7.201zM42.06 52.81v-4.801h-4.791v4.8h4.79z" fill="#FFED00"/><path d="M34.871 48.009h7.194v7.201l-7.194-7.201zM18.09 67.215v4.8h4.79v-4.8h-4.79z" fill="#FFED00"/><path d="M25.28 72.015h-7.194v-7.201l7.194 7.2zM37.27 67.215v4.8h4.79v-4.8h-4.79z" fill="#FFED00"/><path d="M34.871 72.015h7.194v-7.201l-7.194 7.2zM30.08 67.212l7.193-7.2-7.192-7.2-7.193 7.2 7.193 7.2z" fill="#FFED00"/><path d="M35.163 65.1V54.918H24.992V65.1h10.171z" fill="#FFED00"/><path d="m33.249 60.008-3.174-3.177-3.174 3.177 3.174 3.177 3.174-3.177z" fill="#1E5F6C"/><path d="M17.979 120.007V96.003H-6v24.004H17.98z" fill="#FFED00"/><path d="M1.194 96.002H-6v7.201l7.194-7.201zM17.974 100.803v-4.801h-4.791v4.801h4.79z" fill="#1E5F6C"/><path d="M10.785 96.002h7.194v7.201l-7.194-7.201zM1.194 120.007H-6v-7.201l7.194 7.201zM13.184 115.207v4.8h4.79v-4.8h-4.79z" fill="#1E5F6C"/><path d="M10.785 120.007h7.194v-7.201l-7.194 7.201z" fill="#1E5F6C"/><path d="m5.994 115.205 7.193-7.2-7.193-7.2-7.192 7.2 7.192 7.2z" fill="#CDD9C2"/><path d="M11.078 113.093v-10.182H.906v10.182h10.172z" fill="#CDD9C2"/><path d="m9.164 108.005-3.174-3.178-3.174 3.178 3.174 3.177 3.174-3.177zM89.979 95.005V71H66v24.004H89.98z" fill="#FFED00"/><path d="M70.796 75.8V71h-4.791v4.8h4.79z" fill="#1E5F6C"/><path d="M73.194 71H66v7.201L73.194 71zM89.974 75.8V71h-4.791v4.8h4.79z" fill="#1E5F6C"/><path d="M82.785 71h7.194v7.201L82.785 71zM66.004 90.205v4.8h4.791v-4.8h-4.79z" fill="#1E5F6C"/><path d="M73.194 95.005H66v-7.201l7.194 7.2zM85.184 90.205v4.8h4.79v-4.8h-4.79z" fill="#1E5F6C"/><path d="M82.785 95.005h7.194v-7.201l-7.194 7.2z" fill="#1E5F6C"/><path d="m77.994 90.204 7.192-7.2-7.192-7.2-7.192 7.2 7.192 7.2z" fill="#CDD9C2"/><path d="M83.078 88.091V77.91H72.906v10.182h10.172z" fill="#CDD9C2"/><path d="m81.164 83.003-3.174-3.178-3.174 3.178 3.174 3.177 3.174-3.177z" fill="#FFED00"/><path d="M66.043 120.018V96.014H42.064v24.004h23.98z" fill="#1E5F6C"/><path d="M55.087 106.979c1.17 1.172 4.019.221 6.362-2.125 2.343-2.345 3.293-5.196 2.123-6.368-1.171-1.172-4.02-.22-6.362 2.125-2.343 2.345-3.293 5.197-2.123 6.368zM50.898 115.419a7.493 7.493 0 0 0 2.12-6.371 7.492 7.492 0 0 0-6.364 2.122 7.493 7.493 0 0 0-2.12 6.371 7.471 7.471 0 0 0 6.364-2.122zM57.21 115.419a7.493 7.493 0 0 1-2.12-6.371 7.492 7.492 0 0 1 6.364 2.122 7.493 7.493 0 0 1 2.12 6.371 7.471 7.471 0 0 1-6.365-2.122zM46.66 104.854c2.342 2.346 5.19 3.297 6.361 2.125 1.17-1.171.22-4.023-2.123-6.368-2.343-2.345-5.19-3.297-6.361-2.125-1.17 1.172-.22 4.023 2.122 6.368z" fill="#FFFBCC"/><path d="m57.445 108.015-3.39-3.395-3.392 3.395 3.391 3.394 3.391-3.394z" fill="#FFED00"/><path d="M66.043 72.012V48.008H42.064v24.004h23.98z" fill="#508F86"/><path d="M50.284 63.783c4.164 4.168 9.227 5.856 11.31 3.771 2.082-2.084.395-7.153-3.768-11.32-4.163-4.168-9.227-5.857-11.31-3.772-2.082 2.085-.395 7.153 3.768 11.32z" fill="#FFFBCC"/><path d="M46.517 67.554c2.082 2.085 7.145.397 11.309-3.771 4.163-4.168 5.85-9.236 3.767-11.321-2.082-2.085-7.146-.396-11.309 3.771-4.163 4.168-5.85 9.237-3.767 11.321z" fill="#FFFBCC"/><path d="m56.454 60.006-2.397-2.4-2.398 2.4 2.398 2.4 2.397-2.4z" fill="#508F86"/><path d="M42.065 24.004V0H18.086v24.004h23.979z" fill="#FFFBCC"/><path d="M26.306 15.775c4.163 4.168 9.226 5.856 11.309 3.772 2.082-2.085.396-7.154-3.768-11.322-4.163-4.167-9.226-5.856-11.309-3.771-2.082 2.085-.396 7.153 3.768 11.321z" fill="#508F86"/><path d="M22.538 19.547c2.083 2.084 7.146.396 11.31-3.772 4.163-4.168 5.85-9.236 3.767-11.321-2.083-2.085-7.146-.396-11.31 3.771-4.163 4.168-5.85 9.237-3.767 11.322z" fill="#508F86"/><path d="m32.474 11.997-2.397-2.4-2.398 2.4 2.398 2.4 2.397-2.4z" fill="#FFFBCC"/><path d="M17.979 72.004V48H-6v24.004H17.98z" fill="#508F86"/><path d="M3.85 54.677c0 2.362.958 4.278 2.14 4.278 1.18 0 2.138-1.916 2.138-4.278 0-2.362-.957-4.277-2.139-4.277-1.18 0-2.139 1.915-2.139 4.277zM3.85 65.326c0 2.362.958 4.277 2.14 4.277 1.18 0 2.138-1.915 2.138-4.277 0-2.363-.957-4.278-2.139-4.278-1.18 0-2.139 1.915-2.139 4.278zM7.03 60.002c0 1.182 1.913 2.141 4.273 2.141 2.36 0 4.273-.959 4.273-2.141 0-1.183-1.913-2.141-4.273-2.141-2.36 0-4.273.959-4.273 2.141zM-3.602 60.002c0 1.182 1.913 2.141 4.273 2.141 2.36 0 4.273-.959 4.273-2.141 0-1.183-1.913-2.141-4.273-2.141-2.36 0-4.273.959-4.273 2.141z" fill="#FFFBCC"/><path d="m9.382 60.001-3.39-3.394L2.6 60l3.391 3.395L9.382 60z" fill="#1E5F6C"/><path d="M66.043 96.016V72.012H42.064v24.004h23.98z" fill="#8DAEB5"/><path d="M51.915 78.69c0 2.363.958 4.278 2.139 4.278 1.181 0 2.139-1.915 2.139-4.278 0-2.362-.958-4.277-2.14-4.277-1.18 0-2.138 1.915-2.138 4.277zM51.915 89.338c0 2.362.958 4.277 2.139 4.277 1.181 0 2.139-1.915 2.139-4.277 0-2.363-.958-4.278-2.14-4.278-1.18 0-2.138 1.915-2.138 4.278zM55.094 84.014c0 1.182 1.914 2.141 4.273 2.141 2.36 0 4.273-.959 4.273-2.141 0-1.183-1.913-2.141-4.273-2.141-2.36 0-4.273.958-4.273 2.14zM44.462 84.014c0 1.182 1.913 2.141 4.273 2.141 2.36 0 4.273-.959 4.273-2.141 0-1.183-1.913-2.141-4.273-2.141-2.36 0-4.273.958-4.273 2.14z" fill="#FFED00"/><path d="m57.447 84.012-3.391-3.395-3.391 3.395 3.39 3.394 3.392-3.394z" fill="#508F86"/></svg>