<svg width="111" height="80" viewBox="0 0 111 80" fill="none" xmlns="http://www.w3.org/2000/svg">
<path d="M83.1047 18.4338H103.632V-2.07144H83.1047V18.4338Z" fill="#1E5F6C"/>
<path d="M87.0357 14.5052C88.5219 15.9897 90.5499 16.5926 92.4836 16.3178C92.7586 14.3903 92.151 12.3603 90.669 10.8757C89.1828 9.39114 87.1548 8.78828 85.2211 9.06305C84.9461 10.9946 85.5496 13.0247 87.0357 14.5052Z" fill="#FFFBCC"/>
<path d="M87.0391 1.8591C85.0334 3.86264 84.2198 6.29827 85.2219 7.29923C86.2239 8.3002 88.6621 7.48746 90.6677 5.48392C92.6734 3.48039 93.487 1.04476 92.485 0.0437907C91.4829 -0.957176 89.0447 -0.144433 87.0391 1.8591Z" fill="#FFFBCC"/>
<path d="M96.0705 10.8813C94.0649 12.8849 93.2513 15.3205 94.2533 16.3214C95.2553 17.3224 97.6935 16.5097 99.6992 14.5061C101.705 12.5026 102.518 10.067 101.516 9.06601C100.514 8.06504 98.0762 8.87778 96.0705 10.8813Z" fill="#FFFBCC"/>
<path d="M96.0688 5.48245C94.5826 3.99787 93.9792 1.97194 94.2542 0.0403457C96.1837 -0.234425 98.2159 0.372537 99.7021 1.85302C101.188 3.3376 101.792 5.36352 101.517 7.29511C99.583 7.56989 97.5508 6.96704 96.0688 5.48245Z" fill="#FFFBCC"/>
<path d="M93.3681 11.0832L96.271 8.18335L93.3681 5.28349L90.4652 8.18335L93.3681 11.0832Z" fill="#508F86"/>
<path d="M42.0508 18.4338H62.5777V-2.07144H42.0508V18.4338Z" fill="#508F86"/>
<path d="M42.9371 10.2952C41.9351 11.2962 42.7487 13.7318 44.7543 15.7354C46.76 17.7389 49.1982 18.5517 50.2002 17.5507C51.2022 16.5497 50.3886 14.1141 48.383 12.1106C46.3773 10.107 43.9391 9.29428 42.9371 10.2952Z" fill="#FFFBCC"/>
<path d="M44.7543 0.627654C42.7487 2.63119 41.9351 5.06682 42.9371 6.06778C43.9391 7.06875 46.3773 6.25601 48.383 4.25248C50.3886 2.24894 51.2022 -0.186688 50.2002 -1.18765C49.1982 -2.18862 46.76 -1.37588 44.7543 0.627654Z" fill="#FFFBCC"/>
<path d="M56.2486 12.1108C54.2429 14.1143 53.4293 16.55 54.4313 17.5509C55.4334 18.5519 57.8716 17.7392 59.8772 15.7356C61.8829 13.7321 62.6965 11.2965 61.6944 10.2955C60.6924 9.29453 58.2542 10.1073 56.2486 12.1108Z" fill="#FFFBCC"/>
<path d="M54.4313 -1.18742C53.4293 -0.186455 54.2429 2.24918 56.2486 4.25271C58.2542 6.25625 60.6924 7.06899 61.6944 6.06803C62.6965 5.06706 61.8829 2.63143 59.8772 0.627892C57.8716 -1.37564 55.4334 -2.18839 54.4313 -1.18742Z" fill="#FFFBCC"/>
<path d="M52.3138 11.083L55.2167 8.18311L52.3138 5.28325L49.4109 8.18311L52.3138 11.083Z" fill="#FFED00"/>
<path d="M83.7446 38.3035H102.995V19.0736H83.7446V38.3035Z" fill="#FFFBCC"/>
<path d="M93.3676 38.939C93.3676 33.2754 88.7737 28.6863 83.1042 28.6863V38.939H93.3676Z" fill="#FFED00"/>
<path d="M93.3682 38.939H103.632V28.6863C97.9621 28.6863 93.3682 33.2754 93.3682 38.939Z" fill="#FFED00"/>
<path d="M83.1042 28.6865C88.7737 28.6865 93.3676 24.0974 93.3676 18.4339H83.1042V28.6865Z" fill="#FFED00"/>
<path d="M103.631 28.6865V18.4339H93.368C93.368 24.0974 97.9619 28.6865 103.631 28.6865Z" fill="#FFED00"/>
<path d="M93.3681 31.5874L96.2711 28.6875L93.3681 25.7876L90.4652 28.6875L93.3681 31.5874Z" fill="#1E5F6C"/>
<path d="M63.2186 79.3101H82.4687V60.0802H63.2186V79.3101Z" fill="#FFED00"/>
<path d="M72.8416 79.9497C72.8416 74.2861 68.2477 69.6971 62.5782 69.6971V79.9497H72.8416Z" fill="#8DAEB5"/>
<path d="M72.842 79.9497H83.1054V69.6971C77.4359 69.6971 72.842 74.2861 72.842 79.9497Z" fill="#8DAEB5"/>
<path d="M62.5782 69.697C68.2477 69.697 72.8416 65.1079 72.8416 59.4444H62.5782V69.697Z" fill="#8DAEB5"/>
<path d="M83.1054 69.697V59.4444H72.842C72.842 65.1079 77.4359 69.697 83.1054 69.697Z" fill="#8DAEB5"/>
<path d="M72.8421 72.5983L75.7451 69.6985L72.8421 66.7986L69.9392 69.6985L72.8421 72.5983Z" fill="#1E5F6C"/>
<path d="M1.63899 17.7939H20.8891V-1.43591H1.63899V17.7939Z" fill="#FFED00"/>
<path d="M11.262 18.4338C11.262 12.7703 6.6681 8.1812 0.998569 8.1812V18.4338H11.262Z" fill="#8DAEB5"/>
<path d="M11.2624 18.4338H21.5258V8.1812C15.8563 8.1812 11.2624 12.7703 11.2624 18.4338Z" fill="#8DAEB5"/>
<path d="M0.998569 8.18091C6.6681 8.18091 11.262 3.59183 11.262 -2.07173H0.998569V8.18091Z" fill="#8DAEB5"/>
<path d="M21.5258 8.18091V-2.07173H11.2624C11.2624 3.59183 15.8563 8.18091 21.5258 8.18091Z" fill="#8DAEB5"/>
<path d="M11.2644 11.083L14.1673 8.18311L11.2644 5.28325L8.3615 8.18311L11.2644 11.083Z" fill="#508F86"/>
<path d="M103.632 79.9497H124.159V59.4444H103.632V79.9497Z" fill="#8DAEB5"/>
<path d="M107.737 75.8489H120.053V63.5457H107.737V75.8489Z" fill="#FFFBCC"/>
<path d="M113.897 78.3978L122.606 69.6982L113.897 60.9987L105.188 69.6982L113.897 78.3978Z" fill="#FFFBCC"/>
<path d="M109.242 69.6955L113.895 74.344L118.549 69.6955L113.895 65.0471L109.242 69.6955Z" fill="#1E5F6C"/>
<path d="M110.604 72.9822H117.185V66.4082H110.604V72.9822Z" fill="#1E5F6C"/>
<path d="M21.523 18.4338H42.0499V-2.07144H21.523V18.4338Z" fill="#FFFBCC"/>
<path d="M25.6278 14.3328H37.944V2.0296H25.6278V14.3328Z" fill="#1E5F6C"/>
<path d="M31.7895 16.8815L40.4983 8.18188L31.7895 -0.517685L23.0808 8.18188L31.7895 16.8815Z" fill="#1E5F6C"/>
<path d="M27.1327 8.18063L31.7861 12.8291L36.4394 8.18063L31.7861 3.53216L27.1327 8.18063Z" fill="#FFF7DB"/>
<path d="M28.4951 11.4663H35.076V4.89232H28.4951V11.4663Z" fill="#FFF7DB"/>
<path d="M30.3381 9.63306H33.2406V6.73361H30.3381V9.63306Z" fill="#FFC45A"/>
<path d="M31.7913 10.2321L33.8437 8.18188L31.7913 6.13168L29.739 8.18188L31.7913 10.2321Z" fill="#FFED00"/>
<path d="M62.5785 59.4446H83.1054V38.9393H62.5785V59.4446Z" fill="#FFFBCC"/>
<path d="M66.6834 55.3435H78.9995V43.0403H66.6834V55.3435Z" fill="#1E5F6C"/>
<path d="M72.8432 57.8922L81.5519 49.1926L72.8432 40.4931L64.1344 49.1926L72.8432 57.8922Z" fill="#1E5F6C"/>
<path d="M68.1882 49.1906L72.8416 53.8391L77.495 49.1906L72.8416 44.5422L68.1882 49.1906Z" fill="#FFFBCC"/>
<path d="M69.5506 52.4771H76.1316V45.9031H69.5506V52.4771Z" fill="#FFFBCC"/>
<path d="M71.3936 50.6438H74.2961V47.7443H71.3936V50.6438Z" fill="#FFED00"/>
<path d="M72.8469 51.2428L74.8992 49.1926L72.8469 47.1424L70.7945 49.1926L72.8469 51.2428Z" fill="#FFED00"/>
<path d="M42.0507 59.4446H62.5776V38.9393H42.0507V59.4446Z" fill="#FFED00"/>
<path d="M58.4715 43.0405H62.5769V38.9436H58.4715V43.0405Z" fill="#508F86"/>
<path d="M62.5769 45.0908V38.9392H56.4188L62.5769 45.0908Z" fill="#508F86"/>
<path d="M58.4714 59.4404H62.5768V55.3435H58.4714V59.4404Z" fill="#508F86"/>
<path d="M62.5768 53.293V59.4446H56.4187L62.5768 53.293Z" fill="#508F86"/>
<path d="M46.1562 38.9426H42.0508V43.0396H46.1562V38.9426Z" fill="#508F86"/>
<path d="M42.0506 45.0908V38.9392H48.2087L42.0506 45.0908Z" fill="#508F86"/>
<path d="M46.1562 55.344H42.0508V59.4409H46.1562V55.344Z" fill="#508F86"/>
<path d="M42.0506 53.293V59.4446H48.2087L42.0506 53.293Z" fill="#508F86"/>
<path d="M46.1568 49.1963L52.3138 55.3469L58.4709 49.1963L52.3138 43.0457L46.1568 49.1963Z" fill="#1E5F6C"/>
<path d="M47.9624 53.5432H56.67V44.8449H47.9624V53.5432Z" fill="#1E5F6C"/>
<path d="M52.3153 51.9069L55.0324 49.1926L52.3153 46.4784L49.5982 49.1926L52.3153 51.9069Z" fill="#FFED00"/>
<path d="M62.5785 18.4338H83.1054V-2.07144H62.5785V18.4338Z" fill="#508F86"/>
<path d="M78.9995 2.02954H83.1049V-2.06741H78.9995V2.02954Z" fill="#FFED00"/>
<path d="M83.1049 4.07983V-2.07175H76.9468L83.1049 4.07983Z" fill="#FFED00"/>
<path d="M78.9995 18.4297H83.1049V14.3327H78.9995V18.4297Z" fill="#FFED00"/>
<path d="M83.1049 12.2823V18.4338H76.9468L83.1049 12.2823Z" fill="#FFED00"/>
<path d="M66.6804 -2.06812L62.575 -2.06812V2.02884H66.6804V-2.06812Z" fill="#FFED00"/>
<path d="M62.5748 4.08008V-2.07151H68.7329L62.5748 4.08008Z" fill="#FFED00"/>
<path d="M66.6804 14.3335H62.575V18.4304H66.6804V14.3335Z" fill="#FFED00"/>
<path d="M62.5748 12.2823V18.4338H68.7329L62.5748 12.2823Z" fill="#FFED00"/>
<path d="M66.6827 8.18583L72.8398 14.3364L78.9968 8.18583L72.8397 2.03523L66.6827 8.18583Z" fill="#FFED00"/>
<path d="M68.4883 12.5325H77.1958V3.83413H68.4883V12.5325Z" fill="#FFED00"/>
<path d="M72.8431 10.8952L75.5602 8.18091L72.8431 5.46665L70.126 8.18091L72.8431 10.8952Z" fill="#1E5F6C"/>
<path d="M83.1047 79.9497H103.632V59.4444H83.1047V79.9497Z" fill="#FFED00"/>
<path d="M99.5239 63.5459H103.629V59.4489H99.5239V63.5459Z" fill="#1E5F6C"/>
<path d="M103.629 65.5962V59.4446H97.4714L103.629 65.5962Z" fill="#1E5F6C"/>
<path d="M99.5242 79.9458H103.63V75.8488H99.5242V79.9458Z" fill="#1E5F6C"/>
<path d="M103.63 73.7984V79.95H97.4715L103.63 73.7984Z" fill="#1E5F6C"/>
<path d="M87.2066 59.448H83.1012V63.5449H87.2066V59.448Z" fill="#1E5F6C"/>
<path d="M83.101 65.5962V59.4446H89.2591L83.101 65.5962Z" fill="#1E5F6C"/>
<path d="M87.2066 75.8496H83.1012V79.9466H87.2066V75.8496Z" fill="#1E5F6C"/>
<path d="M83.101 73.7984V79.95H89.2591L83.101 73.7984Z" fill="#1E5F6C"/>
<path d="M87.2105 69.7012L93.3676 75.8518L99.5247 69.7012L93.3676 63.5506L87.2105 69.7012Z" fill="#CDD9C2"/>
<path d="M89.0162 74.0483H97.7237V65.35H89.0162V74.0483Z" fill="#CDD9C2"/>
<path d="M93.3691 72.4123L96.0862 69.698L93.3691 66.9837L90.652 69.698L93.3691 72.4123Z" fill="#FFED00"/>
<path d="M103.632 38.9392H124.159V18.4339H103.632V38.9392Z" fill="#8DAEB5"/>
<path d="M107.564 25.9881C109.05 27.4727 111.078 28.0755 113.011 27.8007C113.286 25.8732 112.679 23.8432 111.197 22.3586C109.711 20.8741 107.683 20.2712 105.749 20.546C105.474 22.4776 106.077 24.5076 107.564 25.9881Z" fill="#FFED00"/>
<path d="M107.564 31.385C109.05 29.9004 111.078 29.2976 113.011 29.5723C113.286 31.4998 112.679 33.5298 111.197 35.0144C109.711 36.499 107.683 37.1019 105.749 36.8271C105.474 34.8955 106.077 32.8655 107.564 31.385Z" fill="#FFED00"/>
<path d="M113.898 31.5874L116.801 28.6875L113.898 25.7876L110.995 28.6875L113.898 31.5874Z" fill="#FFFBCC"/>
<path d="M21.522 38.939H42.0489V18.4337H21.522V38.939Z" fill="#1E5F6C"/>
<path d="M32.6737 29.5699C31.6717 30.5709 32.4853 33.0065 34.4909 35.01C36.4966 37.0136 38.9348 37.8263 39.9368 36.8253C40.9388 35.8244 40.1252 33.3888 38.1195 31.3852C36.1139 29.3817 33.6757 28.5689 32.6737 29.5699Z" fill="#FFFBCC"/>
<path d="M25.458 25.9878C26.9441 27.4724 28.9722 28.0753 30.9058 27.8005C31.1809 25.873 30.5733 23.843 29.0912 22.3584C27.6051 20.8738 25.577 20.2709 23.6434 20.5457C23.3683 22.4773 23.9718 24.5073 25.458 25.9878Z" fill="#FFFBCC"/>
<path d="M25.458 31.3847C26.9441 29.9002 28.9722 29.2973 30.9058 29.5721C31.1809 31.4996 30.5733 33.5296 29.0912 35.0142C27.6051 36.4988 25.577 37.1016 23.6434 36.8269C23.3683 34.8953 23.9718 32.8652 25.458 31.3847Z" fill="#FFFBCC"/>
<path d="M34.4909 22.363C32.4853 24.3665 31.6717 26.8022 32.6737 27.8031C33.6757 28.8041 36.1139 27.9914 38.1196 25.9878C40.1252 23.9843 40.9388 21.5487 39.9368 20.5477C38.9348 19.5467 36.4966 20.3595 34.4909 22.363Z" fill="#FFFBCC"/>
<path d="M31.7885 31.5866L34.6914 28.6868L31.7885 25.7869L28.8855 28.6868L31.7885 31.5866Z" fill="#FFED00"/>
<path d="M83.1047 59.4446H103.632V38.9393H83.1047V59.4446Z" fill="#8DAEB5"/>
<path d="M90.1415 45.968C86.5775 49.5283 85.1335 53.8582 86.9163 55.6391C88.6991 57.42 93.0335 55.9776 96.5975 52.4173C100.162 48.8571 101.605 44.5272 99.8227 42.7463C98.0399 40.9654 93.7055 42.4078 90.1415 45.968Z" fill="#FFFBCC"/>
<path d="M86.9163 42.7459C85.1335 44.5269 86.5775 48.8567 90.1415 52.417C93.7054 55.9772 98.0399 57.4196 99.8227 55.6387C101.605 53.8578 100.162 49.5279 96.5975 45.9677C93.0335 42.4074 88.6991 40.965 86.9163 42.7459Z" fill="#FFFBCC"/>
<path d="M93.3729 51.2428L95.4252 49.1926L93.3729 47.1424L91.3205 49.1926L93.3729 51.2428Z" fill="#1E5F6C"/>
<path d="M62.5785 38.939H83.1054V18.4337H62.5785V38.939Z" fill="#508F86"/>
<path d="M69.6155 25.4629C66.0515 29.0232 64.6075 33.353 66.3903 35.1339C68.1731 36.9149 72.5075 35.4724 76.0715 31.9122C79.6355 28.352 81.0795 24.0221 79.2967 22.2412C77.5139 20.4603 73.1794 21.9027 69.6155 25.4629Z" fill="#FFFBCC"/>
<path d="M66.3903 22.2411C64.6075 24.022 66.0515 28.3518 69.6155 31.9121C73.1794 35.4723 77.5139 36.9147 79.2967 35.1338C81.0795 33.3529 79.6355 29.023 76.0715 25.4628C72.5075 21.9026 68.1731 20.4601 66.3903 22.2411Z" fill="#FFFBCC"/>
<path d="M72.845 30.7389L74.8974 28.6887L72.845 26.6385L70.7926 28.6887L72.845 30.7389Z" fill="#508F86"/>
<path d="M103.632 18.4338H124.159V-2.07144H103.632V18.4338Z" fill="#FFFBCC"/>
<path d="M110.669 4.95755C107.105 8.51779 105.661 12.8477 107.444 14.6286C109.227 16.4095 113.561 14.9671 117.125 11.4068C120.689 7.84659 122.133 3.51673 120.35 1.73581C118.568 -0.0451102 114.233 1.39731 110.669 4.95755Z" fill="#508F86"/>
<path d="M107.444 1.73568C105.661 3.5166 107.105 7.84647 110.669 11.4067C114.233 14.9669 118.568 16.4094 120.35 14.6284C122.133 12.8475 120.689 8.51766 117.125 4.95742C113.561 1.39719 109.227 -0.0452401 107.444 1.73568Z" fill="#508F86"/>
<path d="M103.632 59.4446H124.159V38.9393H103.632V59.4446Z" fill="#508F86"/>
<path d="M109.343 47.3629C107.323 47.3629 105.685 48.1818 105.685 49.1919C105.685 50.2021 107.323 51.021 109.343 51.021C111.363 51.021 113.001 50.2021 113.001 49.1919C113.001 48.1818 111.363 47.3629 109.343 47.3629Z" fill="#FFFBCC"/>
<path d="M113.896 52.0935L116.799 49.1936L113.896 46.2937L110.993 49.1936L113.896 52.0935Z" fill="#1E5F6C"/>
<path d="M42.0507 38.9392H62.5776V18.4339H42.0507V38.9392Z" fill="#8DAEB5"/>
<path d="M56.8659 26.8575C54.8457 26.8575 53.208 27.6764 53.208 28.6866C53.208 29.6967 54.8457 30.5156 56.8659 30.5156C58.8861 30.5156 60.5238 29.6967 60.5238 28.6866C60.5238 27.6764 58.8861 26.8575 56.8659 26.8575Z" fill="#FFED00"/>
<path d="M47.7616 26.8575C45.7414 26.8575 44.1037 27.6764 44.1037 28.6866C44.1037 29.6967 45.7414 30.5156 47.7616 30.5156C49.7818 30.5156 51.4195 29.6967 51.4195 28.6866C51.4195 27.6764 49.7818 26.8575 47.7616 26.8575Z" fill="#FFED00"/>
<path d="M52.3145 29.5764C51.3033 29.5764 50.4835 31.2124 50.4835 33.2305C50.4835 35.2486 51.3033 36.8845 52.3145 36.8845C53.3258 36.8845 54.1455 35.2486 54.1455 33.2305C54.1455 31.2124 53.3258 29.5764 52.3145 29.5764Z" fill="#FFED00"/>
<path d="M52.3145 20.4844C51.3033 20.4844 50.4835 22.1204 50.4835 24.1384C50.4835 26.1565 51.3033 27.7925 52.3145 27.7925C53.3258 27.7925 54.1455 26.1565 54.1455 24.1384C54.1455 22.1204 53.3258 20.4844 52.3145 20.4844Z" fill="#FFED00"/>
<path d="M52.3162 31.5881L55.2191 28.6882L52.3162 25.7884L49.4133 28.6882L52.3162 31.5881Z" fill="#508F86"/>
</svg>
