<svg width="80" height="48" fill="none" xmlns="http://www.w3.org/2000/svg"><path d="M24.754.748h22.511v22.487h-22.51V.748z" fill="#FFED00"/><path d="M36.007 0c0 6.623-5.372 11.99-12.002 11.99V0h12.002zM36.008 0H48.01v11.99c-6.63 0-12.002-5.367-12.002-11.99z" fill="#8DAEB5"/><path d="M24.005 11.99c6.63 0 12.002 5.366 12.002 11.989H24.005v-11.99zM48.01 11.99v11.989H36.008c0-6.623 5.372-11.99 12.002-11.99z" fill="#8DAEB5"/><path d="m36.008 8.597 3.395 3.39-3.395 3.392-3.395-3.391 3.395-3.391z" fill="#1E5F6C"/><path d="M72.013 0h24.004v23.979H72.013V-.002z" fill="#8DAEB5"/><path d="M76.814 4.796h14.403v14.387H76.813V4.796z" fill="#FFFBCC"/><path d="M84.016 1.815 94.2 11.988 84.016 22.162 73.833 11.988 84.016 1.815z" fill="#FFFBCC"/><path d="m78.573 11.991 5.442-5.436 5.441 5.436-5.441 5.436-5.442-5.436z" fill="#1E5F6C"/><path d="M24.006 23.979H48.01v23.978H24.006V23.978z" fill="#FFFBCC"/><path d="M28.806 28.774H43.21v14.387H28.806V28.774z" fill="#1E5F6C"/><path d="m36.009 25.794 10.184 10.173L36.009 46.14 25.825 35.967l10.184-10.173z" fill="#1E5F6C"/><path d="m30.565 35.97 5.442-5.437 5.442 5.436-5.442 5.436-5.442-5.436z" fill="#FFFBCC"/><path d="M32.158 32.126h7.695v7.688h-7.695v-7.688z" fill="#FFFBCC"/><path d="M34.313 34.27h3.394v3.39h-3.394v-3.39z" fill="#FFED00"/><path d="m36.013 33.57 2.4 2.397-2.4 2.397-2.4-2.397 2.4-2.398zM.002 23.979h24.003v23.978H.002V23.978z" fill="#FFED00"/><path d="M19.205 43.161h4.8v4.791h-4.8v-4.79z" fill="#508F86"/><path d="M24.005 40.763v7.194h-7.2l7.2-7.194zM19.205 23.983h4.8v4.791h-4.8v-4.79z" fill="#508F86"/><path d="M24.005 31.172v-7.194h-7.2l7.2 7.194zM4.8 47.953H0v-4.79h4.8v4.79z" fill="#508F86"/><path d="M0 40.763v7.194h7.202L0 40.763zM4.8 28.773H0v-4.79h4.8v4.79z" fill="#508F86"/><path d="M0 31.172v-7.194h7.202L0 31.172z" fill="#508F86"/><path d="m4.803 35.963 7.2-7.193 7.2 7.193-7.2 7.192-7.2-7.192z" fill="#1E5F6C"/><path d="M6.915 30.88h10.182V41.05H6.915V30.88z" fill="#1E5F6C"/><path d="m12.005 32.793 3.178 3.174-3.178 3.174-3.177-3.174 3.177-3.174zM48.01 0h24.004v23.979H48.01V-.002z" fill="#FFED00"/><path d="M67.215 19.183h4.8v4.79h-4.8v-4.79z" fill="#1E5F6C"/><path d="M72.015 16.785v7.194h-7.2l7.2-7.194zM67.215.005h4.8v4.79h-4.8V.006z" fill="#1E5F6C"/><path d="M72.015 7.194V0h-7.2l7.2 7.194zM52.81 23.974h-4.8v-4.79h4.8v4.79z" fill="#1E5F6C"/><path d="M48.01 16.785v7.194h7.202l-7.202-7.194zM52.81 4.795h-4.8V.004h4.8v4.79z" fill="#1E5F6C"/><path d="M48.01 7.194V0h7.202L48.01 7.194z" fill="#1E5F6C"/><path d="m52.812 11.985 7.2-7.193 7.2 7.193-7.2 7.192-7.2-7.192z" fill="#CDD9C2"/><path d="M54.924 6.901h10.182v10.172H54.924V6.9z" fill="#CDD9C2"/><path d="m60.013 8.814 3.177 3.174-3.177 3.174-3.178-3.174 3.178-3.174z" fill="#FFED00"/><path d="M48.01 23.979h24.004v23.978H48.01V23.978z" fill="#8DAEB5"/><path d="M56.24 39.738c-4.169-4.163-5.857-9.227-3.772-11.31 2.084-2.082 7.153-.395 11.32 3.768 4.169 4.163 5.857 9.227 3.772 11.31-2.085 2.082-7.153.395-11.32-3.768z" fill="#FFFBCC"/><path d="M52.468 43.505c-2.085-2.082-.397-7.146 3.771-11.309 4.168-4.163 9.236-5.85 11.321-3.767 2.085 2.082.397 7.146-3.771 11.309-4.168 4.163-9.236 5.85-11.321 3.767z" fill="#FFFBCC"/><path d="m60.017 33.57 2.4 2.397-2.4 2.397-2.4-2.397 2.4-2.398z" fill="#1E5F6C"/><path d="M72.013 23.979h24.004v23.978H72.013V23.978z" fill="#508F86"/><path d="M78.691 38.107c-2.362 0-4.277-.958-4.277-2.14 0-1.18 1.915-2.138 4.277-2.138 2.363 0 4.278.957 4.278 2.139 0 1.181-1.915 2.139-4.278 2.139z" fill="#FFFBCC"/></svg>