<svg width="114" height="145" fill="none" xmlns="http://www.w3.org/2000/svg"><path d="M96.008 95.958h24.004v23.979H96.008V95.958z" fill="#508F86"/><path d="M97.044 105.475c-1.171-1.171-.22-4.019 2.125-6.362 2.346-2.343 5.197-3.293 6.369-2.123 1.171 1.171.22 4.019-2.125 6.362-2.346 2.343-5.197 3.293-6.369 2.123zM99.17 116.78c-2.346-2.343-3.297-5.191-2.126-6.362 1.172-1.17 4.023-.22 6.369 2.123 2.345 2.343 3.296 5.191 2.125 6.362-1.172 1.17-4.023.22-6.369-2.123zM112.611 103.352c-2.346-2.343-3.297-5.191-2.125-6.362 1.172-1.17 4.023-.22 6.368 2.123 2.346 2.343 3.297 5.191 2.125 6.362-1.172 1.17-4.023.22-6.368-2.123zM110.486 118.903c-1.172-1.171-.221-4.019 2.125-6.362 2.345-2.343 5.196-3.293 6.368-2.123 1.172 1.171.221 4.019-2.125 6.362-2.345 2.343-5.196 3.293-6.368 2.123z" fill="#FFFBCC"/><path d="m108.01 104.554 3.395 3.391-3.395 3.391-3.395-3.391 3.395-3.391z" fill="#FFED00"/><path d="M72.75 120.786h22.51v22.487H72.75v-22.487z" fill="#FFFBCC"/><path d="M84.002 120.043c0 6.623-5.372 11.989-12.002 11.989v-11.989h12.002zM84.002 120.043h12.002v11.989c-6.63 0-12.002-5.366-12.002-11.989zM72 132.032c6.63 0 12.002 5.367 12.002 11.989H72v-11.989zM96.004 132.032v11.989H84.002c0-6.622 5.373-11.989 12.002-11.989z" fill="#FFED00"/><path d="m84.003 128.64 3.395 3.391-3.395 3.391-3.395-3.391 3.395-3.391z" fill="#1E5F6C"/><path d="M48.75 96.705h22.51v22.487H48.75V96.705z" fill="#FFED00"/><path d="M60.002 95.957c0 6.623-5.372 11.989-12.002 11.989v-11.99h12.002zM60.002 95.957h12.002v11.989c-6.63 0-12.002-5.366-12.002-11.99zM48 107.946c6.63 0 12.002 5.367 12.002 11.99H48v-11.99zM72.004 107.946v11.99H60.002c0-6.623 5.372-11.99 12.002-11.99z" fill="#8DAEB5"/><path d="m60.005 104.553 3.394 3.391-3.394 3.391-3.395-3.391 3.395-3.391z" fill="#508F86"/><path d="M72.005 95.957H96.01v23.979H72.005v-23.98z" fill="#FFFBCC"/><path d="M76.806 100.753H91.21v14.387H76.806v-14.387z" fill="#1E5F6C"/><path d="m84.01 97.772 10.184 10.173-10.184 10.174-10.184-10.174L84.01 97.772z" fill="#1E5F6C"/><path d="m78.565 107.947 5.442-5.436 5.441 5.436-5.441 5.436-5.442-5.436z" fill="#FFF7DB"/><path d="M80.158 104.105h7.695v7.687h-7.695v-7.687z" fill="#FFF7DB"/><path d="M82.313 106.249h3.394v3.39h-3.394v-3.39z" fill="#FFC45A"/><path d="m84.013 105.548 2.4 2.397-2.4 2.398-2.4-2.398 2.4-2.397z" fill="#FFED00"/><path d="M96.002 120.043h24.004v23.978H96.002v-23.978z" fill="#8DAEB5"/><path d="M113.328 134.171c-2.363 0-4.278-.958-4.278-2.139 0-1.181 1.915-2.139 4.278-2.139 2.362 0 4.277.958 4.277 2.139 0 1.181-1.915 2.139-4.277 2.139zM102.68 134.171c-2.362 0-4.277-.958-4.277-2.139 0-1.181 1.915-2.139 4.277-2.139 2.363 0 4.278.958 4.278 2.139 0 1.181-1.915 2.139-4.278 2.139zM108.004 130.992c-1.182 0-2.141-1.914-2.141-4.273 0-2.36.959-4.273 2.141-4.273 1.183 0 2.141 1.913 2.141 4.273 0 2.359-.958 4.273-2.141 4.273zM108.004 141.624c-1.182 0-2.141-1.913-2.141-4.273 0-2.36.959-4.273 2.141-4.273 1.183 0 2.141 1.913 2.141 4.273 0 2.36-.958 4.273-2.141 4.273z" fill="#FFED00"/><path d="m108.007 128.639 3.394 3.391-3.394 3.391-3.395-3.391 3.395-3.391z" fill="#508F86"/><path d="M48.007 47.957H24.003v23.979h24.004v-23.98z" fill="#1E5F6C"/><path d="M43.408 52.551a7.492 7.492 0 0 0-6.37-2.12 7.493 7.493 0 0 0 2.121 6.364 7.492 7.492 0 0 0 6.37 2.12 7.47 7.47 0 0 0-2.121-6.364zM43.405 67.34c2.346-2.344 3.297-5.192 2.125-6.362-1.172-1.17-4.023-.22-6.368 2.122-2.346 2.343-3.297 5.192-2.125 6.362 1.172 1.17 4.023.22 6.368-2.123zM32.843 56.789c2.346-2.343 3.297-5.191 2.125-6.362-1.171-1.17-4.023-.22-6.368 2.123-2.345 2.343-3.297 5.191-2.125 6.362 1.172 1.17 4.023.22 6.368-2.123zM32.845 63.102a7.474 7.474 0 0 1 2.122 6.364 7.511 7.511 0 0 1-6.371-2.12 7.474 7.474 0 0 1-2.122-6.364 7.487 7.487 0 0 1 6.37 2.12z" fill="#FFFBCC"/><path d="m36.004 56.553-3.395 3.39 3.395 3.392 3.394-3.391-3.395-3.391zM96.016 47.958H72.012v23.978h24.004V47.958z" fill="#508F86"/><path d="M94.98 57.475c1.171-1.17.22-4.019-2.125-6.362-2.346-2.343-5.197-3.293-6.369-2.123-1.171 1.171-.22 4.02 2.125 6.362 2.346 2.343 5.197 3.294 6.369 2.123zM92.855 68.78c2.345-2.343 3.296-5.191 2.125-6.362-1.172-1.17-4.023-.22-6.369 2.123-2.345 2.343-3.296 5.191-2.125 6.362 1.172 1.17 4.023.22 6.369-2.123zM79.413 55.352c2.345-2.343 3.297-5.191 2.125-6.362-1.172-1.17-4.023-.22-6.368 2.123-2.346 2.343-3.297 5.191-2.125 6.362 1.171 1.17 4.023.22 6.368-2.123zM81.538 70.903c1.172-1.17.22-4.019-2.125-6.362s-5.197-3.293-6.368-2.123c-1.172 1.17-.22 4.019 2.125 6.362s5.196 3.293 6.368 2.123z" fill="#FFFBCC"/><path d="m84.014 56.554-3.395 3.39 3.395 3.392 3.395-3.391-3.395-3.391z" fill="#FFED00"/><path d="M47.258 24.722h-22.51v22.487h22.51V24.722z" fill="#FFFBCC"/><path d="M36.005 23.978c0 6.623 5.372 11.99 12.002 11.99v-11.99H36.005zM36.005 23.978H24.003v11.99c6.63 0 12.002-5.367 12.002-11.99z" fill="#FFED00"/><path d="M48.007 35.968c-6.63 0-12.002 5.366-12.002 11.989h12.002v-11.99z" fill="#FFED00"/><path d="M24.003 35.968v11.989h12.002c0-6.623-5.372-11.99-12.002-11.99z" fill="#FFED00"/><path d="m36.004 32.575-3.394 3.391 3.394 3.391 3.395-3.39-3.395-3.392z" fill="#1E5F6C"/><path d="M96.004 72.043H72V96.02h24.004V72.043z" fill="#8DAEB5"/><path d="M91.203 76.839H76.801v14.387h14.402V76.839z" fill="#FFFBCC"/><path d="M84 73.858 73.818 84.031 84 94.204l10.183-10.173-10.183-10.173z" fill="#FFFBCC"/><path d="m89.444 84.034-5.442-5.436-5.441 5.436 5.441 5.436 5.442-5.436z" fill="#1E5F6C"/><path d="M87.852 80.19h-7.696v7.688h7.696v-7.687z" fill="#1E5F6C"/><path d="M85.696 82.335h-3.394v3.39h3.394v-3.39z" fill="#8DAEB5"/><path d="m83.997 81.634-2.4 2.397 2.4 2.398 2.4-2.398-2.4-2.397z" fill="#8DAEB5"/><path d="M120.019 47.957H96.015v23.979h24.004v-23.98z" fill="#FFFBCC"/><path d="M115.218 52.753h-14.403V67.14h14.403V52.753z" fill="#1E5F6C"/><path d="M108.014 49.772 97.83 59.945l10.184 10.173 10.184-10.173-10.184-10.173z" fill="#1E5F6C"/><path d="m113.459 59.947-5.442-5.436-5.441 5.436 5.441 5.436 5.442-5.436z" fill="#FFF7DB"/><path d="M111.866 56.105h-7.695v7.687h7.695v-7.687z" fill="#FFF7DB"/><path d="M109.711 58.249h-3.394v3.39h3.394v-3.39z" fill="#FFC45A"/><path d="m108.011 57.548-2.4 2.397 2.4 2.398 2.4-2.398-2.4-2.397z" fill="#FFED00"/><path d="M72.012 0H48.008v23.979h24.004V-.002z" fill="#FFFBCC"/><path d="M67.21 4.796H52.81v14.387H67.21V4.796z" fill="#1E5F6C"/><path d="M60.008 1.815 49.825 11.988l10.183 10.174 10.184-10.174L60.01 1.815z" fill="#1E5F6C"/><path d="M65.452 11.99 60.01 6.556 54.57 11.99l5.441 5.435 5.442-5.435z" fill="#FFFBCC"/><path d="M63.86 8.148h-7.696v7.687h7.695V8.148z" fill="#FFFBCC"/><path d="M61.704 10.291H58.31v3.391h3.394v-3.39z" fill="#FFED00"/><path d="m60.005 9.59-2.4 2.398 2.4 2.398 2.4-2.398-2.4-2.397zM48.004 72.043H24V96.02h24.004V72.043z" fill="#FFED00"/><path d="M28.8 91.226H24v4.79h4.8v-4.79z" fill="#508F86"/><path d="M24 88.828v7.193h7.201L24 88.828zM28.8 72.048H24v4.79h4.8v-4.79z" fill="#508F86"/><path d="M24 79.236v-7.193h7.201L24 79.236zM43.205 96.017h4.8v-4.79h-4.8v4.79z" fill="#508F86"/><path d="M48.005 88.828v7.193h-7.201l7.2-7.193zM43.205 76.838h4.8v-4.791h-4.8v4.79z" fill="#508F86"/><path d="M48.005 79.236v-7.193h-7.201l7.2 7.193z" fill="#508F86"/><path d="m43.203 84.027-7.2-7.192-7.2 7.192 7.2 7.192 7.2-7.192z" fill="#1E5F6C"/><path d="M41.09 78.944H30.908v10.172H41.09V78.944z" fill="#1E5F6C"/><path d="m36 80.857-3.177 3.174L36 87.205l3.178-3.174L36 80.857z" fill="#FFED00"/><path d="M72.012 47.957H48.008v23.979h24.004V47.957z" fill="#508F86"/><path d="M52.81 67.14h-4.801v4.79h4.8v-4.79z" fill="#FFED00"/><path d="M48.009 64.742v7.194h7.2l-7.2-7.194zM52.81 47.962h-4.801v4.79h4.8v-4.79z" fill="#FFED00"/><path d="M48.009 55.15v-7.193h7.2l-7.2 7.194zM67.215 71.931h4.8v-4.79h-4.8v4.79z" fill="#FFED00"/><path d="M72.015 64.742v7.194h-7.201l7.2-7.194zM67.215 52.752h4.8V47.96h-4.8v4.79z" fill="#FFED00"/><path d="M72.015 55.15v-7.193h-7.201l7.2 7.194zM67.212 59.94l-7.2-7.191-7.2 7.192 7.2 7.192 7.2-7.192z" fill="#FFED00"/><path d="M65.1 54.858H54.917V65.03H65.1V54.858z" fill="#FFED00"/><path d="m60.008 56.773-3.177 3.173 3.177 3.175 3.177-3.175-3.177-3.173z" fill="#1E5F6C"/><path d="M120.007 72.043H96.003V96.02h24.004V72.043z" fill="#FFED00"/><path d="M100.803 91.226h-4.801v4.79h4.801v-4.79z" fill="#1E5F6C"/><path d="M96.002 88.828v7.193h7.201l-7.201-7.193zM100.803 72.048h-4.801v4.79h4.801v-4.79z" fill="#1E5F6C"/><path d="M96.002 79.237v-7.194h7.201l-7.201 7.194zM120.007 88.828v7.193h-7.201l7.201-7.193zM120.007 79.237v-7.194h-7.201l7.201 7.194z" fill="#1E5F6C"/><path d="m115.205 84.028-7.2-7.193-7.2 7.193 7.2 7.192 7.2-7.192z" fill="#CDD9C2"/><path d="M113.094 78.944h-10.183v10.172h10.183V78.944z" fill="#CDD9C2"/><path d="m108.005 80.857-3.178 3.174 3.178 3.174 3.177-3.174-3.177-3.174zM95.005.043H71v23.979h24.004V.041z" fill="#FFED00"/><path d="M75.8 19.226H71v4.79h4.8v-4.79z" fill="#1E5F6C"/><path d="M71 16.828v7.193h7.201L71 16.828zM75.8.048H71v4.79h4.8V.049z" fill="#1E5F6C"/><path d="M71 7.236V.043h7.201L71 7.236zM90.205 24.017h4.8v-4.79h-4.8v4.79z" fill="#1E5F6C"/><path d="M95.005 16.828v7.193h-7.201l7.2-7.193zM90.205 4.838h4.8V.047h-4.8v4.79z" fill="#1E5F6C"/><path d="M95.005 7.236V.043h-7.201l7.2 7.193z" fill="#1E5F6C"/><path d="m90.204 12.027-7.2-7.192-7.2 7.192 7.2 7.193 7.2-7.192z" fill="#CDD9C2"/><path d="M88.092 6.944H77.909v10.172h10.183V6.944z" fill="#CDD9C2"/><path d="m83.003 8.857-3.178 3.174 3.178 3.174 3.177-3.174-3.177-3.174z" fill="#FFED00"/><path d="M120.018 23.978H96.014v23.979h24.004V23.978z" fill="#1E5F6C"/><path d="M106.979 34.934c1.172-1.17.221-4.018-2.125-6.361-2.345-2.343-5.196-3.294-6.368-2.123-1.172 1.17-.22 4.019 2.125 6.362s5.197 3.293 6.368 2.122zM115.419 39.123a7.493 7.493 0 0 0-6.371-2.12 7.492 7.492 0 0 0 2.122 6.364 7.492 7.492 0 0 0 6.371 2.12 7.471 7.471 0 0 0-2.122-6.364zM115.419 32.812a7.493 7.493 0 0 1-6.371 2.12 7.493 7.493 0 0 1 2.122-6.364 7.493 7.493 0 0 1 6.371-2.12 7.471 7.471 0 0 1-2.122 6.364zM104.854 43.362c2.346-2.343 3.297-5.191 2.125-6.361-1.171-1.171-4.023-.22-6.368 2.122-2.345 2.343-3.297 5.191-2.125 6.362 1.172 1.17 4.023.22 6.368-2.123z" fill="#FFFBCC"/><path d="m108.014 32.576-3.394 3.391 3.394 3.391 3.395-3.39-3.395-3.392z" fill="#FFED00"/><path d="M72.012 23.978H48.008v23.979h24.004V23.978z" fill="#508F86"/><path d="M63.783 39.737c4.168-4.163 5.856-9.226 3.771-11.309-2.085-2.082-7.153-.396-11.32 3.768-4.169 4.163-5.857 9.226-3.772 11.309 2.085 2.082 7.153.395 11.32-3.768z" fill="#FFFBCC"/><path d="M67.554 43.505c2.085-2.083.397-7.146-3.771-11.31-4.168-4.163-9.236-5.85-11.321-3.767-2.085 2.083-.397 7.146 3.771 11.31 4.168 4.163 9.236 5.85 11.321 3.767z" fill="#FFFBCC"/><path d="m60.006 33.567-2.4 2.398 2.4 2.397 2.4-2.397-2.4-2.398z" fill="#508F86"/><path d="M24.004 47.957H0v23.979h24.004v-23.98z" fill="#FFFBCC"/><path d="M15.775 63.716c4.168-4.163 5.856-9.227 3.772-11.31-2.085-2.082-7.154-.395-11.322 3.768-4.167 4.163-5.856 9.227-3.771 11.31 2.085 2.082 7.153.395 11.321-3.768z" fill="#508F86"/><path d="M19.547 67.483c2.084-2.082.396-7.145-3.772-11.309-4.168-4.163-9.236-5.85-11.321-3.767-2.085 2.082-.396 7.146 3.771 11.309 4.168 4.163 9.237 5.85 11.322 3.767z" fill="#508F86"/><path d="m11.997 57.547-2.4 2.398 2.4 2.397 2.4-2.397-2.4-2.398z" fill="#FFFBCC"/><path d="M72.004 72.043H48V96.02h24.004V72.043z" fill="#508F86"/><path d="M54.677 86.171c2.362 0 4.278-.958 4.278-2.139 0-1.181-1.916-2.139-4.278-2.139-2.362 0-4.277.958-4.277 2.14 0 1.18 1.915 2.138 4.277 2.138zM65.326 86.171c2.362 0 4.277-.958 4.277-2.139 0-1.181-1.915-2.139-4.277-2.139s-4.278.958-4.278 2.14c0 1.18 1.916 2.138 4.278 2.138zM60.002 82.992c1.183 0 2.141-1.914 2.141-4.273 0-2.36-.958-4.273-2.141-4.273s-2.141 1.913-2.141 4.273c0 2.36.959 4.273 2.141 4.273zM60.002 93.624c1.183 0 2.141-1.913 2.141-4.273 0-2.36-.958-4.273-2.141-4.273s-2.141 1.913-2.141 4.273c0 2.36.959 4.273 2.141 4.273z" fill="#FFFBCC"/><path d="m60.001 80.64-3.394 3.39L60 87.421l3.395-3.39-3.395-3.392z" fill="#1E5F6C"/><path d="M96.016 23.978H72.012v23.979h24.004V23.978z" fill="#8DAEB5"/><path d="M78.69 38.107c2.363 0 4.278-.958 4.278-2.14 0-1.18-1.915-2.138-4.278-2.138-2.362 0-4.277.957-4.277 2.139 0 1.181 1.915 2.139 4.277 2.139zM89.338 38.107c2.362 0 4.277-.958 4.277-2.14 0-1.18-1.915-2.138-4.277-2.138-2.363 0-4.278.957-4.278 2.139 0 1.181 1.915 2.139 4.278 2.139zM84.014 34.927c1.182 0 2.14-1.913 2.14-4.273 0-2.36-.958-4.273-2.14-4.273-1.183 0-2.141 1.913-2.141 4.273 0 2.36.958 4.273 2.14 4.273zM84.014 45.56c1.182 0 2.14-1.914 2.14-4.274 0-2.36-.958-4.273-2.14-4.273-1.183 0-2.141 1.913-2.141 4.273 0 2.36.958 4.273 2.14 4.273z" fill="#FFED00"/><path d="m84.011 32.575-3.394 3.39 3.394 3.392 3.395-3.391-3.395-3.391z" fill="#508F86"/></svg>