<svg width="80" height="103" viewBox="0 0 80 103" fill="none" xmlns="http://www.w3.org/2000/svg">
<path d="M18.4349 82.1071V102.634H-2.07034V82.1071H18.4349Z" fill="#1E5F6C"/>
<path d="M14.5054 86.0396C15.99 87.5257 16.5928 89.5538 16.318 91.4874C14.3905 91.7625 12.3605 91.1549 10.8759 89.6729C9.39135 88.1867 8.78849 86.1587 9.06326 84.225C10.9949 83.95 13.0249 84.5535 14.5054 86.0396Z" fill="#FFFBCC"/>
<path d="M1.85895 86.0411C3.86248 84.0354 6.29811 83.2218 7.29908 84.2239C8.30005 85.2259 7.4873 87.6641 5.48377 89.6697C3.48024 91.6754 1.0446 92.489 0.0436382 91.4869C-0.957328 90.4849 -0.144586 88.0467 1.85895 86.0411Z" fill="#FFFBCC"/>
<path d="M10.8811 95.0731C12.8846 93.0674 15.3202 92.2538 16.3212 93.2558C17.3222 94.2579 16.5094 96.6961 14.5059 98.7017C12.5024 100.707 10.0667 101.521 9.06576 100.519C8.0648 99.5169 8.87754 97.0787 10.8811 95.0731Z" fill="#FFFBCC"/>
<path d="M5.48142 95.0721C3.99684 93.5859 1.97091 92.9824 0.0393081 93.2575C-0.235463 95.187 0.371499 97.2192 1.85198 98.7053C3.33656 100.191 5.36248 100.795 7.29408 100.52C7.56885 98.5863 6.966 96.5541 5.48142 95.0721Z" fill="#FFFBCC"/>
<path d="M11.0837 92.3713L8.18384 95.2742L5.28398 92.3713L8.18384 89.4683L11.0837 92.3713Z" fill="#508F86"/>
<path d="M18.4351 41.0532V61.5801H-2.07019V41.0532H18.4351Z" fill="#508F86"/>
<path d="M10.2955 41.9392C11.2965 40.9372 13.7321 41.7508 15.7356 43.7564C17.7392 45.7621 18.5519 48.2003 17.5509 49.2023C16.55 50.2043 14.1143 49.3907 12.1108 47.3851C10.1073 45.3794 9.29452 42.9412 10.2955 41.9392Z" fill="#FFFBCC"/>
<path d="M0.628631 43.7564C2.63217 41.7508 5.06779 40.9372 6.06876 41.9392C7.06973 42.9412 6.25699 45.3794 4.25345 47.3851C2.24992 49.3907 -0.185711 50.2043 -1.18668 49.2023C-2.18764 48.2003 -1.3749 45.7621 0.628631 43.7564Z" fill="#FFFBCC"/>
<path d="M12.1117 55.2515C14.1152 53.2459 16.5508 52.4323 17.5518 53.4343C18.5528 54.4363 17.74 56.8745 15.7365 58.8802C13.7329 60.8858 11.2973 61.6994 10.2964 60.6974C9.29539 59.6954 10.1081 57.2572 12.1117 55.2515Z" fill="#FFFBCC"/>
<path d="M-1.18754 53.4343C-0.186577 52.4323 2.24906 53.2459 4.25259 55.2515C6.25613 57.2572 7.06887 59.6954 6.0679 60.6974C5.06694 61.6994 2.6313 60.8858 0.627769 58.8802C-1.37577 56.8745 -2.18851 54.4363 -1.18754 53.4343Z" fill="#FFFBCC"/>
<path d="M11.0838 51.3171L8.18399 54.22L5.28413 51.3171L8.18399 48.4141L11.0838 51.3171Z" fill="#FFED00"/>
<path d="M38.3065 82.7477V101.998H19.0767V82.7477H38.3065Z" fill="#FFFBCC"/>
<path d="M38.9413 92.3706C33.2778 92.3706 28.6887 87.7767 28.6887 82.1072H38.9413V92.3706Z" fill="#FFED00"/>
<path d="M38.9413 92.3706V102.634H28.6887C28.6887 96.9645 33.2778 92.3706 38.9413 92.3706Z" fill="#FFED00"/>
<path d="M28.6888 82.1072C28.6888 87.7767 24.0997 92.3706 18.4361 92.3706V82.1072H28.6888Z" fill="#FFED00"/>
<path d="M28.6888 102.634H18.4361V92.3706C24.0997 92.3706 28.6888 96.9645 28.6888 102.634Z" fill="#FFED00"/>
<path d="M31.5886 92.3715L28.6888 95.2744L25.7889 92.3715L28.6888 89.4686L31.5886 92.3715Z" fill="#1E5F6C"/>
<path d="M79.3116 62.2213V81.4714H60.0818V62.2213H79.3116Z" fill="#FFED00"/>
<path d="M79.9502 71.8442C74.2867 71.8442 69.6976 67.2503 69.6976 61.5808H79.9502V71.8442Z" fill="#8DAEB5"/>
<path d="M79.9502 71.8442V82.1077H69.6976C69.6976 76.4381 74.2867 71.8442 79.9502 71.8442Z" fill="#8DAEB5"/>
<path d="M69.6977 61.5808C69.6977 67.2503 65.1086 71.8442 59.445 71.8442V61.5808H69.6977Z" fill="#8DAEB5"/>
<path d="M69.6977 82.1077H59.445V71.8442C65.1086 71.8442 69.6977 76.4381 69.6977 82.1077Z" fill="#8DAEB5"/>
<path d="M72.5994 71.8451L69.6995 74.748L66.7997 71.8451L69.6995 68.9422L72.5994 71.8451Z" fill="#1E5F6C"/>
<path d="M17.7964 0.640001V19.8901H-1.4335V0.640001H17.7964Z" fill="#FFED00"/>
<path d="M18.4349 10.2629C12.7714 10.2629 8.1823 5.66902 8.1823 -0.000514984H18.4349V10.2629Z" fill="#8DAEB5"/>
<path d="M18.4349 10.2629V20.5264H8.1823C8.1823 14.8568 12.7714 10.2629 18.4349 10.2629Z" fill="#8DAEB5"/>
<path d="M8.18237 -0.000514984C8.18237 5.66902 3.59329 10.2629 -2.07027 10.2629V-0.000514984H8.18237Z" fill="#8DAEB5"/>
<path d="M8.18237 20.5264H-2.07027V10.2629C3.59329 10.2629 8.18237 14.8568 8.18237 20.5264Z" fill="#8DAEB5"/>
<path d="M11.0841 10.2646L8.18423 13.1675L5.28438 10.2646L8.18423 7.36165L11.0841 10.2646Z" fill="#508F86"/>
<path d="M79.9502 102.634V123.161H59.4449V102.634H79.9502Z" fill="#8DAEB5"/>
<path d="M18.4349 20.5261V41.053H-2.07034V20.5261H18.4349Z" fill="#FFFBCC"/>
<path d="M14.3328 24.6311V36.9473H2.02963V24.6311H14.3328Z" fill="#1E5F6C"/>
<path d="M16.8819 30.7917L8.18237 39.5005L-0.517197 30.7917L8.18237 22.083L16.8819 30.7917Z" fill="#1E5F6C"/>
<path d="M8.18124 26.1362L12.8297 30.7896L8.18124 35.4429L3.53277 30.7896L8.18124 26.1362Z" fill="#FFF7DB"/>
<path d="M11.4667 27.497V34.0779H4.89271V27.497H11.4667Z" fill="#FFF7DB"/>
<path d="M9.63501 29.3402V32.2427H6.73556V29.3402H9.63501Z" fill="#FFC45A"/>
<path d="M10.2326 30.7946L8.18237 32.8469L6.13217 30.7946L8.18237 28.7422L10.2326 30.7946Z" fill="#FFED00"/>
<path d="M59.4458 61.5808V82.1077H38.9405V61.5808H59.4458Z" fill="#FFFBCC"/>
<path d="M55.3436 65.6861V78.0022H43.0405V65.6861H55.3436Z" fill="#1E5F6C"/>
<path d="M57.8927 71.8459L49.1932 80.5547L40.4936 71.8459L49.1932 63.1372L57.8927 71.8459Z" fill="#1E5F6C"/>
<path d="M49.1921 67.1911L53.8405 71.8445L49.1921 76.4979L44.5436 71.8445L49.1921 67.1911Z" fill="#FFFBCC"/>
<path d="M52.4775 68.5519V75.1328H45.9035V68.5519H52.4775Z" fill="#FFFBCC"/>
<path d="M50.6458 70.3951V73.2976H47.7464V70.3951H50.6458Z" fill="#FFED00"/>
<path d="M51.2434 71.8485L49.1932 73.9009L47.143 71.8485L49.1932 69.7962L51.2434 71.8485Z" fill="#FFED00"/>
<path d="M59.4458 41.0527V61.5796H38.9405V41.0527H59.4458Z" fill="#FFED00"/>
<path d="M43.0434 57.4737V61.5791H38.9465V57.4737H43.0434Z" fill="#508F86"/>
<path d="M45.0936 61.5793H38.942V55.4213L45.0936 61.5793Z" fill="#508F86"/>
<path d="M59.4418 57.4737V61.5791H55.3448V57.4737H59.4418Z" fill="#508F86"/>
<path d="M53.2939 61.5793H59.4455V55.4213L53.2939 61.5793Z" fill="#508F86"/>
<path d="M38.945 45.1576V41.0522H43.042V45.1576H38.945Z" fill="#508F86"/>
<path d="M45.0936 41.0524H38.942V47.2104L45.0936 41.0524Z" fill="#508F86"/>
<path d="M55.3455 45.1579V41.0525H59.4424V45.1579H55.3455Z" fill="#508F86"/>
<path d="M53.2942 41.0524H59.4458V47.2104L53.2942 41.0524Z" fill="#508F86"/>
<path d="M49.1986 45.1583L55.3492 51.3154L49.1986 57.4725L43.048 51.3154L49.1986 45.1583Z" fill="#1E5F6C"/>
<path d="M53.5455 46.9639V55.6714H44.8472V46.9639H53.5455Z" fill="#1E5F6C"/>
<path d="M51.9074 51.3173L49.1932 54.0344L46.4789 51.3173L49.1932 48.6002L51.9074 51.3173Z" fill="#FFED00"/>
<path d="M18.4349 61.5805V82.1074H-2.07034V61.5805H18.4349Z" fill="#508F86"/>
<path d="M2.03201 78.0028V82.1082H-2.06494V78.0028H2.03201Z" fill="#FFED00"/>
<path d="M4.08206 82.1082H-2.06952V75.9501L4.08206 82.1082Z" fill="#FFED00"/>
<path d="M18.4307 78.0025V82.1079H14.3337V78.0025H18.4307Z" fill="#FFED00"/>
<path d="M12.2828 82.1079H18.4344V75.9498L12.2828 82.1079Z" fill="#FFED00"/>
<path d="M-2.06638 65.6852L-2.06638 61.5798H2.03058L2.03058 65.6852H-2.06638Z" fill="#FFED00"/>
<path d="M4.08206 61.58H-2.06952V67.738L4.08206 61.58Z" fill="#FFED00"/>
<path d="M14.3341 65.685V61.5796H18.4311V65.685H14.3341Z" fill="#FFED00"/>
<path d="M12.2828 61.58H18.4344V67.738L12.2828 61.58Z" fill="#FFED00"/>
<path d="M8.18778 65.6859L14.3384 71.843L8.18779 78.0001L2.03719 71.843L8.18778 65.6859Z" fill="#FFED00"/>
<path d="M12.5347 67.4919V76.1995H3.83636V67.4919H12.5347Z" fill="#FFED00"/>
<path d="M10.8966 71.8463L8.18237 74.5635L5.46811 71.8464L8.18237 69.1292L10.8966 71.8463Z" fill="#1E5F6C"/>
<path d="M79.9502 82.1071V102.634H59.4449V82.1071H79.9502Z" fill="#FFED00"/>
<path d="M63.5465 98.5287V102.634H59.4496V98.5287H63.5465Z" fill="#1E5F6C"/>
<path d="M65.5967 102.634H59.4452V96.476L65.5967 102.634Z" fill="#1E5F6C"/>
<path d="M79.9434 98.5287V102.634H75.8464V98.5287H79.9434Z" fill="#1E5F6C"/>
<path d="M73.7955 102.634H79.9471V96.476L73.7955 102.634Z" fill="#1E5F6C"/>
<path d="M59.4481 86.2121V82.1067H63.5451V86.2121H59.4481Z" fill="#1E5F6C"/>
<path d="M65.5967 82.1068H59.4452V88.2649L65.5967 82.1068Z" fill="#1E5F6C"/>
<path d="M75.8468 86.2121V82.1067H79.9438V86.2121H75.8468Z" fill="#1E5F6C"/>
<path d="M73.7955 82.1068H79.9471V88.2649L73.7955 82.1068Z" fill="#1E5F6C"/>
<path d="M69.7012 86.213L75.8518 92.3701L69.7012 98.5272L63.5506 92.3701L69.7012 86.213Z" fill="#CDD9C2"/>
<path d="M74.05 88.0186V96.7261H65.3517V88.0186H74.05Z" fill="#CDD9C2"/>
<path d="M72.4119 92.3715L69.6977 95.0886L66.9834 92.3715L69.6977 89.6544L72.4119 92.3715Z" fill="#FFED00"/>
<path d="M38.9403 102.634V123.161H18.4351V102.634H38.9403Z" fill="#8DAEB5"/>
<path d="M38.9403 20.5253V41.0522H18.4351V20.5253H38.9403Z" fill="#1E5F6C"/>
<path d="M29.5717 31.6755C30.5727 30.6735 33.0083 31.4871 35.0119 33.4927C37.0154 35.4984 37.8281 37.9366 36.8272 38.9386C35.8262 39.9406 33.3906 39.127 31.387 37.1214C29.3835 35.1157 28.5708 32.6775 29.5717 31.6755Z" fill="#FFFBCC"/>
<path d="M25.9883 24.4585C27.4728 25.9447 28.0757 27.9728 27.8009 29.9064C25.8734 30.1814 23.8434 29.5738 22.3588 28.0918C20.8742 26.6057 20.2714 24.5776 20.5461 22.644C22.4777 22.3689 24.5078 22.9724 25.9883 24.4585Z" fill="#FFFBCC"/>
<path d="M31.3865 24.4585C29.902 25.9447 29.2991 27.9728 29.5739 29.9064C31.5014 30.1814 33.5314 29.5738 35.016 28.0918C36.5006 26.6057 37.1034 24.5776 36.8287 22.644C34.8971 22.3689 32.867 22.9724 31.3865 24.4585Z" fill="#FFFBCC"/>
<path d="M22.3639 33.4927C24.3675 31.4871 26.8031 30.6735 27.8041 31.6755C28.805 32.6775 27.9923 35.1157 25.9887 37.1214C23.9852 39.127 21.5496 39.9406 20.5486 38.9386C19.5476 37.9366 20.3604 35.4984 22.3639 33.4927Z" fill="#FFFBCC"/>
<path d="M31.5887 30.7914L28.6888 33.6943L25.789 30.7914L28.6888 27.8885L31.5887 30.7914Z" fill="#FFED00"/>
<path d="M59.4458 82.1071V102.634H38.9405V82.1071H59.4458Z" fill="#8DAEB5"/>
<path d="M45.9695 89.1442C49.5297 85.5802 53.8596 84.1363 55.6405 85.9191C57.4214 87.7019 55.979 92.0363 52.4187 95.6003C48.8585 99.1643 44.5286 100.608 42.7477 98.8254C40.9668 97.0426 42.4092 92.7082 45.9695 89.1442Z" fill="#FFFBCC"/>
<path d="M42.7478 85.9191C44.5287 84.1363 48.8586 85.5802 52.4188 89.1442C55.979 92.7082 57.4215 97.0426 55.6405 98.8254C53.8596 100.608 49.5297 99.1643 45.9695 95.6003C42.4093 92.0363 40.9668 87.7019 42.7478 85.9191Z" fill="#FFFBCC"/>
<path d="M51.2434 92.3754L49.1932 94.4277L47.143 92.3754L49.1932 90.323L51.2434 92.3754Z" fill="#1E5F6C"/>
<path d="M38.9413 61.5808V82.1077H18.4361V61.5808H38.9413Z" fill="#508F86"/>
<path d="M25.465 68.6173C29.0253 65.0534 33.3551 63.6094 35.136 65.3922C36.917 67.175 35.4745 71.5094 31.9143 75.0734C28.3541 78.6374 24.0242 80.0814 22.2433 78.2986C20.4624 76.5158 21.9048 72.1813 25.465 68.6173Z" fill="#FFFBCC"/>
<path d="M22.2434 65.3922C24.0243 63.6094 28.3542 65.0533 31.9144 68.6173C35.4746 72.1813 36.9171 76.5158 35.1361 78.2986C33.3552 80.0814 29.0254 78.6374 25.4651 75.0734C21.9049 71.5094 20.4625 67.175 22.2434 65.3922Z" fill="#FFFBCC"/>
<path d="M30.7408 71.8478L28.6906 73.9001L26.6404 71.8478L28.6906 69.7954L30.7408 71.8478Z" fill="#508F86"/>
<path d="M18.4349 102.634V123.161H-2.07034V102.634H18.4349Z" fill="#FFFBCC"/>
<path d="M59.4458 102.634V123.161H38.9405V102.634H59.4458Z" fill="#508F86"/>
<path d="M38.9413 41.0527V61.5796H18.4361V41.0527H38.9413Z" fill="#8DAEB5"/>
<path d="M26.8605 55.869C26.8605 53.8488 27.6793 52.2111 28.6895 52.2111C29.6997 52.2111 30.5186 53.8488 30.5186 55.869C30.5186 57.8892 29.6997 59.5269 28.6895 59.5269C27.6793 59.5269 26.8605 57.8892 26.8605 55.869Z" fill="#FFED00"/>
<path d="M26.8605 46.7628C26.8605 44.7426 27.6793 43.1049 28.6895 43.1049C29.6997 43.1049 30.5186 44.7426 30.5186 46.7628C30.5186 48.783 29.6997 50.4207 28.6895 50.4207C27.6793 50.4207 26.8605 48.783 26.8605 46.7628Z" fill="#FFED00"/>
<path d="M29.5794 51.3157C29.5794 50.3045 31.2154 49.4847 33.2334 49.4847C35.2515 49.4847 36.8875 50.3045 36.8875 51.3157C36.8875 52.327 35.2515 53.1467 33.2334 53.1467C31.2154 53.1467 29.5794 52.327 29.5794 51.3157Z" fill="#FFED00"/>
<path d="M20.4863 51.3157C20.4863 50.3045 22.1223 49.4847 24.1404 49.4847C26.1584 49.4847 27.7944 50.3045 27.7944 51.3157C27.7944 52.327 26.1584 53.1467 24.1404 53.1467C22.1223 53.1467 20.4863 52.327 20.4863 51.3157Z" fill="#FFED00"/>
<path d="M31.5905 51.3175L28.6906 54.2205L25.7908 51.3175L28.6906 48.4146L31.5905 51.3175Z" fill="#508F86"/>
</svg>
