<svg width="100" height="299" viewBox="0 0 100 299" fill="none" xmlns="http://www.w3.org/2000/svg">
<path d="M24.6759 100.413V125.516H-0.400927V100.413H24.6759Z" fill="#1E5F6C"/>
<path d="M19.8709 105.222C21.6865 107.04 22.4237 109.52 22.0877 111.885C19.7305 112.221 17.2479 111.478 15.4323 109.666C13.6167 107.848 12.8795 105.368 13.2155 103.003C15.5777 102.667 18.0603 103.405 19.8709 105.222Z" fill="#FFFBCC"/>
<path d="M4.40559 105.224C6.8558 102.772 9.83444 101.777 11.0586 103.002C12.2827 104.227 11.2888 107.209 8.83854 109.662C6.38833 112.115 3.40969 113.11 2.18556 111.884C0.961433 110.659 1.95537 107.677 4.40559 105.224Z" fill="#FFFBCC"/>
<path d="M15.4398 116.27C17.89 113.817 20.8686 112.822 22.0927 114.048C23.3169 115.273 22.3229 118.255 19.8727 120.708C17.4225 123.16 14.4439 124.155 13.2197 122.93C11.9956 121.705 12.9896 118.723 15.4398 116.27Z" fill="#FFFBCC"/>
<path d="M8.83672 116.269C7.02115 114.451 4.54355 113.713 2.18132 114.049C1.84529 116.409 2.58757 118.894 4.39812 120.712C6.21368 122.529 8.69126 123.267 11.0535 122.931C11.3895 120.566 10.6523 118.081 8.83672 116.269Z" fill="#FFFBCC"/>
<path d="M15.6864 112.966L12.1401 116.516L8.59371 112.966L12.1401 109.415L15.6864 112.966Z" fill="#508F86"/>
<path d="M24.6754 50.2062V75.3094H-0.401415V50.2062H24.6754Z" fill="#508F86"/>
<path d="M14.7207 51.2899C15.9448 50.0645 18.9234 51.0595 21.3736 53.5123C23.8239 55.9651 24.8178 58.9469 23.5937 60.1723C22.3695 61.3977 19.3909 60.4027 16.9407 57.9499C14.4905 55.4971 13.4965 52.5153 14.7207 51.2899Z" fill="#FFFBCC"/>
<path d="M2.89783 53.5123C5.34804 51.0595 8.32668 50.0645 9.55081 51.2899C10.7749 52.5154 9.781 55.4971 7.33079 57.9499C4.88058 60.4027 1.90194 61.3977 0.677809 60.1723C-0.546318 58.9469 0.447619 55.9651 2.89783 53.5123Z" fill="#FFFBCC"/>
<path d="M16.942 67.5703C19.3922 65.1175 22.3709 64.1225 23.595 65.3479C24.8191 66.5733 23.8252 69.5551 21.375 72.0079C18.9248 74.4607 15.9461 75.4557 14.722 74.2303C13.4979 73.0049 14.4918 70.0231 16.942 67.5703Z" fill="#FFFBCC"/>
<path d="M0.67806 65.3479C1.90219 64.1225 4.88083 65.1175 7.33104 67.5703C9.78126 70.0231 10.7752 73.0049 9.55107 74.2303C8.32695 75.4557 5.3483 74.4607 2.89809 72.0079C0.447875 69.5551 -0.546067 66.5733 0.67806 65.3479Z" fill="#FFFBCC"/>
<path d="M15.6853 62.7585L12.139 66.3086L8.59261 62.7585L12.139 59.2084L15.6853 62.7585Z" fill="#FFED00"/>
<path d="M48.9765 101.196V124.738H25.4594V101.196H48.9765Z" fill="#FFFBCC"/>
<path d="M49.7534 112.965C42.8272 112.965 37.215 107.347 37.215 100.413H49.7534V112.965Z" fill="#FFED00"/>
<path d="M49.7534 112.965V125.516H37.215C37.215 118.583 42.8272 112.965 49.7534 112.965Z" fill="#FFED00"/>
<path d="M37.2142 100.413C37.2142 107.347 31.602 112.965 24.6758 112.965V100.413H37.2142Z" fill="#FFED00"/>
<path d="M37.2142 125.516H24.6758V112.965C31.602 112.965 37.2142 118.583 37.2142 125.516Z" fill="#FFED00"/>
<path d="M40.7622 112.966L37.2158 116.516L33.6695 112.966L37.2158 109.416L40.7622 112.966Z" fill="#1E5F6C"/>
<path d="M99.1245 76.0934V99.6353H75.6074V76.0934H99.1245Z" fill="#FFED00"/>
<path d="M99.9062 87.8619C92.98 87.8619 87.3678 82.2438 87.3678 75.3103H99.9062V87.8619Z" fill="#8DAEB5"/>
<path d="M99.9062 87.8617V100.413H87.3678C87.3678 93.4798 92.98 87.8617 99.9062 87.8617Z" fill="#8DAEB5"/>
<path d="M87.3671 75.3103C87.3671 82.2438 81.7549 87.8619 74.8286 87.8619V75.3103H87.3671Z" fill="#8DAEB5"/>
<path d="M87.3671 100.413H74.8287V87.8617C81.7549 87.8617 87.3671 93.4798 87.3671 100.413Z" fill="#8DAEB5"/>
<path d="M90.9167 87.8627L87.3703 91.4128L83.8239 87.8627L87.3703 84.3126L90.9167 87.8627Z" fill="#1E5F6C"/>
<path d="M23.8943 0.783096V24.325H0.377228V0.783096H23.8943Z" fill="#FFED00"/>
<path d="M24.676 12.5518C17.7498 12.5518 12.1376 6.93364 12.1376 0.000117838H24.676V12.5518Z" fill="#8DAEB5"/>
<path d="M24.6759 12.5515V25.1031H12.1375C12.1375 18.1696 17.7497 12.5515 24.6759 12.5515Z" fill="#8DAEB5"/>
<path d="M12.1368 0.000117838C12.1368 6.93364 6.52465 12.5518 -0.401574 12.5518V0.000117838H12.1368Z" fill="#8DAEB5"/>
<path d="M12.1368 25.103H-0.401574V12.5514C6.52465 12.5514 12.1368 18.1695 12.1368 25.103Z" fill="#8DAEB5"/>
<path d="M15.6864 12.5533L12.1401 16.1034L8.59371 12.5533L12.1401 9.00318L15.6864 12.5533Z" fill="#508F86"/>
<path d="M99.9062 125.516V150.619H74.8294V125.516H99.9062Z" fill="#8DAEB5"/>
<path d="M94.8906 130.536V145.598H79.8445V130.536H94.8906Z" fill="#FFFBCC"/>
<path d="M98.0077 138.069L87.3687 148.719L76.7296 138.069L87.3687 127.418L98.0077 138.069Z" fill="#FFFBCC"/>
<path d="M87.3659 132.376L93.0507 138.067L87.3659 143.758L81.6811 138.067L87.3659 132.376Z" fill="#1E5F6C"/>
<path d="M91.3848 134.041V142.089H83.3451V134.041H91.3848Z" fill="#1E5F6C"/>
<path d="M89.1435 136.295V139.845H85.5976V136.295H89.1435Z" fill="#8DAEB5"/>
<path d="M89.8759 138.073L87.3687 140.583L84.8614 138.073L87.3686 135.563L89.8759 138.073Z" fill="#8DAEB5"/>
<path d="M24.6759 25.1028V50.2061H-0.400927V25.1028H24.6759Z" fill="#FFFBCC"/>
<path d="M19.6603 30.1231V45.1851H4.61424L4.61424 30.1231H19.6603Z" fill="#1E5F6C"/>
<path d="M22.7776 37.6572L12.1385 48.3075L1.49939 37.6572L12.1385 27.0069L22.7776 37.6572Z" fill="#1E5F6C"/>
<path d="M12.1373 31.9638L17.8221 37.6547L12.1373 43.3455L6.4525 37.6547L12.1373 31.9638Z" fill="#FFF7DB"/>
<path d="M16.1546 33.6279V41.676H8.11497V33.6279H16.1546Z" fill="#FFF7DB"/>
<path d="M13.9133 35.882V39.4316H10.3674V35.882H13.9133Z" fill="#FFC45A"/>
<path d="M14.6458 37.6604L12.1385 40.1703L9.63121 37.6604L12.1385 35.1504L14.6458 37.6604Z" fill="#FFED00"/>
<path d="M74.8289 75.3102V100.413H49.752V75.3102H74.8289Z" fill="#FFFBCC"/>
<path d="M69.8132 80.3304V95.3923H54.7671V80.3304H69.8132Z" fill="#1E5F6C"/>
<path d="M72.9304 87.8637L62.2913 98.514L51.6522 87.8637L62.2913 77.2134L72.9304 87.8637Z" fill="#1E5F6C"/>
<path d="M62.2885 82.1712L67.9733 87.8621L62.2885 93.5529L56.6037 87.8621L62.2885 82.1712Z" fill="#FFFBCC"/>
<path d="M66.3074 83.8352V91.8833H58.2677V83.8352H66.3074Z" fill="#FFFBCC"/>
<path d="M64.0661 86.0894V89.639H60.5202V86.0894H64.0661Z" fill="#FFED00"/>
<path d="M64.7985 87.8669L62.2913 90.3768L59.784 87.8669L62.2913 85.357L64.7985 87.8669Z" fill="#FFED00"/>
<path d="M74.8289 50.2058V75.3091H49.752V50.2058H74.8289Z" fill="#FFED00"/>
<path d="M54.7686 70.2881V75.3087H49.7583V70.2881H54.7686Z" fill="#508F86"/>
<path d="M57.2764 75.309H49.7534V67.778L57.2764 75.309Z" fill="#508F86"/>
<path d="M74.8233 70.2878V75.3085H69.813V70.2878H74.8233Z" fill="#508F86"/>
<path d="M67.3051 75.3087H74.8282V67.7777L67.3051 75.3087Z" fill="#508F86"/>
<path d="M49.7578 55.226V50.2053H54.7682V55.226H49.7578Z" fill="#508F86"/>
<path d="M57.2764 50.2053H49.7534V57.7363L57.2764 50.2053Z" fill="#508F86"/>
<path d="M69.8141 55.2261V50.2054H74.8245V55.2261H69.8141Z" fill="#508F86"/>
<path d="M67.3051 50.2055H74.8282V57.7365L67.3051 50.2055Z" fill="#508F86"/>
<path d="M62.2962 55.2269L69.8181 62.7567L62.2962 70.2865L54.7744 62.7567L62.2962 55.2269Z" fill="#1E5F6C"/>
<path d="M67.6125 57.435V68.0839H56.975V57.435H67.6125Z" fill="#1E5F6C"/>
<path d="M65.6107 62.7591L62.2913 66.082L58.9719 62.7591L62.2913 59.4362L65.6107 62.7591Z" fill="#FFED00"/>
<path d="M24.676 75.31V100.413H-0.400806V75.31H24.676Z" fill="#508F86"/>
<path d="M4.61456 95.3934V100.414H-0.395783V95.3934H4.61456Z" fill="#FFED00"/>
<path d="M7.12238 100.414H-0.400674L-0.400674 92.8831L7.12238 100.414Z" fill="#FFED00"/>
<path d="M24.671 95.3934V100.414H19.6606V95.3934H24.671Z" fill="#FFED00"/>
<path d="M17.1529 100.414H24.6759V92.8831L17.1529 100.414Z" fill="#FFED00"/>
<path d="M-0.39624 80.3299L-0.39624 75.3092H4.61411L4.61411 80.3299H-0.39624Z" fill="#FFED00"/>
<path d="M7.12238 75.3093H-0.400674L-0.400674 82.8403L7.12238 75.3093Z" fill="#FFED00"/>
<path d="M19.6621 80.3299V75.3092H24.6725V80.3299H19.6621Z" fill="#FFED00"/>
<path d="M17.153 75.3093H24.676V82.8403L17.153 75.3093Z" fill="#FFED00"/>
<path d="M12.1434 80.3307L19.6652 87.8605L12.1434 95.3902L4.62154 87.8605L12.1434 80.3307Z" fill="#FFED00"/>
<path d="M17.4597 82.5395V93.1884H6.82213V82.5395H17.4597Z" fill="#FFED00"/>
<path d="M15.4562 87.8645L12.1368 91.1874L8.81745 87.8645L12.1368 84.5416L15.4562 87.8645Z" fill="#1E5F6C"/>
<path d="M99.9062 100.413V125.516H74.8294V100.413H99.9062Z" fill="#FFED00"/>
<path d="M79.8447 120.495V125.516H74.8343V120.495H79.8447Z" fill="#1E5F6C"/>
<path d="M82.3525 125.516H74.8294V117.985L82.3525 125.516Z" fill="#1E5F6C"/>
<path d="M99.9014 120.496V125.516H94.891V120.496H99.9014Z" fill="#1E5F6C"/>
<path d="M92.3832 125.516H99.9062V117.985L92.3832 125.516Z" fill="#1E5F6C"/>
<path d="M74.8339 105.433V100.413H79.8442V105.433H74.8339Z" fill="#1E5F6C"/>
<path d="M82.3525 100.413H74.8294V107.944L82.3525 100.413Z" fill="#1E5F6C"/>
<path d="M94.8922 105.433V100.413H99.9026V105.433H94.8922Z" fill="#1E5F6C"/>
<path d="M92.3832 100.413H99.9062V107.944L92.3832 100.413Z" fill="#1E5F6C"/>
<path d="M87.372 105.434L94.8938 112.964L87.372 120.494L79.8501 112.964L87.372 105.434Z" fill="#CDD9C2"/>
<path d="M92.6899 107.642V118.291H82.0524V107.642H92.6899Z" fill="#CDD9C2"/>
<path d="M90.6881 112.966L87.3687 116.289L84.0493 112.966L87.3687 109.643L90.6881 112.966Z" fill="#FFED00"/>
<path d="M49.7542 125.516V150.619H24.6773V125.516H49.7542Z" fill="#8DAEB5"/>
<path d="M40.5146 145.809C38.699 143.992 37.9617 141.512 38.2978 139.147C40.655 138.811 43.1376 139.554 44.9532 141.366C46.7687 143.184 47.506 145.664 47.17 148.029C44.8077 148.365 42.3251 147.627 40.5146 145.809Z" fill="#FFED00"/>
<path d="M33.9141 130.326C35.7297 132.143 36.4669 134.623 36.1309 136.988C33.7737 137.324 31.2911 136.581 29.4755 134.769C27.6599 132.951 26.9227 130.471 27.2587 128.106C29.6209 127.77 32.1036 128.508 33.9141 130.326Z" fill="#FFED00"/>
<path d="M40.5146 130.326C38.699 132.143 37.9617 134.623 38.2978 136.988C40.655 137.324 43.1376 136.581 44.9532 134.769C46.7687 132.951 47.506 130.471 47.17 128.106C44.8077 127.77 42.3251 128.508 40.5146 130.326Z" fill="#FFED00"/>
<path d="M29.4829 141.373C31.9331 138.92 34.9118 137.925 36.1359 139.151C37.36 140.376 36.3661 143.358 33.9159 145.811C31.4657 148.264 28.487 149.259 27.2629 148.033C26.0388 146.808 27.0327 143.826 29.4829 141.373Z" fill="#FFED00"/>
<path d="M40.7622 138.07L37.2158 141.62L33.6695 138.07L37.2158 134.519L40.7622 138.07Z" fill="#FFFBCC"/>
<path d="M49.7542 25.1024V50.2057H24.6773V25.1024H49.7542Z" fill="#1E5F6C"/>
<path d="M38.2957 38.7382C39.5199 37.5127 42.4985 38.5077 44.9487 40.9605C47.3989 43.4133 48.3929 46.3951 47.1687 47.6205C45.9446 48.846 42.966 47.851 40.5158 45.3982C38.0656 42.9454 37.0716 39.9636 38.2957 38.7382Z" fill="#FFFBCC"/>
<path d="M33.9141 29.9121C35.7297 31.7296 36.4669 34.2098 36.1309 36.5745C33.7737 36.9109 31.2911 36.1679 29.4755 34.3554C27.6599 32.5379 26.9227 30.0577 27.2587 27.693C29.6209 27.3566 32.1036 28.0946 33.9141 29.9121Z" fill="#FFFBCC"/>
<path d="M40.5146 29.9121C38.699 31.7296 37.9617 34.2098 38.2978 36.5745C40.655 36.9109 43.1376 36.1679 44.9532 34.3554C46.7687 32.5379 47.506 30.0577 47.17 27.693C44.8077 27.3566 42.3251 28.0946 40.5146 29.9121Z" fill="#FFFBCC"/>
<path d="M29.4813 40.9605C31.9315 38.5077 34.9102 37.5128 36.1343 38.7382C37.3584 39.9636 36.3645 42.9454 33.9143 45.3982C31.4641 47.851 28.4854 48.846 27.2613 47.6205C26.0372 46.3951 27.0311 43.4133 29.4813 40.9605Z" fill="#FFFBCC"/>
<path d="M40.7622 37.6569L37.2158 41.207L33.6695 37.6569L37.2158 34.1068L40.7622 37.6569Z" fill="#FFED00"/>
<path d="M74.8289 100.413V125.516H49.752V100.413H74.8289Z" fill="#8DAEB5"/>
<path d="M58.348 109.019C62.702 104.661 67.9972 102.895 70.1751 105.075C72.3531 107.255 70.5891 112.556 66.2351 116.915C61.8812 121.273 56.586 123.039 54.408 120.859C52.23 118.678 53.994 113.378 58.348 109.019Z" fill="#FFFBCC"/>
<path d="M54.4074 105.075C56.5854 102.895 61.8806 104.661 66.2346 109.019C70.5885 113.378 72.3525 118.678 70.1746 120.859C67.9966 123.039 62.7014 121.273 58.3474 116.915C53.9935 112.556 52.2295 107.255 54.4074 105.075Z" fill="#FFFBCC"/>
<path d="M64.7985 112.971L62.2913 115.48L59.784 112.971L62.2913 110.461L64.7985 112.971Z" fill="#1E5F6C"/>
<path d="M49.7534 75.3102V100.413H24.6766V75.3102H49.7534Z" fill="#508F86"/>
<path d="M33.2726 83.9154C37.6266 79.5569 42.9217 77.791 45.0997 79.9713C47.2777 82.1515 45.5137 87.4523 41.1597 91.8109C36.8057 96.1694 31.5105 97.9353 29.3326 95.755C27.1546 93.5748 28.9186 88.274 33.2726 83.9154Z" fill="#FFFBCC"/>
<path d="M29.332 79.9713C31.51 77.791 36.8051 79.5569 41.1591 83.9154C45.5131 88.274 47.2771 93.5748 45.0991 95.755C42.9212 97.9353 37.626 96.1694 33.272 91.8109C28.918 87.4523 27.154 82.1515 29.332 79.9713Z" fill="#FFFBCC"/>
<path d="M39.7247 87.8661L37.2175 90.376L34.7102 87.866L37.2175 85.3561L39.7247 87.8661Z" fill="#508F86"/>
<path d="M24.6759 125.516V150.619H-0.400927V125.516H24.6759Z" fill="#FFFBCC"/>
<path d="M8.19519 134.122C12.5492 129.764 17.8443 127.998 20.0223 130.178C22.2003 132.358 20.4363 137.659 16.0823 142.018C11.7283 146.376 6.43314 148.142 4.25517 145.962C2.07721 143.781 3.84121 138.481 8.19519 134.122Z" fill="#508F86"/>
<path d="M4.2546 130.178C6.43256 127.998 11.7278 129.764 16.0817 134.122C20.4357 138.481 22.1997 143.781 20.0217 145.962C17.8438 148.142 12.5486 146.376 8.19461 142.018C3.84064 137.659 2.07663 132.358 4.2546 130.178Z" fill="#508F86"/>
<path d="M14.6458 138.073L12.1385 140.583L9.63121 138.073L12.1385 135.564L14.6458 138.073Z" fill="#FFFBCC"/>
<path d="M74.8289 125.516V150.619H49.752V125.516H74.8289Z" fill="#508F86"/>
<path d="M60.054 143.636C60.054 141.165 61.0555 139.162 62.2909 139.162C63.5262 139.162 64.5277 141.165 64.5277 143.636C64.5277 146.106 63.5262 148.109 62.2909 148.109C61.0555 148.109 60.054 146.106 60.054 143.636Z" fill="#FFFBCC"/>
<path d="M60.054 132.499C60.054 130.029 61.0555 128.026 62.2909 128.026C63.5262 128.026 64.5277 130.029 64.5277 132.499C64.5277 134.97 63.5262 136.973 62.2909 136.973C61.0555 136.973 60.054 134.97 60.054 132.499Z" fill="#FFFBCC"/>
<path d="M63.3788 138.068C63.3788 136.831 65.3795 135.828 67.8475 135.828C70.3155 135.828 72.3162 136.831 72.3162 138.068C72.3162 139.304 70.3155 140.307 67.8475 140.307C65.3795 140.307 63.3788 139.304 63.3788 138.068Z" fill="#FFFBCC"/>
<path d="M52.2601 138.068C52.2601 136.831 54.2608 135.828 56.7288 135.828C59.1967 135.828 61.1974 136.831 61.1974 138.068C61.1974 139.304 59.1967 140.307 56.7288 140.307C54.2608 140.307 52.2601 139.304 52.2601 138.068Z" fill="#FFFBCC"/>
<path d="M65.8393 138.069L62.2929 141.619L58.7465 138.069L62.2929 134.519L65.8393 138.069Z" fill="#1E5F6C"/>
<path d="M49.7534 50.2058V75.3091H24.6766V50.2058H49.7534Z" fill="#8DAEB5"/>
<path d="M34.9786 68.3254C34.9786 65.8548 35.98 63.852 37.2154 63.852C38.4508 63.852 39.4523 65.8548 39.4523 68.3254C39.4523 70.796 38.4508 72.7988 37.2154 72.7988C35.98 72.7988 34.9786 70.796 34.9786 68.3254Z" fill="#FFED00"/>
<path d="M34.9786 57.1891C34.9786 54.7185 35.98 52.7157 37.2154 52.7157C38.4508 52.7157 39.4523 54.7185 39.4523 57.1891C39.4523 59.6597 38.4508 61.6625 37.2154 61.6625C35.98 61.6625 34.9786 59.6597 34.9786 57.1891Z" fill="#FFED00"/>
<path d="M38.3034 62.7571C38.3034 61.5204 40.304 60.5179 42.772 60.5179C45.24 60.5179 47.2407 61.5204 47.2407 62.7571C47.2407 63.9938 45.24 64.9963 42.772 64.9963C40.304 64.9963 38.3034 63.9938 38.3034 62.7571Z" fill="#FFED00"/>
<path d="M27.1846 62.7571C27.1846 61.5204 29.1853 60.5179 31.6533 60.5179C34.1213 60.5179 36.122 61.5204 36.122 62.7571C36.122 63.9938 34.1213 64.9963 31.6533 64.9963C29.1853 64.9963 27.1846 63.9938 27.1846 62.7571Z" fill="#FFED00"/>
<path d="M40.7638 62.7591L37.2175 66.3092L33.6711 62.7591L37.2175 59.209L40.7638 62.7591Z" fill="#508F86"/>
<path d="M21.5154 197.546V174.005H-2.00162V197.546H21.5154Z" fill="#FFFBCC"/>
<path d="M22.2924 185.778C15.3661 185.778 9.75394 191.396 9.75394 198.33H22.2924V185.778Z" fill="#FFED00"/>
<path d="M22.2924 185.778V173.227H9.75394C9.75394 180.16 15.3661 185.778 22.2924 185.778Z" fill="#FFED00"/>
<path d="M9.75317 198.33C9.75317 191.396 4.14098 185.778 -2.78524 185.778V198.33H9.75317Z" fill="#FFED00"/>
<path d="M9.75317 173.227H-2.78524V185.778C4.14098 185.778 9.75317 180.16 9.75317 173.227Z" fill="#FFED00"/>
<path d="M13.3011 185.777L9.75476 182.227L6.2084 185.777L9.75476 189.327L13.3011 185.777Z" fill="#1E5F6C"/>
<path d="M71.6634 222.65V199.108H48.1463V222.65H71.6634Z" fill="#FFED00"/>
<path d="M72.4451 210.881C65.5189 210.881 59.9067 216.499 59.9067 223.433H72.4451V210.881Z" fill="#8DAEB5"/>
<path d="M72.4453 210.881V198.33H59.9069C59.9069 205.263 65.5191 210.881 72.4453 210.881Z" fill="#8DAEB5"/>
<path d="M59.9059 223.433C59.9059 216.499 54.2937 210.881 47.3675 210.881V223.433H59.9059Z" fill="#8DAEB5"/>
<path d="M59.9059 198.33H47.3675V210.881C54.2938 210.881 59.9059 205.263 59.9059 198.33Z" fill="#8DAEB5"/>
<path d="M63.4555 210.88L59.9092 207.33L56.3628 210.88L59.9092 214.43L63.4555 210.88Z" fill="#1E5F6C"/>
<path d="M72.4453 173.227V148.124H47.3685V173.227H72.4453Z" fill="#8DAEB5"/>
<path d="M67.4294 168.207V153.145H52.3833V168.207H67.4294Z" fill="#FFFBCC"/>
<path d="M70.5467 160.674L59.9076 150.024L49.2685 160.674L59.9076 171.325L70.5467 160.674Z" fill="#FFFBCC"/>
<path d="M59.9048 166.367L65.5897 160.676L59.9048 154.985L54.22 160.676L59.9048 166.367Z" fill="#1E5F6C"/>
<path d="M63.9237 164.702V156.654H55.8841V164.702H63.9237Z" fill="#1E5F6C"/>
<path d="M61.6824 162.448V158.898H58.1366V162.448H61.6824Z" fill="#8DAEB5"/>
<path d="M62.4149 160.67L59.9076 158.16L57.4003 160.67L59.9076 163.18L62.4149 160.67Z" fill="#8DAEB5"/>
<path d="M47.3678 223.433V198.329H22.291V223.433H47.3678Z" fill="#FFFBCC"/>
<path d="M42.3521 218.413V203.351H27.306V218.413H42.3521Z" fill="#1E5F6C"/>
<path d="M45.4693 210.879L34.8302 200.229L24.1911 210.879L34.8302 221.53L45.4693 210.879Z" fill="#1E5F6C"/>
<path d="M34.8274 216.572L40.5123 210.881L34.8274 205.19L29.1426 210.881L34.8274 216.572Z" fill="#FFFBCC"/>
<path d="M38.8463 214.908V206.86H30.8067V214.908H38.8463Z" fill="#FFFBCC"/>
<path d="M36.605 212.653V209.104H33.0592V212.653H36.605Z" fill="#FFED00"/>
<path d="M37.3375 210.876L34.8302 208.366L32.3229 210.876L34.8302 213.386L37.3375 210.876Z" fill="#FFED00"/>
<path d="M47.3678 248.537V223.434H22.291V248.537H47.3678Z" fill="#FFED00"/>
<path d="M27.3074 228.455V223.434H22.297V228.455H27.3074Z" fill="#508F86"/>
<path d="M29.8152 223.434H22.2921V230.965L29.8152 223.434Z" fill="#508F86"/>
<path d="M47.3619 228.455V223.435H42.3516V228.455H47.3619Z" fill="#508F86"/>
<path d="M39.8438 223.434H47.3668V230.965L39.8438 223.434Z" fill="#508F86"/>
<path d="M22.2966 243.517V248.537H27.3069V243.517H22.2966Z" fill="#508F86"/>
<path d="M29.8152 248.537H22.2921V241.006L29.8152 248.537Z" fill="#508F86"/>
<path d="M42.3528 243.517V248.537H47.3631V243.517H42.3528Z" fill="#508F86"/>
<path d="M39.8438 248.537H47.3668V241.006L39.8438 248.537Z" fill="#508F86"/>
<path d="M34.8352 243.516L42.357 235.986L34.8352 228.456L27.3133 235.986L34.8352 243.516Z" fill="#1E5F6C"/>
<path d="M40.1514 241.308V230.659H29.5138V241.308H40.1514Z" fill="#1E5F6C"/>
<path d="M38.1496 235.984L34.8302 232.661L31.5108 235.984L34.8302 239.307L38.1496 235.984Z" fill="#FFED00"/>
<path d="M72.4453 198.33V173.227H47.3685V198.33H72.4453Z" fill="#FFED00"/>
<path d="M52.3832 178.247V173.227H47.3729V178.247H52.3832Z" fill="#1E5F6C"/>
<path d="M54.8911 173.227H47.368V180.758L54.8911 173.227Z" fill="#1E5F6C"/>
<path d="M72.4401 178.247V173.227H67.4298V178.247H72.4401Z" fill="#1E5F6C"/>
<path d="M64.9221 173.227H72.4451V180.758L64.9221 173.227Z" fill="#1E5F6C"/>
<path d="M47.3724 193.309V198.33H52.3828V193.309H47.3724Z" fill="#1E5F6C"/>
<path d="M54.8911 198.33H47.368V190.799L54.8911 198.33Z" fill="#1E5F6C"/>
<path d="M67.4307 193.309V198.33H72.4411V193.309H67.4307Z" fill="#1E5F6C"/>
<path d="M64.9219 198.33H72.4449V190.799L64.9219 198.33Z" fill="#1E5F6C"/>
<path d="M59.9109 193.309L67.4327 185.779L59.9109 178.249L52.3891 185.779L59.9109 193.309Z" fill="#CDD9C2"/>
<path d="M65.2288 191.101V180.452H54.5912V191.101H65.2288Z" fill="#CDD9C2"/>
<path d="M63.227 185.777L59.9076 182.454L56.5882 185.777L59.9076 189.1L63.227 185.777Z" fill="#FFED00"/>
<path d="M22.2929 173.227V148.124H-2.78392V173.227H22.2929Z" fill="#8DAEB5"/>
<path d="M13.0534 152.933C11.2379 154.751 10.5006 157.231 10.8367 159.596C13.1939 159.932 15.6765 159.189 17.492 157.377C19.3076 155.559 20.0449 153.079 19.7088 150.714C17.3466 150.378 14.864 151.116 13.0534 152.933Z" fill="#FFED00"/>
<path d="M6.45305 168.417C8.26861 166.6 9.00586 164.12 8.66983 161.755C6.31261 161.419 3.83001 162.162 2.01445 163.974C0.198885 165.792 -0.538381 168.272 -0.202351 170.637C2.15989 170.973 4.6425 170.235 6.45305 168.417Z" fill="#FFED00"/>
<path d="M13.0534 168.417C11.2379 166.6 10.5006 164.12 10.8367 161.755C13.1939 161.419 15.6765 162.162 17.492 163.974C19.3076 165.792 20.0449 168.272 19.7088 170.637C17.3466 170.973 14.864 170.235 13.0534 168.417Z" fill="#FFED00"/>
<path d="M2.02186 157.37C4.47207 159.823 7.45071 160.818 8.67484 159.592C9.89897 158.367 8.90503 155.385 6.45481 152.932C4.0046 150.479 1.02596 149.484 -0.198168 150.71C-1.4223 151.935 -0.428356 154.917 2.02186 157.37Z" fill="#FFED00"/>
<path d="M13.3011 160.674L9.75476 157.123L6.2084 160.674L9.75476 164.224L13.3011 160.674Z" fill="#FFFBCC"/>
<path d="M22.2929 273.641V248.537H-2.78392V273.641H22.2929Z" fill="#1E5F6C"/>
<path d="M10.8347 260.005C12.0588 261.23 15.0374 260.235 17.4877 257.782C19.9379 255.33 20.9318 252.348 19.7077 251.122C18.4836 249.897 15.5049 250.892 13.0547 253.345C10.6045 255.798 9.61055 258.779 10.8347 260.005Z" fill="#FFFBCC"/>
<path d="M6.45305 268.831C8.26861 267.013 9.00586 264.533 8.66983 262.168C6.31261 261.832 3.83001 262.575 2.01445 264.388C0.198885 266.205 -0.538381 268.685 -0.202351 271.05C2.15989 271.386 4.6425 270.648 6.45305 268.831Z" fill="#FFFBCC"/>
<path d="M13.0534 268.831C11.2379 267.013 10.5006 264.533 10.8367 262.168C13.1939 261.832 15.6765 262.575 17.492 264.388C19.3076 266.205 20.0449 268.685 19.7088 271.05C17.3466 271.386 14.864 270.648 13.0534 268.831Z" fill="#FFFBCC"/>
<path d="M2.02021 257.782C4.47042 260.235 7.44906 261.23 8.67319 260.005C9.89731 258.779 8.90338 255.798 6.45316 253.345C4.00295 250.892 1.02431 249.897 -0.199816 251.122C-1.42394 252.348 -0.430006 255.33 2.02021 257.782Z" fill="#FFFBCC"/>
<path d="M13.3011 261.086L9.75476 257.536L6.2084 261.086L9.75476 264.636L13.3011 261.086Z" fill="#FFED00"/>
<path d="M47.3678 198.33V173.227H22.291V198.33H47.3678Z" fill="#8DAEB5"/>
<path d="M30.887 189.724C35.2409 194.082 40.5361 195.848 42.7141 193.668C44.8921 191.488 43.128 186.187 38.7741 181.828C34.4201 177.47 29.1249 175.704 26.9469 177.884C24.769 180.065 26.533 185.365 30.887 189.724Z" fill="#FFFBCC"/>
<path d="M26.9464 193.668C29.1243 195.848 34.4195 194.082 38.7735 189.724C43.1275 185.365 44.8915 180.065 42.7135 177.884C40.5355 175.704 35.2404 177.47 30.8864 181.828C26.5324 186.187 24.7684 191.488 26.9464 193.668Z" fill="#FFFBCC"/>
<path d="M37.3375 185.772L34.8302 183.262L32.3229 185.772L34.8302 188.282L37.3375 185.772Z" fill="#1E5F6C"/>
<path d="M22.2924 223.433V198.329H-2.78447V223.433H22.2924Z" fill="#508F86"/>
<path d="M5.81152 214.827C10.1655 219.186 15.4607 220.952 17.6386 218.772C19.8166 216.591 18.0526 211.291 13.6986 206.932C9.34466 202.573 4.04947 200.808 1.87151 202.988C-0.30646 205.168 1.45755 210.469 5.81152 214.827Z" fill="#FFFBCC"/>
<path d="M1.87093 218.772C4.0489 220.952 9.34409 219.186 13.6981 214.827C18.052 210.469 19.816 205.168 17.6381 202.988C15.4601 200.808 10.1649 202.573 5.81095 206.932C1.45697 211.291 -0.307036 216.591 1.87093 218.772Z" fill="#FFFBCC"/>
<path d="M12.2637 210.877L9.75641 208.367L7.24913 210.877L9.75641 213.387L12.2637 210.877Z" fill="#508F86"/>
<path d="M47.3678 173.227V148.124H22.291V173.227H47.3678Z" fill="#508F86"/>
<path d="M32.593 155.107C32.593 157.578 33.5944 159.581 34.8298 159.581C36.0652 159.581 37.0667 157.578 37.0667 155.107C37.0667 152.637 36.0652 150.634 34.8298 150.634C33.5944 150.634 32.593 152.637 32.593 155.107Z" fill="#FFFBCC"/>
<path d="M32.593 166.244C32.593 168.714 33.5944 170.717 34.8298 170.717C36.0652 170.717 37.0667 168.714 37.0667 166.244C37.0667 163.773 36.0652 161.77 34.8298 161.77C33.5944 161.77 32.593 163.773 32.593 166.244Z" fill="#FFFBCC"/>
<path d="M35.9177 160.675C35.9177 161.912 37.9184 162.915 40.3864 162.915C42.8544 162.915 44.8551 161.912 44.8551 160.675C44.8551 159.439 42.8544 158.436 40.3864 158.436C37.9184 158.436 35.9177 159.439 35.9177 160.675Z" fill="#FFFBCC"/>
<path d="M24.799 160.675C24.799 161.912 26.7997 162.915 29.2677 162.915C31.7357 162.915 33.7364 161.912 33.7364 160.675C33.7364 159.439 31.7357 158.436 29.2677 158.436C26.7997 158.436 24.799 159.439 24.799 160.675Z" fill="#FFFBCC"/>
<path d="M38.3782 160.674L34.8318 157.124L31.2855 160.674L34.8318 164.224L38.3782 160.674Z" fill="#1E5F6C"/>
<path d="M22.2924 248.537V223.434H-2.78447V248.537H22.2924Z" fill="#8DAEB5"/>
<path d="M7.51751 230.417C7.51751 232.888 8.51898 234.891 9.75436 234.891C10.9897 234.891 11.9912 232.888 11.9912 230.417C11.9912 227.947 10.9897 225.944 9.75436 225.944C8.51898 225.944 7.51751 227.947 7.51751 230.417Z" fill="#FFED00"/>
<path d="M7.51751 241.554C7.51751 244.024 8.51898 246.027 9.75436 246.027C10.9897 246.027 11.9912 244.024 11.9912 241.554C11.9912 239.083 10.9897 237.08 9.75436 237.08C8.51898 237.08 7.51751 239.083 7.51751 241.554Z" fill="#FFED00"/>
<path d="M10.8423 235.986C10.8423 237.222 12.843 238.225 15.311 238.225C17.779 238.225 19.7797 237.222 19.7797 235.986C19.7797 234.749 17.779 233.747 15.311 233.747C12.843 233.747 10.8423 234.749 10.8423 235.986Z" fill="#FFED00"/>
<path d="M-0.276436 235.986C-0.276436 237.222 1.72427 238.225 4.19226 238.225C6.66025 238.225 8.66095 237.222 8.66095 235.986C8.66095 234.749 6.66025 233.747 4.19226 233.747C1.72427 233.747 -0.276436 234.749 -0.276436 235.986Z" fill="#FFED00"/>
<path d="M13.3028 235.984L9.75641 232.434L6.21004 235.984L9.75641 239.534L13.3028 235.984Z" fill="#508F86"/>
</svg>
