<svg width="119" height="79" viewBox="0 0 119 79" fill="none" xmlns="http://www.w3.org/2000/svg">
<path d="M79.3348 59.25L99.1682 59.25V79H79.3348V59.25Z" fill="#1E5F6C"/>
<path d="M83.1337 63.0343C84.5697 61.6044 86.5292 61.0238 88.3975 61.2884C88.6633 63.1449 88.0762 65.1002 86.6442 66.5301C85.2083 67.96 83.2488 68.5407 81.3805 68.276C81.1147 66.4156 81.6978 64.4603 83.1337 63.0343Z" fill="#FFFBCC"/>
<path d="M83.1369 75.2142C81.199 73.2845 80.4129 70.9386 81.3811 69.9745C82.3492 69.0104 84.7051 69.7932 86.6429 71.7229C88.5808 73.6527 89.3669 75.9986 88.3988 76.9627C87.4306 77.9268 85.0748 77.144 83.1369 75.2142Z" fill="#FFFBCC"/>
<path d="M91.8629 66.5243C89.925 64.5946 89.1389 62.2486 90.107 61.2846C91.0752 60.3205 93.431 61.1033 95.3689 63.033C97.3068 64.9627 98.0929 67.3087 97.1247 68.2728C96.1566 69.2369 93.8007 68.454 91.8629 66.5243Z" fill="#FFFBCC"/>
<path d="M91.8612 71.7243C90.4253 73.1542 89.8422 75.1055 90.1079 76.9659C91.9723 77.2306 93.9358 76.646 95.3717 75.22C96.8076 73.7901 97.3907 71.8388 97.125 69.9784C95.2567 69.7137 93.2932 70.2944 91.8612 71.7243Z" fill="#FFFBCC"/>
<path d="M89.2513 66.33L92.0561 69.123L89.2513 71.9161L86.4464 69.123L89.2513 66.33Z" fill="#508F86"/>
<path d="M39.6675 59.25L59.5009 59.25L59.5009 79H39.6675V59.25Z" fill="#508F86"/>
<path d="M41.5751 67.3257C40.7191 66.4733 41.4141 64.3993 43.1274 62.6931C44.8407 60.987 46.9235 60.2949 47.7795 61.1473C48.6355 61.9997 47.9405 64.0737 46.2272 65.7799C44.5139 67.486 42.431 68.1781 41.5751 67.3257Z" fill="#FFFBCC"/>
<path d="M43.1274 75.5581C41.4141 73.852 40.7191 71.7779 41.5751 70.9255C42.4311 70.0732 44.5139 70.7653 46.2272 72.4714C47.9405 74.1775 48.6355 76.2515 47.7795 77.1039C46.9235 77.9563 44.8407 77.2642 43.1274 75.5581Z" fill="#FFFBCC"/>
<path d="M52.9461 65.779C51.2328 64.0729 50.5378 61.9989 51.3938 61.1465C52.2497 60.2941 54.3326 60.9862 56.0459 62.6923C57.7592 64.3984 58.4542 66.4725 57.5982 67.3248C56.7422 68.1772 54.6594 67.4851 52.9461 65.779Z" fill="#FFFBCC"/>
<path d="M51.3938 77.1035C50.5378 76.2511 51.2328 74.1771 52.9461 72.471C54.6594 70.7649 56.7422 70.0728 57.5982 70.9252C58.4542 71.7775 57.7592 73.8516 56.0459 75.5577C54.3325 77.2638 52.2497 77.9559 51.3938 77.1035Z" fill="#FFFBCC"/>
<path d="M49.585 66.6539L52.0648 69.1233L49.585 71.5927L47.1052 69.1233L49.585 66.6539Z" fill="#FFED00"/>
<path d="M79.9534 40.1121L98.5531 40.1121V58.6336H79.9534V40.1121Z" fill="#FFFBCC"/>
<path d="M89.2507 39.4998C89.2507 44.9547 84.812 49.3748 79.334 49.3748V39.4998H89.2507Z" fill="#FFED00"/>
<path d="M89.2515 39.4998H99.1682V49.3748C93.6902 49.3748 89.2515 44.9547 89.2515 39.4998Z" fill="#FFED00"/>
<path d="M79.334 49.3748C84.812 49.3748 89.2507 53.7948 89.2507 59.2498H79.334V49.3748Z" fill="#FFED00"/>
<path d="M99.1684 49.3748V59.2498H89.2517C89.2517 53.7948 93.6904 49.3748 99.1684 49.3748Z" fill="#FFED00"/>
<path d="M89.252 46.5805L92.0568 49.3735L89.252 52.1666L86.4471 49.3735L89.252 46.5805Z" fill="#1E5F6C"/>
<path d="M60.1185 0.616211L78.7182 0.616211V19.1378L60.1185 19.1378V0.616211Z" fill="#FFED00"/>
<path d="M69.4158 0C69.4158 5.45495 64.9771 9.87501 59.4991 9.87501V0L69.4158 0Z" fill="#8DAEB5"/>
<path d="M69.4169 0L79.3335 0V9.87501C73.8556 9.87501 69.4169 5.45495 69.4169 0Z" fill="#8DAEB5"/>
<path d="M59.4991 9.875C64.9771 9.875 69.4158 14.2951 69.4158 19.75H59.4991V9.875Z" fill="#8DAEB5"/>
<path d="M79.3335 9.875V19.75H69.4169C69.4169 14.2951 73.8556 9.875 79.3335 9.875Z" fill="#8DAEB5"/>
<path d="M69.4171 7.08049L72.2219 9.87354L69.4171 12.6666L66.6123 9.87354L69.4171 7.08049Z" fill="#1E5F6C"/>
<path d="M0.618235 59.8662L19.218 59.8662L19.218 78.3878H0.618235L0.618235 59.8662Z" fill="#FFED00"/>
<path d="M9.91559 59.25C9.91559 64.705 5.47688 69.125 -0.00109482 69.125L-0.00109482 59.25H9.91559Z" fill="#8DAEB5"/>
<path d="M9.91661 59.25H19.8333L19.8333 69.125C14.3553 69.125 9.91661 64.705 9.91661 59.25Z" fill="#8DAEB5"/>
<path d="M-0.00109482 69.125C5.47688 69.125 9.91559 73.5451 9.91559 79H-0.00109482L-0.00109482 69.125Z" fill="#8DAEB5"/>
<path d="M19.8333 69.125L19.8333 79H9.91661C9.91661 73.5451 14.3553 69.125 19.8333 69.125Z" fill="#8DAEB5"/>
<path d="M9.91862 66.33L12.7234 69.123L9.91862 71.9161L7.11378 69.123L9.91862 66.33Z" fill="#508F86"/>
<path d="M99.1667 0L119 0V19.75L99.1667 19.75V0Z" fill="#8DAEB5"/>
<path d="M103.134 3.9502L115.034 3.9502V15.8002L103.134 15.8002V3.9502Z" fill="#FFFBCC"/>
<path d="M109.084 1.49513L117.499 9.87427L109.084 18.2534L100.67 9.87427L109.084 1.49513Z" fill="#FFFBCC"/>
<path d="M104.586 9.87667L109.082 5.39941L113.579 9.87667L109.082 14.3539L104.586 9.87667Z" fill="#1E5F6C"/>
<path d="M105.903 6.71118L112.262 6.71118V13.043L105.903 13.043V6.71118Z" fill="#1E5F6C"/>
<path d="M107.684 8.47656H110.488V11.2692H107.684V8.47656Z" fill="#8DAEB5"/>
<path d="M109.087 7.89958L111.07 9.87427L109.087 11.849L107.104 9.87427L109.087 7.89958Z" fill="#8DAEB5"/>
<path d="M19.8316 59.25L39.665 59.25L39.665 79H19.8316L19.8316 59.25Z" fill="#FFFBCC"/>
<path d="M23.799 63.1997H35.699V75.0497H23.799L23.799 63.1997Z" fill="#1E5F6C"/>
<path d="M29.7511 60.7451L38.1656 69.1243L29.7511 77.5034L21.3366 69.1243L29.7511 60.7451Z" fill="#1E5F6C"/>
<path d="M25.2511 69.1257L29.7473 64.6484L34.2434 69.1257L29.7473 73.6029L25.2511 69.1257Z" fill="#FFF7DB"/>
<path d="M26.5679 65.9612H32.9265V72.293H26.5679V65.9612Z" fill="#FFF7DB"/>
<path d="M28.3486 67.7268H31.153V70.5195H28.3486V67.7268Z" fill="#FFC45A"/>
<path d="M29.7517 67.1496L31.7347 69.1243L29.7517 71.099L27.7687 69.1243L29.7517 67.1496Z" fill="#FFED00"/>
<path d="M59.5002 19.75L79.3335 19.75V39.5H59.5002V19.75Z" fill="#FFFBCC"/>
<path d="M63.4675 23.7L75.3675 23.7V35.55H63.4675V23.7Z" fill="#1E5F6C"/>
<path d="M69.4178 21.2451L77.8324 29.6243L69.4178 38.0034L61.0033 29.6243L69.4178 21.2451Z" fill="#1E5F6C"/>
<path d="M64.9197 29.6262L69.4158 25.1489L73.912 29.6262L69.4158 34.1034L64.9197 29.6262Z" fill="#FFFBCC"/>
<path d="M66.2364 26.4612H72.595V32.793H66.2364V26.4612Z" fill="#FFFBCC"/>
<path d="M68.0171 28.2268H70.8215V31.0195H68.0171V28.2268Z" fill="#FFED00"/>
<path d="M69.4202 27.6496L71.4033 29.6243L69.4202 31.599L67.4372 29.6243L69.4202 27.6496Z" fill="#FFED00"/>
<path d="M39.6649 19.75L59.4983 19.75L59.4983 39.5H39.6649V19.75Z" fill="#FFED00"/>
<path d="M55.5308 35.5503H59.4974V39.4963H55.5308V35.5503Z" fill="#508F86"/>
<path d="M59.4974 33.5752V39.5002H53.5474L59.4974 33.5752Z" fill="#508F86"/>
<path d="M55.531 19.7539H59.4977V23.7H55.531V19.7539Z" fill="#508F86"/>
<path d="M59.4977 25.675V19.75H53.5477L59.4977 25.675Z" fill="#508F86"/>
<path d="M43.6315 39.4966H39.6648V35.5505H43.6315V39.4966Z" fill="#508F86"/>
<path d="M39.6646 33.575V39.5H45.6146L39.6646 33.575Z" fill="#508F86"/>
<path d="M43.6315 23.6997H39.6648V19.7537H43.6315V23.6997Z" fill="#508F86"/>
<path d="M39.6646 25.675V19.75H45.6146L39.6646 25.675Z" fill="#508F86"/>
<path d="M43.6315 29.6208L49.5806 23.6968L55.5296 29.6208L49.5806 35.5449L43.6315 29.6208Z" fill="#1E5F6C"/>
<path d="M45.3773 25.4343L53.7906 25.4343V33.8123H45.3773V25.4343Z" fill="#1E5F6C"/>
<path d="M49.5828 27.01L52.2081 29.6243L49.5828 32.2386L46.9575 29.6243L49.5828 27.01Z" fill="#FFED00"/>
<path d="M59.5018 59.25L79.3351 59.25V79H59.5018V59.25Z" fill="#508F86"/>
<path d="M75.369 75.0498H79.3357V78.9959H75.369V75.0498Z" fill="#FFED00"/>
<path d="M79.3357 73.0747V78.9997H73.3857L79.3357 73.0747Z" fill="#FFED00"/>
<path d="M75.369 59.2539H79.3357V63.2H75.369V59.2539Z" fill="#FFED00"/>
<path d="M79.3357 65.175V59.25H73.3857L79.3357 65.175Z" fill="#FFED00"/>
<path d="M63.4662 78.9963H59.4996V75.0503H63.4662V78.9963Z" fill="#FFED00"/>
<path d="M59.4996 73.0747V78.9997H65.4496L59.4996 73.0747Z" fill="#FFED00"/>
<path d="M63.4662 63.1992H59.4996V59.2532H63.4662V63.1992Z" fill="#FFED00"/>
<path d="M59.4996 65.175V59.25H65.4496L59.4996 65.175Z" fill="#FFED00"/>
<path d="M63.4684 69.1203L69.4174 63.1963L75.3665 69.1203L69.4174 75.0444L63.4684 69.1203Z" fill="#FFED00"/>
<path d="M65.2124 64.9341H73.6257V73.312H65.2124V64.9341Z" fill="#FFED00"/>
<path d="M69.4196 66.511L72.0449 69.1252L69.4196 71.7395L66.7943 69.1252L69.4196 66.511Z" fill="#1E5F6C"/>
<path d="M79.3333 0L99.1667 0V19.75L79.3333 19.75V0Z" fill="#FFED00"/>
<path d="M95.202 15.8003L99.1686 15.8003V19.7463H95.202V15.8003Z" fill="#1E5F6C"/>
<path d="M99.1684 13.8252V19.7502H93.2184L99.1684 13.8252Z" fill="#1E5F6C"/>
<path d="M95.2015 0.00390625L99.1682 0.00390625V3.94995L95.2015 3.94995V0.00390625Z" fill="#1E5F6C"/>
<path d="M99.1682 5.925V0L93.2182 0L99.1682 5.925Z" fill="#1E5F6C"/>
<path d="M83.3008 19.7471H79.3341V15.801L83.3008 15.801V19.7471Z" fill="#1E5F6C"/>
<path d="M79.334 13.8254V19.7504H85.284L79.334 13.8254Z" fill="#1E5F6C"/>
<path d="M83.3008 3.94971L79.3341 3.94971V0.00365901L83.3008 0.00365901V3.94971Z" fill="#1E5F6C"/>
<path d="M79.334 5.92525V0.000244141L85.284 0.000244141L79.334 5.92525Z" fill="#1E5F6C"/>
<path d="M83.3017 9.87132L89.2507 3.94727L95.1998 9.87131L89.2507 15.7954L83.3017 9.87132Z" fill="#CDD9C2"/>
<path d="M85.0457 5.68408L93.459 5.68408V14.062L85.0457 14.062V5.68408Z" fill="#CDD9C2"/>
<path d="M89.2511 7.25998L91.8765 9.87427L89.2511 12.4886L86.6258 9.87426L89.2511 7.25998Z" fill="#FFED00"/>
<path d="M99.1667 39.4998L119 39.4998V59.2498H99.1667V39.4998Z" fill="#8DAEB5"/>
<path d="M115.201 46.7757C113.765 48.2056 111.805 48.7863 109.937 48.5216C109.671 46.6651 110.258 44.7099 111.69 43.28C113.126 41.8501 115.086 41.2694 116.954 41.5341C117.22 43.3945 116.637 45.3498 115.201 46.7757Z" fill="#FFED00"/>
<path d="M102.966 51.974C104.402 50.5441 106.362 49.9635 108.23 50.2281C108.496 52.0846 107.909 54.0399 106.477 55.4698C105.041 56.8997 103.081 57.4803 101.213 57.2157C100.947 55.3552 101.53 53.4 102.966 51.974Z" fill="#FFED00"/>
<path d="M102.966 46.7757C104.402 48.2056 106.362 48.7863 108.23 48.5216C108.496 46.6651 107.909 44.7099 106.477 43.28C105.041 41.8501 103.081 41.2694 101.213 41.5341C100.947 43.3945 101.53 45.3498 102.966 46.7757Z" fill="#FFED00"/>
<path d="M111.695 55.4647C109.757 53.535 108.971 51.1891 109.939 50.225C110.908 49.2609 113.263 50.0437 115.201 51.9734C117.139 53.9032 117.925 56.2491 116.957 57.2132C115.989 58.1773 113.633 57.3945 111.695 55.4647Z" fill="#FFED00"/>
<path d="M109.085 46.5807L111.89 49.3738L109.085 52.1668L106.281 49.3738L109.085 46.5807Z" fill="#FFFBCC"/>
<path d="M19.8311 39.4998L39.6645 39.4998L39.6645 59.2498H19.8311L19.8311 39.4998Z" fill="#1E5F6C"/>
<path d="M30.6061 48.5236C29.6379 47.5595 30.424 45.2135 32.3619 43.2838C34.2998 41.3541 36.6556 40.5713 37.6238 41.5354C38.5919 42.4994 37.8058 44.8454 35.8679 46.7751C33.93 48.7048 31.5742 49.4877 30.6061 48.5236Z" fill="#FFFBCC"/>
<path d="M23.6328 51.974C25.0687 50.5441 27.0282 49.9635 28.8965 50.2281C29.1623 52.0846 28.5752 54.0399 27.1433 55.4698C25.7073 56.8997 23.7478 57.4803 21.8795 57.2157C21.6137 55.3552 22.1968 53.4 23.6328 51.974Z" fill="#FFFBCC"/>
<path d="M23.6328 46.776C25.0687 48.2059 27.0282 48.7865 28.8965 48.5219C29.1623 46.6653 28.5752 44.7101 27.1433 43.2802C25.7073 41.8503 23.7478 41.2696 21.8795 41.5343C21.6137 43.3947 22.1968 45.35 23.6328 46.776Z" fill="#FFFBCC"/>
<path d="M32.3619 55.4655C30.424 53.5357 29.6379 51.1898 30.6061 50.2257C31.5742 49.2616 33.9301 50.0444 35.8679 51.9742C37.8058 53.9039 38.5919 56.2498 37.6238 57.2139C36.6556 58.178 34.2998 57.3952 32.3619 55.4655Z" fill="#FFFBCC"/>
<path d="M29.7503 46.5812L32.5552 49.3743L29.7503 52.1673L26.9455 49.3743L29.7503 46.5812Z" fill="#FFED00"/>
<path d="M79.3348 19.75L99.1682 19.75V39.5H79.3348V19.75Z" fill="#8DAEB5"/>
<path d="M86.1348 32.7301C82.6912 29.301 81.2961 25.1306 83.0186 23.4153C84.7412 21.7 88.9292 23.0892 92.3728 26.5184C95.8163 29.9475 97.2115 34.1178 95.4889 35.8332C93.7664 37.5485 89.5784 36.1592 86.1348 32.7301Z" fill="#FFFBCC"/>
<path d="M83.0186 35.8335C81.2961 34.1182 82.6912 29.9478 86.1348 26.5187C89.5784 23.0896 93.7664 21.7003 95.4889 23.4156C97.2115 25.1309 95.8163 29.3013 92.3728 32.7304C88.9292 36.1595 84.7412 37.5488 83.0186 35.8335Z" fill="#FFFBCC"/>
<path d="M89.2569 27.6496L91.2399 29.6243L89.2569 31.599L87.2739 29.6243L89.2569 27.6496Z" fill="#1E5F6C"/>
<path d="M59.5002 39.4998L79.3335 39.4998V59.2498H59.5002V39.4998Z" fill="#508F86"/>
<path d="M66.2999 52.4796C62.8563 49.0505 61.4612 44.8801 63.1838 43.1648C64.9063 41.4495 69.0943 42.8388 72.5379 46.2679C75.9815 49.697 77.3766 53.8673 75.654 55.5827C73.9315 57.298 69.7435 55.9087 66.2999 52.4796Z" fill="#FFFBCC"/>
<path d="M63.1837 55.583C61.4612 53.8677 62.8563 49.6973 66.2999 46.2682C69.7435 42.8391 73.9315 41.4498 75.654 43.1651C77.3766 44.8805 75.9814 49.0508 72.5379 52.4799C69.0943 55.909 64.9063 57.2983 63.1837 55.583Z" fill="#FFFBCC"/>
<path d="M69.4202 47.3976L71.4033 49.3723L69.4202 51.347L67.4372 49.3723L69.4202 47.3976Z" fill="#508F86"/>
<path d="M99.1667 59.25L119 59.25V79H99.1667V59.25Z" fill="#FFFBCC"/>
<path d="M105.967 72.2298C102.523 68.8007 101.128 64.6304 102.85 62.915C104.573 61.1997 108.761 62.589 112.204 66.0181C115.648 69.4472 117.043 73.6176 115.321 75.3329C113.598 77.0482 109.41 75.6589 105.967 72.2298Z" fill="#508F86"/>
<path d="M102.85 75.333C101.128 73.6177 102.523 69.4473 105.967 66.0182C109.41 62.5891 113.598 61.1998 115.321 62.9151C117.043 64.6305 115.648 68.8008 112.204 72.2299C108.761 75.659 104.573 77.0483 102.85 75.333Z" fill="#508F86"/>
<path d="M109.087 67.1496L111.07 69.1243L109.087 71.099L107.104 69.1243L109.087 67.1496Z" fill="#FFFBCC"/>
<path d="M99.1667 19.75L119 19.75V39.5H99.1667V19.75Z" fill="#508F86"/>
<path d="M113.484 31.3867C111.532 31.3867 109.949 30.5979 109.949 29.625C109.949 28.652 111.532 27.8633 113.484 27.8633C115.436 27.8633 117.018 28.652 117.018 29.625C117.018 30.5979 115.436 31.3867 113.484 31.3867Z" fill="#FFFBCC"/>
<path d="M104.683 31.3867C102.732 31.3867 101.149 30.5979 101.149 29.625C101.149 28.652 102.732 27.8633 104.683 27.8633C106.635 27.8633 108.218 28.652 108.218 29.625C108.218 30.5979 106.635 31.3867 104.683 31.3867Z" fill="#FFFBCC"/>
<path d="M109.083 28.7679C108.106 28.7679 107.314 27.1922 107.314 25.2485C107.314 23.3047 108.106 21.729 109.083 21.729C110.06 21.729 110.852 23.3047 110.852 25.2485C110.852 27.1922 110.06 28.7679 109.083 28.7679Z" fill="#FFFBCC"/>
<path d="M109.083 37.5252C108.106 37.5252 107.314 35.9495 107.314 34.0058C107.314 32.062 108.106 30.4863 109.083 30.4863C110.06 30.4863 110.852 32.062 110.852 34.0058C110.852 35.9495 110.06 37.5252 109.083 37.5252Z" fill="#FFFBCC"/>
<path d="M109.084 26.8305L111.889 29.6235L109.084 32.4166L106.279 29.6235L109.084 26.8305Z" fill="#1E5F6C"/>
<path d="M39.6649 39.4998L59.4983 39.4998L59.4983 59.2498H39.6649V39.4998Z" fill="#8DAEB5"/>
<path d="M53.9801 51.1364C52.0281 51.1364 50.4458 50.3477 50.4458 49.3747C50.4458 48.4018 52.0281 47.613 53.9801 47.613C55.932 47.613 57.5144 48.4018 57.5144 49.3747C57.5144 50.3477 55.932 51.1364 53.9801 51.1364Z" fill="#FFED00"/>
<path d="M45.1834 51.1364C43.2315 51.1364 41.6491 50.3477 41.6491 49.3747C41.6491 48.4018 43.2315 47.613 45.1834 47.613C47.1354 47.613 48.7177 48.4018 48.7177 49.3747C48.7177 50.3477 47.1354 51.1364 45.1834 51.1364Z" fill="#FFED00"/>
<path d="M49.5814 48.5177C48.6043 48.5177 47.8123 46.942 47.8123 44.9982C47.8123 43.0545 48.6043 41.4788 49.5814 41.4788C50.5585 41.4788 51.3505 43.0545 51.3505 44.9982C51.3505 46.942 50.5585 48.5177 49.5814 48.5177Z" fill="#FFED00"/>
<path d="M49.5814 57.275C48.6043 57.275 47.8123 55.6993 47.8123 53.7555C47.8123 51.8118 48.6043 50.2361 49.5814 50.2361C50.5585 50.2361 51.3505 51.8118 51.3505 53.7555C51.3505 55.6993 50.5585 57.275 49.5814 57.275Z" fill="#FFED00"/>
<path d="M49.5836 46.58L52.3885 49.373L49.5836 52.1661L46.7788 49.373L49.5836 46.58Z" fill="#508F86"/>
</svg>
