<svg width="62" height="53" viewBox="0 0 62 53" fill="none" xmlns="http://www.w3.org/2000/svg">
<path d="M34.7488 43.1401V34.5241H37.6601C38.336 34.5241 38.8885 34.6461 39.3177 34.8901C39.7496 35.1313 40.0693 35.458 40.2769 35.8703C40.4844 36.2826 40.5882 36.7426 40.5882 37.2503C40.5882 37.7579 40.4844 38.2193 40.2769 38.6344C40.0721 39.0495 39.7552 39.3804 39.3261 39.6272C38.897 39.8712 38.3472 39.9933 37.6769 39.9933H35.5902V39.0677H37.6433C38.106 39.0677 38.4777 38.9878 38.7581 38.8279C39.0386 38.668 39.2419 38.4521 39.3681 38.18C39.4972 37.9051 39.5617 37.5952 39.5617 37.2503C39.5617 36.9053 39.4972 36.5968 39.3681 36.3247C39.2419 36.0526 39.0372 35.8395 38.7539 35.6852C38.4706 35.5282 38.0948 35.4496 37.6264 35.4496H35.7921V43.1401H34.7488ZM42.7233 43.2579V42.2819H43.2618C43.4693 42.2819 43.6432 42.2412 43.7835 42.1599C43.9265 42.0786 44.0443 41.9734 44.1369 41.8444C44.2322 41.7153 44.3107 41.5807 44.3724 41.4405L44.5071 41.1207L41.5285 34.5241H42.656L45.0288 39.8755L47.1996 34.5241H48.3103L45.3317 41.7434C45.2139 42.0126 45.0792 42.2623 44.9278 42.4922C44.7791 42.7222 44.5758 42.9073 44.3178 43.0476C44.0625 43.1878 43.7161 43.2579 43.2786 43.2579H42.7233ZM56.1901 37.2166H55.1467C55.085 36.9165 54.9771 36.6528 54.8228 36.4257C54.6713 36.1985 54.4862 36.0078 54.2675 35.8535C54.0515 35.6964 53.8117 35.5786 53.5481 35.5001C53.2844 35.4216 53.0095 35.3823 52.7235 35.3823C52.2018 35.3823 51.7292 35.5141 51.3057 35.7778C50.885 36.0414 50.5498 36.4299 50.3002 36.9431C50.0534 37.4564 49.93 38.0861 49.93 38.8321C49.93 39.5782 50.0534 40.2078 50.3002 40.7211C50.5498 41.2343 50.885 41.6228 51.3057 41.8864C51.7292 42.1501 52.2018 42.2819 52.7235 42.2819C53.0095 42.2819 53.2844 42.2426 53.5481 42.1641C53.8117 42.0856 54.0515 41.9692 54.2675 41.8149C54.4862 41.6578 54.6713 41.4657 54.8228 41.2385C54.9771 41.0086 55.085 40.7449 55.1467 40.4476H56.1901C56.1116 40.888 55.9685 41.282 55.761 41.6298C55.5534 41.9776 55.2954 42.2735 54.9869 42.5175C54.6783 42.7587 54.332 42.9424 53.9477 43.0686C53.5663 43.1948 53.1582 43.2579 52.7235 43.2579C51.9886 43.2579 51.3351 43.0784 50.763 42.7194C50.1908 42.3604 49.7407 41.85 49.4125 41.1881C49.0844 40.5261 48.9203 39.7408 48.9203 38.8321C48.9203 37.9234 49.0844 37.1381 49.4125 36.4762C49.7407 35.8142 50.1908 35.3038 50.763 34.9448C51.3351 34.5858 51.9886 34.4063 52.7235 34.4063C53.1582 34.4063 53.5663 34.4694 53.9477 34.5956C54.332 34.7218 54.6783 34.9069 54.9869 35.1509C55.2954 35.3921 55.5534 35.6866 55.761 36.0344C55.9685 36.3794 56.1116 36.7734 56.1901 37.2166Z" fill="#FFED00"/>
<path d="M5.88964 10.6909H6.8589V17.0944H6.93835L11.3874 10.6909H12.3408V18.8264H11.3557V12.4388H11.2762L6.84301 18.8264H5.88964V10.6909ZM20.8586 13.2333H19.8735C19.8152 12.9499 19.7133 12.701 19.5676 12.4865C19.4246 12.2719 19.2498 12.0919 19.0433 11.9462C18.8393 11.7979 18.6129 11.6867 18.364 11.6125C18.115 11.5384 17.8555 11.5013 17.5854 11.5013C17.0928 11.5013 16.6466 11.6258 16.2467 11.8747C15.8494 12.1236 15.533 12.4904 15.2973 12.9751C15.0642 13.4597 14.9477 14.0542 14.9477 14.7587C14.9477 15.4631 15.0642 16.0577 15.2973 16.5423C15.533 17.0269 15.8494 17.3937 16.2467 17.6426C16.6466 17.8916 17.0928 18.016 17.5854 18.016C17.8555 18.016 18.115 17.979 18.364 17.9048C18.6129 17.8307 18.8393 17.7208 19.0433 17.5751C19.2498 17.4268 19.4246 17.2454 19.5676 17.0309C19.7133 16.8137 19.8152 16.5648 19.8735 16.2841H20.8586C20.7845 16.6999 20.6494 17.0719 20.4535 17.4003C20.2575 17.7287 20.0139 18.0081 19.7225 18.2385C19.4312 18.4663 19.1042 18.6397 18.7414 18.7589C18.3812 18.8781 17.9959 18.9376 17.5854 18.9376C16.8915 18.9376 16.2745 18.7682 15.7342 18.4292C15.194 18.0902 14.769 17.6082 14.4591 16.9832C14.1493 16.3582 13.9943 15.6167 13.9943 14.7587C13.9943 13.9006 14.1493 13.1591 14.4591 12.5341C14.769 11.9091 15.194 11.4272 15.7342 11.0882C16.2745 10.7492 16.8915 10.5797 17.5854 10.5797C17.9959 10.5797 18.3812 10.6393 18.7414 10.7585C19.1042 10.8776 19.4312 11.0524 19.7225 11.2828C20.0139 11.5106 20.2575 11.7886 20.4535 12.117C20.6494 12.4428 20.7845 12.8148 20.8586 13.2333ZM28.5363 10.6909V18.8264H27.5512V11.5649H23.4516V18.8264H22.4665V10.6909H28.5363Z" fill="#FFED00"/>
<path fill-rule="evenodd" clip-rule="evenodd" d="M2.20999 0.171331C1.55114 0.399268 1.01079 0.798444 0.603527 1.35797C-0.0440784 2.24785 -0.0182534 1.64831 0.0125701 15.1219L0.0406861 27.3972L0.316639 27.9155C0.64518 28.5325 1.24874 29.1572 1.77628 29.4264C2.53207 29.8121 3.30808 29.8403 17.0295 29.8103C25.4779 29.7823 25.7997 29.7742 26.011 29.5838C26.2672 29.3531 26.3026 28.8311 26.0824 28.5313C25.9386 28.3355 25.69 28.3288 16.7365 28.2783C3.74835 28.2316 2.82188 28.2098 2.53989 28.0549C2.13512 27.8327 1.80096 27.4714 1.66173 27.1054C1.5854 26.9049 1.55062 23.0782 1.55062 14.8702V2.92679L1.78492 2.46428C1.95611 2.12637 2.14439 1.93896 2.48386 1.76855L2.9485 1.53533H19.6331C27.879 1.53533 31.7232 1.56995 31.9247 1.64593C32.2924 1.78451 32.6553 2.11714 32.8786 2.52005C33.0342 2.80075 33.056 3.72296 33.103 11.987C33.1537 20.8993 33.1605 21.1468 33.3572 21.29C33.6584 21.5091 34.1828 21.4739 34.4146 21.2189C34.6059 21.0086 34.614 20.6883 34.6421 12.2786C34.6617 6.42452 34.6344 3.3183 34.5592 2.83184C34.3815 1.68335 33.7887 0.857112 32.7519 0.312717L32.2179 0.03233L19.826 0.00869665C3.45074 -0.0134855 2.71764 -0.00436388 2.20999 0.171331ZM38.3901 8.03967C36.6777 9.3223 36.4841 9.49841 36.4548 9.79953C36.437 9.98362 36.461 10.2027 36.5081 10.2865C36.6804 10.5931 40.2165 13.1447 40.469 13.1447C41.0573 13.1447 41.4416 12.6217 41.2255 12.115C41.1631 11.9687 40.7591 11.5924 40.3277 11.2789L39.5432 10.7088L41.059 10.6801C42.1468 10.6596 42.771 10.6967 43.2691 10.8117C45.1731 11.2512 46.6583 12.7203 47.1048 14.6055C47.225 15.1132 47.2624 15.9472 47.2636 18.146C47.265 20.8831 47.2752 21.0325 47.4734 21.2298C47.7878 21.5427 48.3408 21.5062 48.6191 21.1541C48.8387 20.8762 48.8419 20.8155 48.8042 17.7076C48.7663 14.5854 48.7621 14.5329 48.4807 13.6925C47.8029 11.668 46.2296 10.1077 44.2013 9.44845C43.4658 9.20932 43.1251 9.16713 41.4893 9.11261L39.6184 9.05031L40.3787 8.48985C41.2135 7.87424 41.4052 7.56483 41.2231 7.1271C41.1102 6.85583 40.7423 6.61442 40.4418 6.61442C40.3598 6.61442 39.4366 7.25584 38.3901 8.03967ZM30.805 23.3027C30.1799 23.4094 29.3839 23.8213 28.9693 24.2524C28.7863 24.4428 28.5051 24.8784 28.3445 25.2205L28.0525 25.8424L28.0231 37.6591C27.9926 49.8404 28.0113 50.5001 28.4091 51.2724C28.6795 51.7975 29.3071 52.3983 29.9269 52.7253L30.4476 53H42.9957H59.6049L60.0862 52.7785C60.7772 52.4605 61.3772 51.8784 61.7105 51.2027L62 50.6159V38.1255V25.6351L61.724 25.1168C61.3963 24.5014 60.7923 23.8753 60.2684 23.6079C59.6253 23.2797 54.6172 23.2008 51.3158 23.2C48.0311 23.1992 47.5658 23.2484 47.3671 23.6179C47.2215 23.8886 47.2412 24.2671 47.4128 24.501C47.553 24.692 47.7513 24.7048 51.3438 24.754C54.6035 24.7987 59.2316 24.8296 59.5008 24.9774C59.9056 25.1996 60.2397 25.5609 60.379 25.9269C60.4553 26.1275 60.4901 29.9541 60.4901 38.1621V50.1055L60.2558 50.5681C60.0846 50.906 59.8963 51.0934 59.5568 51.2638L59.0922 51.497H43.0324C34.7865 51.497 30.9422 51.4624 30.7407 51.3864C30.373 51.2478 30.0101 50.9152 29.7869 50.5123C29.63 50.2291 29.6117 49.1636 29.5831 38.592C29.5657 32.2068 29.5805 26.7401 29.6159 26.4436C29.6921 25.8055 29.9982 25.3122 30.5 25.0188C30.8563 24.8104 31.0168 24.8052 37.9663 24.7765L45.0687 24.7472L45.2817 24.4775C45.5601 24.1254 45.5507 23.8973 45.2436 23.5419L44.9923 23.251L38.1365 23.2362C34.3658 23.2281 31.0666 23.258 30.805 23.3027ZM14.0464 31.8782C13.8268 32.1561 13.8236 32.2169 13.8613 35.3248C13.8991 38.4342 13.9045 38.5026 14.1803 39.3256C14.4772 40.2118 15.0262 41.1444 15.6655 41.8487C16.2606 42.5044 17.4867 43.2665 18.4499 43.5794C19.2017 43.8237 19.5318 43.8649 21.1762 43.9197L23.0471 43.982L22.2868 44.5425C21.4493 45.16 21.26 45.4671 21.4443 45.9098C21.5932 46.2676 22.0874 46.4888 22.408 46.3413C22.6842 46.2142 25.5385 44.1152 25.9438 43.741C26.2306 43.4764 26.3255 42.9961 26.1463 42.7154C25.9495 42.407 22.4305 39.8877 22.1965 39.8877C21.6082 39.8877 21.2239 40.4106 21.44 40.9174C21.5023 41.0636 21.9064 41.4399 22.3378 41.7534L23.1222 42.3235L21.6065 42.3523C20.5187 42.3728 19.8945 42.3357 19.3964 42.2206C17.4924 41.7811 16.0071 40.312 15.5607 38.4268C15.4404 37.9191 15.4031 37.0851 15.4019 34.8863C15.4005 32.1492 15.3902 31.9998 15.1921 31.8026C14.8777 31.4896 14.3247 31.5261 14.0464 31.8782Z" fill="#FFED00"/>
</svg>
